G04 (created by PCBNEW (2013-mar-13)-testing) date Wed 17 Apr 2013 01:49:40 PM EDT*
%MOIN*%
G04 Gerber Fmt 3.4, Leading zero omitted, Abs format*
%FSLAX34Y34*%
G01*
G70*
G90*
G04 APERTURE LIST*
%ADD10C,0.006*%
%ADD11C,0.00393701*%
%ADD12C,0.06*%
%ADD13C,0.125*%
G04 APERTURE END LIST*
G54D10*
G54D11*
X57370Y-57370D02*
X39370Y-57370D01*
X57370Y-39370D02*
X57370Y-57370D01*
X39370Y-39370D02*
X39370Y-57370D01*
X39370Y-39370D02*
X57370Y-39370D01*
G54D12*
X54370Y-40370D03*
X54370Y-41370D03*
X53370Y-40370D03*
X53370Y-41370D03*
X52370Y-40370D03*
X52370Y-41370D03*
X51370Y-40370D03*
X51370Y-41370D03*
X50370Y-40370D03*
X50370Y-41370D03*
X49370Y-40370D03*
X49370Y-41370D03*
X48370Y-40370D03*
X48370Y-41370D03*
X47370Y-40370D03*
X47370Y-41370D03*
X46370Y-40370D03*
X46370Y-41370D03*
X45370Y-40370D03*
X45370Y-41370D03*
X44370Y-40370D03*
X44370Y-41370D03*
X43370Y-40370D03*
X43370Y-41370D03*
X42370Y-40370D03*
X56370Y-54370D03*
X55370Y-54370D03*
X56370Y-53370D03*
X55370Y-53370D03*
X56370Y-52370D03*
X55370Y-52370D03*
X56370Y-51370D03*
X55370Y-51370D03*
X56370Y-50370D03*
X55370Y-50370D03*
X56370Y-49370D03*
X55370Y-49370D03*
X56370Y-48370D03*
X55370Y-48370D03*
X56370Y-47370D03*
X55370Y-47370D03*
X56370Y-46370D03*
X55370Y-46370D03*
X56370Y-45370D03*
X55370Y-45370D03*
X56370Y-44370D03*
X55370Y-44370D03*
X56370Y-43370D03*
X55370Y-43370D03*
X56370Y-42370D03*
X42370Y-56370D03*
X42370Y-55370D03*
X43370Y-56370D03*
X43370Y-55370D03*
X44370Y-56370D03*
X44370Y-55370D03*
X45370Y-56370D03*
X45370Y-55370D03*
X46370Y-56370D03*
X46370Y-55370D03*
X47370Y-56370D03*
X47370Y-55370D03*
X48370Y-56370D03*
X48370Y-55370D03*
X49370Y-56370D03*
X49370Y-55370D03*
X50370Y-56370D03*
X50370Y-55370D03*
X51370Y-56370D03*
X51370Y-55370D03*
X52370Y-56370D03*
X52370Y-55370D03*
X53370Y-56370D03*
X53370Y-55370D03*
X54370Y-56370D03*
X40370Y-42370D03*
X41370Y-42370D03*
X40370Y-43370D03*
X41370Y-43370D03*
X40370Y-44370D03*
X41370Y-44370D03*
X40370Y-45370D03*
X41370Y-45370D03*
X40370Y-46370D03*
X41370Y-46370D03*
X40370Y-47370D03*
X41370Y-47370D03*
X40370Y-48370D03*
X41370Y-48370D03*
X40370Y-49370D03*
X41370Y-49370D03*
X40370Y-50370D03*
X41370Y-50370D03*
X40370Y-51370D03*
X41370Y-51370D03*
X40370Y-52370D03*
X41370Y-52370D03*
X40370Y-53370D03*
X41370Y-53370D03*
X40370Y-54370D03*
G54D13*
X56370Y-56370D03*
X56370Y-40370D03*
X40370Y-40370D03*
X40370Y-56370D03*
M02*
