M48
;DRILL file {Pcbnew (2013-mar-13)-testing} date Wed 17 Apr 2013 01:50:00 PM EDT
;FORMAT={-:-/ absolute / inch / decimal}
FMAT,2
INCH,TZ
T1C0.040
T2C0.125
%
G90
G05
M72
T1
X4.037Y-4.237
X4.037Y-4.337
X4.037Y-4.437
X4.037Y-4.537
X4.037Y-4.637
X4.037Y-4.737
X4.037Y-4.837
X4.037Y-4.937
X4.037Y-5.037
X4.037Y-5.137
X4.037Y-5.237
X4.037Y-5.337
X4.037Y-5.437
X4.137Y-4.237
X4.137Y-4.337
X4.137Y-4.437
X4.137Y-4.537
X4.137Y-4.637
X4.137Y-4.737
X4.137Y-4.837
X4.137Y-4.937
X4.137Y-5.037
X4.137Y-5.137
X4.137Y-5.237
X4.137Y-5.337
X4.237Y-4.037
X4.237Y-5.537
X4.237Y-5.637
X4.337Y-4.037
X4.337Y-4.137
X4.337Y-5.537
X4.337Y-5.637
X4.437Y-4.037
X4.437Y-4.137
X4.437Y-5.537
X4.437Y-5.637
X4.537Y-4.037
X4.537Y-4.137
X4.537Y-5.537
X4.537Y-5.637
X4.637Y-4.037
X4.637Y-4.137
X4.637Y-5.537
X4.637Y-5.637
X4.737Y-4.037
X4.737Y-4.137
X4.737Y-5.537
X4.737Y-5.637
X4.837Y-4.037
X4.837Y-4.137
X4.837Y-5.537
X4.837Y-5.637
X4.937Y-4.037
X4.937Y-4.137
X4.937Y-5.537
X4.937Y-5.637
X5.037Y-4.037
X5.037Y-4.137
X5.037Y-5.537
X5.037Y-5.637
X5.137Y-4.037
X5.137Y-4.137
X5.137Y-5.537
X5.137Y-5.637
X5.237Y-4.037
X5.237Y-4.137
X5.237Y-5.537
X5.237Y-5.637
X5.337Y-4.037
X5.337Y-4.137
X5.337Y-5.537
X5.337Y-5.637
X5.437Y-4.037
X5.437Y-4.137
X5.437Y-5.637
X5.537Y-4.337
X5.537Y-4.437
X5.537Y-4.537
X5.537Y-4.637
X5.537Y-4.737
X5.537Y-4.837
X5.537Y-4.937
X5.537Y-5.037
X5.537Y-5.137
X5.537Y-5.237
X5.537Y-5.337
X5.537Y-5.437
X5.637Y-4.237
X5.637Y-4.337
X5.637Y-4.437
X5.637Y-4.537
X5.637Y-4.637
X5.637Y-4.737
X5.637Y-4.837
X5.637Y-4.937
X5.637Y-5.037
X5.637Y-5.137
X5.637Y-5.237
X5.637Y-5.337
X5.637Y-5.437
T2
X4.037Y-4.037
X4.037Y-5.637
X5.637Y-4.037
X5.637Y-5.637
T0
M30
