G04 (created by PCBNEW (2013-mar-13)-testing) date Wed 17 Apr 2013 01:49:40 PM EDT*
%MOIN*%
G04 Gerber Fmt 3.4, Leading zero omitted, Abs format*
%FSLAX34Y34*%
G01*
G70*
G90*
G04 APERTURE LIST*
%ADD10C,0.006*%
%ADD11C,0.00393701*%
%ADD12C,0.06*%
%ADD13R,0.0590551X0.0110236*%
%ADD14R,0.11811X0.0110236*%
%ADD15R,0.15748X0.0110236*%
%ADD16R,0.19685X0.0110236*%
%ADD17R,0.23622X0.0110236*%
%ADD18R,0.275591X0.0110236*%
%ADD19R,0.314961X0.0110236*%
%ADD20R,0.354331X0.0110236*%
%ADD21R,0.393701X0.0110236*%
%ADD22R,0.433071X0.0110236*%
%ADD23R,0.472441X0.0110236*%
%ADD24R,0.511811X0.0110236*%
%ADD25R,0.0110236X0.0590551*%
%ADD26R,0.0110236X0.511811*%
%ADD27R,0.0110236X0.472441*%
%ADD28R,0.0110236X0.433071*%
%ADD29R,0.0110236X0.393701*%
%ADD30R,0.0110236X0.354331*%
%ADD31R,0.0110236X0.314961*%
%ADD32R,0.0110236X0.275591*%
%ADD33R,0.0110236X0.23622*%
%ADD34R,0.0110236X0.19685*%
%ADD35R,0.0110236X0.15748*%
%ADD36R,0.0110236X0.11811*%
%ADD37C,0.125*%
G04 APERTURE END LIST*
G54D10*
G54D11*
X57370Y-57370D02*
X39370Y-57370D01*
X57370Y-39370D02*
X57370Y-57370D01*
X39370Y-39370D02*
X39370Y-57370D01*
X39370Y-39370D02*
X57370Y-39370D01*
G54D12*
X54370Y-40370D03*
X54370Y-41370D03*
X53370Y-40370D03*
X53370Y-41370D03*
X52370Y-40370D03*
X52370Y-41370D03*
X51370Y-40370D03*
X51370Y-41370D03*
X50370Y-40370D03*
X50370Y-41370D03*
X49370Y-40370D03*
X49370Y-41370D03*
X48370Y-40370D03*
X48370Y-41370D03*
X47370Y-40370D03*
X47370Y-41370D03*
X46370Y-40370D03*
X46370Y-41370D03*
X45370Y-40370D03*
X45370Y-41370D03*
X44370Y-40370D03*
X44370Y-41370D03*
X43370Y-40370D03*
X43370Y-41370D03*
X42370Y-40370D03*
X56370Y-54370D03*
X55370Y-54370D03*
X56370Y-53370D03*
X55370Y-53370D03*
X56370Y-52370D03*
X55370Y-52370D03*
X56370Y-51370D03*
X55370Y-51370D03*
X56370Y-50370D03*
X55370Y-50370D03*
X56370Y-49370D03*
X55370Y-49370D03*
X56370Y-48370D03*
X55370Y-48370D03*
X56370Y-47370D03*
X55370Y-47370D03*
X56370Y-46370D03*
X55370Y-46370D03*
X56370Y-45370D03*
X55370Y-45370D03*
X56370Y-44370D03*
X55370Y-44370D03*
X56370Y-43370D03*
X55370Y-43370D03*
X56370Y-42370D03*
X42370Y-56370D03*
X42370Y-55370D03*
X43370Y-56370D03*
X43370Y-55370D03*
X44370Y-56370D03*
X44370Y-55370D03*
X45370Y-56370D03*
X45370Y-55370D03*
X46370Y-56370D03*
X46370Y-55370D03*
X47370Y-56370D03*
X47370Y-55370D03*
X48370Y-56370D03*
X48370Y-55370D03*
X49370Y-56370D03*
X49370Y-55370D03*
X50370Y-56370D03*
X50370Y-55370D03*
X51370Y-56370D03*
X51370Y-55370D03*
X52370Y-56370D03*
X52370Y-55370D03*
X53370Y-56370D03*
X53370Y-55370D03*
X54370Y-56370D03*
X40370Y-42370D03*
X41370Y-42370D03*
X40370Y-43370D03*
X41370Y-43370D03*
X40370Y-44370D03*
X41370Y-44370D03*
X40370Y-45370D03*
X41370Y-45370D03*
X40370Y-46370D03*
X41370Y-46370D03*
X40370Y-47370D03*
X41370Y-47370D03*
X40370Y-48370D03*
X41370Y-48370D03*
X40370Y-49370D03*
X41370Y-49370D03*
X40370Y-50370D03*
X41370Y-50370D03*
X40370Y-51370D03*
X41370Y-51370D03*
X40370Y-52370D03*
X41370Y-52370D03*
X40370Y-53370D03*
X41370Y-53370D03*
X40370Y-54370D03*
G54D13*
X45259Y-46106D03*
X45259Y-46303D03*
G54D14*
X45555Y-46500D03*
X45555Y-46696D03*
G54D15*
X45751Y-46893D03*
X45751Y-47090D03*
G54D16*
X45948Y-47287D03*
X45948Y-47484D03*
G54D17*
X46145Y-47681D03*
X46145Y-47877D03*
G54D18*
X46342Y-48074D03*
X46342Y-48271D03*
G54D19*
X46539Y-48468D03*
X46539Y-48665D03*
G54D20*
X46736Y-48862D03*
X46736Y-49059D03*
G54D21*
X46933Y-49255D03*
X46933Y-49452D03*
G54D22*
X47129Y-49649D03*
X47129Y-49846D03*
G54D23*
X47326Y-50043D03*
X47326Y-50240D03*
G54D24*
X47523Y-50437D03*
X47523Y-50633D03*
X47523Y-50830D03*
G54D25*
X46106Y-51480D03*
X46303Y-51480D03*
X46500Y-51480D03*
X46696Y-51480D03*
X46893Y-51480D03*
X47090Y-51480D03*
X47287Y-51480D03*
X47484Y-51480D03*
X47681Y-51480D03*
X47877Y-51480D03*
X48074Y-51480D03*
X48271Y-51480D03*
X48468Y-51480D03*
X48665Y-51480D03*
X48862Y-51480D03*
X49059Y-51480D03*
X49255Y-51480D03*
X49452Y-51480D03*
X49649Y-51480D03*
X49846Y-51480D03*
X50043Y-51480D03*
X50240Y-51480D03*
X50437Y-51480D03*
X50633Y-51480D03*
G54D13*
X51480Y-50633D03*
X51480Y-50437D03*
X51480Y-50240D03*
X51480Y-50043D03*
X51480Y-49846D03*
X51480Y-49649D03*
X51480Y-49452D03*
X51480Y-49255D03*
X51480Y-49059D03*
X51480Y-48862D03*
X51480Y-48665D03*
X51480Y-48468D03*
X51480Y-48271D03*
X51480Y-48074D03*
X51480Y-47877D03*
X51480Y-47681D03*
X51480Y-47484D03*
X51480Y-47287D03*
X51480Y-47090D03*
X51480Y-46893D03*
X51480Y-46696D03*
X51480Y-46500D03*
X51480Y-46303D03*
X51480Y-46106D03*
G54D26*
X50830Y-47523D03*
X50633Y-47523D03*
X50437Y-47523D03*
G54D27*
X50240Y-47326D03*
X50043Y-47326D03*
G54D28*
X49846Y-47129D03*
X49649Y-47129D03*
G54D29*
X49452Y-46933D03*
X49255Y-46933D03*
G54D30*
X49059Y-46736D03*
X48862Y-46736D03*
G54D31*
X48665Y-46539D03*
X48468Y-46539D03*
G54D32*
X48271Y-46342D03*
X48074Y-46342D03*
G54D33*
X47877Y-46145D03*
X47681Y-46145D03*
G54D34*
X47484Y-45948D03*
X47287Y-45948D03*
G54D35*
X47090Y-45751D03*
X46893Y-45751D03*
G54D36*
X46696Y-45555D03*
X46500Y-45555D03*
G54D25*
X46303Y-45259D03*
X46106Y-45259D03*
X50830Y-51480D03*
G54D13*
X51480Y-50830D03*
G54D37*
X56370Y-56370D03*
X56370Y-40370D03*
X40370Y-40370D03*
X40370Y-56370D03*
M02*
