G04 (created by PCBNEW (2013-mar-13)-testing) date Wed 17 Apr 2013 01:59:25 PM EDT*
%MOIN*%
G04 Gerber Fmt 3.4, Leading zero omitted, Abs format*
%FSLAX34Y34*%
G01*
G70*
G90*
G04 APERTURE LIST*
%ADD10C,0.006*%
%ADD11C,0.00393701*%
%ADD12R,0.063X0.0551*%
%ADD13R,0.0709X0.0748*%
%ADD14R,0.0748X0.0748*%
%ADD15R,0.0157X0.0531*%
%ADD16R,0.0118X0.0217*%
%ADD17R,0.055X0.035*%
%ADD18R,0.035X0.055*%
%ADD19C,0.125*%
%ADD20R,0.0598425X0.0401575*%
%ADD21C,0.056*%
%ADD22R,0.045X0.025*%
%ADD23R,0.06X0.06*%
%ADD24C,0.06*%
%ADD25C,0.019685*%
%ADD26C,0.01*%
%ADD27C,0.008*%
G04 APERTURE END LIST*
G54D10*
G54D11*
X39370Y-39370D02*
X39370Y-57455D01*
X39370Y-57455D02*
X53385Y-57455D01*
X53385Y-39370D02*
X53385Y-57455D01*
X39370Y-39370D02*
X53385Y-39370D01*
G54D12*
X45110Y-41495D03*
G54D13*
X44795Y-40570D03*
X47945Y-40570D03*
G54D14*
X45898Y-40570D03*
X46842Y-40570D03*
G54D12*
X47630Y-41495D03*
G54D15*
X46882Y-41623D03*
X46626Y-41623D03*
X46370Y-41623D03*
X46114Y-41623D03*
X45858Y-41623D03*
G54D16*
X42378Y-54101D03*
X42181Y-54101D03*
X41984Y-54101D03*
X41984Y-53535D03*
X42181Y-53535D03*
X42378Y-53535D03*
G54D10*
G36*
X48915Y-51370D02*
X48526Y-50981D01*
X48774Y-50734D01*
X49163Y-51123D01*
X48915Y-51370D01*
X48915Y-51370D01*
G37*
G36*
X49446Y-50840D02*
X49057Y-50451D01*
X49304Y-50204D01*
X49693Y-50592D01*
X49446Y-50840D01*
X49446Y-50840D01*
G37*
G54D17*
X50566Y-52892D03*
X50566Y-53642D03*
G54D10*
G36*
X44619Y-51424D02*
X45008Y-51813D01*
X44761Y-52060D01*
X44372Y-51671D01*
X44619Y-51424D01*
X44619Y-51424D01*
G37*
G36*
X44089Y-51954D02*
X44478Y-52343D01*
X44230Y-52591D01*
X43841Y-52202D01*
X44089Y-51954D01*
X44089Y-51954D01*
G37*
G36*
X44068Y-50873D02*
X44457Y-51262D01*
X44209Y-51509D01*
X43820Y-51120D01*
X44068Y-50873D01*
X44068Y-50873D01*
G37*
G36*
X43538Y-51403D02*
X43927Y-51792D01*
X43679Y-52040D01*
X43290Y-51651D01*
X43538Y-51403D01*
X43538Y-51403D01*
G37*
G36*
X49471Y-50041D02*
X49860Y-49652D01*
X50108Y-49900D01*
X49719Y-50289D01*
X49471Y-50041D01*
X49471Y-50041D01*
G37*
G36*
X50002Y-50572D02*
X50390Y-50183D01*
X50638Y-50430D01*
X50249Y-50819D01*
X50002Y-50572D01*
X50002Y-50572D01*
G37*
G54D17*
X46984Y-46241D03*
X46984Y-45491D03*
X46196Y-46241D03*
X46196Y-45491D03*
G54D10*
G36*
X47975Y-51537D02*
X48364Y-51148D01*
X48612Y-51396D01*
X48223Y-51785D01*
X47975Y-51537D01*
X47975Y-51537D01*
G37*
G36*
X48506Y-52068D02*
X48894Y-51679D01*
X49142Y-51926D01*
X48753Y-52315D01*
X48506Y-52068D01*
X48506Y-52068D01*
G37*
G54D17*
X47417Y-43288D03*
X47417Y-42538D03*
X45842Y-43288D03*
X45842Y-42538D03*
X43047Y-55611D03*
X43047Y-54861D03*
X42259Y-55611D03*
X42259Y-54861D03*
X43086Y-54193D03*
X43086Y-53443D03*
G54D18*
X42121Y-52677D03*
X42871Y-52677D03*
G54D17*
X42377Y-42853D03*
X42377Y-43603D03*
X43480Y-42853D03*
X43480Y-43603D03*
G54D10*
G36*
X43364Y-50110D02*
X42975Y-49722D01*
X43223Y-49474D01*
X43612Y-49863D01*
X43364Y-50110D01*
X43364Y-50110D01*
G37*
G36*
X43894Y-49580D02*
X43506Y-49191D01*
X43753Y-48944D01*
X44142Y-49333D01*
X43894Y-49580D01*
X43894Y-49580D01*
G37*
G54D18*
X48973Y-44015D03*
X48223Y-44015D03*
G54D10*
G36*
X43845Y-46518D02*
X44234Y-46129D01*
X44482Y-46376D01*
X44093Y-46765D01*
X43845Y-46518D01*
X43845Y-46518D01*
G37*
G36*
X44376Y-47048D02*
X44765Y-46659D01*
X45012Y-46907D01*
X44623Y-47295D01*
X44376Y-47048D01*
X44376Y-47048D01*
G37*
G36*
X49466Y-51921D02*
X49078Y-51533D01*
X49325Y-51285D01*
X49714Y-51674D01*
X49466Y-51921D01*
X49466Y-51921D01*
G37*
G36*
X49997Y-51391D02*
X49608Y-51002D01*
X49855Y-50755D01*
X50244Y-51144D01*
X49997Y-51391D01*
X49997Y-51391D01*
G37*
G36*
X43517Y-50322D02*
X43906Y-50711D01*
X43658Y-50958D01*
X43269Y-50569D01*
X43517Y-50322D01*
X43517Y-50322D01*
G37*
G36*
X42986Y-50852D02*
X43375Y-51241D01*
X43128Y-51488D01*
X42739Y-51099D01*
X42986Y-50852D01*
X42986Y-50852D01*
G37*
G36*
X43202Y-48393D02*
X43591Y-48781D01*
X43343Y-49029D01*
X42954Y-48640D01*
X43202Y-48393D01*
X43202Y-48393D01*
G37*
G36*
X42671Y-48923D02*
X43060Y-49312D01*
X42813Y-49559D01*
X42424Y-49170D01*
X42671Y-48923D01*
X42671Y-48923D01*
G37*
G54D17*
X49385Y-55611D03*
X49385Y-54861D03*
X43874Y-55611D03*
X43874Y-54861D03*
X43874Y-54193D03*
X43874Y-53443D03*
X48204Y-42538D03*
X48204Y-43288D03*
G54D10*
G36*
X44786Y-52364D02*
X45175Y-51975D01*
X45423Y-52223D01*
X45034Y-52612D01*
X44786Y-52364D01*
X44786Y-52364D01*
G37*
G36*
X45317Y-52894D02*
X45705Y-52506D01*
X45953Y-52753D01*
X45564Y-53142D01*
X45317Y-52894D01*
X45317Y-52894D01*
G37*
G36*
X47769Y-51700D02*
X48158Y-52089D01*
X47910Y-52336D01*
X47521Y-51947D01*
X47769Y-51700D01*
X47769Y-51700D01*
G37*
G36*
X47238Y-52230D02*
X47627Y-52619D01*
X47380Y-52866D01*
X46991Y-52477D01*
X47238Y-52230D01*
X47238Y-52230D01*
G37*
G36*
X48320Y-52251D02*
X48709Y-52640D01*
X48461Y-52887D01*
X48072Y-52498D01*
X48320Y-52251D01*
X48320Y-52251D01*
G37*
G36*
X47790Y-52781D02*
X48179Y-53170D01*
X47931Y-53418D01*
X47542Y-53029D01*
X47790Y-52781D01*
X47790Y-52781D01*
G37*
G36*
X44235Y-52915D02*
X44624Y-52526D01*
X44871Y-52774D01*
X44483Y-53163D01*
X44235Y-52915D01*
X44235Y-52915D01*
G37*
G36*
X44765Y-53446D02*
X45154Y-53057D01*
X45402Y-53304D01*
X45013Y-53693D01*
X44765Y-53446D01*
X44765Y-53446D01*
G37*
G36*
X47133Y-51433D02*
X46799Y-51099D01*
X46882Y-51015D01*
X47216Y-51349D01*
X47133Y-51433D01*
X47133Y-51433D01*
G37*
G36*
X47272Y-51293D02*
X46938Y-50959D01*
X47022Y-50876D01*
X47356Y-51210D01*
X47272Y-51293D01*
X47272Y-51293D01*
G37*
G36*
X47411Y-51154D02*
X47077Y-50820D01*
X47161Y-50737D01*
X47495Y-51071D01*
X47411Y-51154D01*
X47411Y-51154D01*
G37*
G36*
X47550Y-51015D02*
X47216Y-50681D01*
X47300Y-50597D01*
X47634Y-50932D01*
X47550Y-51015D01*
X47550Y-51015D01*
G37*
G36*
X47690Y-50876D02*
X47356Y-50542D01*
X47439Y-50458D01*
X47773Y-50792D01*
X47690Y-50876D01*
X47690Y-50876D01*
G37*
G36*
X47829Y-50737D02*
X47495Y-50403D01*
X47578Y-50319D01*
X47912Y-50653D01*
X47829Y-50737D01*
X47829Y-50737D01*
G37*
G36*
X47968Y-50597D02*
X47634Y-50263D01*
X47718Y-50180D01*
X48052Y-50514D01*
X47968Y-50597D01*
X47968Y-50597D01*
G37*
G36*
X48107Y-50458D02*
X47773Y-50124D01*
X47857Y-50041D01*
X48191Y-50375D01*
X48107Y-50458D01*
X48107Y-50458D01*
G37*
G36*
X48246Y-50319D02*
X47912Y-49985D01*
X47996Y-49901D01*
X48330Y-50236D01*
X48246Y-50319D01*
X48246Y-50319D01*
G37*
G36*
X48386Y-50180D02*
X48052Y-49846D01*
X48135Y-49762D01*
X48469Y-50096D01*
X48386Y-50180D01*
X48386Y-50180D01*
G37*
G36*
X48525Y-50041D02*
X48191Y-49707D01*
X48274Y-49623D01*
X48608Y-49957D01*
X48525Y-50041D01*
X48525Y-50041D01*
G37*
G36*
X48664Y-49901D02*
X48330Y-49567D01*
X48413Y-49484D01*
X48748Y-49818D01*
X48664Y-49901D01*
X48664Y-49901D01*
G37*
G36*
X48413Y-49066D02*
X48330Y-48983D01*
X48664Y-48649D01*
X48748Y-48732D01*
X48413Y-49066D01*
X48413Y-49066D01*
G37*
G36*
X48274Y-48927D02*
X48191Y-48844D01*
X48525Y-48510D01*
X48608Y-48593D01*
X48274Y-48927D01*
X48274Y-48927D01*
G37*
G36*
X48135Y-48788D02*
X48052Y-48704D01*
X48386Y-48370D01*
X48469Y-48454D01*
X48135Y-48788D01*
X48135Y-48788D01*
G37*
G36*
X47996Y-48649D02*
X47912Y-48565D01*
X48246Y-48231D01*
X48330Y-48315D01*
X47996Y-48649D01*
X47996Y-48649D01*
G37*
G36*
X47857Y-48510D02*
X47773Y-48426D01*
X48107Y-48092D01*
X48191Y-48175D01*
X47857Y-48510D01*
X47857Y-48510D01*
G37*
G36*
X47718Y-48370D02*
X47634Y-48287D01*
X47968Y-47953D01*
X48052Y-48036D01*
X47718Y-48370D01*
X47718Y-48370D01*
G37*
G36*
X47578Y-48231D02*
X47495Y-48148D01*
X47829Y-47814D01*
X47912Y-47897D01*
X47578Y-48231D01*
X47578Y-48231D01*
G37*
G36*
X47439Y-48092D02*
X47356Y-48008D01*
X47690Y-47674D01*
X47773Y-47758D01*
X47439Y-48092D01*
X47439Y-48092D01*
G37*
G36*
X47300Y-47953D02*
X47216Y-47869D01*
X47550Y-47535D01*
X47634Y-47619D01*
X47300Y-47953D01*
X47300Y-47953D01*
G37*
G36*
X47161Y-47814D02*
X47077Y-47730D01*
X47411Y-47396D01*
X47495Y-47479D01*
X47161Y-47814D01*
X47161Y-47814D01*
G37*
G36*
X47022Y-47674D02*
X46938Y-47591D01*
X47272Y-47257D01*
X47356Y-47340D01*
X47022Y-47674D01*
X47022Y-47674D01*
G37*
G36*
X46882Y-47535D02*
X46799Y-47452D01*
X47133Y-47118D01*
X47216Y-47201D01*
X46882Y-47535D01*
X46882Y-47535D01*
G37*
G36*
X46298Y-47535D02*
X45964Y-47201D01*
X46047Y-47118D01*
X46381Y-47452D01*
X46298Y-47535D01*
X46298Y-47535D01*
G37*
G36*
X46159Y-47674D02*
X45824Y-47340D01*
X45908Y-47257D01*
X46242Y-47591D01*
X46159Y-47674D01*
X46159Y-47674D01*
G37*
G36*
X46019Y-47814D02*
X45685Y-47479D01*
X45769Y-47396D01*
X46103Y-47730D01*
X46019Y-47814D01*
X46019Y-47814D01*
G37*
G36*
X45880Y-47953D02*
X45546Y-47619D01*
X45630Y-47535D01*
X45964Y-47869D01*
X45880Y-47953D01*
X45880Y-47953D01*
G37*
G36*
X45741Y-48092D02*
X45407Y-47758D01*
X45490Y-47674D01*
X45824Y-48008D01*
X45741Y-48092D01*
X45741Y-48092D01*
G37*
G36*
X45602Y-48231D02*
X45268Y-47897D01*
X45351Y-47814D01*
X45685Y-48148D01*
X45602Y-48231D01*
X45602Y-48231D01*
G37*
G36*
X45463Y-48370D02*
X45129Y-48036D01*
X45212Y-47953D01*
X45546Y-48287D01*
X45463Y-48370D01*
X45463Y-48370D01*
G37*
G36*
X45323Y-48510D02*
X44989Y-48175D01*
X45073Y-48092D01*
X45407Y-48426D01*
X45323Y-48510D01*
X45323Y-48510D01*
G37*
G36*
X45184Y-48649D02*
X44850Y-48315D01*
X44934Y-48231D01*
X45268Y-48565D01*
X45184Y-48649D01*
X45184Y-48649D01*
G37*
G36*
X45045Y-48788D02*
X44711Y-48454D01*
X44794Y-48370D01*
X45129Y-48704D01*
X45045Y-48788D01*
X45045Y-48788D01*
G37*
G36*
X44906Y-48927D02*
X44572Y-48593D01*
X44655Y-48510D01*
X44989Y-48844D01*
X44906Y-48927D01*
X44906Y-48927D01*
G37*
G36*
X44767Y-49066D02*
X44433Y-48732D01*
X44516Y-48649D01*
X44850Y-48983D01*
X44767Y-49066D01*
X44767Y-49066D01*
G37*
G36*
X44516Y-49901D02*
X44433Y-49818D01*
X44767Y-49484D01*
X44850Y-49567D01*
X44516Y-49901D01*
X44516Y-49901D01*
G37*
G36*
X44655Y-50041D02*
X44572Y-49957D01*
X44906Y-49623D01*
X44989Y-49707D01*
X44655Y-50041D01*
X44655Y-50041D01*
G37*
G36*
X44794Y-50180D02*
X44711Y-50096D01*
X45045Y-49762D01*
X45129Y-49846D01*
X44794Y-50180D01*
X44794Y-50180D01*
G37*
G36*
X44934Y-50319D02*
X44850Y-50236D01*
X45184Y-49901D01*
X45268Y-49985D01*
X44934Y-50319D01*
X44934Y-50319D01*
G37*
G36*
X45073Y-50458D02*
X44989Y-50375D01*
X45323Y-50041D01*
X45407Y-50124D01*
X45073Y-50458D01*
X45073Y-50458D01*
G37*
G36*
X45212Y-50597D02*
X45129Y-50514D01*
X45463Y-50180D01*
X45546Y-50263D01*
X45212Y-50597D01*
X45212Y-50597D01*
G37*
G36*
X45351Y-50737D02*
X45268Y-50653D01*
X45602Y-50319D01*
X45685Y-50403D01*
X45351Y-50737D01*
X45351Y-50737D01*
G37*
G36*
X45490Y-50876D02*
X45407Y-50792D01*
X45741Y-50458D01*
X45824Y-50542D01*
X45490Y-50876D01*
X45490Y-50876D01*
G37*
G36*
X45630Y-51015D02*
X45546Y-50932D01*
X45880Y-50597D01*
X45964Y-50681D01*
X45630Y-51015D01*
X45630Y-51015D01*
G37*
G36*
X45769Y-51154D02*
X45685Y-51071D01*
X46019Y-50737D01*
X46103Y-50820D01*
X45769Y-51154D01*
X45769Y-51154D01*
G37*
G36*
X45908Y-51293D02*
X45824Y-51210D01*
X46159Y-50876D01*
X46242Y-50959D01*
X45908Y-51293D01*
X45908Y-51293D01*
G37*
G36*
X46047Y-51433D02*
X45964Y-51349D01*
X46298Y-51015D01*
X46381Y-51099D01*
X46047Y-51433D01*
X46047Y-51433D01*
G37*
G54D19*
X52370Y-40370D03*
X40370Y-56370D03*
X40370Y-40370D03*
X52370Y-56370D03*
G54D20*
X43480Y-42096D03*
X43480Y-40895D03*
X42377Y-42096D03*
X42377Y-40895D03*
G54D21*
X47629Y-55236D03*
X45629Y-55236D03*
G54D17*
X48992Y-42538D03*
X48992Y-43288D03*
G54D10*
G36*
X48482Y-53969D02*
X48093Y-53580D01*
X48341Y-53332D01*
X48730Y-53721D01*
X48482Y-53969D01*
X48482Y-53969D01*
G37*
G36*
X49013Y-53438D02*
X48624Y-53049D01*
X48871Y-52802D01*
X49260Y-53191D01*
X49013Y-53438D01*
X49013Y-53438D01*
G37*
G36*
X50407Y-51306D02*
X50795Y-51695D01*
X50548Y-51942D01*
X50159Y-51553D01*
X50407Y-51306D01*
X50407Y-51306D01*
G37*
G36*
X49876Y-51836D02*
X50265Y-52225D01*
X50018Y-52473D01*
X49629Y-52084D01*
X49876Y-51836D01*
X49876Y-51836D01*
G37*
G54D22*
X46629Y-42613D03*
X46629Y-43213D03*
X45055Y-42613D03*
X45055Y-43213D03*
G54D23*
X40370Y-42370D03*
G54D24*
X40370Y-43370D03*
X40370Y-44370D03*
X40370Y-45370D03*
X40370Y-46370D03*
X40370Y-47370D03*
X40370Y-48370D03*
X40370Y-49370D03*
X40370Y-50370D03*
X40370Y-51370D03*
X40370Y-52370D03*
X40370Y-53370D03*
X40370Y-54370D03*
G54D23*
X52370Y-54370D03*
G54D24*
X52370Y-53370D03*
X52370Y-52370D03*
X52370Y-51370D03*
X52370Y-50370D03*
X52370Y-49370D03*
X52370Y-48370D03*
X52370Y-47370D03*
X52370Y-46370D03*
X52370Y-45370D03*
X52370Y-44370D03*
X52370Y-43370D03*
X52370Y-42370D03*
G54D25*
X41397Y-55216D03*
X48503Y-44645D03*
X42677Y-44625D03*
X42736Y-44921D03*
X48838Y-44645D03*
X46122Y-48720D03*
X43858Y-47106D03*
X42755Y-45275D03*
X42775Y-45590D03*
X46574Y-47933D03*
X47913Y-46594D03*
X47913Y-46259D03*
X46791Y-48129D03*
X44448Y-53543D03*
X44507Y-54507D03*
X46968Y-52893D03*
X45944Y-53169D03*
X43051Y-55236D03*
X45374Y-51338D03*
X41692Y-54803D03*
X45137Y-51141D03*
X44881Y-50767D03*
X42755Y-51751D03*
X49606Y-42893D03*
X41555Y-42952D03*
X48877Y-54389D03*
X46062Y-52440D03*
G54D26*
X43293Y-49792D02*
X43293Y-49796D01*
X41397Y-54586D02*
X41397Y-55216D01*
X41653Y-54330D02*
X41397Y-54586D01*
X41653Y-51437D02*
X41653Y-54330D01*
X43293Y-49796D02*
X41653Y-51437D01*
X52370Y-53370D02*
X51044Y-53370D01*
X51044Y-53370D02*
X50566Y-52892D01*
X44690Y-51742D02*
X44163Y-51742D01*
X42952Y-50133D02*
X43293Y-49792D01*
X42952Y-50531D02*
X42952Y-50133D01*
X44163Y-51742D02*
X42952Y-50531D01*
X44920Y-49971D02*
X44910Y-49971D01*
X44690Y-51284D02*
X44690Y-51742D01*
X44330Y-50925D02*
X44690Y-51284D01*
X44330Y-50551D02*
X44330Y-50925D01*
X44910Y-49971D02*
X44330Y-50551D01*
X48412Y-53650D02*
X48414Y-53650D01*
X50217Y-52892D02*
X50566Y-52892D01*
X49271Y-53838D02*
X50217Y-52892D01*
X48602Y-53838D02*
X49271Y-53838D01*
X48414Y-53650D02*
X48602Y-53838D01*
X50566Y-52892D02*
X50566Y-51713D01*
X50566Y-51713D02*
X50477Y-51624D01*
X47425Y-47744D02*
X47432Y-47744D01*
X48503Y-46673D02*
X48503Y-44645D01*
X47432Y-47744D02*
X48503Y-46673D01*
X46172Y-47326D02*
X46165Y-47326D01*
X45275Y-44625D02*
X42677Y-44625D01*
X45492Y-44842D02*
X45275Y-44625D01*
X45492Y-45787D02*
X45492Y-44842D01*
X45748Y-46043D02*
X45492Y-45787D01*
X45748Y-46909D02*
X45748Y-46043D01*
X46165Y-47326D02*
X45748Y-46909D01*
X46033Y-47466D02*
X46029Y-47466D01*
X42834Y-44822D02*
X42736Y-44921D01*
X44783Y-44822D02*
X42834Y-44822D01*
X45295Y-45334D02*
X44783Y-44822D01*
X45295Y-45866D02*
X45295Y-45334D01*
X45551Y-46122D02*
X45295Y-45866D01*
X45551Y-46988D02*
X45551Y-46122D01*
X46029Y-47466D02*
X45551Y-46988D01*
X44429Y-47500D02*
X44954Y-47500D01*
X44954Y-47500D02*
X45476Y-48022D01*
X40370Y-49370D02*
X40807Y-49370D01*
X40807Y-49370D02*
X42677Y-47500D01*
X42677Y-47500D02*
X44429Y-47500D01*
X44429Y-47500D02*
X44431Y-47500D01*
X45337Y-48162D02*
X45337Y-48172D01*
X48223Y-44030D02*
X48223Y-44015D01*
X48838Y-44645D02*
X48223Y-44030D01*
X45885Y-48720D02*
X46122Y-48720D01*
X45337Y-48172D02*
X45885Y-48720D01*
X44468Y-47696D02*
X44872Y-47696D01*
X40377Y-50370D02*
X40866Y-49881D01*
X40866Y-49881D02*
X40866Y-49586D01*
X40866Y-49586D02*
X42755Y-47696D01*
X42755Y-47696D02*
X44468Y-47696D01*
X40370Y-50370D02*
X40377Y-50370D01*
X44872Y-47696D02*
X45337Y-48162D01*
X44625Y-47893D02*
X44791Y-47893D01*
X40370Y-51362D02*
X41062Y-50669D01*
X41062Y-50669D02*
X41062Y-49665D01*
X41062Y-49665D02*
X42834Y-47893D01*
X42834Y-47893D02*
X44625Y-47893D01*
X40370Y-51370D02*
X40370Y-51362D01*
X44791Y-47893D02*
X45198Y-48301D01*
X40370Y-52370D02*
X40370Y-52366D01*
X44709Y-48090D02*
X45059Y-48440D01*
X42913Y-48090D02*
X44709Y-48090D01*
X41259Y-49744D02*
X42913Y-48090D01*
X41259Y-51476D02*
X41259Y-49744D01*
X40370Y-52366D02*
X41259Y-51476D01*
X48539Y-48858D02*
X51858Y-48858D01*
X51858Y-48858D02*
X52370Y-49370D01*
X48400Y-48718D02*
X48407Y-48718D01*
X48755Y-48370D02*
X52370Y-48370D01*
X48407Y-48718D02*
X48755Y-48370D01*
X48260Y-48579D02*
X48260Y-48569D01*
X49460Y-47370D02*
X52370Y-47370D01*
X48260Y-48569D02*
X49460Y-47370D01*
X48121Y-48440D02*
X48121Y-48433D01*
X50185Y-46370D02*
X52370Y-46370D01*
X48121Y-48433D02*
X50185Y-46370D01*
X47982Y-48301D02*
X47982Y-48297D01*
X50909Y-45370D02*
X52370Y-45370D01*
X47982Y-48297D02*
X50909Y-45370D01*
X47843Y-48162D02*
X47843Y-48160D01*
X51633Y-44370D02*
X52370Y-44370D01*
X47843Y-48160D02*
X51633Y-44370D01*
X47704Y-48022D02*
X47705Y-48022D01*
X52358Y-43370D02*
X52370Y-43370D01*
X47705Y-48022D02*
X52358Y-43370D01*
X47564Y-47883D02*
X47569Y-47883D01*
X50826Y-43913D02*
X52370Y-42370D01*
X50826Y-44625D02*
X50826Y-43913D01*
X47569Y-47883D02*
X50826Y-44625D01*
X44163Y-46447D02*
X44162Y-46447D01*
X43858Y-46751D02*
X43858Y-47106D01*
X44162Y-46447D02*
X43858Y-46751D01*
X43273Y-48711D02*
X42568Y-48711D01*
X41456Y-52283D02*
X40370Y-53370D01*
X41456Y-49822D02*
X41456Y-52283D01*
X42568Y-48711D02*
X41456Y-49822D01*
X43824Y-49262D02*
X43273Y-48711D01*
X44920Y-48579D02*
X44914Y-48579D01*
X43696Y-48287D02*
X43273Y-48711D01*
X44622Y-48287D02*
X43696Y-48287D01*
X44914Y-48579D02*
X44622Y-48287D01*
X45894Y-47605D02*
X45892Y-47605D01*
X43011Y-45019D02*
X42755Y-45275D01*
X44173Y-45019D02*
X43011Y-45019D01*
X45354Y-46200D02*
X44173Y-45019D01*
X45354Y-47066D02*
X45354Y-46200D01*
X45892Y-47605D02*
X45354Y-47066D01*
X40370Y-47370D02*
X41448Y-47370D01*
X43105Y-43228D02*
X43480Y-43603D01*
X41968Y-43228D02*
X43105Y-43228D01*
X41850Y-43346D02*
X41968Y-43228D01*
X41850Y-43877D02*
X41850Y-43346D01*
X42165Y-44192D02*
X41850Y-43877D01*
X42165Y-46653D02*
X42165Y-44192D01*
X41448Y-47370D02*
X42165Y-46653D01*
X45755Y-47744D02*
X45755Y-47743D01*
X43149Y-45216D02*
X42775Y-45590D01*
X44094Y-45216D02*
X43149Y-45216D01*
X45157Y-46279D02*
X44094Y-45216D01*
X45157Y-47145D02*
X45157Y-46279D01*
X45755Y-47743D02*
X45157Y-47145D01*
X40370Y-48370D02*
X40901Y-48370D01*
X42377Y-46303D02*
X42377Y-43603D01*
X42377Y-46893D02*
X42377Y-46303D01*
X40901Y-48370D02*
X42377Y-46893D01*
X46574Y-47933D02*
X46456Y-48051D01*
X47693Y-50528D02*
X46673Y-49507D01*
X47913Y-46594D02*
X48287Y-46220D01*
X48287Y-46220D02*
X48287Y-45000D01*
X48287Y-45000D02*
X47417Y-44129D01*
X47417Y-43288D02*
X47417Y-44129D01*
X47693Y-50528D02*
X47704Y-50528D01*
X46456Y-49291D02*
X46673Y-49507D01*
X46456Y-48051D02*
X46456Y-49291D01*
X46791Y-48129D02*
X46791Y-49330D01*
X46830Y-43838D02*
X46392Y-43838D01*
X45842Y-43288D02*
X46392Y-43838D01*
X47843Y-50382D02*
X47843Y-50389D01*
X47913Y-44921D02*
X47421Y-44429D01*
X47913Y-45177D02*
X47913Y-44921D01*
X47913Y-46259D02*
X47913Y-45177D01*
X47843Y-50382D02*
X46909Y-49448D01*
X47421Y-44429D02*
X46830Y-43838D01*
X46791Y-49330D02*
X46909Y-49448D01*
X43874Y-53443D02*
X44349Y-53443D01*
X44349Y-53443D02*
X44448Y-53543D01*
X43874Y-54861D02*
X44154Y-54861D01*
X44154Y-54861D02*
X44507Y-54507D01*
X47309Y-52548D02*
X47309Y-52552D01*
X47309Y-52552D02*
X46968Y-52893D01*
X45635Y-52824D02*
X45635Y-52859D01*
X45635Y-52859D02*
X45944Y-53169D01*
X45616Y-47883D02*
X45616Y-47879D01*
X44713Y-46977D02*
X44694Y-46977D01*
X45616Y-47879D02*
X44713Y-46977D01*
X45842Y-42538D02*
X45130Y-42538D01*
X45130Y-42538D02*
X45055Y-42613D01*
X46370Y-41623D02*
X46370Y-42010D01*
X46370Y-42010D02*
X45842Y-42538D01*
X47564Y-50667D02*
X47564Y-50675D01*
X48293Y-51404D02*
X48293Y-51467D01*
X47564Y-50675D02*
X48293Y-51404D01*
X44641Y-49693D02*
X44637Y-49693D01*
X43690Y-50640D02*
X43587Y-50640D01*
X44637Y-49693D02*
X43690Y-50640D01*
X45629Y-55236D02*
X45629Y-53858D01*
X46358Y-51874D02*
X47008Y-51224D01*
X46358Y-53129D02*
X46358Y-51874D01*
X45629Y-53858D02*
X46358Y-53129D01*
X43874Y-55611D02*
X45254Y-55611D01*
X45254Y-55611D02*
X45629Y-55236D01*
X47629Y-55236D02*
X47629Y-54123D01*
X47401Y-51339D02*
X47147Y-51085D01*
X47401Y-51456D02*
X47401Y-51339D01*
X46555Y-52303D02*
X47401Y-51456D01*
X46555Y-53048D02*
X46555Y-52303D01*
X47629Y-54123D02*
X46555Y-53048D01*
X49385Y-55611D02*
X48004Y-55611D01*
X48004Y-55611D02*
X47629Y-55236D01*
X43480Y-42096D02*
X43480Y-42853D01*
X45755Y-50806D02*
X45748Y-50806D01*
X43047Y-55232D02*
X43047Y-54861D01*
X43051Y-55236D02*
X43047Y-55232D01*
X45374Y-51181D02*
X45374Y-51338D01*
X45748Y-50806D02*
X45374Y-51181D01*
X42181Y-54101D02*
X42181Y-54366D01*
X43030Y-54861D02*
X43047Y-54861D01*
X42637Y-54468D02*
X43030Y-54861D01*
X42283Y-54468D02*
X42637Y-54468D01*
X42181Y-54366D02*
X42283Y-54468D01*
X45616Y-50667D02*
X45611Y-50667D01*
X41750Y-54861D02*
X42259Y-54861D01*
X41692Y-54803D02*
X41750Y-54861D01*
X45611Y-50667D02*
X45137Y-51141D01*
X41984Y-54101D02*
X41984Y-54385D01*
X41988Y-54589D02*
X42259Y-54861D01*
X41988Y-54389D02*
X41988Y-54589D01*
X41984Y-54385D02*
X41988Y-54389D01*
X42121Y-52677D02*
X42121Y-52386D01*
X45475Y-50528D02*
X45476Y-50528D01*
X45236Y-50767D02*
X45475Y-50528D01*
X45216Y-50767D02*
X45236Y-50767D01*
X45137Y-50767D02*
X45216Y-50767D01*
X44881Y-50767D02*
X45137Y-50767D01*
X42121Y-52386D02*
X42755Y-51751D01*
X41984Y-53535D02*
X41984Y-52814D01*
X41984Y-52814D02*
X42121Y-52677D01*
X42871Y-52677D02*
X42871Y-53228D01*
X42871Y-53228D02*
X43086Y-53443D01*
X42378Y-53535D02*
X42994Y-53535D01*
X42994Y-53535D02*
X43086Y-53443D01*
X42377Y-42096D02*
X42377Y-42853D01*
X48992Y-42538D02*
X48204Y-42538D01*
X46882Y-41623D02*
X46882Y-41842D01*
X48204Y-42377D02*
X48204Y-42538D01*
X47874Y-42047D02*
X48204Y-42377D01*
X47086Y-42047D02*
X47874Y-42047D01*
X46882Y-41842D02*
X47086Y-42047D01*
X47417Y-42538D02*
X46704Y-42538D01*
X46704Y-42538D02*
X46629Y-42613D01*
X46626Y-41623D02*
X46626Y-42609D01*
X46626Y-42609D02*
X46629Y-42613D01*
X40370Y-43370D02*
X41137Y-43370D01*
X49074Y-44015D02*
X48973Y-44015D01*
X49606Y-43484D02*
X49074Y-44015D01*
X49606Y-42893D02*
X49606Y-43484D01*
X41137Y-43370D02*
X41555Y-42952D01*
X48992Y-43288D02*
X48992Y-43997D01*
X48992Y-43997D02*
X48973Y-44015D01*
X48539Y-49693D02*
X48539Y-49681D01*
X46751Y-47583D02*
X47008Y-47326D01*
X46751Y-47736D02*
X46751Y-47583D01*
X48248Y-49232D02*
X46751Y-47736D01*
X48248Y-49389D02*
X48248Y-49232D01*
X48539Y-49681D02*
X48248Y-49389D01*
X47008Y-47326D02*
X47008Y-46265D01*
X47008Y-46265D02*
X46984Y-46241D01*
X52370Y-52370D02*
X51712Y-51712D01*
X49859Y-49901D02*
X49789Y-49971D01*
X50452Y-49901D02*
X49859Y-49901D01*
X51712Y-51161D02*
X50452Y-49901D01*
X51712Y-51712D02*
X51712Y-51161D01*
X42259Y-55611D02*
X41398Y-55611D01*
X39901Y-42838D02*
X40370Y-42370D01*
X39901Y-54901D02*
X39901Y-42838D01*
X40216Y-55216D02*
X39901Y-54901D01*
X41003Y-55216D02*
X40216Y-55216D01*
X41398Y-55611D02*
X41003Y-55216D01*
X43874Y-54193D02*
X44014Y-54193D01*
X43422Y-55236D02*
X43047Y-55611D01*
X44311Y-55236D02*
X43422Y-55236D01*
X44940Y-54606D02*
X44311Y-55236D01*
X44940Y-54035D02*
X44940Y-54606D01*
X44744Y-53838D02*
X44940Y-54035D01*
X44370Y-53838D02*
X44744Y-53838D01*
X44014Y-54193D02*
X44370Y-53838D01*
X43086Y-54193D02*
X43874Y-54193D01*
X42378Y-54101D02*
X42994Y-54101D01*
X42994Y-54101D02*
X43086Y-54193D01*
X42259Y-55611D02*
X43047Y-55611D01*
X49789Y-49971D02*
X48817Y-49971D01*
X48817Y-49971D02*
X48539Y-49693D01*
X46196Y-46241D02*
X46196Y-46216D01*
X44271Y-41687D02*
X43480Y-40895D01*
X44271Y-43149D02*
X44271Y-41687D01*
X45688Y-44566D02*
X44271Y-43149D01*
X45688Y-45708D02*
X45688Y-44566D01*
X46196Y-46216D02*
X45688Y-45708D01*
X46984Y-46241D02*
X46196Y-46241D01*
X40370Y-42370D02*
X40903Y-42370D01*
X40903Y-42370D02*
X42377Y-40895D01*
X42377Y-40895D02*
X43480Y-40895D01*
X44781Y-49832D02*
X44773Y-49832D01*
X44139Y-50467D02*
X44139Y-51191D01*
X44773Y-49832D02*
X44139Y-50467D01*
X47286Y-50945D02*
X47286Y-50947D01*
X47637Y-51816D02*
X47839Y-52018D01*
X47637Y-51299D02*
X47637Y-51816D01*
X47286Y-50947D02*
X47637Y-51299D01*
X48391Y-52569D02*
X47839Y-52018D01*
X48942Y-53120D02*
X48391Y-52569D01*
X49947Y-52154D02*
X49396Y-51603D01*
X49396Y-51603D02*
X48845Y-51052D01*
X47982Y-50249D02*
X47986Y-50249D01*
X48788Y-51052D02*
X48845Y-51052D01*
X47986Y-50249D02*
X48788Y-51052D01*
X45104Y-52293D02*
X45915Y-52293D01*
X52066Y-54370D02*
X52370Y-54370D01*
X52047Y-54389D02*
X52066Y-54370D01*
X52027Y-54389D02*
X52047Y-54389D01*
X51929Y-54389D02*
X52027Y-54389D01*
X50433Y-54389D02*
X51929Y-54389D01*
X48877Y-54389D02*
X50433Y-54389D01*
X45915Y-52293D02*
X46062Y-52440D01*
X45059Y-50110D02*
X45059Y-50117D01*
X45295Y-52103D02*
X45104Y-52293D01*
X45295Y-51850D02*
X45295Y-52103D01*
X44921Y-51476D02*
X45295Y-51850D01*
X44921Y-51240D02*
X44921Y-51476D01*
X44527Y-50846D02*
X44921Y-51240D01*
X44527Y-50649D02*
X44527Y-50846D01*
X45059Y-50117D02*
X44527Y-50649D01*
X45104Y-52293D02*
X44553Y-52845D01*
G54D10*
G36*
X41483Y-54260D02*
X41277Y-54466D01*
X41240Y-54521D01*
X41227Y-54586D01*
X41227Y-55077D01*
X41212Y-55092D01*
X41185Y-55157D01*
X41124Y-55096D01*
X41068Y-55059D01*
X41003Y-55046D01*
X40811Y-55046D01*
X40811Y-54290D01*
X40747Y-54127D01*
X40738Y-54114D01*
X40669Y-54084D01*
X40655Y-54098D01*
X40384Y-54370D01*
X40669Y-54655D01*
X40738Y-54625D01*
X40808Y-54465D01*
X40811Y-54290D01*
X40811Y-55046D01*
X40655Y-55046D01*
X40286Y-55046D01*
X40071Y-54831D01*
X40071Y-54682D01*
X40084Y-54669D01*
X40114Y-54738D01*
X40275Y-54808D01*
X40450Y-54811D01*
X40612Y-54747D01*
X40625Y-54738D01*
X40655Y-54669D01*
X40370Y-54384D01*
X40364Y-54389D01*
X40350Y-54375D01*
X40355Y-54370D01*
X40350Y-54364D01*
X40364Y-54350D01*
X40370Y-54355D01*
X40655Y-54070D01*
X40625Y-54001D01*
X40465Y-53931D01*
X40290Y-53928D01*
X40127Y-53992D01*
X40114Y-54001D01*
X40084Y-54070D01*
X40071Y-54057D01*
X40071Y-53665D01*
X40131Y-53725D01*
X40286Y-53790D01*
X40453Y-53790D01*
X40607Y-53726D01*
X40725Y-53608D01*
X40790Y-53453D01*
X40790Y-53286D01*
X40761Y-53218D01*
X41483Y-52497D01*
X41483Y-54260D01*
X41483Y-54260D01*
G37*
G54D27*
X41483Y-54260D02*
X41277Y-54466D01*
X41240Y-54521D01*
X41227Y-54586D01*
X41227Y-55077D01*
X41212Y-55092D01*
X41185Y-55157D01*
X41124Y-55096D01*
X41068Y-55059D01*
X41003Y-55046D01*
X40811Y-55046D01*
X40811Y-54290D01*
X40747Y-54127D01*
X40738Y-54114D01*
X40669Y-54084D01*
X40655Y-54098D01*
X40384Y-54370D01*
X40669Y-54655D01*
X40738Y-54625D01*
X40808Y-54465D01*
X40811Y-54290D01*
X40811Y-55046D01*
X40655Y-55046D01*
X40286Y-55046D01*
X40071Y-54831D01*
X40071Y-54682D01*
X40084Y-54669D01*
X40114Y-54738D01*
X40275Y-54808D01*
X40450Y-54811D01*
X40612Y-54747D01*
X40625Y-54738D01*
X40655Y-54669D01*
X40370Y-54384D01*
X40364Y-54389D01*
X40350Y-54375D01*
X40355Y-54370D01*
X40350Y-54364D01*
X40364Y-54350D01*
X40370Y-54355D01*
X40655Y-54070D01*
X40625Y-54001D01*
X40465Y-53931D01*
X40290Y-53928D01*
X40127Y-53992D01*
X40114Y-54001D01*
X40084Y-54070D01*
X40071Y-54057D01*
X40071Y-53665D01*
X40131Y-53725D01*
X40286Y-53790D01*
X40453Y-53790D01*
X40607Y-53726D01*
X40725Y-53608D01*
X40790Y-53453D01*
X40790Y-53286D01*
X40761Y-53218D01*
X41483Y-52497D01*
X41483Y-54260D01*
G54D10*
G36*
X44770Y-54535D02*
X44289Y-55017D01*
X44289Y-54658D01*
X44267Y-54607D01*
X44228Y-54567D01*
X44176Y-54546D01*
X44121Y-54546D01*
X43919Y-54546D01*
X43884Y-54581D01*
X43884Y-54851D01*
X44254Y-54851D01*
X44289Y-54816D01*
X44289Y-54658D01*
X44289Y-55017D01*
X44289Y-55017D01*
X44289Y-54906D01*
X44254Y-54871D01*
X43884Y-54871D01*
X43884Y-54879D01*
X43864Y-54879D01*
X43864Y-54871D01*
X43864Y-54851D01*
X43864Y-54581D01*
X43829Y-54546D01*
X43626Y-54546D01*
X43571Y-54546D01*
X43519Y-54567D01*
X43480Y-54607D01*
X43458Y-54658D01*
X43459Y-54816D01*
X43494Y-54851D01*
X43864Y-54851D01*
X43864Y-54871D01*
X43494Y-54871D01*
X43459Y-54906D01*
X43458Y-55063D01*
X43459Y-55066D01*
X43439Y-55066D01*
X43442Y-55060D01*
X43442Y-55012D01*
X43442Y-54662D01*
X43424Y-54618D01*
X43390Y-54584D01*
X43346Y-54566D01*
X43298Y-54566D01*
X42975Y-54566D01*
X42898Y-54488D01*
X43385Y-54488D01*
X43429Y-54470D01*
X43463Y-54436D01*
X43480Y-54395D01*
X43497Y-54436D01*
X43530Y-54470D01*
X43575Y-54488D01*
X43622Y-54488D01*
X44172Y-54488D01*
X44216Y-54470D01*
X44250Y-54436D01*
X44268Y-54392D01*
X44269Y-54345D01*
X44269Y-54180D01*
X44440Y-54008D01*
X44673Y-54008D01*
X44770Y-54105D01*
X44770Y-54535D01*
X44770Y-54535D01*
G37*
G54D27*
X44770Y-54535D02*
X44289Y-55017D01*
X44289Y-54658D01*
X44267Y-54607D01*
X44228Y-54567D01*
X44176Y-54546D01*
X44121Y-54546D01*
X43919Y-54546D01*
X43884Y-54581D01*
X43884Y-54851D01*
X44254Y-54851D01*
X44289Y-54816D01*
X44289Y-54658D01*
X44289Y-55017D01*
X44289Y-55017D01*
X44289Y-54906D01*
X44254Y-54871D01*
X43884Y-54871D01*
X43884Y-54879D01*
X43864Y-54879D01*
X43864Y-54871D01*
X43864Y-54851D01*
X43864Y-54581D01*
X43829Y-54546D01*
X43626Y-54546D01*
X43571Y-54546D01*
X43519Y-54567D01*
X43480Y-54607D01*
X43458Y-54658D01*
X43459Y-54816D01*
X43494Y-54851D01*
X43864Y-54851D01*
X43864Y-54871D01*
X43494Y-54871D01*
X43459Y-54906D01*
X43458Y-55063D01*
X43459Y-55066D01*
X43439Y-55066D01*
X43442Y-55060D01*
X43442Y-55012D01*
X43442Y-54662D01*
X43424Y-54618D01*
X43390Y-54584D01*
X43346Y-54566D01*
X43298Y-54566D01*
X42975Y-54566D01*
X42898Y-54488D01*
X43385Y-54488D01*
X43429Y-54470D01*
X43463Y-54436D01*
X43480Y-54395D01*
X43497Y-54436D01*
X43530Y-54470D01*
X43575Y-54488D01*
X43622Y-54488D01*
X44172Y-54488D01*
X44216Y-54470D01*
X44250Y-54436D01*
X44268Y-54392D01*
X44269Y-54345D01*
X44269Y-54180D01*
X44440Y-54008D01*
X44673Y-54008D01*
X44770Y-54105D01*
X44770Y-54535D01*
G54D10*
G36*
X46188Y-53059D02*
X45826Y-53421D01*
X45826Y-53078D01*
X45826Y-53029D01*
X45635Y-52838D01*
X45621Y-52852D01*
X45621Y-52824D01*
X45430Y-52633D01*
X45380Y-52633D01*
X45237Y-52776D01*
X45198Y-52815D01*
X45177Y-52867D01*
X45177Y-52917D01*
X45127Y-52917D01*
X45075Y-52938D01*
X45036Y-52977D01*
X44893Y-53120D01*
X44893Y-53170D01*
X45084Y-53361D01*
X45345Y-53099D01*
X45345Y-53085D01*
X45359Y-53085D01*
X45621Y-52824D01*
X45621Y-52852D01*
X45373Y-53099D01*
X45373Y-53113D01*
X45359Y-53113D01*
X45098Y-53375D01*
X45289Y-53566D01*
X45338Y-53566D01*
X45481Y-53423D01*
X45521Y-53383D01*
X45542Y-53332D01*
X45542Y-53282D01*
X45592Y-53282D01*
X45643Y-53261D01*
X45683Y-53221D01*
X45826Y-53078D01*
X45826Y-53421D01*
X45509Y-53738D01*
X45472Y-53793D01*
X45459Y-53858D01*
X45459Y-54873D01*
X45403Y-54896D01*
X45291Y-55009D01*
X45229Y-55156D01*
X45229Y-55315D01*
X45253Y-55372D01*
X45184Y-55441D01*
X44269Y-55441D01*
X44269Y-55412D01*
X44266Y-55406D01*
X44311Y-55406D01*
X44376Y-55393D01*
X44376Y-55393D01*
X44431Y-55356D01*
X45061Y-54726D01*
X45061Y-54726D01*
X45061Y-54726D01*
X45098Y-54671D01*
X45110Y-54606D01*
X45110Y-54035D01*
X45110Y-54035D01*
X45110Y-54035D01*
X45098Y-53970D01*
X45061Y-53915D01*
X45061Y-53915D01*
X44975Y-53829D01*
X44985Y-53833D01*
X45041Y-53833D01*
X45092Y-53812D01*
X45131Y-53773D01*
X45274Y-53629D01*
X45274Y-53580D01*
X45084Y-53389D01*
X45069Y-53403D01*
X45069Y-53375D01*
X44879Y-53184D01*
X44829Y-53184D01*
X44686Y-53327D01*
X44647Y-53366D01*
X44625Y-53418D01*
X44625Y-53474D01*
X44647Y-53525D01*
X44758Y-53637D01*
X44808Y-53637D01*
X45069Y-53375D01*
X45069Y-53403D01*
X44822Y-53651D01*
X44822Y-53690D01*
X44809Y-53681D01*
X44744Y-53668D01*
X44370Y-53668D01*
X44370Y-53668D01*
X44305Y-53681D01*
X44289Y-53692D01*
X44289Y-53646D01*
X44289Y-53241D01*
X44267Y-53189D01*
X44228Y-53150D01*
X44176Y-53128D01*
X44121Y-53128D01*
X43919Y-53128D01*
X43884Y-53163D01*
X43884Y-53433D01*
X44254Y-53433D01*
X44289Y-53398D01*
X44289Y-53241D01*
X44289Y-53646D01*
X44289Y-53488D01*
X44254Y-53453D01*
X43884Y-53453D01*
X43884Y-53723D01*
X43919Y-53758D01*
X44121Y-53758D01*
X44176Y-53758D01*
X44228Y-53737D01*
X44267Y-53698D01*
X44289Y-53646D01*
X44289Y-53692D01*
X44249Y-53718D01*
X44249Y-53718D01*
X44069Y-53898D01*
X43864Y-53898D01*
X43864Y-53723D01*
X43864Y-53453D01*
X43856Y-53453D01*
X43856Y-53433D01*
X43864Y-53433D01*
X43864Y-53163D01*
X43829Y-53128D01*
X43626Y-53128D01*
X43571Y-53128D01*
X43519Y-53150D01*
X43480Y-53189D01*
X43469Y-53215D01*
X43463Y-53201D01*
X43429Y-53167D01*
X43385Y-53148D01*
X43337Y-53148D01*
X43041Y-53148D01*
X43041Y-53072D01*
X43069Y-53072D01*
X43113Y-53053D01*
X43147Y-53020D01*
X43166Y-52976D01*
X43166Y-52928D01*
X43166Y-52378D01*
X43147Y-52334D01*
X43114Y-52300D01*
X43070Y-52282D01*
X43022Y-52282D01*
X42672Y-52282D01*
X42628Y-52300D01*
X42594Y-52334D01*
X42576Y-52378D01*
X42576Y-52425D01*
X42576Y-52975D01*
X42594Y-53020D01*
X42627Y-53053D01*
X42672Y-53072D01*
X42701Y-53072D01*
X42701Y-53222D01*
X42691Y-53244D01*
X42691Y-53292D01*
X42691Y-53365D01*
X42541Y-53365D01*
X42538Y-53359D01*
X42505Y-53325D01*
X42461Y-53307D01*
X42413Y-53307D01*
X42316Y-53307D01*
X42267Y-53287D01*
X42226Y-53287D01*
X42191Y-53322D01*
X42191Y-53525D01*
X42198Y-53525D01*
X42198Y-53545D01*
X42191Y-53545D01*
X42191Y-53749D01*
X42226Y-53784D01*
X42267Y-53784D01*
X42316Y-53764D01*
X42342Y-53764D01*
X42460Y-53764D01*
X42504Y-53746D01*
X42538Y-53712D01*
X42541Y-53705D01*
X42728Y-53705D01*
X42743Y-53720D01*
X42787Y-53738D01*
X42835Y-53738D01*
X43385Y-53738D01*
X43429Y-53720D01*
X43463Y-53686D01*
X43469Y-53672D01*
X43480Y-53698D01*
X43519Y-53737D01*
X43571Y-53758D01*
X43626Y-53758D01*
X43829Y-53758D01*
X43864Y-53723D01*
X43864Y-53898D01*
X43575Y-53898D01*
X43531Y-53917D01*
X43497Y-53950D01*
X43480Y-53991D01*
X43463Y-53951D01*
X43429Y-53917D01*
X43385Y-53898D01*
X43337Y-53898D01*
X42787Y-53898D01*
X42743Y-53917D01*
X42728Y-53931D01*
X42541Y-53931D01*
X42538Y-53925D01*
X42505Y-53891D01*
X42461Y-53873D01*
X42413Y-53873D01*
X42295Y-53873D01*
X42279Y-53879D01*
X42264Y-53873D01*
X42216Y-53873D01*
X42098Y-53873D01*
X42082Y-53879D01*
X42067Y-53873D01*
X42019Y-53873D01*
X41901Y-53873D01*
X41857Y-53891D01*
X41823Y-53925D01*
X41823Y-53712D01*
X41857Y-53746D01*
X41901Y-53764D01*
X41948Y-53764D01*
X42045Y-53764D01*
X42094Y-53784D01*
X42136Y-53784D01*
X42171Y-53749D01*
X42171Y-53545D01*
X42163Y-53545D01*
X42163Y-53525D01*
X42171Y-53525D01*
X42171Y-53322D01*
X42154Y-53305D01*
X42154Y-53072D01*
X42319Y-53072D01*
X42363Y-53053D01*
X42397Y-53020D01*
X42416Y-52976D01*
X42416Y-52928D01*
X42416Y-52378D01*
X42402Y-52345D01*
X42777Y-51970D01*
X42799Y-51970D01*
X42879Y-51937D01*
X42940Y-51875D01*
X42974Y-51795D01*
X42974Y-51708D01*
X42941Y-51628D01*
X42879Y-51566D01*
X42799Y-51533D01*
X42712Y-51533D01*
X42632Y-51566D01*
X42570Y-51628D01*
X42537Y-51708D01*
X42537Y-51729D01*
X42000Y-52266D01*
X41990Y-52282D01*
X41922Y-52282D01*
X41878Y-52300D01*
X41844Y-52334D01*
X41826Y-52378D01*
X41826Y-52425D01*
X41826Y-52754D01*
X41823Y-52766D01*
X41823Y-51507D01*
X42785Y-50545D01*
X42795Y-50596D01*
X42832Y-50651D01*
X42912Y-50731D01*
X42907Y-50733D01*
X42796Y-50845D01*
X42796Y-50894D01*
X43057Y-51156D01*
X43063Y-51150D01*
X43077Y-51165D01*
X43071Y-51170D01*
X43333Y-51432D01*
X43347Y-51432D01*
X43347Y-51446D01*
X43608Y-51707D01*
X43614Y-51702D01*
X43628Y-51716D01*
X43622Y-51721D01*
X43884Y-51983D01*
X43898Y-51983D01*
X43898Y-51997D01*
X44160Y-52258D01*
X44350Y-52067D01*
X44350Y-52018D01*
X44245Y-51912D01*
X44443Y-51912D01*
X44693Y-52162D01*
X44737Y-52180D01*
X44784Y-52180D01*
X44811Y-52169D01*
X44685Y-52296D01*
X44666Y-52340D01*
X44666Y-52388D01*
X44679Y-52419D01*
X44648Y-52406D01*
X44603Y-52406D01*
X44618Y-52371D01*
X44618Y-52316D01*
X44596Y-52264D01*
X44557Y-52225D01*
X44414Y-52082D01*
X44365Y-52082D01*
X44174Y-52273D01*
X44179Y-52278D01*
X44165Y-52292D01*
X44160Y-52287D01*
X44145Y-52301D01*
X44145Y-52273D01*
X43884Y-52011D01*
X43870Y-52011D01*
X43870Y-51997D01*
X43608Y-51736D01*
X43594Y-51750D01*
X43594Y-51721D01*
X43333Y-51460D01*
X43319Y-51460D01*
X43319Y-51446D01*
X43057Y-51184D01*
X43043Y-51198D01*
X43043Y-51170D01*
X42781Y-50909D01*
X42732Y-50909D01*
X42620Y-51020D01*
X42599Y-51071D01*
X42599Y-51127D01*
X42620Y-51179D01*
X42660Y-51218D01*
X42803Y-51361D01*
X42852Y-51361D01*
X43043Y-51170D01*
X43043Y-51198D01*
X42866Y-51375D01*
X42866Y-51425D01*
X43009Y-51568D01*
X43049Y-51607D01*
X43100Y-51628D01*
X43150Y-51628D01*
X43150Y-51678D01*
X43171Y-51730D01*
X43211Y-51769D01*
X43354Y-51912D01*
X43403Y-51912D01*
X43594Y-51721D01*
X43594Y-51750D01*
X43417Y-51926D01*
X43417Y-51976D01*
X43560Y-52119D01*
X43600Y-52158D01*
X43651Y-52180D01*
X43701Y-52180D01*
X43701Y-52230D01*
X43723Y-52281D01*
X43762Y-52320D01*
X43905Y-52463D01*
X43954Y-52463D01*
X44145Y-52273D01*
X44145Y-52301D01*
X43969Y-52478D01*
X43969Y-52527D01*
X44112Y-52670D01*
X44151Y-52709D01*
X44203Y-52731D01*
X44250Y-52731D01*
X44133Y-52847D01*
X44115Y-52891D01*
X44115Y-52939D01*
X44133Y-52983D01*
X44167Y-53017D01*
X44414Y-53264D01*
X44459Y-53283D01*
X44506Y-53283D01*
X44550Y-53265D01*
X44584Y-53231D01*
X44973Y-52842D01*
X44991Y-52798D01*
X44991Y-52750D01*
X44978Y-52719D01*
X45010Y-52732D01*
X45057Y-52732D01*
X45102Y-52713D01*
X45135Y-52680D01*
X45352Y-52463D01*
X45550Y-52463D01*
X45444Y-52569D01*
X45444Y-52619D01*
X45635Y-52810D01*
X45640Y-52804D01*
X45654Y-52818D01*
X45649Y-52824D01*
X45840Y-53015D01*
X45889Y-53015D01*
X46032Y-52872D01*
X46072Y-52832D01*
X46093Y-52781D01*
X46093Y-52725D01*
X46072Y-52674D01*
X46057Y-52659D01*
X46106Y-52659D01*
X46186Y-52626D01*
X46188Y-52624D01*
X46188Y-53059D01*
X46188Y-53059D01*
G37*
G54D27*
X46188Y-53059D02*
X45826Y-53421D01*
X45826Y-53078D01*
X45826Y-53029D01*
X45635Y-52838D01*
X45621Y-52852D01*
X45621Y-52824D01*
X45430Y-52633D01*
X45380Y-52633D01*
X45237Y-52776D01*
X45198Y-52815D01*
X45177Y-52867D01*
X45177Y-52917D01*
X45127Y-52917D01*
X45075Y-52938D01*
X45036Y-52977D01*
X44893Y-53120D01*
X44893Y-53170D01*
X45084Y-53361D01*
X45345Y-53099D01*
X45345Y-53085D01*
X45359Y-53085D01*
X45621Y-52824D01*
X45621Y-52852D01*
X45373Y-53099D01*
X45373Y-53113D01*
X45359Y-53113D01*
X45098Y-53375D01*
X45289Y-53566D01*
X45338Y-53566D01*
X45481Y-53423D01*
X45521Y-53383D01*
X45542Y-53332D01*
X45542Y-53282D01*
X45592Y-53282D01*
X45643Y-53261D01*
X45683Y-53221D01*
X45826Y-53078D01*
X45826Y-53421D01*
X45509Y-53738D01*
X45472Y-53793D01*
X45459Y-53858D01*
X45459Y-54873D01*
X45403Y-54896D01*
X45291Y-55009D01*
X45229Y-55156D01*
X45229Y-55315D01*
X45253Y-55372D01*
X45184Y-55441D01*
X44269Y-55441D01*
X44269Y-55412D01*
X44266Y-55406D01*
X44311Y-55406D01*
X44376Y-55393D01*
X44376Y-55393D01*
X44431Y-55356D01*
X45061Y-54726D01*
X45061Y-54726D01*
X45061Y-54726D01*
X45098Y-54671D01*
X45110Y-54606D01*
X45110Y-54035D01*
X45110Y-54035D01*
X45110Y-54035D01*
X45098Y-53970D01*
X45061Y-53915D01*
X45061Y-53915D01*
X44975Y-53829D01*
X44985Y-53833D01*
X45041Y-53833D01*
X45092Y-53812D01*
X45131Y-53773D01*
X45274Y-53629D01*
X45274Y-53580D01*
X45084Y-53389D01*
X45069Y-53403D01*
X45069Y-53375D01*
X44879Y-53184D01*
X44829Y-53184D01*
X44686Y-53327D01*
X44647Y-53366D01*
X44625Y-53418D01*
X44625Y-53474D01*
X44647Y-53525D01*
X44758Y-53637D01*
X44808Y-53637D01*
X45069Y-53375D01*
X45069Y-53403D01*
X44822Y-53651D01*
X44822Y-53690D01*
X44809Y-53681D01*
X44744Y-53668D01*
X44370Y-53668D01*
X44370Y-53668D01*
X44305Y-53681D01*
X44289Y-53692D01*
X44289Y-53646D01*
X44289Y-53241D01*
X44267Y-53189D01*
X44228Y-53150D01*
X44176Y-53128D01*
X44121Y-53128D01*
X43919Y-53128D01*
X43884Y-53163D01*
X43884Y-53433D01*
X44254Y-53433D01*
X44289Y-53398D01*
X44289Y-53241D01*
X44289Y-53646D01*
X44289Y-53488D01*
X44254Y-53453D01*
X43884Y-53453D01*
X43884Y-53723D01*
X43919Y-53758D01*
X44121Y-53758D01*
X44176Y-53758D01*
X44228Y-53737D01*
X44267Y-53698D01*
X44289Y-53646D01*
X44289Y-53692D01*
X44249Y-53718D01*
X44249Y-53718D01*
X44069Y-53898D01*
X43864Y-53898D01*
X43864Y-53723D01*
X43864Y-53453D01*
X43856Y-53453D01*
X43856Y-53433D01*
X43864Y-53433D01*
X43864Y-53163D01*
X43829Y-53128D01*
X43626Y-53128D01*
X43571Y-53128D01*
X43519Y-53150D01*
X43480Y-53189D01*
X43469Y-53215D01*
X43463Y-53201D01*
X43429Y-53167D01*
X43385Y-53148D01*
X43337Y-53148D01*
X43041Y-53148D01*
X43041Y-53072D01*
X43069Y-53072D01*
X43113Y-53053D01*
X43147Y-53020D01*
X43166Y-52976D01*
X43166Y-52928D01*
X43166Y-52378D01*
X43147Y-52334D01*
X43114Y-52300D01*
X43070Y-52282D01*
X43022Y-52282D01*
X42672Y-52282D01*
X42628Y-52300D01*
X42594Y-52334D01*
X42576Y-52378D01*
X42576Y-52425D01*
X42576Y-52975D01*
X42594Y-53020D01*
X42627Y-53053D01*
X42672Y-53072D01*
X42701Y-53072D01*
X42701Y-53222D01*
X42691Y-53244D01*
X42691Y-53292D01*
X42691Y-53365D01*
X42541Y-53365D01*
X42538Y-53359D01*
X42505Y-53325D01*
X42461Y-53307D01*
X42413Y-53307D01*
X42316Y-53307D01*
X42267Y-53287D01*
X42226Y-53287D01*
X42191Y-53322D01*
X42191Y-53525D01*
X42198Y-53525D01*
X42198Y-53545D01*
X42191Y-53545D01*
X42191Y-53749D01*
X42226Y-53784D01*
X42267Y-53784D01*
X42316Y-53764D01*
X42342Y-53764D01*
X42460Y-53764D01*
X42504Y-53746D01*
X42538Y-53712D01*
X42541Y-53705D01*
X42728Y-53705D01*
X42743Y-53720D01*
X42787Y-53738D01*
X42835Y-53738D01*
X43385Y-53738D01*
X43429Y-53720D01*
X43463Y-53686D01*
X43469Y-53672D01*
X43480Y-53698D01*
X43519Y-53737D01*
X43571Y-53758D01*
X43626Y-53758D01*
X43829Y-53758D01*
X43864Y-53723D01*
X43864Y-53898D01*
X43575Y-53898D01*
X43531Y-53917D01*
X43497Y-53950D01*
X43480Y-53991D01*
X43463Y-53951D01*
X43429Y-53917D01*
X43385Y-53898D01*
X43337Y-53898D01*
X42787Y-53898D01*
X42743Y-53917D01*
X42728Y-53931D01*
X42541Y-53931D01*
X42538Y-53925D01*
X42505Y-53891D01*
X42461Y-53873D01*
X42413Y-53873D01*
X42295Y-53873D01*
X42279Y-53879D01*
X42264Y-53873D01*
X42216Y-53873D01*
X42098Y-53873D01*
X42082Y-53879D01*
X42067Y-53873D01*
X42019Y-53873D01*
X41901Y-53873D01*
X41857Y-53891D01*
X41823Y-53925D01*
X41823Y-53712D01*
X41857Y-53746D01*
X41901Y-53764D01*
X41948Y-53764D01*
X42045Y-53764D01*
X42094Y-53784D01*
X42136Y-53784D01*
X42171Y-53749D01*
X42171Y-53545D01*
X42163Y-53545D01*
X42163Y-53525D01*
X42171Y-53525D01*
X42171Y-53322D01*
X42154Y-53305D01*
X42154Y-53072D01*
X42319Y-53072D01*
X42363Y-53053D01*
X42397Y-53020D01*
X42416Y-52976D01*
X42416Y-52928D01*
X42416Y-52378D01*
X42402Y-52345D01*
X42777Y-51970D01*
X42799Y-51970D01*
X42879Y-51937D01*
X42940Y-51875D01*
X42974Y-51795D01*
X42974Y-51708D01*
X42941Y-51628D01*
X42879Y-51566D01*
X42799Y-51533D01*
X42712Y-51533D01*
X42632Y-51566D01*
X42570Y-51628D01*
X42537Y-51708D01*
X42537Y-51729D01*
X42000Y-52266D01*
X41990Y-52282D01*
X41922Y-52282D01*
X41878Y-52300D01*
X41844Y-52334D01*
X41826Y-52378D01*
X41826Y-52425D01*
X41826Y-52754D01*
X41823Y-52766D01*
X41823Y-51507D01*
X42785Y-50545D01*
X42795Y-50596D01*
X42832Y-50651D01*
X42912Y-50731D01*
X42907Y-50733D01*
X42796Y-50845D01*
X42796Y-50894D01*
X43057Y-51156D01*
X43063Y-51150D01*
X43077Y-51165D01*
X43071Y-51170D01*
X43333Y-51432D01*
X43347Y-51432D01*
X43347Y-51446D01*
X43608Y-51707D01*
X43614Y-51702D01*
X43628Y-51716D01*
X43622Y-51721D01*
X43884Y-51983D01*
X43898Y-51983D01*
X43898Y-51997D01*
X44160Y-52258D01*
X44350Y-52067D01*
X44350Y-52018D01*
X44245Y-51912D01*
X44443Y-51912D01*
X44693Y-52162D01*
X44737Y-52180D01*
X44784Y-52180D01*
X44811Y-52169D01*
X44685Y-52296D01*
X44666Y-52340D01*
X44666Y-52388D01*
X44679Y-52419D01*
X44648Y-52406D01*
X44603Y-52406D01*
X44618Y-52371D01*
X44618Y-52316D01*
X44596Y-52264D01*
X44557Y-52225D01*
X44414Y-52082D01*
X44365Y-52082D01*
X44174Y-52273D01*
X44179Y-52278D01*
X44165Y-52292D01*
X44160Y-52287D01*
X44145Y-52301D01*
X44145Y-52273D01*
X43884Y-52011D01*
X43870Y-52011D01*
X43870Y-51997D01*
X43608Y-51736D01*
X43594Y-51750D01*
X43594Y-51721D01*
X43333Y-51460D01*
X43319Y-51460D01*
X43319Y-51446D01*
X43057Y-51184D01*
X43043Y-51198D01*
X43043Y-51170D01*
X42781Y-50909D01*
X42732Y-50909D01*
X42620Y-51020D01*
X42599Y-51071D01*
X42599Y-51127D01*
X42620Y-51179D01*
X42660Y-51218D01*
X42803Y-51361D01*
X42852Y-51361D01*
X43043Y-51170D01*
X43043Y-51198D01*
X42866Y-51375D01*
X42866Y-51425D01*
X43009Y-51568D01*
X43049Y-51607D01*
X43100Y-51628D01*
X43150Y-51628D01*
X43150Y-51678D01*
X43171Y-51730D01*
X43211Y-51769D01*
X43354Y-51912D01*
X43403Y-51912D01*
X43594Y-51721D01*
X43594Y-51750D01*
X43417Y-51926D01*
X43417Y-51976D01*
X43560Y-52119D01*
X43600Y-52158D01*
X43651Y-52180D01*
X43701Y-52180D01*
X43701Y-52230D01*
X43723Y-52281D01*
X43762Y-52320D01*
X43905Y-52463D01*
X43954Y-52463D01*
X44145Y-52273D01*
X44145Y-52301D01*
X43969Y-52478D01*
X43969Y-52527D01*
X44112Y-52670D01*
X44151Y-52709D01*
X44203Y-52731D01*
X44250Y-52731D01*
X44133Y-52847D01*
X44115Y-52891D01*
X44115Y-52939D01*
X44133Y-52983D01*
X44167Y-53017D01*
X44414Y-53264D01*
X44459Y-53283D01*
X44506Y-53283D01*
X44550Y-53265D01*
X44584Y-53231D01*
X44973Y-52842D01*
X44991Y-52798D01*
X44991Y-52750D01*
X44978Y-52719D01*
X45010Y-52732D01*
X45057Y-52732D01*
X45102Y-52713D01*
X45135Y-52680D01*
X45352Y-52463D01*
X45550Y-52463D01*
X45444Y-52569D01*
X45444Y-52619D01*
X45635Y-52810D01*
X45640Y-52804D01*
X45654Y-52818D01*
X45649Y-52824D01*
X45840Y-53015D01*
X45889Y-53015D01*
X46032Y-52872D01*
X46072Y-52832D01*
X46093Y-52781D01*
X46093Y-52725D01*
X46072Y-52674D01*
X46057Y-52659D01*
X46106Y-52659D01*
X46186Y-52626D01*
X46188Y-52624D01*
X46188Y-53059D01*
G54D10*
G36*
X53109Y-56208D02*
X53002Y-55948D01*
X52811Y-55757D01*
X52811Y-51290D01*
X52790Y-51235D01*
X52790Y-50286D01*
X52726Y-50132D01*
X52608Y-50014D01*
X52453Y-49950D01*
X52286Y-49950D01*
X52132Y-50013D01*
X52014Y-50131D01*
X51950Y-50286D01*
X51950Y-50453D01*
X52013Y-50607D01*
X52131Y-50725D01*
X52286Y-50790D01*
X52453Y-50790D01*
X52607Y-50726D01*
X52725Y-50608D01*
X52790Y-50453D01*
X52790Y-50286D01*
X52790Y-51235D01*
X52747Y-51127D01*
X52738Y-51114D01*
X52669Y-51084D01*
X52655Y-51098D01*
X52655Y-51070D01*
X52625Y-51001D01*
X52465Y-50931D01*
X52290Y-50928D01*
X52127Y-50992D01*
X52114Y-51001D01*
X52084Y-51070D01*
X52370Y-51355D01*
X52655Y-51070D01*
X52655Y-51098D01*
X52384Y-51370D01*
X52669Y-51655D01*
X52738Y-51625D01*
X52808Y-51465D01*
X52811Y-51290D01*
X52811Y-55757D01*
X52792Y-55738D01*
X52790Y-55737D01*
X52790Y-54646D01*
X52790Y-54046D01*
X52771Y-54002D01*
X52738Y-53968D01*
X52694Y-53950D01*
X52646Y-53950D01*
X52046Y-53950D01*
X52002Y-53968D01*
X51968Y-54002D01*
X51950Y-54046D01*
X51950Y-54093D01*
X51950Y-54219D01*
X51929Y-54219D01*
X50981Y-54219D01*
X50981Y-53845D01*
X50981Y-53687D01*
X50946Y-53652D01*
X50576Y-53652D01*
X50576Y-53922D01*
X50611Y-53957D01*
X50814Y-53957D01*
X50869Y-53957D01*
X50921Y-53936D01*
X50960Y-53896D01*
X50981Y-53845D01*
X50981Y-54219D01*
X50556Y-54219D01*
X50556Y-53922D01*
X50556Y-53652D01*
X50556Y-53632D01*
X50556Y-53362D01*
X50521Y-53327D01*
X50319Y-53327D01*
X50263Y-53327D01*
X50212Y-53349D01*
X50173Y-53388D01*
X50151Y-53439D01*
X50151Y-53597D01*
X50186Y-53632D01*
X50556Y-53632D01*
X50556Y-53652D01*
X50186Y-53652D01*
X50151Y-53687D01*
X50151Y-53845D01*
X50173Y-53896D01*
X50212Y-53936D01*
X50263Y-53957D01*
X50319Y-53957D01*
X50521Y-53957D01*
X50556Y-53922D01*
X50556Y-54219D01*
X50433Y-54219D01*
X49016Y-54219D01*
X49001Y-54204D01*
X48921Y-54171D01*
X48834Y-54171D01*
X48754Y-54204D01*
X48692Y-54265D01*
X48659Y-54346D01*
X48659Y-54433D01*
X48692Y-54513D01*
X48754Y-54574D01*
X48834Y-54608D01*
X48921Y-54608D01*
X49001Y-54575D01*
X49016Y-54559D01*
X49050Y-54559D01*
X49031Y-54567D01*
X48992Y-54607D01*
X48970Y-54658D01*
X48970Y-54816D01*
X49005Y-54851D01*
X49375Y-54851D01*
X49375Y-54843D01*
X49395Y-54843D01*
X49395Y-54851D01*
X49765Y-54851D01*
X49800Y-54816D01*
X49800Y-54658D01*
X49779Y-54607D01*
X49740Y-54567D01*
X49721Y-54559D01*
X50433Y-54559D01*
X51929Y-54559D01*
X51950Y-54559D01*
X51950Y-54693D01*
X51968Y-54737D01*
X52002Y-54771D01*
X52046Y-54790D01*
X52093Y-54790D01*
X52693Y-54790D01*
X52737Y-54771D01*
X52771Y-54738D01*
X52790Y-54694D01*
X52790Y-54646D01*
X52790Y-55737D01*
X52518Y-55625D01*
X52222Y-55624D01*
X51948Y-55738D01*
X51738Y-55947D01*
X51625Y-56221D01*
X51624Y-56517D01*
X51738Y-56791D01*
X51947Y-57001D01*
X52056Y-57046D01*
X49800Y-57046D01*
X49800Y-55063D01*
X49800Y-54906D01*
X49765Y-54871D01*
X49395Y-54871D01*
X49395Y-55141D01*
X49430Y-55176D01*
X49633Y-55176D01*
X49688Y-55176D01*
X49740Y-55154D01*
X49779Y-55115D01*
X49800Y-55063D01*
X49800Y-57046D01*
X40683Y-57046D01*
X40791Y-57002D01*
X41001Y-56792D01*
X41114Y-56518D01*
X41115Y-56222D01*
X41002Y-55948D01*
X40792Y-55738D01*
X40518Y-55625D01*
X40222Y-55624D01*
X39948Y-55738D01*
X39803Y-55882D01*
X39803Y-55044D01*
X40096Y-55336D01*
X40096Y-55336D01*
X40151Y-55373D01*
X40216Y-55386D01*
X40216Y-55386D01*
X40216Y-55386D01*
X40933Y-55386D01*
X41278Y-55731D01*
X41333Y-55768D01*
X41333Y-55768D01*
X41398Y-55781D01*
X41864Y-55781D01*
X41864Y-55809D01*
X41883Y-55854D01*
X41916Y-55887D01*
X41960Y-55906D01*
X42008Y-55906D01*
X42558Y-55906D01*
X42602Y-55888D01*
X42636Y-55854D01*
X42653Y-55813D01*
X42670Y-55854D01*
X42704Y-55887D01*
X42748Y-55906D01*
X42796Y-55906D01*
X43346Y-55906D01*
X43390Y-55888D01*
X43423Y-55854D01*
X43442Y-55810D01*
X43442Y-55762D01*
X43442Y-55456D01*
X43479Y-55419D01*
X43478Y-55459D01*
X43478Y-55809D01*
X43497Y-55854D01*
X43530Y-55887D01*
X43575Y-55906D01*
X43622Y-55906D01*
X44172Y-55906D01*
X44216Y-55888D01*
X44250Y-55854D01*
X44268Y-55810D01*
X44269Y-55781D01*
X45254Y-55781D01*
X45319Y-55768D01*
X45319Y-55768D01*
X45375Y-55731D01*
X45493Y-55612D01*
X45550Y-55636D01*
X45709Y-55636D01*
X45856Y-55575D01*
X45968Y-55463D01*
X46029Y-55316D01*
X46029Y-55157D01*
X45969Y-55009D01*
X45856Y-54897D01*
X45799Y-54873D01*
X45799Y-53928D01*
X46478Y-53250D01*
X46493Y-53227D01*
X47459Y-54193D01*
X47459Y-54873D01*
X47403Y-54896D01*
X47291Y-55009D01*
X47229Y-55156D01*
X47229Y-55315D01*
X47290Y-55462D01*
X47403Y-55575D01*
X47550Y-55636D01*
X47709Y-55636D01*
X47766Y-55612D01*
X47884Y-55731D01*
X47884Y-55731D01*
X47939Y-55768D01*
X48004Y-55781D01*
X48990Y-55781D01*
X48990Y-55809D01*
X49009Y-55854D01*
X49042Y-55887D01*
X49086Y-55906D01*
X49134Y-55906D01*
X49684Y-55906D01*
X49728Y-55888D01*
X49762Y-55854D01*
X49780Y-55810D01*
X49780Y-55762D01*
X49780Y-55412D01*
X49762Y-55368D01*
X49728Y-55334D01*
X49684Y-55316D01*
X49637Y-55316D01*
X49375Y-55316D01*
X49375Y-55141D01*
X49375Y-54871D01*
X49005Y-54871D01*
X48970Y-54906D01*
X48970Y-55063D01*
X48992Y-55115D01*
X49031Y-55154D01*
X49082Y-55176D01*
X49138Y-55176D01*
X49340Y-55176D01*
X49375Y-55141D01*
X49375Y-55316D01*
X49087Y-55316D01*
X49042Y-55334D01*
X49009Y-55368D01*
X48990Y-55412D01*
X48990Y-55441D01*
X48075Y-55441D01*
X48006Y-55372D01*
X48029Y-55316D01*
X48029Y-55157D01*
X47969Y-55009D01*
X47856Y-54897D01*
X47799Y-54873D01*
X47799Y-54123D01*
X47786Y-54058D01*
X47786Y-54058D01*
X47750Y-54002D01*
X46725Y-52977D01*
X46725Y-52373D01*
X47467Y-51630D01*
X47467Y-51816D01*
X47470Y-51829D01*
X47420Y-51879D01*
X47401Y-51923D01*
X47401Y-51971D01*
X47419Y-52015D01*
X47453Y-52049D01*
X47842Y-52438D01*
X47886Y-52456D01*
X47934Y-52456D01*
X47965Y-52443D01*
X47952Y-52474D01*
X47952Y-52522D01*
X47971Y-52566D01*
X48004Y-52600D01*
X48393Y-52989D01*
X48437Y-53007D01*
X48485Y-53007D01*
X48517Y-52994D01*
X48504Y-53025D01*
X48504Y-53073D01*
X48522Y-53117D01*
X48556Y-53151D01*
X48944Y-53540D01*
X48989Y-53558D01*
X49036Y-53558D01*
X49080Y-53540D01*
X49114Y-53506D01*
X49362Y-53259D01*
X49380Y-53215D01*
X49380Y-53167D01*
X49362Y-53123D01*
X49328Y-53089D01*
X49015Y-52776D01*
X49015Y-52252D01*
X49015Y-52202D01*
X48824Y-52011D01*
X48810Y-52025D01*
X48810Y-51997D01*
X48619Y-51806D01*
X48569Y-51806D01*
X48426Y-51949D01*
X48387Y-51988D01*
X48365Y-52040D01*
X48366Y-52096D01*
X48387Y-52147D01*
X48498Y-52259D01*
X48548Y-52259D01*
X48810Y-51997D01*
X48810Y-52025D01*
X48562Y-52273D01*
X48562Y-52322D01*
X48674Y-52434D01*
X48725Y-52455D01*
X48781Y-52455D01*
X48832Y-52434D01*
X48872Y-52395D01*
X49015Y-52252D01*
X49015Y-52776D01*
X48939Y-52700D01*
X48895Y-52682D01*
X48847Y-52682D01*
X48816Y-52695D01*
X48829Y-52664D01*
X48829Y-52616D01*
X48811Y-52572D01*
X48777Y-52538D01*
X48388Y-52149D01*
X48344Y-52131D01*
X48296Y-52131D01*
X48265Y-52144D01*
X48278Y-52112D01*
X48278Y-52065D01*
X48259Y-52021D01*
X48226Y-51987D01*
X47837Y-51598D01*
X47807Y-51586D01*
X47807Y-51299D01*
X47794Y-51234D01*
X47794Y-51234D01*
X47758Y-51179D01*
X47659Y-51080D01*
X47659Y-51055D01*
X47425Y-50820D01*
X47420Y-50826D01*
X47406Y-50812D01*
X47411Y-50806D01*
X47177Y-50572D01*
X47127Y-50572D01*
X47098Y-50602D01*
X47078Y-50650D01*
X47059Y-50669D01*
X46976Y-50752D01*
X46969Y-50768D01*
X46954Y-50774D01*
X46920Y-50808D01*
X46836Y-50891D01*
X46830Y-50907D01*
X46814Y-50913D01*
X46781Y-50947D01*
X46697Y-51030D01*
X46679Y-51075D01*
X46679Y-51122D01*
X46697Y-51166D01*
X46731Y-51200D01*
X46761Y-51230D01*
X46521Y-51470D01*
X46521Y-51071D01*
X46500Y-51019D01*
X46461Y-50980D01*
X46470Y-50990D01*
X46421Y-50990D01*
X46416Y-50994D01*
X46416Y-50936D01*
X46377Y-50896D01*
X46366Y-50892D01*
X46361Y-50880D01*
X46321Y-50841D01*
X46331Y-50850D01*
X46282Y-50850D01*
X46248Y-50884D01*
X46218Y-50896D01*
X46064Y-51051D01*
X46064Y-51068D01*
X46047Y-51085D01*
X46156Y-51194D01*
X46156Y-51194D01*
X46172Y-51210D01*
X46189Y-51194D01*
X46206Y-51194D01*
X46361Y-51039D01*
X46373Y-51009D01*
X46407Y-50975D01*
X46407Y-50926D01*
X46416Y-50936D01*
X46416Y-50994D01*
X46187Y-51224D01*
X46296Y-51333D01*
X46345Y-51333D01*
X46500Y-51178D01*
X46521Y-51127D01*
X46521Y-51071D01*
X46521Y-51470D01*
X46281Y-51710D01*
X46281Y-51396D01*
X46281Y-51347D01*
X46172Y-51238D01*
X46158Y-51252D01*
X46158Y-51224D01*
X46049Y-51115D01*
X46049Y-51115D01*
X46033Y-51099D01*
X46017Y-51115D01*
X46000Y-51115D01*
X45845Y-51270D01*
X45833Y-51299D01*
X45799Y-51333D01*
X45799Y-51382D01*
X45789Y-51373D01*
X45829Y-51412D01*
X45840Y-51417D01*
X45845Y-51428D01*
X45884Y-51468D01*
X45875Y-51458D01*
X45924Y-51458D01*
X45958Y-51424D01*
X45987Y-51412D01*
X46142Y-51257D01*
X46142Y-51240D01*
X46158Y-51224D01*
X46158Y-51252D01*
X45938Y-51472D01*
X45938Y-51522D01*
X45929Y-51512D01*
X45968Y-51551D01*
X46019Y-51573D01*
X46075Y-51573D01*
X46127Y-51551D01*
X46281Y-51396D01*
X46281Y-51710D01*
X46238Y-51753D01*
X46201Y-51809D01*
X46188Y-51874D01*
X46188Y-52257D01*
X46186Y-52255D01*
X46106Y-52222D01*
X46085Y-52222D01*
X46036Y-52173D01*
X45980Y-52136D01*
X45915Y-52123D01*
X45493Y-52123D01*
X45491Y-52121D01*
X45465Y-52095D01*
X45465Y-51850D01*
X45465Y-51850D01*
X45465Y-51850D01*
X45452Y-51785D01*
X45415Y-51730D01*
X45415Y-51730D01*
X45091Y-51405D01*
X45091Y-51358D01*
X45094Y-51360D01*
X45155Y-51360D01*
X45155Y-51381D01*
X45188Y-51462D01*
X45250Y-51523D01*
X45330Y-51556D01*
X45417Y-51557D01*
X45497Y-51523D01*
X45559Y-51462D01*
X45592Y-51382D01*
X45592Y-51295D01*
X45565Y-51230D01*
X45620Y-51175D01*
X45686Y-51241D01*
X45706Y-51289D01*
X45745Y-51329D01*
X45735Y-51319D01*
X45785Y-51319D01*
X46019Y-51085D01*
X46014Y-51079D01*
X46028Y-51065D01*
X46033Y-51070D01*
X46267Y-50836D01*
X46267Y-50787D01*
X46277Y-50796D01*
X46238Y-50757D01*
X46190Y-50737D01*
X46171Y-50718D01*
X46087Y-50635D01*
X46072Y-50628D01*
X46065Y-50613D01*
X46032Y-50579D01*
X45948Y-50496D01*
X45933Y-50489D01*
X45926Y-50474D01*
X45893Y-50440D01*
X45809Y-50357D01*
X45793Y-50350D01*
X45787Y-50335D01*
X45753Y-50301D01*
X45685Y-50232D01*
X45665Y-50184D01*
X45626Y-50145D01*
X45635Y-50154D01*
X45586Y-50154D01*
X45581Y-50159D01*
X45581Y-50100D01*
X45542Y-50061D01*
X45530Y-50056D01*
X45526Y-50045D01*
X45486Y-50006D01*
X45496Y-50015D01*
X45446Y-50015D01*
X45413Y-50049D01*
X45383Y-50061D01*
X45228Y-50216D01*
X45228Y-50233D01*
X45212Y-50249D01*
X45228Y-50266D01*
X45321Y-50358D01*
X45337Y-50375D01*
X45353Y-50358D01*
X45371Y-50358D01*
X45526Y-50204D01*
X45538Y-50174D01*
X45572Y-50140D01*
X45572Y-50091D01*
X45581Y-50100D01*
X45581Y-50159D01*
X45351Y-50389D01*
X45357Y-50394D01*
X45343Y-50408D01*
X45337Y-50403D01*
X45332Y-50408D01*
X45318Y-50394D01*
X45323Y-50389D01*
X45307Y-50373D01*
X45214Y-50280D01*
X45198Y-50264D01*
X45182Y-50280D01*
X45165Y-50280D01*
X45010Y-50435D01*
X44998Y-50464D01*
X44964Y-50498D01*
X44964Y-50547D01*
X44954Y-50538D01*
X44994Y-50577D01*
X45005Y-50582D01*
X45005Y-50582D01*
X44925Y-50549D01*
X44868Y-50549D01*
X44933Y-50484D01*
X44950Y-50484D01*
X45184Y-50249D01*
X45178Y-50244D01*
X45193Y-50230D01*
X45198Y-50235D01*
X45432Y-50001D01*
X45432Y-49952D01*
X45442Y-49961D01*
X45403Y-49922D01*
X45354Y-49902D01*
X45336Y-49883D01*
X45252Y-49800D01*
X45237Y-49793D01*
X45230Y-49778D01*
X45197Y-49744D01*
X45113Y-49661D01*
X45097Y-49654D01*
X45091Y-49639D01*
X45057Y-49605D01*
X45015Y-49562D01*
X45015Y-49016D01*
X45015Y-48967D01*
X44981Y-48933D01*
X44969Y-48904D01*
X44930Y-48864D01*
X44814Y-48749D01*
X44797Y-48749D01*
X44781Y-48732D01*
X44766Y-48747D01*
X44672Y-48841D01*
X44672Y-48841D01*
X44655Y-48858D01*
X44672Y-48874D01*
X44672Y-48891D01*
X44787Y-49007D01*
X44827Y-49046D01*
X44856Y-49058D01*
X44890Y-49092D01*
X44939Y-49092D01*
X44969Y-49062D01*
X44974Y-49051D01*
X44985Y-49046D01*
X45015Y-49016D01*
X45015Y-49562D01*
X44974Y-49521D01*
X44958Y-49515D01*
X44952Y-49500D01*
X44918Y-49466D01*
X44876Y-49423D01*
X44876Y-49155D01*
X44876Y-49106D01*
X44641Y-48872D01*
X44627Y-48886D01*
X44627Y-48858D01*
X44393Y-48623D01*
X44343Y-48623D01*
X44314Y-48653D01*
X44293Y-48704D01*
X44293Y-48760D01*
X44314Y-48811D01*
X44353Y-48851D01*
X44469Y-48966D01*
X44518Y-48966D01*
X44627Y-48858D01*
X44627Y-48886D01*
X44532Y-48981D01*
X44532Y-49030D01*
X44648Y-49146D01*
X44687Y-49185D01*
X44739Y-49206D01*
X44795Y-49206D01*
X44846Y-49185D01*
X44876Y-49155D01*
X44876Y-49423D01*
X44835Y-49382D01*
X44791Y-49364D01*
X44743Y-49364D01*
X44699Y-49382D01*
X44665Y-49416D01*
X44331Y-49750D01*
X44325Y-49764D01*
X43727Y-50362D01*
X43585Y-50220D01*
X43541Y-50202D01*
X43493Y-50202D01*
X43449Y-50220D01*
X43415Y-50254D01*
X43168Y-50501D01*
X43166Y-50505D01*
X43122Y-50461D01*
X43122Y-50208D01*
X43207Y-50123D01*
X43296Y-50212D01*
X43340Y-50230D01*
X43388Y-50230D01*
X43432Y-50212D01*
X43466Y-50178D01*
X43713Y-49931D01*
X43732Y-49887D01*
X43732Y-49839D01*
X43713Y-49795D01*
X43680Y-49761D01*
X43291Y-49372D01*
X43247Y-49354D01*
X43199Y-49354D01*
X43194Y-49356D01*
X43200Y-49340D01*
X43200Y-49284D01*
X43179Y-49233D01*
X43140Y-49193D01*
X42997Y-49050D01*
X42947Y-49050D01*
X42756Y-49241D01*
X42762Y-49247D01*
X42748Y-49261D01*
X42742Y-49255D01*
X42551Y-49446D01*
X42551Y-49496D01*
X42694Y-49639D01*
X42734Y-49678D01*
X42785Y-49699D01*
X42841Y-49699D01*
X42857Y-49692D01*
X42855Y-49698D01*
X42855Y-49745D01*
X42873Y-49789D01*
X42907Y-49823D01*
X42965Y-49881D01*
X42832Y-50013D01*
X42824Y-50025D01*
X41626Y-51223D01*
X41626Y-49893D01*
X42295Y-49224D01*
X42305Y-49250D01*
X42345Y-49289D01*
X42488Y-49432D01*
X42537Y-49432D01*
X42728Y-49241D01*
X42722Y-49235D01*
X42737Y-49221D01*
X42742Y-49227D01*
X42933Y-49036D01*
X42933Y-48986D01*
X42827Y-48881D01*
X43025Y-48881D01*
X43275Y-49131D01*
X43319Y-49149D01*
X43367Y-49149D01*
X43399Y-49136D01*
X43386Y-49167D01*
X43386Y-49215D01*
X43404Y-49259D01*
X43437Y-49293D01*
X43826Y-49682D01*
X43870Y-49700D01*
X43918Y-49700D01*
X43962Y-49682D01*
X43996Y-49648D01*
X44244Y-49401D01*
X44262Y-49357D01*
X44262Y-49309D01*
X44244Y-49265D01*
X44210Y-49231D01*
X43821Y-48842D01*
X43777Y-48824D01*
X43729Y-48824D01*
X43698Y-48837D01*
X43711Y-48805D01*
X43711Y-48758D01*
X43693Y-48714D01*
X43659Y-48680D01*
X43601Y-48622D01*
X43767Y-48457D01*
X44510Y-48457D01*
X44507Y-48459D01*
X44532Y-48484D01*
X44483Y-48484D01*
X44453Y-48514D01*
X44448Y-48525D01*
X44437Y-48530D01*
X44407Y-48560D01*
X44407Y-48609D01*
X44441Y-48643D01*
X44453Y-48672D01*
X44492Y-48712D01*
X44608Y-48827D01*
X44625Y-48827D01*
X44641Y-48843D01*
X44657Y-48827D01*
X44750Y-48734D01*
X44750Y-48734D01*
X44766Y-48718D01*
X44761Y-48713D01*
X44775Y-48699D01*
X44781Y-48704D01*
X44786Y-48699D01*
X44800Y-48713D01*
X44795Y-48718D01*
X45029Y-48953D01*
X45078Y-48953D01*
X45108Y-48923D01*
X45128Y-48875D01*
X45147Y-48856D01*
X45230Y-48772D01*
X45237Y-48757D01*
X45252Y-48751D01*
X45286Y-48717D01*
X45369Y-48633D01*
X45376Y-48618D01*
X45391Y-48611D01*
X45425Y-48578D01*
X45464Y-48539D01*
X45765Y-48840D01*
X45765Y-48840D01*
X45820Y-48877D01*
X45885Y-48890D01*
X45983Y-48890D01*
X45998Y-48905D01*
X46078Y-48938D01*
X46165Y-48938D01*
X46245Y-48905D01*
X46286Y-48864D01*
X46286Y-49291D01*
X46299Y-49356D01*
X46336Y-49411D01*
X46553Y-49628D01*
X46553Y-49628D01*
X47326Y-50401D01*
X47269Y-50459D01*
X47221Y-50479D01*
X47191Y-50508D01*
X47191Y-50558D01*
X47425Y-50792D01*
X47431Y-50787D01*
X47445Y-50801D01*
X47439Y-50806D01*
X47674Y-51040D01*
X47690Y-51040D01*
X47996Y-51347D01*
X47874Y-51469D01*
X47855Y-51513D01*
X47855Y-51561D01*
X47873Y-51605D01*
X47907Y-51639D01*
X48155Y-51886D01*
X48199Y-51905D01*
X48246Y-51905D01*
X48291Y-51887D01*
X48324Y-51853D01*
X48713Y-51464D01*
X48732Y-51420D01*
X48732Y-51372D01*
X48720Y-51345D01*
X48847Y-51472D01*
X48891Y-51490D01*
X48939Y-51490D01*
X48971Y-51477D01*
X48958Y-51509D01*
X48958Y-51553D01*
X48922Y-51539D01*
X48867Y-51539D01*
X48815Y-51560D01*
X48776Y-51599D01*
X48633Y-51742D01*
X48633Y-51792D01*
X48824Y-51983D01*
X48829Y-51977D01*
X48843Y-51991D01*
X48838Y-51997D01*
X49029Y-52188D01*
X49078Y-52188D01*
X49221Y-52045D01*
X49261Y-52005D01*
X49282Y-51954D01*
X49282Y-51907D01*
X49398Y-52023D01*
X49442Y-52041D01*
X49490Y-52041D01*
X49522Y-52028D01*
X49509Y-52060D01*
X49509Y-52107D01*
X49527Y-52152D01*
X49561Y-52185D01*
X49950Y-52574D01*
X49994Y-52593D01*
X50041Y-52593D01*
X50086Y-52574D01*
X50119Y-52541D01*
X50367Y-52293D01*
X50385Y-52249D01*
X50385Y-52201D01*
X50367Y-52157D01*
X50333Y-52123D01*
X49944Y-51735D01*
X49900Y-51716D01*
X49852Y-51716D01*
X49821Y-51729D01*
X49834Y-51698D01*
X49834Y-51650D01*
X49816Y-51606D01*
X49782Y-51572D01*
X49393Y-51183D01*
X49349Y-51165D01*
X49301Y-51165D01*
X49270Y-51178D01*
X49283Y-51147D01*
X49283Y-51099D01*
X49265Y-51055D01*
X49231Y-51021D01*
X48842Y-50632D01*
X48798Y-50614D01*
X48750Y-50614D01*
X48706Y-50632D01*
X48672Y-50666D01*
X48657Y-50681D01*
X48634Y-50657D01*
X48634Y-50130D01*
X48634Y-50080D01*
X48600Y-50046D01*
X48588Y-50017D01*
X48549Y-49978D01*
X48433Y-49862D01*
X48416Y-49862D01*
X48400Y-49846D01*
X48385Y-49860D01*
X48385Y-49832D01*
X48369Y-49816D01*
X48369Y-49798D01*
X48254Y-49683D01*
X48214Y-49644D01*
X48185Y-49631D01*
X48151Y-49598D01*
X48102Y-49598D01*
X48072Y-49627D01*
X48067Y-49639D01*
X48056Y-49644D01*
X48026Y-49673D01*
X48026Y-49723D01*
X48060Y-49756D01*
X48070Y-49781D01*
X48046Y-49771D01*
X48012Y-49737D01*
X47963Y-49737D01*
X47933Y-49766D01*
X47928Y-49778D01*
X47917Y-49783D01*
X47887Y-49812D01*
X47887Y-49862D01*
X47921Y-49896D01*
X47933Y-49925D01*
X47972Y-49964D01*
X48088Y-50080D01*
X48105Y-50080D01*
X48121Y-50096D01*
X48137Y-50080D01*
X48137Y-50080D01*
X48230Y-49987D01*
X48246Y-49971D01*
X48230Y-49955D01*
X48230Y-49941D01*
X48244Y-49941D01*
X48260Y-49957D01*
X48277Y-49941D01*
X48369Y-49848D01*
X48385Y-49832D01*
X48385Y-49860D01*
X48383Y-49862D01*
X48291Y-49955D01*
X48275Y-49971D01*
X48291Y-49987D01*
X48291Y-50001D01*
X48277Y-50001D01*
X48260Y-49985D01*
X48244Y-50001D01*
X48244Y-50001D01*
X48135Y-50110D01*
X48151Y-50126D01*
X48151Y-50144D01*
X48267Y-50259D01*
X48306Y-50299D01*
X48336Y-50311D01*
X48370Y-50344D01*
X48419Y-50344D01*
X48449Y-50315D01*
X48453Y-50303D01*
X48465Y-50298D01*
X48495Y-50269D01*
X48495Y-50219D01*
X48461Y-50186D01*
X48451Y-50162D01*
X48475Y-50172D01*
X48509Y-50205D01*
X48558Y-50205D01*
X48588Y-50176D01*
X48593Y-50164D01*
X48604Y-50159D01*
X48634Y-50130D01*
X48634Y-50657D01*
X48355Y-50379D01*
X48355Y-50359D01*
X48121Y-50124D01*
X48116Y-50130D01*
X48102Y-50116D01*
X48107Y-50110D01*
X47873Y-49876D01*
X47823Y-49876D01*
X47794Y-49906D01*
X47774Y-49954D01*
X47755Y-49973D01*
X47714Y-50013D01*
X47029Y-49328D01*
X46961Y-49260D01*
X46961Y-48268D01*
X46976Y-48253D01*
X46991Y-48216D01*
X48078Y-49302D01*
X48078Y-49389D01*
X48090Y-49454D01*
X48127Y-49509D01*
X48165Y-49548D01*
X48165Y-49584D01*
X48400Y-49818D01*
X48405Y-49812D01*
X48419Y-49826D01*
X48414Y-49832D01*
X48648Y-50066D01*
X48672Y-50066D01*
X48696Y-50091D01*
X48696Y-50091D01*
X48752Y-50128D01*
X48817Y-50141D01*
X49169Y-50141D01*
X49113Y-50196D01*
X49113Y-50246D01*
X49375Y-50508D01*
X49380Y-50502D01*
X49395Y-50516D01*
X49389Y-50522D01*
X49651Y-50783D01*
X49664Y-50783D01*
X49664Y-50797D01*
X49926Y-51059D01*
X49932Y-51053D01*
X49946Y-51067D01*
X49940Y-51073D01*
X49946Y-51078D01*
X49932Y-51093D01*
X49926Y-51087D01*
X49912Y-51101D01*
X49912Y-51073D01*
X49650Y-50811D01*
X49637Y-50811D01*
X49637Y-50798D01*
X49375Y-50536D01*
X49361Y-50550D01*
X49361Y-50522D01*
X49099Y-50260D01*
X49050Y-50260D01*
X48938Y-50372D01*
X48917Y-50423D01*
X48917Y-50479D01*
X48938Y-50530D01*
X48977Y-50570D01*
X49120Y-50713D01*
X49170Y-50713D01*
X49361Y-50522D01*
X49361Y-50550D01*
X49184Y-50727D01*
X49184Y-50776D01*
X49327Y-50919D01*
X49366Y-50959D01*
X49418Y-50980D01*
X49468Y-50980D01*
X49468Y-51030D01*
X49489Y-51081D01*
X49528Y-51121D01*
X49672Y-51264D01*
X49721Y-51264D01*
X49912Y-51073D01*
X49912Y-51101D01*
X49735Y-51278D01*
X49735Y-51327D01*
X49878Y-51471D01*
X49918Y-51510D01*
X49969Y-51531D01*
X50025Y-51531D01*
X50041Y-51524D01*
X50039Y-51529D01*
X50039Y-51577D01*
X50057Y-51621D01*
X50091Y-51655D01*
X50396Y-51960D01*
X50396Y-52597D01*
X50268Y-52597D01*
X50224Y-52615D01*
X50190Y-52649D01*
X50171Y-52693D01*
X50171Y-52731D01*
X50152Y-52735D01*
X50097Y-52772D01*
X49201Y-53668D01*
X48838Y-53668D01*
X48831Y-53653D01*
X48798Y-53620D01*
X48409Y-53231D01*
X48365Y-53212D01*
X48317Y-53212D01*
X48312Y-53214D01*
X48318Y-53198D01*
X48319Y-53142D01*
X48297Y-53091D01*
X48258Y-53051D01*
X48115Y-52908D01*
X48065Y-52908D01*
X48051Y-52923D01*
X48051Y-52894D01*
X48051Y-52845D01*
X47908Y-52702D01*
X47869Y-52662D01*
X47817Y-52641D01*
X47767Y-52641D01*
X47767Y-52591D01*
X47746Y-52540D01*
X47707Y-52500D01*
X47564Y-52357D01*
X47514Y-52357D01*
X47500Y-52371D01*
X47500Y-52343D01*
X47500Y-52294D01*
X47357Y-52151D01*
X47318Y-52111D01*
X47266Y-52090D01*
X47210Y-52090D01*
X47159Y-52111D01*
X47048Y-52223D01*
X47048Y-52272D01*
X47309Y-52534D01*
X47500Y-52343D01*
X47500Y-52371D01*
X47323Y-52548D01*
X47585Y-52810D01*
X47599Y-52810D01*
X47599Y-52824D01*
X47860Y-53085D01*
X48051Y-52894D01*
X48051Y-52923D01*
X47874Y-53099D01*
X47880Y-53105D01*
X47866Y-53119D01*
X47860Y-53113D01*
X47846Y-53128D01*
X47846Y-53099D01*
X47585Y-52838D01*
X47571Y-52838D01*
X47571Y-52824D01*
X47309Y-52562D01*
X47295Y-52576D01*
X47295Y-52548D01*
X47033Y-52287D01*
X46984Y-52287D01*
X46872Y-52398D01*
X46851Y-52449D01*
X46851Y-52505D01*
X46872Y-52557D01*
X46912Y-52596D01*
X47055Y-52739D01*
X47104Y-52739D01*
X47295Y-52548D01*
X47295Y-52576D01*
X47118Y-52753D01*
X47118Y-52803D01*
X47261Y-52946D01*
X47301Y-52985D01*
X47352Y-53006D01*
X47402Y-53006D01*
X47402Y-53056D01*
X47423Y-53108D01*
X47463Y-53147D01*
X47606Y-53290D01*
X47655Y-53290D01*
X47846Y-53099D01*
X47846Y-53128D01*
X47669Y-53304D01*
X47669Y-53354D01*
X47812Y-53497D01*
X47852Y-53536D01*
X47903Y-53558D01*
X47959Y-53557D01*
X47975Y-53551D01*
X47973Y-53556D01*
X47973Y-53604D01*
X47992Y-53648D01*
X48025Y-53681D01*
X48414Y-54070D01*
X48458Y-54089D01*
X48506Y-54089D01*
X48550Y-54070D01*
X48584Y-54037D01*
X48613Y-54008D01*
X49271Y-54008D01*
X49336Y-53995D01*
X49336Y-53995D01*
X49391Y-53958D01*
X50202Y-53148D01*
X50223Y-53169D01*
X50267Y-53187D01*
X50315Y-53187D01*
X50621Y-53187D01*
X50761Y-53327D01*
X50611Y-53327D01*
X50576Y-53362D01*
X50576Y-53632D01*
X50946Y-53632D01*
X50981Y-53597D01*
X50981Y-53527D01*
X51044Y-53540D01*
X51044Y-53540D01*
X51044Y-53540D01*
X51985Y-53540D01*
X52013Y-53607D01*
X52131Y-53725D01*
X52286Y-53790D01*
X52453Y-53790D01*
X52607Y-53726D01*
X52725Y-53608D01*
X52790Y-53453D01*
X52790Y-53286D01*
X52726Y-53132D01*
X52608Y-53014D01*
X52453Y-52950D01*
X52286Y-52950D01*
X52132Y-53013D01*
X52014Y-53131D01*
X51985Y-53200D01*
X51114Y-53200D01*
X50961Y-53047D01*
X50961Y-53043D01*
X50961Y-52693D01*
X50943Y-52649D01*
X50909Y-52616D01*
X50865Y-52597D01*
X50818Y-52597D01*
X50736Y-52597D01*
X50736Y-51924D01*
X50897Y-51763D01*
X50915Y-51719D01*
X50915Y-51671D01*
X50897Y-51627D01*
X50864Y-51593D01*
X50475Y-51204D01*
X50431Y-51186D01*
X50383Y-51186D01*
X50377Y-51188D01*
X50384Y-51172D01*
X50384Y-51116D01*
X50363Y-51064D01*
X50324Y-51025D01*
X50258Y-50959D01*
X50277Y-50959D01*
X50328Y-50938D01*
X50368Y-50898D01*
X50511Y-50755D01*
X50511Y-50706D01*
X50320Y-50515D01*
X50314Y-50521D01*
X50300Y-50506D01*
X50306Y-50501D01*
X50115Y-50310D01*
X50065Y-50310D01*
X49922Y-50453D01*
X49883Y-50492D01*
X49862Y-50544D01*
X49862Y-50600D01*
X49868Y-50615D01*
X49833Y-50615D01*
X49833Y-50565D01*
X49812Y-50513D01*
X49773Y-50474D01*
X49707Y-50409D01*
X49743Y-50409D01*
X49787Y-50391D01*
X49820Y-50357D01*
X50106Y-50071D01*
X50304Y-50071D01*
X50272Y-50103D01*
X50129Y-50246D01*
X50129Y-50296D01*
X50320Y-50487D01*
X50325Y-50481D01*
X50339Y-50495D01*
X50334Y-50501D01*
X50525Y-50692D01*
X50574Y-50692D01*
X50717Y-50549D01*
X50757Y-50509D01*
X50775Y-50465D01*
X51542Y-51231D01*
X51542Y-51712D01*
X51555Y-51777D01*
X51592Y-51832D01*
X51978Y-52218D01*
X51950Y-52286D01*
X51950Y-52453D01*
X52013Y-52607D01*
X52131Y-52725D01*
X52286Y-52790D01*
X52453Y-52790D01*
X52607Y-52726D01*
X52725Y-52608D01*
X52790Y-52453D01*
X52790Y-52286D01*
X52726Y-52132D01*
X52655Y-52061D01*
X52655Y-51669D01*
X52370Y-51384D01*
X52355Y-51398D01*
X52355Y-51370D01*
X52070Y-51084D01*
X52001Y-51114D01*
X51931Y-51275D01*
X51928Y-51450D01*
X51992Y-51612D01*
X52001Y-51625D01*
X52070Y-51655D01*
X52355Y-51370D01*
X52355Y-51398D01*
X52084Y-51669D01*
X52114Y-51738D01*
X52275Y-51808D01*
X52450Y-51811D01*
X52612Y-51747D01*
X52625Y-51738D01*
X52655Y-51669D01*
X52655Y-52061D01*
X52608Y-52014D01*
X52453Y-51950D01*
X52286Y-51950D01*
X52218Y-51978D01*
X51882Y-51642D01*
X51882Y-51161D01*
X51869Y-51096D01*
X51832Y-51041D01*
X51832Y-51041D01*
X50572Y-49781D01*
X50517Y-49744D01*
X50452Y-49731D01*
X50109Y-49731D01*
X49928Y-49551D01*
X49884Y-49532D01*
X49836Y-49532D01*
X49792Y-49551D01*
X49758Y-49584D01*
X49542Y-49801D01*
X48887Y-49801D01*
X48858Y-49772D01*
X48849Y-49750D01*
X48816Y-49716D01*
X48482Y-49382D01*
X48480Y-49382D01*
X48418Y-49319D01*
X48418Y-49232D01*
X48408Y-49186D01*
X48437Y-49186D01*
X48481Y-49168D01*
X48515Y-49134D01*
X48622Y-49028D01*
X51787Y-49028D01*
X51978Y-49218D01*
X51950Y-49286D01*
X51950Y-49453D01*
X52013Y-49607D01*
X52131Y-49725D01*
X52286Y-49790D01*
X52453Y-49790D01*
X52607Y-49726D01*
X52725Y-49608D01*
X52790Y-49453D01*
X52790Y-49286D01*
X52726Y-49132D01*
X52608Y-49014D01*
X52453Y-48950D01*
X52286Y-48950D01*
X52218Y-48978D01*
X51978Y-48737D01*
X51923Y-48700D01*
X51858Y-48688D01*
X48859Y-48688D01*
X48849Y-48664D01*
X48816Y-48631D01*
X48775Y-48590D01*
X48826Y-48540D01*
X51985Y-48540D01*
X52013Y-48607D01*
X52131Y-48725D01*
X52286Y-48790D01*
X52453Y-48790D01*
X52607Y-48726D01*
X52725Y-48608D01*
X52790Y-48453D01*
X52790Y-48286D01*
X52726Y-48132D01*
X52608Y-48014D01*
X52453Y-47950D01*
X52286Y-47950D01*
X52132Y-48013D01*
X52014Y-48131D01*
X51985Y-48200D01*
X48871Y-48200D01*
X49531Y-47540D01*
X51985Y-47540D01*
X52013Y-47607D01*
X52131Y-47725D01*
X52286Y-47790D01*
X52453Y-47790D01*
X52607Y-47726D01*
X52725Y-47608D01*
X52790Y-47453D01*
X52790Y-47286D01*
X52726Y-47132D01*
X52608Y-47014D01*
X52453Y-46950D01*
X52286Y-46950D01*
X52132Y-47013D01*
X52014Y-47131D01*
X51985Y-47200D01*
X49595Y-47200D01*
X50255Y-46540D01*
X51985Y-46540D01*
X52013Y-46607D01*
X52131Y-46725D01*
X52286Y-46790D01*
X52453Y-46790D01*
X52607Y-46726D01*
X52725Y-46608D01*
X52790Y-46453D01*
X52790Y-46286D01*
X52726Y-46132D01*
X52608Y-46014D01*
X52453Y-45950D01*
X52286Y-45950D01*
X52132Y-46013D01*
X52014Y-46131D01*
X51985Y-46200D01*
X50319Y-46200D01*
X50979Y-45540D01*
X51985Y-45540D01*
X52013Y-45607D01*
X52131Y-45725D01*
X52286Y-45790D01*
X52453Y-45790D01*
X52607Y-45726D01*
X52725Y-45608D01*
X52790Y-45453D01*
X52790Y-45286D01*
X52726Y-45132D01*
X52608Y-45014D01*
X52453Y-44950D01*
X52286Y-44950D01*
X52132Y-45013D01*
X52014Y-45131D01*
X51985Y-45200D01*
X51044Y-45200D01*
X51704Y-44540D01*
X51985Y-44540D01*
X52013Y-44607D01*
X52131Y-44725D01*
X52286Y-44790D01*
X52453Y-44790D01*
X52607Y-44726D01*
X52725Y-44608D01*
X52790Y-44453D01*
X52790Y-44286D01*
X52726Y-44132D01*
X52608Y-44014D01*
X52453Y-43950D01*
X52286Y-43950D01*
X52132Y-44013D01*
X52014Y-44131D01*
X51985Y-44200D01*
X51768Y-44200D01*
X52210Y-43758D01*
X52286Y-43790D01*
X52453Y-43790D01*
X52607Y-43726D01*
X52725Y-43608D01*
X52790Y-43453D01*
X52790Y-43286D01*
X52726Y-43132D01*
X52608Y-43014D01*
X52453Y-42950D01*
X52286Y-42950D01*
X52132Y-43013D01*
X52014Y-43131D01*
X51950Y-43286D01*
X51950Y-43453D01*
X51974Y-43513D01*
X50996Y-44491D01*
X50996Y-43983D01*
X52218Y-42761D01*
X52286Y-42790D01*
X52453Y-42790D01*
X52607Y-42726D01*
X52725Y-42608D01*
X52790Y-42453D01*
X52790Y-42286D01*
X52726Y-42132D01*
X52608Y-42014D01*
X52453Y-41950D01*
X52286Y-41950D01*
X52132Y-42013D01*
X52014Y-42131D01*
X51950Y-42286D01*
X51950Y-42453D01*
X51978Y-42521D01*
X50706Y-43793D01*
X50669Y-43848D01*
X50656Y-43913D01*
X50656Y-44555D01*
X48673Y-46538D01*
X48673Y-44789D01*
X48714Y-44830D01*
X48794Y-44864D01*
X48881Y-44864D01*
X48962Y-44830D01*
X49023Y-44769D01*
X49056Y-44689D01*
X49057Y-44602D01*
X49023Y-44522D01*
X48962Y-44460D01*
X48882Y-44427D01*
X48860Y-44427D01*
X48844Y-44410D01*
X49172Y-44410D01*
X49216Y-44392D01*
X49250Y-44358D01*
X49268Y-44314D01*
X49268Y-44266D01*
X49268Y-44062D01*
X49726Y-43604D01*
X49726Y-43604D01*
X49726Y-43604D01*
X49763Y-43549D01*
X49776Y-43484D01*
X49776Y-43032D01*
X49791Y-43017D01*
X49824Y-42937D01*
X49824Y-42850D01*
X49791Y-42770D01*
X49730Y-42708D01*
X49649Y-42675D01*
X49563Y-42675D01*
X49482Y-42708D01*
X49421Y-42769D01*
X49387Y-42850D01*
X49387Y-42936D01*
X49421Y-43017D01*
X49436Y-43032D01*
X49436Y-43413D01*
X49387Y-43463D01*
X49387Y-43439D01*
X49387Y-43089D01*
X49387Y-42689D01*
X49387Y-42339D01*
X49368Y-42295D01*
X49335Y-42261D01*
X49291Y-42243D01*
X49243Y-42243D01*
X48693Y-42243D01*
X48649Y-42261D01*
X48615Y-42295D01*
X48598Y-42336D01*
X48581Y-42295D01*
X48547Y-42261D01*
X48503Y-42243D01*
X48455Y-42243D01*
X48419Y-42243D01*
X48419Y-40920D01*
X48419Y-40172D01*
X48401Y-40128D01*
X48367Y-40094D01*
X48323Y-40076D01*
X48275Y-40076D01*
X47566Y-40076D01*
X47522Y-40094D01*
X47488Y-40128D01*
X47470Y-40172D01*
X47470Y-40219D01*
X47470Y-40967D01*
X47488Y-41011D01*
X47522Y-41045D01*
X47566Y-41064D01*
X47614Y-41064D01*
X48323Y-41064D01*
X48367Y-41045D01*
X48401Y-41012D01*
X48419Y-40968D01*
X48419Y-40920D01*
X48419Y-42243D01*
X48310Y-42243D01*
X47994Y-41927D01*
X47939Y-41890D01*
X47968Y-41890D01*
X48012Y-41872D01*
X48046Y-41838D01*
X48065Y-41794D01*
X48065Y-41746D01*
X48065Y-41195D01*
X48046Y-41151D01*
X48013Y-41117D01*
X47969Y-41099D01*
X47921Y-41099D01*
X47336Y-41099D01*
X47336Y-40920D01*
X47336Y-40172D01*
X47317Y-40128D01*
X47284Y-40094D01*
X47240Y-40076D01*
X47192Y-40076D01*
X46444Y-40076D01*
X46400Y-40094D01*
X46370Y-40124D01*
X46340Y-40094D01*
X46296Y-40076D01*
X46248Y-40076D01*
X45500Y-40076D01*
X45456Y-40094D01*
X45422Y-40128D01*
X45404Y-40172D01*
X45404Y-40219D01*
X45404Y-40967D01*
X45422Y-41011D01*
X45456Y-41045D01*
X45500Y-41064D01*
X45547Y-41064D01*
X46295Y-41064D01*
X46339Y-41045D01*
X46370Y-41015D01*
X46400Y-41045D01*
X46444Y-41064D01*
X46491Y-41064D01*
X47239Y-41064D01*
X47283Y-41045D01*
X47317Y-41012D01*
X47336Y-40968D01*
X47336Y-40920D01*
X47336Y-41099D01*
X47291Y-41099D01*
X47247Y-41117D01*
X47213Y-41151D01*
X47195Y-41195D01*
X47195Y-41243D01*
X47195Y-41794D01*
X47213Y-41838D01*
X47247Y-41872D01*
X47259Y-41877D01*
X47157Y-41877D01*
X47080Y-41800D01*
X47080Y-41333D01*
X47062Y-41289D01*
X47028Y-41255D01*
X46984Y-41237D01*
X46936Y-41237D01*
X46779Y-41237D01*
X46754Y-41248D01*
X46728Y-41237D01*
X46680Y-41237D01*
X46523Y-41237D01*
X46498Y-41248D01*
X46472Y-41237D01*
X46424Y-41237D01*
X46267Y-41237D01*
X46242Y-41248D01*
X46216Y-41237D01*
X46168Y-41237D01*
X46012Y-41237D01*
X45964Y-41217D01*
X45903Y-41217D01*
X45868Y-41252D01*
X45868Y-41613D01*
X45875Y-41613D01*
X45875Y-41633D01*
X45868Y-41633D01*
X45868Y-41993D01*
X45903Y-42028D01*
X45964Y-42028D01*
X46012Y-42008D01*
X46059Y-42008D01*
X46131Y-42008D01*
X45897Y-42243D01*
X45848Y-42243D01*
X45848Y-41993D01*
X45848Y-41633D01*
X45848Y-41613D01*
X45848Y-41252D01*
X45813Y-41217D01*
X45751Y-41217D01*
X45700Y-41238D01*
X45660Y-41278D01*
X45639Y-41329D01*
X45639Y-41385D01*
X45639Y-41578D01*
X45674Y-41613D01*
X45848Y-41613D01*
X45848Y-41633D01*
X45674Y-41633D01*
X45639Y-41668D01*
X45639Y-41860D01*
X45639Y-41916D01*
X45660Y-41967D01*
X45700Y-42007D01*
X45751Y-42028D01*
X45813Y-42028D01*
X45848Y-41993D01*
X45848Y-42243D01*
X45545Y-42243D01*
X45545Y-41746D01*
X45545Y-41195D01*
X45526Y-41151D01*
X45493Y-41117D01*
X45449Y-41099D01*
X45401Y-41099D01*
X45269Y-41099D01*
X45269Y-40920D01*
X45269Y-40172D01*
X45251Y-40128D01*
X45217Y-40094D01*
X45173Y-40076D01*
X45125Y-40076D01*
X44416Y-40076D01*
X44372Y-40094D01*
X44338Y-40128D01*
X44320Y-40172D01*
X44320Y-40219D01*
X44320Y-40967D01*
X44338Y-41011D01*
X44372Y-41045D01*
X44416Y-41064D01*
X44464Y-41064D01*
X45173Y-41064D01*
X45217Y-41045D01*
X45251Y-41012D01*
X45269Y-40968D01*
X45269Y-40920D01*
X45269Y-41099D01*
X44771Y-41099D01*
X44727Y-41117D01*
X44693Y-41151D01*
X44675Y-41195D01*
X44675Y-41243D01*
X44675Y-41794D01*
X44693Y-41838D01*
X44727Y-41872D01*
X44771Y-41890D01*
X44818Y-41890D01*
X45448Y-41890D01*
X45492Y-41872D01*
X45526Y-41838D01*
X45545Y-41794D01*
X45545Y-41746D01*
X45545Y-42243D01*
X45543Y-42243D01*
X45499Y-42261D01*
X45465Y-42295D01*
X45447Y-42339D01*
X45447Y-42368D01*
X45279Y-42368D01*
X45256Y-42368D01*
X44806Y-42368D01*
X44762Y-42386D01*
X44728Y-42420D01*
X44710Y-42464D01*
X44710Y-42512D01*
X44710Y-42762D01*
X44728Y-42806D01*
X44762Y-42840D01*
X44806Y-42858D01*
X44853Y-42858D01*
X45303Y-42858D01*
X45348Y-42840D01*
X45381Y-42806D01*
X45400Y-42762D01*
X45400Y-42714D01*
X45400Y-42708D01*
X45447Y-42708D01*
X45447Y-42737D01*
X45465Y-42781D01*
X45499Y-42815D01*
X45543Y-42833D01*
X45591Y-42833D01*
X46141Y-42833D01*
X46185Y-42815D01*
X46219Y-42781D01*
X46237Y-42737D01*
X46237Y-42689D01*
X46237Y-42383D01*
X46456Y-42165D01*
X46456Y-42368D01*
X46381Y-42368D01*
X46337Y-42386D01*
X46303Y-42420D01*
X46284Y-42464D01*
X46284Y-42512D01*
X46284Y-42762D01*
X46303Y-42806D01*
X46336Y-42840D01*
X46380Y-42858D01*
X46428Y-42858D01*
X46878Y-42858D01*
X46922Y-42840D01*
X46956Y-42806D01*
X46974Y-42762D01*
X46974Y-42714D01*
X46974Y-42708D01*
X47022Y-42708D01*
X47022Y-42737D01*
X47040Y-42781D01*
X47074Y-42815D01*
X47118Y-42833D01*
X47166Y-42833D01*
X47716Y-42833D01*
X47760Y-42815D01*
X47793Y-42781D01*
X47811Y-42740D01*
X47827Y-42781D01*
X47861Y-42815D01*
X47905Y-42833D01*
X47953Y-42833D01*
X48503Y-42833D01*
X48547Y-42815D01*
X48581Y-42781D01*
X48598Y-42740D01*
X48615Y-42781D01*
X48649Y-42815D01*
X48693Y-42833D01*
X48740Y-42833D01*
X49290Y-42833D01*
X49335Y-42815D01*
X49368Y-42781D01*
X49387Y-42737D01*
X49387Y-42689D01*
X49387Y-43089D01*
X49368Y-43045D01*
X49335Y-43011D01*
X49291Y-42993D01*
X49243Y-42993D01*
X48693Y-42993D01*
X48649Y-43011D01*
X48615Y-43045D01*
X48609Y-43060D01*
X48598Y-43034D01*
X48559Y-42994D01*
X48507Y-42973D01*
X48451Y-42973D01*
X48249Y-42973D01*
X48214Y-43008D01*
X48214Y-43278D01*
X48222Y-43278D01*
X48222Y-43298D01*
X48214Y-43298D01*
X48214Y-43568D01*
X48249Y-43603D01*
X48451Y-43603D01*
X48507Y-43603D01*
X48559Y-43582D01*
X48598Y-43542D01*
X48609Y-43516D01*
X48615Y-43531D01*
X48649Y-43565D01*
X48693Y-43583D01*
X48740Y-43583D01*
X48822Y-43583D01*
X48822Y-43620D01*
X48774Y-43620D01*
X48730Y-43638D01*
X48696Y-43672D01*
X48678Y-43716D01*
X48678Y-43764D01*
X48678Y-44245D01*
X48518Y-44085D01*
X48518Y-43716D01*
X48500Y-43672D01*
X48466Y-43639D01*
X48422Y-43620D01*
X48374Y-43620D01*
X48024Y-43620D01*
X47980Y-43638D01*
X47946Y-43672D01*
X47928Y-43716D01*
X47928Y-43764D01*
X47928Y-44314D01*
X47946Y-44358D01*
X47980Y-44392D01*
X48024Y-44410D01*
X48072Y-44410D01*
X48363Y-44410D01*
X48403Y-44450D01*
X48380Y-44460D01*
X48318Y-44521D01*
X48285Y-44602D01*
X48285Y-44688D01*
X48318Y-44769D01*
X48333Y-44784D01*
X48333Y-44806D01*
X47587Y-44059D01*
X47587Y-43583D01*
X47716Y-43583D01*
X47760Y-43565D01*
X47793Y-43531D01*
X47800Y-43516D01*
X47810Y-43542D01*
X47850Y-43582D01*
X47901Y-43603D01*
X47957Y-43603D01*
X48159Y-43603D01*
X48194Y-43568D01*
X48194Y-43298D01*
X48186Y-43298D01*
X48186Y-43278D01*
X48194Y-43278D01*
X48194Y-43008D01*
X48159Y-42973D01*
X47957Y-42973D01*
X47901Y-42973D01*
X47850Y-42994D01*
X47810Y-43034D01*
X47800Y-43060D01*
X47794Y-43045D01*
X47760Y-43011D01*
X47716Y-42993D01*
X47668Y-42993D01*
X47118Y-42993D01*
X47074Y-43011D01*
X47040Y-43045D01*
X47022Y-43089D01*
X47022Y-43137D01*
X47022Y-43487D01*
X47040Y-43531D01*
X47074Y-43565D01*
X47118Y-43583D01*
X47166Y-43583D01*
X47247Y-43583D01*
X47247Y-44014D01*
X46994Y-43762D01*
X46994Y-43366D01*
X46994Y-43060D01*
X46973Y-43009D01*
X46934Y-42969D01*
X46882Y-42948D01*
X46827Y-42948D01*
X46674Y-42948D01*
X46639Y-42983D01*
X46639Y-43203D01*
X46959Y-43203D01*
X46994Y-43168D01*
X46994Y-43060D01*
X46994Y-43366D01*
X46994Y-43258D01*
X46959Y-43223D01*
X46639Y-43223D01*
X46639Y-43443D01*
X46674Y-43478D01*
X46827Y-43478D01*
X46882Y-43478D01*
X46934Y-43457D01*
X46973Y-43417D01*
X46994Y-43366D01*
X46994Y-43762D01*
X46950Y-43718D01*
X46895Y-43681D01*
X46830Y-43668D01*
X46619Y-43668D01*
X46619Y-43443D01*
X46619Y-43223D01*
X46619Y-43203D01*
X46619Y-42983D01*
X46584Y-42948D01*
X46432Y-42948D01*
X46376Y-42948D01*
X46325Y-42969D01*
X46286Y-43009D01*
X46264Y-43060D01*
X46264Y-43168D01*
X46299Y-43203D01*
X46619Y-43203D01*
X46619Y-43223D01*
X46299Y-43223D01*
X46264Y-43258D01*
X46264Y-43366D01*
X46286Y-43417D01*
X46325Y-43457D01*
X46376Y-43478D01*
X46432Y-43478D01*
X46584Y-43478D01*
X46619Y-43443D01*
X46619Y-43668D01*
X46463Y-43668D01*
X46237Y-43442D01*
X46237Y-43439D01*
X46237Y-43089D01*
X46219Y-43045D01*
X46185Y-43011D01*
X46141Y-42993D01*
X46093Y-42993D01*
X45543Y-42993D01*
X45499Y-43011D01*
X45465Y-43045D01*
X45447Y-43089D01*
X45447Y-43137D01*
X45447Y-43487D01*
X45465Y-43531D01*
X45499Y-43565D01*
X45543Y-43583D01*
X45591Y-43583D01*
X45897Y-43583D01*
X46272Y-43958D01*
X46272Y-43958D01*
X46327Y-43995D01*
X46392Y-44008D01*
X46760Y-44008D01*
X47301Y-44549D01*
X47301Y-44549D01*
X47743Y-44991D01*
X47743Y-45177D01*
X47743Y-46120D01*
X47728Y-46135D01*
X47694Y-46216D01*
X47694Y-46303D01*
X47728Y-46383D01*
X47771Y-46427D01*
X47728Y-46470D01*
X47694Y-46550D01*
X47694Y-46637D01*
X47728Y-46718D01*
X47789Y-46779D01*
X47869Y-46812D01*
X47956Y-46812D01*
X48036Y-46779D01*
X48098Y-46718D01*
X48131Y-46638D01*
X48131Y-46616D01*
X48333Y-46414D01*
X48333Y-46602D01*
X47575Y-47361D01*
X47565Y-47371D01*
X47534Y-47371D01*
X47530Y-47375D01*
X47530Y-47317D01*
X47490Y-47277D01*
X47479Y-47272D01*
X47474Y-47261D01*
X47435Y-47222D01*
X47445Y-47231D01*
X47399Y-47231D01*
X47399Y-45693D01*
X47399Y-45288D01*
X47378Y-45236D01*
X47338Y-45197D01*
X47287Y-45176D01*
X47231Y-45176D01*
X47029Y-45176D01*
X46994Y-45211D01*
X46994Y-45481D01*
X47364Y-45481D01*
X47399Y-45446D01*
X47399Y-45288D01*
X47399Y-45693D01*
X47399Y-45536D01*
X47364Y-45501D01*
X46994Y-45501D01*
X46994Y-45771D01*
X47029Y-45806D01*
X47231Y-45806D01*
X47287Y-45806D01*
X47338Y-45784D01*
X47378Y-45745D01*
X47399Y-45693D01*
X47399Y-47231D01*
X47395Y-47231D01*
X47361Y-47265D01*
X47332Y-47277D01*
X47177Y-47432D01*
X47177Y-47449D01*
X47161Y-47466D01*
X47177Y-47482D01*
X47270Y-47574D01*
X47286Y-47591D01*
X47302Y-47574D01*
X47319Y-47574D01*
X47474Y-47420D01*
X47487Y-47390D01*
X47520Y-47356D01*
X47520Y-47307D01*
X47530Y-47317D01*
X47530Y-47375D01*
X47300Y-47605D01*
X47306Y-47610D01*
X47292Y-47624D01*
X47286Y-47619D01*
X47280Y-47624D01*
X47266Y-47610D01*
X47272Y-47605D01*
X47256Y-47589D01*
X47163Y-47496D01*
X47147Y-47480D01*
X47141Y-47485D01*
X47127Y-47471D01*
X47133Y-47466D01*
X47127Y-47460D01*
X47141Y-47446D01*
X47147Y-47451D01*
X47381Y-47217D01*
X47381Y-47168D01*
X47391Y-47177D01*
X47351Y-47138D01*
X47303Y-47118D01*
X47284Y-47099D01*
X47201Y-47016D01*
X47178Y-47006D01*
X47178Y-46536D01*
X47283Y-46536D01*
X47327Y-46517D01*
X47360Y-46484D01*
X47379Y-46440D01*
X47379Y-46392D01*
X47379Y-46042D01*
X47361Y-45998D01*
X47327Y-45964D01*
X47283Y-45946D01*
X47235Y-45946D01*
X46974Y-45946D01*
X46974Y-45771D01*
X46974Y-45501D01*
X46974Y-45481D01*
X46974Y-45211D01*
X46939Y-45176D01*
X46736Y-45176D01*
X46681Y-45176D01*
X46629Y-45197D01*
X46590Y-45236D01*
X46551Y-45197D01*
X46499Y-45176D01*
X46444Y-45176D01*
X46241Y-45176D01*
X46206Y-45211D01*
X46206Y-45481D01*
X46576Y-45481D01*
X46590Y-45467D01*
X46604Y-45481D01*
X46974Y-45481D01*
X46974Y-45501D01*
X46604Y-45501D01*
X46590Y-45514D01*
X46576Y-45501D01*
X46206Y-45501D01*
X46206Y-45771D01*
X46241Y-45806D01*
X46444Y-45806D01*
X46499Y-45806D01*
X46551Y-45784D01*
X46590Y-45745D01*
X46629Y-45784D01*
X46681Y-45806D01*
X46736Y-45806D01*
X46939Y-45806D01*
X46974Y-45771D01*
X46974Y-45946D01*
X46685Y-45946D01*
X46641Y-45964D01*
X46607Y-45998D01*
X46590Y-46039D01*
X46573Y-45998D01*
X46539Y-45964D01*
X46495Y-45946D01*
X46448Y-45946D01*
X46166Y-45946D01*
X46026Y-45806D01*
X46151Y-45806D01*
X46186Y-45771D01*
X46186Y-45501D01*
X46178Y-45501D01*
X46178Y-45481D01*
X46186Y-45481D01*
X46186Y-45211D01*
X46151Y-45176D01*
X45949Y-45176D01*
X45893Y-45176D01*
X45858Y-45190D01*
X45858Y-44566D01*
X45858Y-44566D01*
X45858Y-44566D01*
X45846Y-44501D01*
X45809Y-44446D01*
X45809Y-44446D01*
X45420Y-44057D01*
X45420Y-43366D01*
X45420Y-43060D01*
X45398Y-43009D01*
X45359Y-42969D01*
X45308Y-42948D01*
X45252Y-42948D01*
X45100Y-42948D01*
X45065Y-42983D01*
X45065Y-43203D01*
X45385Y-43203D01*
X45420Y-43168D01*
X45420Y-43060D01*
X45420Y-43366D01*
X45420Y-43258D01*
X45385Y-43223D01*
X45065Y-43223D01*
X45065Y-43443D01*
X45100Y-43478D01*
X45252Y-43478D01*
X45308Y-43478D01*
X45359Y-43457D01*
X45398Y-43417D01*
X45420Y-43366D01*
X45420Y-44057D01*
X44840Y-43478D01*
X44857Y-43478D01*
X45010Y-43478D01*
X45045Y-43443D01*
X45045Y-43223D01*
X45045Y-43203D01*
X45045Y-42983D01*
X45010Y-42948D01*
X44857Y-42948D01*
X44802Y-42948D01*
X44750Y-42969D01*
X44711Y-43009D01*
X44690Y-43060D01*
X44690Y-43168D01*
X44725Y-43203D01*
X45045Y-43203D01*
X45045Y-43223D01*
X44725Y-43223D01*
X44690Y-43258D01*
X44690Y-43327D01*
X44441Y-43079D01*
X44441Y-41687D01*
X44428Y-41621D01*
X44391Y-41566D01*
X43899Y-41074D01*
X43899Y-41072D01*
X43899Y-40671D01*
X43881Y-40626D01*
X43847Y-40593D01*
X43803Y-40574D01*
X43755Y-40574D01*
X43157Y-40574D01*
X43113Y-40593D01*
X43079Y-40626D01*
X43061Y-40670D01*
X43061Y-40718D01*
X43061Y-40725D01*
X42797Y-40725D01*
X42797Y-40671D01*
X42778Y-40626D01*
X42745Y-40593D01*
X42701Y-40574D01*
X42653Y-40574D01*
X42054Y-40574D01*
X42010Y-40593D01*
X41977Y-40626D01*
X41958Y-40670D01*
X41958Y-40718D01*
X41958Y-41074D01*
X40833Y-42200D01*
X40790Y-42200D01*
X40790Y-42046D01*
X40771Y-42002D01*
X40738Y-41968D01*
X40694Y-41950D01*
X40646Y-41950D01*
X40046Y-41950D01*
X40002Y-41968D01*
X39968Y-42002D01*
X39950Y-42046D01*
X39950Y-42093D01*
X39950Y-42549D01*
X39803Y-42695D01*
X39803Y-40857D01*
X39947Y-41001D01*
X40221Y-41114D01*
X40517Y-41115D01*
X40791Y-41002D01*
X41001Y-40792D01*
X41114Y-40518D01*
X41115Y-40222D01*
X41002Y-39948D01*
X40857Y-39803D01*
X51882Y-39803D01*
X51738Y-39947D01*
X51625Y-40221D01*
X51624Y-40517D01*
X51738Y-40791D01*
X51947Y-41001D01*
X52221Y-41114D01*
X52517Y-41115D01*
X52791Y-41002D01*
X53001Y-40792D01*
X53109Y-40531D01*
X53109Y-56208D01*
X53109Y-56208D01*
G37*
G54D27*
X53109Y-56208D02*
X53002Y-55948D01*
X52811Y-55757D01*
X52811Y-51290D01*
X52790Y-51235D01*
X52790Y-50286D01*
X52726Y-50132D01*
X52608Y-50014D01*
X52453Y-49950D01*
X52286Y-49950D01*
X52132Y-50013D01*
X52014Y-50131D01*
X51950Y-50286D01*
X51950Y-50453D01*
X52013Y-50607D01*
X52131Y-50725D01*
X52286Y-50790D01*
X52453Y-50790D01*
X52607Y-50726D01*
X52725Y-50608D01*
X52790Y-50453D01*
X52790Y-50286D01*
X52790Y-51235D01*
X52747Y-51127D01*
X52738Y-51114D01*
X52669Y-51084D01*
X52655Y-51098D01*
X52655Y-51070D01*
X52625Y-51001D01*
X52465Y-50931D01*
X52290Y-50928D01*
X52127Y-50992D01*
X52114Y-51001D01*
X52084Y-51070D01*
X52370Y-51355D01*
X52655Y-51070D01*
X52655Y-51098D01*
X52384Y-51370D01*
X52669Y-51655D01*
X52738Y-51625D01*
X52808Y-51465D01*
X52811Y-51290D01*
X52811Y-55757D01*
X52792Y-55738D01*
X52790Y-55737D01*
X52790Y-54646D01*
X52790Y-54046D01*
X52771Y-54002D01*
X52738Y-53968D01*
X52694Y-53950D01*
X52646Y-53950D01*
X52046Y-53950D01*
X52002Y-53968D01*
X51968Y-54002D01*
X51950Y-54046D01*
X51950Y-54093D01*
X51950Y-54219D01*
X51929Y-54219D01*
X50981Y-54219D01*
X50981Y-53845D01*
X50981Y-53687D01*
X50946Y-53652D01*
X50576Y-53652D01*
X50576Y-53922D01*
X50611Y-53957D01*
X50814Y-53957D01*
X50869Y-53957D01*
X50921Y-53936D01*
X50960Y-53896D01*
X50981Y-53845D01*
X50981Y-54219D01*
X50556Y-54219D01*
X50556Y-53922D01*
X50556Y-53652D01*
X50556Y-53632D01*
X50556Y-53362D01*
X50521Y-53327D01*
X50319Y-53327D01*
X50263Y-53327D01*
X50212Y-53349D01*
X50173Y-53388D01*
X50151Y-53439D01*
X50151Y-53597D01*
X50186Y-53632D01*
X50556Y-53632D01*
X50556Y-53652D01*
X50186Y-53652D01*
X50151Y-53687D01*
X50151Y-53845D01*
X50173Y-53896D01*
X50212Y-53936D01*
X50263Y-53957D01*
X50319Y-53957D01*
X50521Y-53957D01*
X50556Y-53922D01*
X50556Y-54219D01*
X50433Y-54219D01*
X49016Y-54219D01*
X49001Y-54204D01*
X48921Y-54171D01*
X48834Y-54171D01*
X48754Y-54204D01*
X48692Y-54265D01*
X48659Y-54346D01*
X48659Y-54433D01*
X48692Y-54513D01*
X48754Y-54574D01*
X48834Y-54608D01*
X48921Y-54608D01*
X49001Y-54575D01*
X49016Y-54559D01*
X49050Y-54559D01*
X49031Y-54567D01*
X48992Y-54607D01*
X48970Y-54658D01*
X48970Y-54816D01*
X49005Y-54851D01*
X49375Y-54851D01*
X49375Y-54843D01*
X49395Y-54843D01*
X49395Y-54851D01*
X49765Y-54851D01*
X49800Y-54816D01*
X49800Y-54658D01*
X49779Y-54607D01*
X49740Y-54567D01*
X49721Y-54559D01*
X50433Y-54559D01*
X51929Y-54559D01*
X51950Y-54559D01*
X51950Y-54693D01*
X51968Y-54737D01*
X52002Y-54771D01*
X52046Y-54790D01*
X52093Y-54790D01*
X52693Y-54790D01*
X52737Y-54771D01*
X52771Y-54738D01*
X52790Y-54694D01*
X52790Y-54646D01*
X52790Y-55737D01*
X52518Y-55625D01*
X52222Y-55624D01*
X51948Y-55738D01*
X51738Y-55947D01*
X51625Y-56221D01*
X51624Y-56517D01*
X51738Y-56791D01*
X51947Y-57001D01*
X52056Y-57046D01*
X49800Y-57046D01*
X49800Y-55063D01*
X49800Y-54906D01*
X49765Y-54871D01*
X49395Y-54871D01*
X49395Y-55141D01*
X49430Y-55176D01*
X49633Y-55176D01*
X49688Y-55176D01*
X49740Y-55154D01*
X49779Y-55115D01*
X49800Y-55063D01*
X49800Y-57046D01*
X40683Y-57046D01*
X40791Y-57002D01*
X41001Y-56792D01*
X41114Y-56518D01*
X41115Y-56222D01*
X41002Y-55948D01*
X40792Y-55738D01*
X40518Y-55625D01*
X40222Y-55624D01*
X39948Y-55738D01*
X39803Y-55882D01*
X39803Y-55044D01*
X40096Y-55336D01*
X40096Y-55336D01*
X40151Y-55373D01*
X40216Y-55386D01*
X40216Y-55386D01*
X40216Y-55386D01*
X40933Y-55386D01*
X41278Y-55731D01*
X41333Y-55768D01*
X41333Y-55768D01*
X41398Y-55781D01*
X41864Y-55781D01*
X41864Y-55809D01*
X41883Y-55854D01*
X41916Y-55887D01*
X41960Y-55906D01*
X42008Y-55906D01*
X42558Y-55906D01*
X42602Y-55888D01*
X42636Y-55854D01*
X42653Y-55813D01*
X42670Y-55854D01*
X42704Y-55887D01*
X42748Y-55906D01*
X42796Y-55906D01*
X43346Y-55906D01*
X43390Y-55888D01*
X43423Y-55854D01*
X43442Y-55810D01*
X43442Y-55762D01*
X43442Y-55456D01*
X43479Y-55419D01*
X43478Y-55459D01*
X43478Y-55809D01*
X43497Y-55854D01*
X43530Y-55887D01*
X43575Y-55906D01*
X43622Y-55906D01*
X44172Y-55906D01*
X44216Y-55888D01*
X44250Y-55854D01*
X44268Y-55810D01*
X44269Y-55781D01*
X45254Y-55781D01*
X45319Y-55768D01*
X45319Y-55768D01*
X45375Y-55731D01*
X45493Y-55612D01*
X45550Y-55636D01*
X45709Y-55636D01*
X45856Y-55575D01*
X45968Y-55463D01*
X46029Y-55316D01*
X46029Y-55157D01*
X45969Y-55009D01*
X45856Y-54897D01*
X45799Y-54873D01*
X45799Y-53928D01*
X46478Y-53250D01*
X46493Y-53227D01*
X47459Y-54193D01*
X47459Y-54873D01*
X47403Y-54896D01*
X47291Y-55009D01*
X47229Y-55156D01*
X47229Y-55315D01*
X47290Y-55462D01*
X47403Y-55575D01*
X47550Y-55636D01*
X47709Y-55636D01*
X47766Y-55612D01*
X47884Y-55731D01*
X47884Y-55731D01*
X47939Y-55768D01*
X48004Y-55781D01*
X48990Y-55781D01*
X48990Y-55809D01*
X49009Y-55854D01*
X49042Y-55887D01*
X49086Y-55906D01*
X49134Y-55906D01*
X49684Y-55906D01*
X49728Y-55888D01*
X49762Y-55854D01*
X49780Y-55810D01*
X49780Y-55762D01*
X49780Y-55412D01*
X49762Y-55368D01*
X49728Y-55334D01*
X49684Y-55316D01*
X49637Y-55316D01*
X49375Y-55316D01*
X49375Y-55141D01*
X49375Y-54871D01*
X49005Y-54871D01*
X48970Y-54906D01*
X48970Y-55063D01*
X48992Y-55115D01*
X49031Y-55154D01*
X49082Y-55176D01*
X49138Y-55176D01*
X49340Y-55176D01*
X49375Y-55141D01*
X49375Y-55316D01*
X49087Y-55316D01*
X49042Y-55334D01*
X49009Y-55368D01*
X48990Y-55412D01*
X48990Y-55441D01*
X48075Y-55441D01*
X48006Y-55372D01*
X48029Y-55316D01*
X48029Y-55157D01*
X47969Y-55009D01*
X47856Y-54897D01*
X47799Y-54873D01*
X47799Y-54123D01*
X47786Y-54058D01*
X47786Y-54058D01*
X47750Y-54002D01*
X46725Y-52977D01*
X46725Y-52373D01*
X47467Y-51630D01*
X47467Y-51816D01*
X47470Y-51829D01*
X47420Y-51879D01*
X47401Y-51923D01*
X47401Y-51971D01*
X47419Y-52015D01*
X47453Y-52049D01*
X47842Y-52438D01*
X47886Y-52456D01*
X47934Y-52456D01*
X47965Y-52443D01*
X47952Y-52474D01*
X47952Y-52522D01*
X47971Y-52566D01*
X48004Y-52600D01*
X48393Y-52989D01*
X48437Y-53007D01*
X48485Y-53007D01*
X48517Y-52994D01*
X48504Y-53025D01*
X48504Y-53073D01*
X48522Y-53117D01*
X48556Y-53151D01*
X48944Y-53540D01*
X48989Y-53558D01*
X49036Y-53558D01*
X49080Y-53540D01*
X49114Y-53506D01*
X49362Y-53259D01*
X49380Y-53215D01*
X49380Y-53167D01*
X49362Y-53123D01*
X49328Y-53089D01*
X49015Y-52776D01*
X49015Y-52252D01*
X49015Y-52202D01*
X48824Y-52011D01*
X48810Y-52025D01*
X48810Y-51997D01*
X48619Y-51806D01*
X48569Y-51806D01*
X48426Y-51949D01*
X48387Y-51988D01*
X48365Y-52040D01*
X48366Y-52096D01*
X48387Y-52147D01*
X48498Y-52259D01*
X48548Y-52259D01*
X48810Y-51997D01*
X48810Y-52025D01*
X48562Y-52273D01*
X48562Y-52322D01*
X48674Y-52434D01*
X48725Y-52455D01*
X48781Y-52455D01*
X48832Y-52434D01*
X48872Y-52395D01*
X49015Y-52252D01*
X49015Y-52776D01*
X48939Y-52700D01*
X48895Y-52682D01*
X48847Y-52682D01*
X48816Y-52695D01*
X48829Y-52664D01*
X48829Y-52616D01*
X48811Y-52572D01*
X48777Y-52538D01*
X48388Y-52149D01*
X48344Y-52131D01*
X48296Y-52131D01*
X48265Y-52144D01*
X48278Y-52112D01*
X48278Y-52065D01*
X48259Y-52021D01*
X48226Y-51987D01*
X47837Y-51598D01*
X47807Y-51586D01*
X47807Y-51299D01*
X47794Y-51234D01*
X47794Y-51234D01*
X47758Y-51179D01*
X47659Y-51080D01*
X47659Y-51055D01*
X47425Y-50820D01*
X47420Y-50826D01*
X47406Y-50812D01*
X47411Y-50806D01*
X47177Y-50572D01*
X47127Y-50572D01*
X47098Y-50602D01*
X47078Y-50650D01*
X47059Y-50669D01*
X46976Y-50752D01*
X46969Y-50768D01*
X46954Y-50774D01*
X46920Y-50808D01*
X46836Y-50891D01*
X46830Y-50907D01*
X46814Y-50913D01*
X46781Y-50947D01*
X46697Y-51030D01*
X46679Y-51075D01*
X46679Y-51122D01*
X46697Y-51166D01*
X46731Y-51200D01*
X46761Y-51230D01*
X46521Y-51470D01*
X46521Y-51071D01*
X46500Y-51019D01*
X46461Y-50980D01*
X46470Y-50990D01*
X46421Y-50990D01*
X46416Y-50994D01*
X46416Y-50936D01*
X46377Y-50896D01*
X46366Y-50892D01*
X46361Y-50880D01*
X46321Y-50841D01*
X46331Y-50850D01*
X46282Y-50850D01*
X46248Y-50884D01*
X46218Y-50896D01*
X46064Y-51051D01*
X46064Y-51068D01*
X46047Y-51085D01*
X46156Y-51194D01*
X46156Y-51194D01*
X46172Y-51210D01*
X46189Y-51194D01*
X46206Y-51194D01*
X46361Y-51039D01*
X46373Y-51009D01*
X46407Y-50975D01*
X46407Y-50926D01*
X46416Y-50936D01*
X46416Y-50994D01*
X46187Y-51224D01*
X46296Y-51333D01*
X46345Y-51333D01*
X46500Y-51178D01*
X46521Y-51127D01*
X46521Y-51071D01*
X46521Y-51470D01*
X46281Y-51710D01*
X46281Y-51396D01*
X46281Y-51347D01*
X46172Y-51238D01*
X46158Y-51252D01*
X46158Y-51224D01*
X46049Y-51115D01*
X46049Y-51115D01*
X46033Y-51099D01*
X46017Y-51115D01*
X46000Y-51115D01*
X45845Y-51270D01*
X45833Y-51299D01*
X45799Y-51333D01*
X45799Y-51382D01*
X45789Y-51373D01*
X45829Y-51412D01*
X45840Y-51417D01*
X45845Y-51428D01*
X45884Y-51468D01*
X45875Y-51458D01*
X45924Y-51458D01*
X45958Y-51424D01*
X45987Y-51412D01*
X46142Y-51257D01*
X46142Y-51240D01*
X46158Y-51224D01*
X46158Y-51252D01*
X45938Y-51472D01*
X45938Y-51522D01*
X45929Y-51512D01*
X45968Y-51551D01*
X46019Y-51573D01*
X46075Y-51573D01*
X46127Y-51551D01*
X46281Y-51396D01*
X46281Y-51710D01*
X46238Y-51753D01*
X46201Y-51809D01*
X46188Y-51874D01*
X46188Y-52257D01*
X46186Y-52255D01*
X46106Y-52222D01*
X46085Y-52222D01*
X46036Y-52173D01*
X45980Y-52136D01*
X45915Y-52123D01*
X45493Y-52123D01*
X45491Y-52121D01*
X45465Y-52095D01*
X45465Y-51850D01*
X45465Y-51850D01*
X45465Y-51850D01*
X45452Y-51785D01*
X45415Y-51730D01*
X45415Y-51730D01*
X45091Y-51405D01*
X45091Y-51358D01*
X45094Y-51360D01*
X45155Y-51360D01*
X45155Y-51381D01*
X45188Y-51462D01*
X45250Y-51523D01*
X45330Y-51556D01*
X45417Y-51557D01*
X45497Y-51523D01*
X45559Y-51462D01*
X45592Y-51382D01*
X45592Y-51295D01*
X45565Y-51230D01*
X45620Y-51175D01*
X45686Y-51241D01*
X45706Y-51289D01*
X45745Y-51329D01*
X45735Y-51319D01*
X45785Y-51319D01*
X46019Y-51085D01*
X46014Y-51079D01*
X46028Y-51065D01*
X46033Y-51070D01*
X46267Y-50836D01*
X46267Y-50787D01*
X46277Y-50796D01*
X46238Y-50757D01*
X46190Y-50737D01*
X46171Y-50718D01*
X46087Y-50635D01*
X46072Y-50628D01*
X46065Y-50613D01*
X46032Y-50579D01*
X45948Y-50496D01*
X45933Y-50489D01*
X45926Y-50474D01*
X45893Y-50440D01*
X45809Y-50357D01*
X45793Y-50350D01*
X45787Y-50335D01*
X45753Y-50301D01*
X45685Y-50232D01*
X45665Y-50184D01*
X45626Y-50145D01*
X45635Y-50154D01*
X45586Y-50154D01*
X45581Y-50159D01*
X45581Y-50100D01*
X45542Y-50061D01*
X45530Y-50056D01*
X45526Y-50045D01*
X45486Y-50006D01*
X45496Y-50015D01*
X45446Y-50015D01*
X45413Y-50049D01*
X45383Y-50061D01*
X45228Y-50216D01*
X45228Y-50233D01*
X45212Y-50249D01*
X45228Y-50266D01*
X45321Y-50358D01*
X45337Y-50375D01*
X45353Y-50358D01*
X45371Y-50358D01*
X45526Y-50204D01*
X45538Y-50174D01*
X45572Y-50140D01*
X45572Y-50091D01*
X45581Y-50100D01*
X45581Y-50159D01*
X45351Y-50389D01*
X45357Y-50394D01*
X45343Y-50408D01*
X45337Y-50403D01*
X45332Y-50408D01*
X45318Y-50394D01*
X45323Y-50389D01*
X45307Y-50373D01*
X45214Y-50280D01*
X45198Y-50264D01*
X45182Y-50280D01*
X45165Y-50280D01*
X45010Y-50435D01*
X44998Y-50464D01*
X44964Y-50498D01*
X44964Y-50547D01*
X44954Y-50538D01*
X44994Y-50577D01*
X45005Y-50582D01*
X45005Y-50582D01*
X44925Y-50549D01*
X44868Y-50549D01*
X44933Y-50484D01*
X44950Y-50484D01*
X45184Y-50249D01*
X45178Y-50244D01*
X45193Y-50230D01*
X45198Y-50235D01*
X45432Y-50001D01*
X45432Y-49952D01*
X45442Y-49961D01*
X45403Y-49922D01*
X45354Y-49902D01*
X45336Y-49883D01*
X45252Y-49800D01*
X45237Y-49793D01*
X45230Y-49778D01*
X45197Y-49744D01*
X45113Y-49661D01*
X45097Y-49654D01*
X45091Y-49639D01*
X45057Y-49605D01*
X45015Y-49562D01*
X45015Y-49016D01*
X45015Y-48967D01*
X44981Y-48933D01*
X44969Y-48904D01*
X44930Y-48864D01*
X44814Y-48749D01*
X44797Y-48749D01*
X44781Y-48732D01*
X44766Y-48747D01*
X44672Y-48841D01*
X44672Y-48841D01*
X44655Y-48858D01*
X44672Y-48874D01*
X44672Y-48891D01*
X44787Y-49007D01*
X44827Y-49046D01*
X44856Y-49058D01*
X44890Y-49092D01*
X44939Y-49092D01*
X44969Y-49062D01*
X44974Y-49051D01*
X44985Y-49046D01*
X45015Y-49016D01*
X45015Y-49562D01*
X44974Y-49521D01*
X44958Y-49515D01*
X44952Y-49500D01*
X44918Y-49466D01*
X44876Y-49423D01*
X44876Y-49155D01*
X44876Y-49106D01*
X44641Y-48872D01*
X44627Y-48886D01*
X44627Y-48858D01*
X44393Y-48623D01*
X44343Y-48623D01*
X44314Y-48653D01*
X44293Y-48704D01*
X44293Y-48760D01*
X44314Y-48811D01*
X44353Y-48851D01*
X44469Y-48966D01*
X44518Y-48966D01*
X44627Y-48858D01*
X44627Y-48886D01*
X44532Y-48981D01*
X44532Y-49030D01*
X44648Y-49146D01*
X44687Y-49185D01*
X44739Y-49206D01*
X44795Y-49206D01*
X44846Y-49185D01*
X44876Y-49155D01*
X44876Y-49423D01*
X44835Y-49382D01*
X44791Y-49364D01*
X44743Y-49364D01*
X44699Y-49382D01*
X44665Y-49416D01*
X44331Y-49750D01*
X44325Y-49764D01*
X43727Y-50362D01*
X43585Y-50220D01*
X43541Y-50202D01*
X43493Y-50202D01*
X43449Y-50220D01*
X43415Y-50254D01*
X43168Y-50501D01*
X43166Y-50505D01*
X43122Y-50461D01*
X43122Y-50208D01*
X43207Y-50123D01*
X43296Y-50212D01*
X43340Y-50230D01*
X43388Y-50230D01*
X43432Y-50212D01*
X43466Y-50178D01*
X43713Y-49931D01*
X43732Y-49887D01*
X43732Y-49839D01*
X43713Y-49795D01*
X43680Y-49761D01*
X43291Y-49372D01*
X43247Y-49354D01*
X43199Y-49354D01*
X43194Y-49356D01*
X43200Y-49340D01*
X43200Y-49284D01*
X43179Y-49233D01*
X43140Y-49193D01*
X42997Y-49050D01*
X42947Y-49050D01*
X42756Y-49241D01*
X42762Y-49247D01*
X42748Y-49261D01*
X42742Y-49255D01*
X42551Y-49446D01*
X42551Y-49496D01*
X42694Y-49639D01*
X42734Y-49678D01*
X42785Y-49699D01*
X42841Y-49699D01*
X42857Y-49692D01*
X42855Y-49698D01*
X42855Y-49745D01*
X42873Y-49789D01*
X42907Y-49823D01*
X42965Y-49881D01*
X42832Y-50013D01*
X42824Y-50025D01*
X41626Y-51223D01*
X41626Y-49893D01*
X42295Y-49224D01*
X42305Y-49250D01*
X42345Y-49289D01*
X42488Y-49432D01*
X42537Y-49432D01*
X42728Y-49241D01*
X42722Y-49235D01*
X42737Y-49221D01*
X42742Y-49227D01*
X42933Y-49036D01*
X42933Y-48986D01*
X42827Y-48881D01*
X43025Y-48881D01*
X43275Y-49131D01*
X43319Y-49149D01*
X43367Y-49149D01*
X43399Y-49136D01*
X43386Y-49167D01*
X43386Y-49215D01*
X43404Y-49259D01*
X43437Y-49293D01*
X43826Y-49682D01*
X43870Y-49700D01*
X43918Y-49700D01*
X43962Y-49682D01*
X43996Y-49648D01*
X44244Y-49401D01*
X44262Y-49357D01*
X44262Y-49309D01*
X44244Y-49265D01*
X44210Y-49231D01*
X43821Y-48842D01*
X43777Y-48824D01*
X43729Y-48824D01*
X43698Y-48837D01*
X43711Y-48805D01*
X43711Y-48758D01*
X43693Y-48714D01*
X43659Y-48680D01*
X43601Y-48622D01*
X43767Y-48457D01*
X44510Y-48457D01*
X44507Y-48459D01*
X44532Y-48484D01*
X44483Y-48484D01*
X44453Y-48514D01*
X44448Y-48525D01*
X44437Y-48530D01*
X44407Y-48560D01*
X44407Y-48609D01*
X44441Y-48643D01*
X44453Y-48672D01*
X44492Y-48712D01*
X44608Y-48827D01*
X44625Y-48827D01*
X44641Y-48843D01*
X44657Y-48827D01*
X44750Y-48734D01*
X44750Y-48734D01*
X44766Y-48718D01*
X44761Y-48713D01*
X44775Y-48699D01*
X44781Y-48704D01*
X44786Y-48699D01*
X44800Y-48713D01*
X44795Y-48718D01*
X45029Y-48953D01*
X45078Y-48953D01*
X45108Y-48923D01*
X45128Y-48875D01*
X45147Y-48856D01*
X45230Y-48772D01*
X45237Y-48757D01*
X45252Y-48751D01*
X45286Y-48717D01*
X45369Y-48633D01*
X45376Y-48618D01*
X45391Y-48611D01*
X45425Y-48578D01*
X45464Y-48539D01*
X45765Y-48840D01*
X45765Y-48840D01*
X45820Y-48877D01*
X45885Y-48890D01*
X45983Y-48890D01*
X45998Y-48905D01*
X46078Y-48938D01*
X46165Y-48938D01*
X46245Y-48905D01*
X46286Y-48864D01*
X46286Y-49291D01*
X46299Y-49356D01*
X46336Y-49411D01*
X46553Y-49628D01*
X46553Y-49628D01*
X47326Y-50401D01*
X47269Y-50459D01*
X47221Y-50479D01*
X47191Y-50508D01*
X47191Y-50558D01*
X47425Y-50792D01*
X47431Y-50787D01*
X47445Y-50801D01*
X47439Y-50806D01*
X47674Y-51040D01*
X47690Y-51040D01*
X47996Y-51347D01*
X47874Y-51469D01*
X47855Y-51513D01*
X47855Y-51561D01*
X47873Y-51605D01*
X47907Y-51639D01*
X48155Y-51886D01*
X48199Y-51905D01*
X48246Y-51905D01*
X48291Y-51887D01*
X48324Y-51853D01*
X48713Y-51464D01*
X48732Y-51420D01*
X48732Y-51372D01*
X48720Y-51345D01*
X48847Y-51472D01*
X48891Y-51490D01*
X48939Y-51490D01*
X48971Y-51477D01*
X48958Y-51509D01*
X48958Y-51553D01*
X48922Y-51539D01*
X48867Y-51539D01*
X48815Y-51560D01*
X48776Y-51599D01*
X48633Y-51742D01*
X48633Y-51792D01*
X48824Y-51983D01*
X48829Y-51977D01*
X48843Y-51991D01*
X48838Y-51997D01*
X49029Y-52188D01*
X49078Y-52188D01*
X49221Y-52045D01*
X49261Y-52005D01*
X49282Y-51954D01*
X49282Y-51907D01*
X49398Y-52023D01*
X49442Y-52041D01*
X49490Y-52041D01*
X49522Y-52028D01*
X49509Y-52060D01*
X49509Y-52107D01*
X49527Y-52152D01*
X49561Y-52185D01*
X49950Y-52574D01*
X49994Y-52593D01*
X50041Y-52593D01*
X50086Y-52574D01*
X50119Y-52541D01*
X50367Y-52293D01*
X50385Y-52249D01*
X50385Y-52201D01*
X50367Y-52157D01*
X50333Y-52123D01*
X49944Y-51735D01*
X49900Y-51716D01*
X49852Y-51716D01*
X49821Y-51729D01*
X49834Y-51698D01*
X49834Y-51650D01*
X49816Y-51606D01*
X49782Y-51572D01*
X49393Y-51183D01*
X49349Y-51165D01*
X49301Y-51165D01*
X49270Y-51178D01*
X49283Y-51147D01*
X49283Y-51099D01*
X49265Y-51055D01*
X49231Y-51021D01*
X48842Y-50632D01*
X48798Y-50614D01*
X48750Y-50614D01*
X48706Y-50632D01*
X48672Y-50666D01*
X48657Y-50681D01*
X48634Y-50657D01*
X48634Y-50130D01*
X48634Y-50080D01*
X48600Y-50046D01*
X48588Y-50017D01*
X48549Y-49978D01*
X48433Y-49862D01*
X48416Y-49862D01*
X48400Y-49846D01*
X48385Y-49860D01*
X48385Y-49832D01*
X48369Y-49816D01*
X48369Y-49798D01*
X48254Y-49683D01*
X48214Y-49644D01*
X48185Y-49631D01*
X48151Y-49598D01*
X48102Y-49598D01*
X48072Y-49627D01*
X48067Y-49639D01*
X48056Y-49644D01*
X48026Y-49673D01*
X48026Y-49723D01*
X48060Y-49756D01*
X48070Y-49781D01*
X48046Y-49771D01*
X48012Y-49737D01*
X47963Y-49737D01*
X47933Y-49766D01*
X47928Y-49778D01*
X47917Y-49783D01*
X47887Y-49812D01*
X47887Y-49862D01*
X47921Y-49896D01*
X47933Y-49925D01*
X47972Y-49964D01*
X48088Y-50080D01*
X48105Y-50080D01*
X48121Y-50096D01*
X48137Y-50080D01*
X48137Y-50080D01*
X48230Y-49987D01*
X48246Y-49971D01*
X48230Y-49955D01*
X48230Y-49941D01*
X48244Y-49941D01*
X48260Y-49957D01*
X48277Y-49941D01*
X48369Y-49848D01*
X48385Y-49832D01*
X48385Y-49860D01*
X48383Y-49862D01*
X48291Y-49955D01*
X48275Y-49971D01*
X48291Y-49987D01*
X48291Y-50001D01*
X48277Y-50001D01*
X48260Y-49985D01*
X48244Y-50001D01*
X48244Y-50001D01*
X48135Y-50110D01*
X48151Y-50126D01*
X48151Y-50144D01*
X48267Y-50259D01*
X48306Y-50299D01*
X48336Y-50311D01*
X48370Y-50344D01*
X48419Y-50344D01*
X48449Y-50315D01*
X48453Y-50303D01*
X48465Y-50298D01*
X48495Y-50269D01*
X48495Y-50219D01*
X48461Y-50186D01*
X48451Y-50162D01*
X48475Y-50172D01*
X48509Y-50205D01*
X48558Y-50205D01*
X48588Y-50176D01*
X48593Y-50164D01*
X48604Y-50159D01*
X48634Y-50130D01*
X48634Y-50657D01*
X48355Y-50379D01*
X48355Y-50359D01*
X48121Y-50124D01*
X48116Y-50130D01*
X48102Y-50116D01*
X48107Y-50110D01*
X47873Y-49876D01*
X47823Y-49876D01*
X47794Y-49906D01*
X47774Y-49954D01*
X47755Y-49973D01*
X47714Y-50013D01*
X47029Y-49328D01*
X46961Y-49260D01*
X46961Y-48268D01*
X46976Y-48253D01*
X46991Y-48216D01*
X48078Y-49302D01*
X48078Y-49389D01*
X48090Y-49454D01*
X48127Y-49509D01*
X48165Y-49548D01*
X48165Y-49584D01*
X48400Y-49818D01*
X48405Y-49812D01*
X48419Y-49826D01*
X48414Y-49832D01*
X48648Y-50066D01*
X48672Y-50066D01*
X48696Y-50091D01*
X48696Y-50091D01*
X48752Y-50128D01*
X48817Y-50141D01*
X49169Y-50141D01*
X49113Y-50196D01*
X49113Y-50246D01*
X49375Y-50508D01*
X49380Y-50502D01*
X49395Y-50516D01*
X49389Y-50522D01*
X49651Y-50783D01*
X49664Y-50783D01*
X49664Y-50797D01*
X49926Y-51059D01*
X49932Y-51053D01*
X49946Y-51067D01*
X49940Y-51073D01*
X49946Y-51078D01*
X49932Y-51093D01*
X49926Y-51087D01*
X49912Y-51101D01*
X49912Y-51073D01*
X49650Y-50811D01*
X49637Y-50811D01*
X49637Y-50798D01*
X49375Y-50536D01*
X49361Y-50550D01*
X49361Y-50522D01*
X49099Y-50260D01*
X49050Y-50260D01*
X48938Y-50372D01*
X48917Y-50423D01*
X48917Y-50479D01*
X48938Y-50530D01*
X48977Y-50570D01*
X49120Y-50713D01*
X49170Y-50713D01*
X49361Y-50522D01*
X49361Y-50550D01*
X49184Y-50727D01*
X49184Y-50776D01*
X49327Y-50919D01*
X49366Y-50959D01*
X49418Y-50980D01*
X49468Y-50980D01*
X49468Y-51030D01*
X49489Y-51081D01*
X49528Y-51121D01*
X49672Y-51264D01*
X49721Y-51264D01*
X49912Y-51073D01*
X49912Y-51101D01*
X49735Y-51278D01*
X49735Y-51327D01*
X49878Y-51471D01*
X49918Y-51510D01*
X49969Y-51531D01*
X50025Y-51531D01*
X50041Y-51524D01*
X50039Y-51529D01*
X50039Y-51577D01*
X50057Y-51621D01*
X50091Y-51655D01*
X50396Y-51960D01*
X50396Y-52597D01*
X50268Y-52597D01*
X50224Y-52615D01*
X50190Y-52649D01*
X50171Y-52693D01*
X50171Y-52731D01*
X50152Y-52735D01*
X50097Y-52772D01*
X49201Y-53668D01*
X48838Y-53668D01*
X48831Y-53653D01*
X48798Y-53620D01*
X48409Y-53231D01*
X48365Y-53212D01*
X48317Y-53212D01*
X48312Y-53214D01*
X48318Y-53198D01*
X48319Y-53142D01*
X48297Y-53091D01*
X48258Y-53051D01*
X48115Y-52908D01*
X48065Y-52908D01*
X48051Y-52923D01*
X48051Y-52894D01*
X48051Y-52845D01*
X47908Y-52702D01*
X47869Y-52662D01*
X47817Y-52641D01*
X47767Y-52641D01*
X47767Y-52591D01*
X47746Y-52540D01*
X47707Y-52500D01*
X47564Y-52357D01*
X47514Y-52357D01*
X47500Y-52371D01*
X47500Y-52343D01*
X47500Y-52294D01*
X47357Y-52151D01*
X47318Y-52111D01*
X47266Y-52090D01*
X47210Y-52090D01*
X47159Y-52111D01*
X47048Y-52223D01*
X47048Y-52272D01*
X47309Y-52534D01*
X47500Y-52343D01*
X47500Y-52371D01*
X47323Y-52548D01*
X47585Y-52810D01*
X47599Y-52810D01*
X47599Y-52824D01*
X47860Y-53085D01*
X48051Y-52894D01*
X48051Y-52923D01*
X47874Y-53099D01*
X47880Y-53105D01*
X47866Y-53119D01*
X47860Y-53113D01*
X47846Y-53128D01*
X47846Y-53099D01*
X47585Y-52838D01*
X47571Y-52838D01*
X47571Y-52824D01*
X47309Y-52562D01*
X47295Y-52576D01*
X47295Y-52548D01*
X47033Y-52287D01*
X46984Y-52287D01*
X46872Y-52398D01*
X46851Y-52449D01*
X46851Y-52505D01*
X46872Y-52557D01*
X46912Y-52596D01*
X47055Y-52739D01*
X47104Y-52739D01*
X47295Y-52548D01*
X47295Y-52576D01*
X47118Y-52753D01*
X47118Y-52803D01*
X47261Y-52946D01*
X47301Y-52985D01*
X47352Y-53006D01*
X47402Y-53006D01*
X47402Y-53056D01*
X47423Y-53108D01*
X47463Y-53147D01*
X47606Y-53290D01*
X47655Y-53290D01*
X47846Y-53099D01*
X47846Y-53128D01*
X47669Y-53304D01*
X47669Y-53354D01*
X47812Y-53497D01*
X47852Y-53536D01*
X47903Y-53558D01*
X47959Y-53557D01*
X47975Y-53551D01*
X47973Y-53556D01*
X47973Y-53604D01*
X47992Y-53648D01*
X48025Y-53681D01*
X48414Y-54070D01*
X48458Y-54089D01*
X48506Y-54089D01*
X48550Y-54070D01*
X48584Y-54037D01*
X48613Y-54008D01*
X49271Y-54008D01*
X49336Y-53995D01*
X49336Y-53995D01*
X49391Y-53958D01*
X50202Y-53148D01*
X50223Y-53169D01*
X50267Y-53187D01*
X50315Y-53187D01*
X50621Y-53187D01*
X50761Y-53327D01*
X50611Y-53327D01*
X50576Y-53362D01*
X50576Y-53632D01*
X50946Y-53632D01*
X50981Y-53597D01*
X50981Y-53527D01*
X51044Y-53540D01*
X51044Y-53540D01*
X51044Y-53540D01*
X51985Y-53540D01*
X52013Y-53607D01*
X52131Y-53725D01*
X52286Y-53790D01*
X52453Y-53790D01*
X52607Y-53726D01*
X52725Y-53608D01*
X52790Y-53453D01*
X52790Y-53286D01*
X52726Y-53132D01*
X52608Y-53014D01*
X52453Y-52950D01*
X52286Y-52950D01*
X52132Y-53013D01*
X52014Y-53131D01*
X51985Y-53200D01*
X51114Y-53200D01*
X50961Y-53047D01*
X50961Y-53043D01*
X50961Y-52693D01*
X50943Y-52649D01*
X50909Y-52616D01*
X50865Y-52597D01*
X50818Y-52597D01*
X50736Y-52597D01*
X50736Y-51924D01*
X50897Y-51763D01*
X50915Y-51719D01*
X50915Y-51671D01*
X50897Y-51627D01*
X50864Y-51593D01*
X50475Y-51204D01*
X50431Y-51186D01*
X50383Y-51186D01*
X50377Y-51188D01*
X50384Y-51172D01*
X50384Y-51116D01*
X50363Y-51064D01*
X50324Y-51025D01*
X50258Y-50959D01*
X50277Y-50959D01*
X50328Y-50938D01*
X50368Y-50898D01*
X50511Y-50755D01*
X50511Y-50706D01*
X50320Y-50515D01*
X50314Y-50521D01*
X50300Y-50506D01*
X50306Y-50501D01*
X50115Y-50310D01*
X50065Y-50310D01*
X49922Y-50453D01*
X49883Y-50492D01*
X49862Y-50544D01*
X49862Y-50600D01*
X49868Y-50615D01*
X49833Y-50615D01*
X49833Y-50565D01*
X49812Y-50513D01*
X49773Y-50474D01*
X49707Y-50409D01*
X49743Y-50409D01*
X49787Y-50391D01*
X49820Y-50357D01*
X50106Y-50071D01*
X50304Y-50071D01*
X50272Y-50103D01*
X50129Y-50246D01*
X50129Y-50296D01*
X50320Y-50487D01*
X50325Y-50481D01*
X50339Y-50495D01*
X50334Y-50501D01*
X50525Y-50692D01*
X50574Y-50692D01*
X50717Y-50549D01*
X50757Y-50509D01*
X50775Y-50465D01*
X51542Y-51231D01*
X51542Y-51712D01*
X51555Y-51777D01*
X51592Y-51832D01*
X51978Y-52218D01*
X51950Y-52286D01*
X51950Y-52453D01*
X52013Y-52607D01*
X52131Y-52725D01*
X52286Y-52790D01*
X52453Y-52790D01*
X52607Y-52726D01*
X52725Y-52608D01*
X52790Y-52453D01*
X52790Y-52286D01*
X52726Y-52132D01*
X52655Y-52061D01*
X52655Y-51669D01*
X52370Y-51384D01*
X52355Y-51398D01*
X52355Y-51370D01*
X52070Y-51084D01*
X52001Y-51114D01*
X51931Y-51275D01*
X51928Y-51450D01*
X51992Y-51612D01*
X52001Y-51625D01*
X52070Y-51655D01*
X52355Y-51370D01*
X52355Y-51398D01*
X52084Y-51669D01*
X52114Y-51738D01*
X52275Y-51808D01*
X52450Y-51811D01*
X52612Y-51747D01*
X52625Y-51738D01*
X52655Y-51669D01*
X52655Y-52061D01*
X52608Y-52014D01*
X52453Y-51950D01*
X52286Y-51950D01*
X52218Y-51978D01*
X51882Y-51642D01*
X51882Y-51161D01*
X51869Y-51096D01*
X51832Y-51041D01*
X51832Y-51041D01*
X50572Y-49781D01*
X50517Y-49744D01*
X50452Y-49731D01*
X50109Y-49731D01*
X49928Y-49551D01*
X49884Y-49532D01*
X49836Y-49532D01*
X49792Y-49551D01*
X49758Y-49584D01*
X49542Y-49801D01*
X48887Y-49801D01*
X48858Y-49772D01*
X48849Y-49750D01*
X48816Y-49716D01*
X48482Y-49382D01*
X48480Y-49382D01*
X48418Y-49319D01*
X48418Y-49232D01*
X48408Y-49186D01*
X48437Y-49186D01*
X48481Y-49168D01*
X48515Y-49134D01*
X48622Y-49028D01*
X51787Y-49028D01*
X51978Y-49218D01*
X51950Y-49286D01*
X51950Y-49453D01*
X52013Y-49607D01*
X52131Y-49725D01*
X52286Y-49790D01*
X52453Y-49790D01*
X52607Y-49726D01*
X52725Y-49608D01*
X52790Y-49453D01*
X52790Y-49286D01*
X52726Y-49132D01*
X52608Y-49014D01*
X52453Y-48950D01*
X52286Y-48950D01*
X52218Y-48978D01*
X51978Y-48737D01*
X51923Y-48700D01*
X51858Y-48688D01*
X48859Y-48688D01*
X48849Y-48664D01*
X48816Y-48631D01*
X48775Y-48590D01*
X48826Y-48540D01*
X51985Y-48540D01*
X52013Y-48607D01*
X52131Y-48725D01*
X52286Y-48790D01*
X52453Y-48790D01*
X52607Y-48726D01*
X52725Y-48608D01*
X52790Y-48453D01*
X52790Y-48286D01*
X52726Y-48132D01*
X52608Y-48014D01*
X52453Y-47950D01*
X52286Y-47950D01*
X52132Y-48013D01*
X52014Y-48131D01*
X51985Y-48200D01*
X48871Y-48200D01*
X49531Y-47540D01*
X51985Y-47540D01*
X52013Y-47607D01*
X52131Y-47725D01*
X52286Y-47790D01*
X52453Y-47790D01*
X52607Y-47726D01*
X52725Y-47608D01*
X52790Y-47453D01*
X52790Y-47286D01*
X52726Y-47132D01*
X52608Y-47014D01*
X52453Y-46950D01*
X52286Y-46950D01*
X52132Y-47013D01*
X52014Y-47131D01*
X51985Y-47200D01*
X49595Y-47200D01*
X50255Y-46540D01*
X51985Y-46540D01*
X52013Y-46607D01*
X52131Y-46725D01*
X52286Y-46790D01*
X52453Y-46790D01*
X52607Y-46726D01*
X52725Y-46608D01*
X52790Y-46453D01*
X52790Y-46286D01*
X52726Y-46132D01*
X52608Y-46014D01*
X52453Y-45950D01*
X52286Y-45950D01*
X52132Y-46013D01*
X52014Y-46131D01*
X51985Y-46200D01*
X50319Y-46200D01*
X50979Y-45540D01*
X51985Y-45540D01*
X52013Y-45607D01*
X52131Y-45725D01*
X52286Y-45790D01*
X52453Y-45790D01*
X52607Y-45726D01*
X52725Y-45608D01*
X52790Y-45453D01*
X52790Y-45286D01*
X52726Y-45132D01*
X52608Y-45014D01*
X52453Y-44950D01*
X52286Y-44950D01*
X52132Y-45013D01*
X52014Y-45131D01*
X51985Y-45200D01*
X51044Y-45200D01*
X51704Y-44540D01*
X51985Y-44540D01*
X52013Y-44607D01*
X52131Y-44725D01*
X52286Y-44790D01*
X52453Y-44790D01*
X52607Y-44726D01*
X52725Y-44608D01*
X52790Y-44453D01*
X52790Y-44286D01*
X52726Y-44132D01*
X52608Y-44014D01*
X52453Y-43950D01*
X52286Y-43950D01*
X52132Y-44013D01*
X52014Y-44131D01*
X51985Y-44200D01*
X51768Y-44200D01*
X52210Y-43758D01*
X52286Y-43790D01*
X52453Y-43790D01*
X52607Y-43726D01*
X52725Y-43608D01*
X52790Y-43453D01*
X52790Y-43286D01*
X52726Y-43132D01*
X52608Y-43014D01*
X52453Y-42950D01*
X52286Y-42950D01*
X52132Y-43013D01*
X52014Y-43131D01*
X51950Y-43286D01*
X51950Y-43453D01*
X51974Y-43513D01*
X50996Y-44491D01*
X50996Y-43983D01*
X52218Y-42761D01*
X52286Y-42790D01*
X52453Y-42790D01*
X52607Y-42726D01*
X52725Y-42608D01*
X52790Y-42453D01*
X52790Y-42286D01*
X52726Y-42132D01*
X52608Y-42014D01*
X52453Y-41950D01*
X52286Y-41950D01*
X52132Y-42013D01*
X52014Y-42131D01*
X51950Y-42286D01*
X51950Y-42453D01*
X51978Y-42521D01*
X50706Y-43793D01*
X50669Y-43848D01*
X50656Y-43913D01*
X50656Y-44555D01*
X48673Y-46538D01*
X48673Y-44789D01*
X48714Y-44830D01*
X48794Y-44864D01*
X48881Y-44864D01*
X48962Y-44830D01*
X49023Y-44769D01*
X49056Y-44689D01*
X49057Y-44602D01*
X49023Y-44522D01*
X48962Y-44460D01*
X48882Y-44427D01*
X48860Y-44427D01*
X48844Y-44410D01*
X49172Y-44410D01*
X49216Y-44392D01*
X49250Y-44358D01*
X49268Y-44314D01*
X49268Y-44266D01*
X49268Y-44062D01*
X49726Y-43604D01*
X49726Y-43604D01*
X49726Y-43604D01*
X49763Y-43549D01*
X49776Y-43484D01*
X49776Y-43032D01*
X49791Y-43017D01*
X49824Y-42937D01*
X49824Y-42850D01*
X49791Y-42770D01*
X49730Y-42708D01*
X49649Y-42675D01*
X49563Y-42675D01*
X49482Y-42708D01*
X49421Y-42769D01*
X49387Y-42850D01*
X49387Y-42936D01*
X49421Y-43017D01*
X49436Y-43032D01*
X49436Y-43413D01*
X49387Y-43463D01*
X49387Y-43439D01*
X49387Y-43089D01*
X49387Y-42689D01*
X49387Y-42339D01*
X49368Y-42295D01*
X49335Y-42261D01*
X49291Y-42243D01*
X49243Y-42243D01*
X48693Y-42243D01*
X48649Y-42261D01*
X48615Y-42295D01*
X48598Y-42336D01*
X48581Y-42295D01*
X48547Y-42261D01*
X48503Y-42243D01*
X48455Y-42243D01*
X48419Y-42243D01*
X48419Y-40920D01*
X48419Y-40172D01*
X48401Y-40128D01*
X48367Y-40094D01*
X48323Y-40076D01*
X48275Y-40076D01*
X47566Y-40076D01*
X47522Y-40094D01*
X47488Y-40128D01*
X47470Y-40172D01*
X47470Y-40219D01*
X47470Y-40967D01*
X47488Y-41011D01*
X47522Y-41045D01*
X47566Y-41064D01*
X47614Y-41064D01*
X48323Y-41064D01*
X48367Y-41045D01*
X48401Y-41012D01*
X48419Y-40968D01*
X48419Y-40920D01*
X48419Y-42243D01*
X48310Y-42243D01*
X47994Y-41927D01*
X47939Y-41890D01*
X47968Y-41890D01*
X48012Y-41872D01*
X48046Y-41838D01*
X48065Y-41794D01*
X48065Y-41746D01*
X48065Y-41195D01*
X48046Y-41151D01*
X48013Y-41117D01*
X47969Y-41099D01*
X47921Y-41099D01*
X47336Y-41099D01*
X47336Y-40920D01*
X47336Y-40172D01*
X47317Y-40128D01*
X47284Y-40094D01*
X47240Y-40076D01*
X47192Y-40076D01*
X46444Y-40076D01*
X46400Y-40094D01*
X46370Y-40124D01*
X46340Y-40094D01*
X46296Y-40076D01*
X46248Y-40076D01*
X45500Y-40076D01*
X45456Y-40094D01*
X45422Y-40128D01*
X45404Y-40172D01*
X45404Y-40219D01*
X45404Y-40967D01*
X45422Y-41011D01*
X45456Y-41045D01*
X45500Y-41064D01*
X45547Y-41064D01*
X46295Y-41064D01*
X46339Y-41045D01*
X46370Y-41015D01*
X46400Y-41045D01*
X46444Y-41064D01*
X46491Y-41064D01*
X47239Y-41064D01*
X47283Y-41045D01*
X47317Y-41012D01*
X47336Y-40968D01*
X47336Y-40920D01*
X47336Y-41099D01*
X47291Y-41099D01*
X47247Y-41117D01*
X47213Y-41151D01*
X47195Y-41195D01*
X47195Y-41243D01*
X47195Y-41794D01*
X47213Y-41838D01*
X47247Y-41872D01*
X47259Y-41877D01*
X47157Y-41877D01*
X47080Y-41800D01*
X47080Y-41333D01*
X47062Y-41289D01*
X47028Y-41255D01*
X46984Y-41237D01*
X46936Y-41237D01*
X46779Y-41237D01*
X46754Y-41248D01*
X46728Y-41237D01*
X46680Y-41237D01*
X46523Y-41237D01*
X46498Y-41248D01*
X46472Y-41237D01*
X46424Y-41237D01*
X46267Y-41237D01*
X46242Y-41248D01*
X46216Y-41237D01*
X46168Y-41237D01*
X46012Y-41237D01*
X45964Y-41217D01*
X45903Y-41217D01*
X45868Y-41252D01*
X45868Y-41613D01*
X45875Y-41613D01*
X45875Y-41633D01*
X45868Y-41633D01*
X45868Y-41993D01*
X45903Y-42028D01*
X45964Y-42028D01*
X46012Y-42008D01*
X46059Y-42008D01*
X46131Y-42008D01*
X45897Y-42243D01*
X45848Y-42243D01*
X45848Y-41993D01*
X45848Y-41633D01*
X45848Y-41613D01*
X45848Y-41252D01*
X45813Y-41217D01*
X45751Y-41217D01*
X45700Y-41238D01*
X45660Y-41278D01*
X45639Y-41329D01*
X45639Y-41385D01*
X45639Y-41578D01*
X45674Y-41613D01*
X45848Y-41613D01*
X45848Y-41633D01*
X45674Y-41633D01*
X45639Y-41668D01*
X45639Y-41860D01*
X45639Y-41916D01*
X45660Y-41967D01*
X45700Y-42007D01*
X45751Y-42028D01*
X45813Y-42028D01*
X45848Y-41993D01*
X45848Y-42243D01*
X45545Y-42243D01*
X45545Y-41746D01*
X45545Y-41195D01*
X45526Y-41151D01*
X45493Y-41117D01*
X45449Y-41099D01*
X45401Y-41099D01*
X45269Y-41099D01*
X45269Y-40920D01*
X45269Y-40172D01*
X45251Y-40128D01*
X45217Y-40094D01*
X45173Y-40076D01*
X45125Y-40076D01*
X44416Y-40076D01*
X44372Y-40094D01*
X44338Y-40128D01*
X44320Y-40172D01*
X44320Y-40219D01*
X44320Y-40967D01*
X44338Y-41011D01*
X44372Y-41045D01*
X44416Y-41064D01*
X44464Y-41064D01*
X45173Y-41064D01*
X45217Y-41045D01*
X45251Y-41012D01*
X45269Y-40968D01*
X45269Y-40920D01*
X45269Y-41099D01*
X44771Y-41099D01*
X44727Y-41117D01*
X44693Y-41151D01*
X44675Y-41195D01*
X44675Y-41243D01*
X44675Y-41794D01*
X44693Y-41838D01*
X44727Y-41872D01*
X44771Y-41890D01*
X44818Y-41890D01*
X45448Y-41890D01*
X45492Y-41872D01*
X45526Y-41838D01*
X45545Y-41794D01*
X45545Y-41746D01*
X45545Y-42243D01*
X45543Y-42243D01*
X45499Y-42261D01*
X45465Y-42295D01*
X45447Y-42339D01*
X45447Y-42368D01*
X45279Y-42368D01*
X45256Y-42368D01*
X44806Y-42368D01*
X44762Y-42386D01*
X44728Y-42420D01*
X44710Y-42464D01*
X44710Y-42512D01*
X44710Y-42762D01*
X44728Y-42806D01*
X44762Y-42840D01*
X44806Y-42858D01*
X44853Y-42858D01*
X45303Y-42858D01*
X45348Y-42840D01*
X45381Y-42806D01*
X45400Y-42762D01*
X45400Y-42714D01*
X45400Y-42708D01*
X45447Y-42708D01*
X45447Y-42737D01*
X45465Y-42781D01*
X45499Y-42815D01*
X45543Y-42833D01*
X45591Y-42833D01*
X46141Y-42833D01*
X46185Y-42815D01*
X46219Y-42781D01*
X46237Y-42737D01*
X46237Y-42689D01*
X46237Y-42383D01*
X46456Y-42165D01*
X46456Y-42368D01*
X46381Y-42368D01*
X46337Y-42386D01*
X46303Y-42420D01*
X46284Y-42464D01*
X46284Y-42512D01*
X46284Y-42762D01*
X46303Y-42806D01*
X46336Y-42840D01*
X46380Y-42858D01*
X46428Y-42858D01*
X46878Y-42858D01*
X46922Y-42840D01*
X46956Y-42806D01*
X46974Y-42762D01*
X46974Y-42714D01*
X46974Y-42708D01*
X47022Y-42708D01*
X47022Y-42737D01*
X47040Y-42781D01*
X47074Y-42815D01*
X47118Y-42833D01*
X47166Y-42833D01*
X47716Y-42833D01*
X47760Y-42815D01*
X47793Y-42781D01*
X47811Y-42740D01*
X47827Y-42781D01*
X47861Y-42815D01*
X47905Y-42833D01*
X47953Y-42833D01*
X48503Y-42833D01*
X48547Y-42815D01*
X48581Y-42781D01*
X48598Y-42740D01*
X48615Y-42781D01*
X48649Y-42815D01*
X48693Y-42833D01*
X48740Y-42833D01*
X49290Y-42833D01*
X49335Y-42815D01*
X49368Y-42781D01*
X49387Y-42737D01*
X49387Y-42689D01*
X49387Y-43089D01*
X49368Y-43045D01*
X49335Y-43011D01*
X49291Y-42993D01*
X49243Y-42993D01*
X48693Y-42993D01*
X48649Y-43011D01*
X48615Y-43045D01*
X48609Y-43060D01*
X48598Y-43034D01*
X48559Y-42994D01*
X48507Y-42973D01*
X48451Y-42973D01*
X48249Y-42973D01*
X48214Y-43008D01*
X48214Y-43278D01*
X48222Y-43278D01*
X48222Y-43298D01*
X48214Y-43298D01*
X48214Y-43568D01*
X48249Y-43603D01*
X48451Y-43603D01*
X48507Y-43603D01*
X48559Y-43582D01*
X48598Y-43542D01*
X48609Y-43516D01*
X48615Y-43531D01*
X48649Y-43565D01*
X48693Y-43583D01*
X48740Y-43583D01*
X48822Y-43583D01*
X48822Y-43620D01*
X48774Y-43620D01*
X48730Y-43638D01*
X48696Y-43672D01*
X48678Y-43716D01*
X48678Y-43764D01*
X48678Y-44245D01*
X48518Y-44085D01*
X48518Y-43716D01*
X48500Y-43672D01*
X48466Y-43639D01*
X48422Y-43620D01*
X48374Y-43620D01*
X48024Y-43620D01*
X47980Y-43638D01*
X47946Y-43672D01*
X47928Y-43716D01*
X47928Y-43764D01*
X47928Y-44314D01*
X47946Y-44358D01*
X47980Y-44392D01*
X48024Y-44410D01*
X48072Y-44410D01*
X48363Y-44410D01*
X48403Y-44450D01*
X48380Y-44460D01*
X48318Y-44521D01*
X48285Y-44602D01*
X48285Y-44688D01*
X48318Y-44769D01*
X48333Y-44784D01*
X48333Y-44806D01*
X47587Y-44059D01*
X47587Y-43583D01*
X47716Y-43583D01*
X47760Y-43565D01*
X47793Y-43531D01*
X47800Y-43516D01*
X47810Y-43542D01*
X47850Y-43582D01*
X47901Y-43603D01*
X47957Y-43603D01*
X48159Y-43603D01*
X48194Y-43568D01*
X48194Y-43298D01*
X48186Y-43298D01*
X48186Y-43278D01*
X48194Y-43278D01*
X48194Y-43008D01*
X48159Y-42973D01*
X47957Y-42973D01*
X47901Y-42973D01*
X47850Y-42994D01*
X47810Y-43034D01*
X47800Y-43060D01*
X47794Y-43045D01*
X47760Y-43011D01*
X47716Y-42993D01*
X47668Y-42993D01*
X47118Y-42993D01*
X47074Y-43011D01*
X47040Y-43045D01*
X47022Y-43089D01*
X47022Y-43137D01*
X47022Y-43487D01*
X47040Y-43531D01*
X47074Y-43565D01*
X47118Y-43583D01*
X47166Y-43583D01*
X47247Y-43583D01*
X47247Y-44014D01*
X46994Y-43762D01*
X46994Y-43366D01*
X46994Y-43060D01*
X46973Y-43009D01*
X46934Y-42969D01*
X46882Y-42948D01*
X46827Y-42948D01*
X46674Y-42948D01*
X46639Y-42983D01*
X46639Y-43203D01*
X46959Y-43203D01*
X46994Y-43168D01*
X46994Y-43060D01*
X46994Y-43366D01*
X46994Y-43258D01*
X46959Y-43223D01*
X46639Y-43223D01*
X46639Y-43443D01*
X46674Y-43478D01*
X46827Y-43478D01*
X46882Y-43478D01*
X46934Y-43457D01*
X46973Y-43417D01*
X46994Y-43366D01*
X46994Y-43762D01*
X46950Y-43718D01*
X46895Y-43681D01*
X46830Y-43668D01*
X46619Y-43668D01*
X46619Y-43443D01*
X46619Y-43223D01*
X46619Y-43203D01*
X46619Y-42983D01*
X46584Y-42948D01*
X46432Y-42948D01*
X46376Y-42948D01*
X46325Y-42969D01*
X46286Y-43009D01*
X46264Y-43060D01*
X46264Y-43168D01*
X46299Y-43203D01*
X46619Y-43203D01*
X46619Y-43223D01*
X46299Y-43223D01*
X46264Y-43258D01*
X46264Y-43366D01*
X46286Y-43417D01*
X46325Y-43457D01*
X46376Y-43478D01*
X46432Y-43478D01*
X46584Y-43478D01*
X46619Y-43443D01*
X46619Y-43668D01*
X46463Y-43668D01*
X46237Y-43442D01*
X46237Y-43439D01*
X46237Y-43089D01*
X46219Y-43045D01*
X46185Y-43011D01*
X46141Y-42993D01*
X46093Y-42993D01*
X45543Y-42993D01*
X45499Y-43011D01*
X45465Y-43045D01*
X45447Y-43089D01*
X45447Y-43137D01*
X45447Y-43487D01*
X45465Y-43531D01*
X45499Y-43565D01*
X45543Y-43583D01*
X45591Y-43583D01*
X45897Y-43583D01*
X46272Y-43958D01*
X46272Y-43958D01*
X46327Y-43995D01*
X46392Y-44008D01*
X46760Y-44008D01*
X47301Y-44549D01*
X47301Y-44549D01*
X47743Y-44991D01*
X47743Y-45177D01*
X47743Y-46120D01*
X47728Y-46135D01*
X47694Y-46216D01*
X47694Y-46303D01*
X47728Y-46383D01*
X47771Y-46427D01*
X47728Y-46470D01*
X47694Y-46550D01*
X47694Y-46637D01*
X47728Y-46718D01*
X47789Y-46779D01*
X47869Y-46812D01*
X47956Y-46812D01*
X48036Y-46779D01*
X48098Y-46718D01*
X48131Y-46638D01*
X48131Y-46616D01*
X48333Y-46414D01*
X48333Y-46602D01*
X47575Y-47361D01*
X47565Y-47371D01*
X47534Y-47371D01*
X47530Y-47375D01*
X47530Y-47317D01*
X47490Y-47277D01*
X47479Y-47272D01*
X47474Y-47261D01*
X47435Y-47222D01*
X47445Y-47231D01*
X47399Y-47231D01*
X47399Y-45693D01*
X47399Y-45288D01*
X47378Y-45236D01*
X47338Y-45197D01*
X47287Y-45176D01*
X47231Y-45176D01*
X47029Y-45176D01*
X46994Y-45211D01*
X46994Y-45481D01*
X47364Y-45481D01*
X47399Y-45446D01*
X47399Y-45288D01*
X47399Y-45693D01*
X47399Y-45536D01*
X47364Y-45501D01*
X46994Y-45501D01*
X46994Y-45771D01*
X47029Y-45806D01*
X47231Y-45806D01*
X47287Y-45806D01*
X47338Y-45784D01*
X47378Y-45745D01*
X47399Y-45693D01*
X47399Y-47231D01*
X47395Y-47231D01*
X47361Y-47265D01*
X47332Y-47277D01*
X47177Y-47432D01*
X47177Y-47449D01*
X47161Y-47466D01*
X47177Y-47482D01*
X47270Y-47574D01*
X47286Y-47591D01*
X47302Y-47574D01*
X47319Y-47574D01*
X47474Y-47420D01*
X47487Y-47390D01*
X47520Y-47356D01*
X47520Y-47307D01*
X47530Y-47317D01*
X47530Y-47375D01*
X47300Y-47605D01*
X47306Y-47610D01*
X47292Y-47624D01*
X47286Y-47619D01*
X47280Y-47624D01*
X47266Y-47610D01*
X47272Y-47605D01*
X47256Y-47589D01*
X47163Y-47496D01*
X47147Y-47480D01*
X47141Y-47485D01*
X47127Y-47471D01*
X47133Y-47466D01*
X47127Y-47460D01*
X47141Y-47446D01*
X47147Y-47451D01*
X47381Y-47217D01*
X47381Y-47168D01*
X47391Y-47177D01*
X47351Y-47138D01*
X47303Y-47118D01*
X47284Y-47099D01*
X47201Y-47016D01*
X47178Y-47006D01*
X47178Y-46536D01*
X47283Y-46536D01*
X47327Y-46517D01*
X47360Y-46484D01*
X47379Y-46440D01*
X47379Y-46392D01*
X47379Y-46042D01*
X47361Y-45998D01*
X47327Y-45964D01*
X47283Y-45946D01*
X47235Y-45946D01*
X46974Y-45946D01*
X46974Y-45771D01*
X46974Y-45501D01*
X46974Y-45481D01*
X46974Y-45211D01*
X46939Y-45176D01*
X46736Y-45176D01*
X46681Y-45176D01*
X46629Y-45197D01*
X46590Y-45236D01*
X46551Y-45197D01*
X46499Y-45176D01*
X46444Y-45176D01*
X46241Y-45176D01*
X46206Y-45211D01*
X46206Y-45481D01*
X46576Y-45481D01*
X46590Y-45467D01*
X46604Y-45481D01*
X46974Y-45481D01*
X46974Y-45501D01*
X46604Y-45501D01*
X46590Y-45514D01*
X46576Y-45501D01*
X46206Y-45501D01*
X46206Y-45771D01*
X46241Y-45806D01*
X46444Y-45806D01*
X46499Y-45806D01*
X46551Y-45784D01*
X46590Y-45745D01*
X46629Y-45784D01*
X46681Y-45806D01*
X46736Y-45806D01*
X46939Y-45806D01*
X46974Y-45771D01*
X46974Y-45946D01*
X46685Y-45946D01*
X46641Y-45964D01*
X46607Y-45998D01*
X46590Y-46039D01*
X46573Y-45998D01*
X46539Y-45964D01*
X46495Y-45946D01*
X46448Y-45946D01*
X46166Y-45946D01*
X46026Y-45806D01*
X46151Y-45806D01*
X46186Y-45771D01*
X46186Y-45501D01*
X46178Y-45501D01*
X46178Y-45481D01*
X46186Y-45481D01*
X46186Y-45211D01*
X46151Y-45176D01*
X45949Y-45176D01*
X45893Y-45176D01*
X45858Y-45190D01*
X45858Y-44566D01*
X45858Y-44566D01*
X45858Y-44566D01*
X45846Y-44501D01*
X45809Y-44446D01*
X45809Y-44446D01*
X45420Y-44057D01*
X45420Y-43366D01*
X45420Y-43060D01*
X45398Y-43009D01*
X45359Y-42969D01*
X45308Y-42948D01*
X45252Y-42948D01*
X45100Y-42948D01*
X45065Y-42983D01*
X45065Y-43203D01*
X45385Y-43203D01*
X45420Y-43168D01*
X45420Y-43060D01*
X45420Y-43366D01*
X45420Y-43258D01*
X45385Y-43223D01*
X45065Y-43223D01*
X45065Y-43443D01*
X45100Y-43478D01*
X45252Y-43478D01*
X45308Y-43478D01*
X45359Y-43457D01*
X45398Y-43417D01*
X45420Y-43366D01*
X45420Y-44057D01*
X44840Y-43478D01*
X44857Y-43478D01*
X45010Y-43478D01*
X45045Y-43443D01*
X45045Y-43223D01*
X45045Y-43203D01*
X45045Y-42983D01*
X45010Y-42948D01*
X44857Y-42948D01*
X44802Y-42948D01*
X44750Y-42969D01*
X44711Y-43009D01*
X44690Y-43060D01*
X44690Y-43168D01*
X44725Y-43203D01*
X45045Y-43203D01*
X45045Y-43223D01*
X44725Y-43223D01*
X44690Y-43258D01*
X44690Y-43327D01*
X44441Y-43079D01*
X44441Y-41687D01*
X44428Y-41621D01*
X44391Y-41566D01*
X43899Y-41074D01*
X43899Y-41072D01*
X43899Y-40671D01*
X43881Y-40626D01*
X43847Y-40593D01*
X43803Y-40574D01*
X43755Y-40574D01*
X43157Y-40574D01*
X43113Y-40593D01*
X43079Y-40626D01*
X43061Y-40670D01*
X43061Y-40718D01*
X43061Y-40725D01*
X42797Y-40725D01*
X42797Y-40671D01*
X42778Y-40626D01*
X42745Y-40593D01*
X42701Y-40574D01*
X42653Y-40574D01*
X42054Y-40574D01*
X42010Y-40593D01*
X41977Y-40626D01*
X41958Y-40670D01*
X41958Y-40718D01*
X41958Y-41074D01*
X40833Y-42200D01*
X40790Y-42200D01*
X40790Y-42046D01*
X40771Y-42002D01*
X40738Y-41968D01*
X40694Y-41950D01*
X40646Y-41950D01*
X40046Y-41950D01*
X40002Y-41968D01*
X39968Y-42002D01*
X39950Y-42046D01*
X39950Y-42093D01*
X39950Y-42549D01*
X39803Y-42695D01*
X39803Y-40857D01*
X39947Y-41001D01*
X40221Y-41114D01*
X40517Y-41115D01*
X40791Y-41002D01*
X41001Y-40792D01*
X41114Y-40518D01*
X41115Y-40222D01*
X41002Y-39948D01*
X40857Y-39803D01*
X51882Y-39803D01*
X51738Y-39947D01*
X51625Y-40221D01*
X51624Y-40517D01*
X51738Y-40791D01*
X51947Y-41001D01*
X52221Y-41114D01*
X52517Y-41115D01*
X52791Y-41002D01*
X53001Y-40792D01*
X53109Y-40531D01*
X53109Y-56208D01*
M02*
