M48
;DRILL file {Pcbnew (2013-mar-13)-testing} date Wed 17 Apr 2013 02:01:06 PM EDT
;FORMAT={-:-/ absolute / inch / decimal}
FMAT,2
INCH,TZ
T1C0.025
T2C0.039
T3C0.039
T4C0.039
T5C0.040
T6C0.087
T7C0.128
%
G90
G05
M72
T1
X4.6673Y-7.7213
X4.7539Y-7.6858
T2
X6.1067Y-7.6262
X6.1067Y-7.7262
X6.2067Y-7.6262
X6.2067Y-7.7262
X6.3067Y-7.6262
X6.3067Y-7.7262
X6.3567Y-7.2262
X6.3567Y-7.3262
X6.4067Y-7.6262
X6.4067Y-7.7262
X6.4567Y-7.2262
X6.4567Y-7.3262
X6.5067Y-7.6262
X6.5067Y-7.7262
X6.5567Y-7.2262
X6.5567Y-7.3262
X6.6067Y-7.6262
X6.6067Y-7.7262
X6.6567Y-7.2262
X6.6567Y-7.3262
X6.7067Y-7.6262
X6.7067Y-7.7262
X6.7567Y-7.2262
X6.7567Y-7.3262
X6.8067Y-7.6262
X6.8067Y-7.7262
X6.9067Y-7.6262
X6.9067Y-7.7262
X7.0067Y-7.6262
X7.0067Y-7.7262
T3
X4.3965Y-7.3189
X4.3965Y-7.5189
X4.4413Y-7.4189
X4.4866Y-7.3189
X4.4866Y-7.5189
X4.5315Y-7.4189
X4.5772Y-7.3189
X4.5772Y-7.5189
X4.6217Y-7.4189
X4.6669Y-7.3189
X4.6669Y-7.5189
X4.7118Y-7.4189
X4.7571Y-7.3189
X4.7571Y-7.5189
X4.802Y-7.4189
T4
X7.4516Y-4.4469
X7.55Y-4.4469
T5
X4.037Y-4.037
X4.037Y-4.137
X4.037Y-4.237
X4.037Y-4.337
X4.037Y-4.437
X4.037Y-4.537
X4.037Y-4.637
X4.037Y-4.737
X4.037Y-4.837
X4.037Y-4.937
X4.037Y-5.037
X4.037Y-5.137
X4.037Y-5.237
X4.037Y-5.337
X4.037Y-5.437
X4.037Y-5.537
X4.037Y-5.637
X4.037Y-5.737
X4.037Y-5.837
X4.037Y-5.937
X4.037Y-6.037
X4.037Y-6.137
X4.037Y-6.237
X4.037Y-6.337
X4.137Y-6.9689
X4.237Y-6.9689
X4.337Y-6.9689
X4.437Y-6.9689
X4.537Y-6.9689
X4.637Y-6.9689
X4.737Y-6.9689
X4.837Y-6.9689
X4.937Y-6.9689
X5.037Y-4.037
X5.037Y-4.137
X5.037Y-4.237
X5.037Y-4.337
X5.037Y-4.437
X5.037Y-4.537
X5.037Y-4.637
X5.037Y-4.737
X5.037Y-4.837
X5.037Y-4.937
X5.037Y-5.037
X5.037Y-5.137
X5.037Y-5.237
X5.037Y-5.337
X5.037Y-5.437
X5.037Y-5.537
X5.037Y-5.637
X5.037Y-5.737
X5.037Y-5.837
X5.037Y-5.937
X5.037Y-6.037
X5.037Y-6.137
X5.037Y-6.237
X5.037Y-6.337
X5.037Y-6.9689
X5.337Y-4.037
X5.337Y-4.137
X5.337Y-4.237
X5.337Y-4.337
X5.337Y-4.437
X5.337Y-4.537
X5.337Y-4.637
X5.337Y-4.737
X5.337Y-4.837
X5.337Y-4.937
X5.337Y-5.037
X5.337Y-5.137
X5.337Y-5.237
X5.337Y-5.337
X5.337Y-5.437
X5.337Y-5.537
X5.337Y-5.637
X5.337Y-5.737
X5.337Y-5.837
X5.337Y-5.937
X5.337Y-6.037
X5.337Y-6.137
X5.337Y-6.237
X5.337Y-6.337
X5.337Y-6.437
X5.337Y-6.537
X5.337Y-6.637
X5.45Y-7.425
X5.45Y-7.525
X5.45Y-7.625
X5.45Y-7.725
X5.55Y-7.425
X5.55Y-7.525
X5.55Y-7.625
X5.55Y-7.725
X5.65Y-7.425
X5.65Y-7.525
X5.65Y-7.625
X5.65Y-7.725
X6.0817Y-7.1512
X6.537Y-4.037
X6.537Y-4.137
X6.537Y-4.237
X6.537Y-4.337
X6.537Y-4.437
X6.537Y-4.537
X6.537Y-4.637
X6.537Y-4.737
X6.537Y-4.837
X6.537Y-4.937
X6.537Y-5.037
X6.537Y-5.137
X6.537Y-5.237
X6.537Y-5.337
X6.537Y-5.437
X6.537Y-5.537
X6.537Y-5.637
X6.537Y-5.737
X6.537Y-5.837
X6.537Y-5.937
X6.537Y-6.037
X6.537Y-6.137
X6.537Y-6.237
X6.537Y-6.337
X6.537Y-6.437
X6.537Y-6.537
X6.537Y-6.637
X7.05Y-4.875
X7.05Y-4.975
X7.05Y-5.075
X7.05Y-5.175
X7.05Y-5.275
X7.05Y-5.375
X7.05Y-5.475
X7.05Y-5.575
X7.05Y-5.675
X7.05Y-5.775
X7.05Y-5.875
X7.05Y-5.975
X7.05Y-6.075
X7.05Y-6.175
X7.45Y-4.6
X7.4672Y-6.427
X7.4672Y-6.527
X7.4672Y-6.627
X7.55Y-4.6
X7.7672Y-6.427
X7.7672Y-6.527
X7.7672Y-6.627
X7.775Y-4.875
X7.775Y-4.975
X7.775Y-5.075
X7.775Y-5.175
X7.775Y-5.275
X7.775Y-5.375
X7.775Y-5.475
X7.775Y-5.575
X7.775Y-5.675
X7.775Y-5.775
X7.775Y-5.875
X7.775Y-5.975
X7.775Y-6.075
X7.775Y-6.175
T6
X7.3493Y-4.279
X7.7508Y-4.279
T7
X4.0949Y-7.4189
X5.0791Y-7.4189
T0
M30
