G04 (created by PCBNEW (2013-mar-13)-testing) date Wed 17 Apr 2013 01:59:25 PM EDT*
%MOIN*%
G04 Gerber Fmt 3.4, Leading zero omitted, Abs format*
%FSLAX34Y34*%
G01*
G70*
G90*
G04 APERTURE LIST*
%ADD10C,0.006*%
%ADD11C,0.00393701*%
%ADD12C,0.00590551*%
%ADD13C,0.003*%
%ADD14C,0.0039*%
%ADD15C,0.0125*%
%ADD16C,0.005*%
%ADD17C,0.012*%
%ADD18C,0.0043*%
%ADD19C,0.0045*%
%ADD20R,0.063X0.0551*%
%ADD21R,0.0709X0.0748*%
%ADD22R,0.0748X0.0748*%
%ADD23R,0.0157X0.0531*%
%ADD24R,0.0118X0.0217*%
%ADD25R,0.055X0.035*%
%ADD26R,0.035X0.055*%
%ADD27C,0.125*%
%ADD28R,0.0598425X0.0401575*%
%ADD29C,0.056*%
%ADD30R,0.045X0.025*%
%ADD31R,0.06X0.06*%
%ADD32C,0.06*%
G04 APERTURE END LIST*
G54D10*
G54D11*
X50262Y-42411D02*
X50393Y-42411D01*
X50236Y-42495D02*
X50328Y-42200D01*
X50419Y-42495D01*
X50511Y-42495D02*
X50511Y-42200D01*
X50577Y-42200D01*
X50616Y-42214D01*
X50643Y-42242D01*
X50656Y-42270D01*
X50669Y-42327D01*
X50669Y-42369D01*
X50656Y-42425D01*
X50643Y-42453D01*
X50616Y-42481D01*
X50577Y-42495D01*
X50511Y-42495D01*
X50879Y-42341D02*
X50918Y-42355D01*
X50931Y-42369D01*
X50944Y-42397D01*
X50944Y-42439D01*
X50931Y-42467D01*
X50918Y-42481D01*
X50892Y-42495D01*
X50787Y-42495D01*
X50787Y-42200D01*
X50879Y-42200D01*
X50905Y-42214D01*
X50918Y-42228D01*
X50931Y-42256D01*
X50931Y-42284D01*
X50918Y-42312D01*
X50905Y-42327D01*
X50879Y-42341D01*
X50787Y-42341D01*
X51062Y-42200D02*
X51062Y-42439D01*
X51076Y-42467D01*
X51089Y-42481D01*
X51115Y-42495D01*
X51167Y-42495D01*
X51194Y-42481D01*
X51207Y-42467D01*
X51220Y-42439D01*
X51220Y-42200D01*
X51338Y-42481D02*
X51377Y-42495D01*
X51443Y-42495D01*
X51469Y-42481D01*
X51482Y-42467D01*
X51496Y-42439D01*
X51496Y-42411D01*
X51482Y-42383D01*
X51469Y-42369D01*
X51443Y-42355D01*
X51391Y-42341D01*
X51364Y-42327D01*
X51351Y-42312D01*
X51338Y-42284D01*
X51338Y-42256D01*
X51351Y-42228D01*
X51364Y-42214D01*
X51391Y-42200D01*
X51456Y-42200D01*
X51496Y-42214D01*
X51587Y-42200D02*
X51771Y-42200D01*
X51653Y-42495D01*
X50262Y-43435D02*
X50393Y-43435D01*
X50236Y-43519D02*
X50328Y-43224D01*
X50419Y-43519D01*
X50511Y-43519D02*
X50511Y-43224D01*
X50577Y-43224D01*
X50616Y-43238D01*
X50643Y-43266D01*
X50656Y-43294D01*
X50669Y-43350D01*
X50669Y-43392D01*
X50656Y-43449D01*
X50643Y-43477D01*
X50616Y-43505D01*
X50577Y-43519D01*
X50511Y-43519D01*
X50879Y-43364D02*
X50918Y-43378D01*
X50931Y-43392D01*
X50944Y-43420D01*
X50944Y-43463D01*
X50931Y-43491D01*
X50918Y-43505D01*
X50892Y-43519D01*
X50787Y-43519D01*
X50787Y-43224D01*
X50879Y-43224D01*
X50905Y-43238D01*
X50918Y-43252D01*
X50931Y-43280D01*
X50931Y-43308D01*
X50918Y-43336D01*
X50905Y-43350D01*
X50879Y-43364D01*
X50787Y-43364D01*
X51062Y-43224D02*
X51062Y-43463D01*
X51076Y-43491D01*
X51089Y-43505D01*
X51115Y-43519D01*
X51167Y-43519D01*
X51194Y-43505D01*
X51207Y-43491D01*
X51220Y-43463D01*
X51220Y-43224D01*
X51338Y-43505D02*
X51377Y-43519D01*
X51443Y-43519D01*
X51469Y-43505D01*
X51482Y-43491D01*
X51496Y-43463D01*
X51496Y-43435D01*
X51482Y-43406D01*
X51469Y-43392D01*
X51443Y-43378D01*
X51391Y-43364D01*
X51364Y-43350D01*
X51351Y-43336D01*
X51338Y-43308D01*
X51338Y-43280D01*
X51351Y-43252D01*
X51364Y-43238D01*
X51391Y-43224D01*
X51456Y-43224D01*
X51496Y-43238D01*
X51732Y-43224D02*
X51679Y-43224D01*
X51653Y-43238D01*
X51640Y-43252D01*
X51614Y-43294D01*
X51601Y-43350D01*
X51601Y-43463D01*
X51614Y-43491D01*
X51627Y-43505D01*
X51653Y-43519D01*
X51706Y-43519D01*
X51732Y-43505D01*
X51745Y-43491D01*
X51758Y-43463D01*
X51758Y-43392D01*
X51745Y-43364D01*
X51732Y-43350D01*
X51706Y-43336D01*
X51653Y-43336D01*
X51627Y-43350D01*
X51614Y-43364D01*
X51601Y-43392D01*
X50262Y-44458D02*
X50393Y-44458D01*
X50236Y-44543D02*
X50328Y-44247D01*
X50419Y-44543D01*
X50511Y-44543D02*
X50511Y-44247D01*
X50577Y-44247D01*
X50616Y-44261D01*
X50643Y-44289D01*
X50656Y-44318D01*
X50669Y-44374D01*
X50669Y-44416D01*
X50656Y-44472D01*
X50643Y-44500D01*
X50616Y-44528D01*
X50577Y-44543D01*
X50511Y-44543D01*
X50879Y-44388D02*
X50918Y-44402D01*
X50931Y-44416D01*
X50944Y-44444D01*
X50944Y-44486D01*
X50931Y-44514D01*
X50918Y-44528D01*
X50892Y-44543D01*
X50787Y-44543D01*
X50787Y-44247D01*
X50879Y-44247D01*
X50905Y-44261D01*
X50918Y-44275D01*
X50931Y-44303D01*
X50931Y-44332D01*
X50918Y-44360D01*
X50905Y-44374D01*
X50879Y-44388D01*
X50787Y-44388D01*
X51062Y-44247D02*
X51062Y-44486D01*
X51076Y-44514D01*
X51089Y-44528D01*
X51115Y-44543D01*
X51167Y-44543D01*
X51194Y-44528D01*
X51207Y-44514D01*
X51220Y-44486D01*
X51220Y-44247D01*
X51338Y-44528D02*
X51377Y-44543D01*
X51443Y-44543D01*
X51469Y-44528D01*
X51482Y-44514D01*
X51496Y-44486D01*
X51496Y-44458D01*
X51482Y-44430D01*
X51469Y-44416D01*
X51443Y-44402D01*
X51391Y-44388D01*
X51364Y-44374D01*
X51351Y-44360D01*
X51338Y-44332D01*
X51338Y-44303D01*
X51351Y-44275D01*
X51364Y-44261D01*
X51391Y-44247D01*
X51456Y-44247D01*
X51496Y-44261D01*
X51745Y-44247D02*
X51614Y-44247D01*
X51601Y-44388D01*
X51614Y-44374D01*
X51640Y-44360D01*
X51706Y-44360D01*
X51732Y-44374D01*
X51745Y-44388D01*
X51758Y-44416D01*
X51758Y-44486D01*
X51745Y-44514D01*
X51732Y-44528D01*
X51706Y-44543D01*
X51640Y-44543D01*
X51614Y-44528D01*
X51601Y-44514D01*
X50262Y-45403D02*
X50393Y-45403D01*
X50236Y-45487D02*
X50328Y-45192D01*
X50419Y-45487D01*
X50511Y-45487D02*
X50511Y-45192D01*
X50577Y-45192D01*
X50616Y-45206D01*
X50643Y-45234D01*
X50656Y-45262D01*
X50669Y-45319D01*
X50669Y-45361D01*
X50656Y-45417D01*
X50643Y-45445D01*
X50616Y-45473D01*
X50577Y-45487D01*
X50511Y-45487D01*
X50879Y-45333D02*
X50918Y-45347D01*
X50931Y-45361D01*
X50944Y-45389D01*
X50944Y-45431D01*
X50931Y-45459D01*
X50918Y-45473D01*
X50892Y-45487D01*
X50787Y-45487D01*
X50787Y-45192D01*
X50879Y-45192D01*
X50905Y-45206D01*
X50918Y-45220D01*
X50931Y-45248D01*
X50931Y-45276D01*
X50918Y-45305D01*
X50905Y-45319D01*
X50879Y-45333D01*
X50787Y-45333D01*
X51062Y-45192D02*
X51062Y-45431D01*
X51076Y-45459D01*
X51089Y-45473D01*
X51115Y-45487D01*
X51167Y-45487D01*
X51194Y-45473D01*
X51207Y-45459D01*
X51220Y-45431D01*
X51220Y-45192D01*
X51338Y-45473D02*
X51377Y-45487D01*
X51443Y-45487D01*
X51469Y-45473D01*
X51482Y-45459D01*
X51496Y-45431D01*
X51496Y-45403D01*
X51482Y-45375D01*
X51469Y-45361D01*
X51443Y-45347D01*
X51391Y-45333D01*
X51364Y-45319D01*
X51351Y-45305D01*
X51338Y-45276D01*
X51338Y-45248D01*
X51351Y-45220D01*
X51364Y-45206D01*
X51391Y-45192D01*
X51456Y-45192D01*
X51496Y-45206D01*
X51732Y-45291D02*
X51732Y-45487D01*
X51666Y-45178D02*
X51601Y-45389D01*
X51771Y-45389D01*
X50262Y-46427D02*
X50393Y-46427D01*
X50236Y-46511D02*
X50328Y-46216D01*
X50419Y-46511D01*
X50511Y-46511D02*
X50511Y-46216D01*
X50577Y-46216D01*
X50616Y-46230D01*
X50643Y-46258D01*
X50656Y-46286D01*
X50669Y-46342D01*
X50669Y-46384D01*
X50656Y-46441D01*
X50643Y-46469D01*
X50616Y-46497D01*
X50577Y-46511D01*
X50511Y-46511D01*
X50879Y-46356D02*
X50918Y-46370D01*
X50931Y-46384D01*
X50944Y-46413D01*
X50944Y-46455D01*
X50931Y-46483D01*
X50918Y-46497D01*
X50892Y-46511D01*
X50787Y-46511D01*
X50787Y-46216D01*
X50879Y-46216D01*
X50905Y-46230D01*
X50918Y-46244D01*
X50931Y-46272D01*
X50931Y-46300D01*
X50918Y-46328D01*
X50905Y-46342D01*
X50879Y-46356D01*
X50787Y-46356D01*
X51062Y-46216D02*
X51062Y-46455D01*
X51076Y-46483D01*
X51089Y-46497D01*
X51115Y-46511D01*
X51167Y-46511D01*
X51194Y-46497D01*
X51207Y-46483D01*
X51220Y-46455D01*
X51220Y-46216D01*
X51338Y-46497D02*
X51377Y-46511D01*
X51443Y-46511D01*
X51469Y-46497D01*
X51482Y-46483D01*
X51496Y-46455D01*
X51496Y-46427D01*
X51482Y-46399D01*
X51469Y-46384D01*
X51443Y-46370D01*
X51391Y-46356D01*
X51364Y-46342D01*
X51351Y-46328D01*
X51338Y-46300D01*
X51338Y-46272D01*
X51351Y-46244D01*
X51364Y-46230D01*
X51391Y-46216D01*
X51456Y-46216D01*
X51496Y-46230D01*
X51587Y-46216D02*
X51758Y-46216D01*
X51666Y-46328D01*
X51706Y-46328D01*
X51732Y-46342D01*
X51745Y-46356D01*
X51758Y-46384D01*
X51758Y-46455D01*
X51745Y-46483D01*
X51732Y-46497D01*
X51706Y-46511D01*
X51627Y-46511D01*
X51601Y-46497D01*
X51587Y-46483D01*
X50262Y-47450D02*
X50393Y-47450D01*
X50236Y-47535D02*
X50328Y-47239D01*
X50419Y-47535D01*
X50511Y-47535D02*
X50511Y-47239D01*
X50577Y-47239D01*
X50616Y-47253D01*
X50643Y-47282D01*
X50656Y-47310D01*
X50669Y-47366D01*
X50669Y-47408D01*
X50656Y-47464D01*
X50643Y-47492D01*
X50616Y-47521D01*
X50577Y-47535D01*
X50511Y-47535D01*
X50879Y-47380D02*
X50918Y-47394D01*
X50931Y-47408D01*
X50944Y-47436D01*
X50944Y-47478D01*
X50931Y-47507D01*
X50918Y-47521D01*
X50892Y-47535D01*
X50787Y-47535D01*
X50787Y-47239D01*
X50879Y-47239D01*
X50905Y-47253D01*
X50918Y-47267D01*
X50931Y-47296D01*
X50931Y-47324D01*
X50918Y-47352D01*
X50905Y-47366D01*
X50879Y-47380D01*
X50787Y-47380D01*
X51062Y-47239D02*
X51062Y-47478D01*
X51076Y-47507D01*
X51089Y-47521D01*
X51115Y-47535D01*
X51167Y-47535D01*
X51194Y-47521D01*
X51207Y-47507D01*
X51220Y-47478D01*
X51220Y-47239D01*
X51338Y-47521D02*
X51377Y-47535D01*
X51443Y-47535D01*
X51469Y-47521D01*
X51482Y-47507D01*
X51496Y-47478D01*
X51496Y-47450D01*
X51482Y-47422D01*
X51469Y-47408D01*
X51443Y-47394D01*
X51391Y-47380D01*
X51364Y-47366D01*
X51351Y-47352D01*
X51338Y-47324D01*
X51338Y-47296D01*
X51351Y-47267D01*
X51364Y-47253D01*
X51391Y-47239D01*
X51456Y-47239D01*
X51496Y-47253D01*
X51601Y-47267D02*
X51614Y-47253D01*
X51640Y-47239D01*
X51706Y-47239D01*
X51732Y-47253D01*
X51745Y-47267D01*
X51758Y-47296D01*
X51758Y-47324D01*
X51745Y-47366D01*
X51587Y-47535D01*
X51758Y-47535D01*
X50262Y-48395D02*
X50393Y-48395D01*
X50236Y-48480D02*
X50328Y-48184D01*
X50419Y-48480D01*
X50511Y-48480D02*
X50511Y-48184D01*
X50577Y-48184D01*
X50616Y-48198D01*
X50643Y-48226D01*
X50656Y-48255D01*
X50669Y-48311D01*
X50669Y-48353D01*
X50656Y-48409D01*
X50643Y-48437D01*
X50616Y-48465D01*
X50577Y-48480D01*
X50511Y-48480D01*
X50879Y-48325D02*
X50918Y-48339D01*
X50931Y-48353D01*
X50944Y-48381D01*
X50944Y-48423D01*
X50931Y-48451D01*
X50918Y-48465D01*
X50892Y-48480D01*
X50787Y-48480D01*
X50787Y-48184D01*
X50879Y-48184D01*
X50905Y-48198D01*
X50918Y-48212D01*
X50931Y-48241D01*
X50931Y-48269D01*
X50918Y-48297D01*
X50905Y-48311D01*
X50879Y-48325D01*
X50787Y-48325D01*
X51062Y-48184D02*
X51062Y-48423D01*
X51076Y-48451D01*
X51089Y-48465D01*
X51115Y-48480D01*
X51167Y-48480D01*
X51194Y-48465D01*
X51207Y-48451D01*
X51220Y-48423D01*
X51220Y-48184D01*
X51338Y-48465D02*
X51377Y-48480D01*
X51443Y-48480D01*
X51469Y-48465D01*
X51482Y-48451D01*
X51496Y-48423D01*
X51496Y-48395D01*
X51482Y-48367D01*
X51469Y-48353D01*
X51443Y-48339D01*
X51391Y-48325D01*
X51364Y-48311D01*
X51351Y-48297D01*
X51338Y-48269D01*
X51338Y-48241D01*
X51351Y-48212D01*
X51364Y-48198D01*
X51391Y-48184D01*
X51456Y-48184D01*
X51496Y-48198D01*
X51758Y-48480D02*
X51601Y-48480D01*
X51679Y-48480D02*
X51679Y-48184D01*
X51653Y-48226D01*
X51627Y-48255D01*
X51601Y-48269D01*
X50262Y-49419D02*
X50393Y-49419D01*
X50236Y-49503D02*
X50328Y-49208D01*
X50419Y-49503D01*
X50511Y-49503D02*
X50511Y-49208D01*
X50577Y-49208D01*
X50616Y-49222D01*
X50643Y-49250D01*
X50656Y-49278D01*
X50669Y-49334D01*
X50669Y-49377D01*
X50656Y-49433D01*
X50643Y-49461D01*
X50616Y-49489D01*
X50577Y-49503D01*
X50511Y-49503D01*
X50879Y-49348D02*
X50918Y-49363D01*
X50931Y-49377D01*
X50944Y-49405D01*
X50944Y-49447D01*
X50931Y-49475D01*
X50918Y-49489D01*
X50892Y-49503D01*
X50787Y-49503D01*
X50787Y-49208D01*
X50879Y-49208D01*
X50905Y-49222D01*
X50918Y-49236D01*
X50931Y-49264D01*
X50931Y-49292D01*
X50918Y-49320D01*
X50905Y-49334D01*
X50879Y-49348D01*
X50787Y-49348D01*
X51062Y-49208D02*
X51062Y-49447D01*
X51076Y-49475D01*
X51089Y-49489D01*
X51115Y-49503D01*
X51167Y-49503D01*
X51194Y-49489D01*
X51207Y-49475D01*
X51220Y-49447D01*
X51220Y-49208D01*
X51338Y-49489D02*
X51377Y-49503D01*
X51443Y-49503D01*
X51469Y-49489D01*
X51482Y-49475D01*
X51496Y-49447D01*
X51496Y-49419D01*
X51482Y-49391D01*
X51469Y-49377D01*
X51443Y-49363D01*
X51391Y-49348D01*
X51364Y-49334D01*
X51351Y-49320D01*
X51338Y-49292D01*
X51338Y-49264D01*
X51351Y-49236D01*
X51364Y-49222D01*
X51391Y-49208D01*
X51456Y-49208D01*
X51496Y-49222D01*
X51666Y-49208D02*
X51692Y-49208D01*
X51719Y-49222D01*
X51732Y-49236D01*
X51745Y-49264D01*
X51758Y-49320D01*
X51758Y-49391D01*
X51745Y-49447D01*
X51732Y-49475D01*
X51719Y-49489D01*
X51692Y-49503D01*
X51666Y-49503D01*
X51640Y-49489D01*
X51627Y-49475D01*
X51614Y-49447D01*
X51601Y-49391D01*
X51601Y-49320D01*
X51614Y-49264D01*
X51627Y-49236D01*
X51640Y-49222D01*
X51666Y-49208D01*
X49750Y-50442D02*
X49881Y-50442D01*
X49724Y-50527D02*
X49816Y-50232D01*
X49908Y-50527D01*
X50000Y-50527D02*
X50000Y-50232D01*
X50065Y-50232D01*
X50104Y-50246D01*
X50131Y-50274D01*
X50144Y-50302D01*
X50157Y-50358D01*
X50157Y-50400D01*
X50144Y-50456D01*
X50131Y-50485D01*
X50104Y-50513D01*
X50065Y-50527D01*
X50000Y-50527D01*
X50367Y-50372D02*
X50406Y-50386D01*
X50419Y-50400D01*
X50433Y-50428D01*
X50433Y-50471D01*
X50419Y-50499D01*
X50406Y-50513D01*
X50380Y-50527D01*
X50275Y-50527D01*
X50275Y-50232D01*
X50367Y-50232D01*
X50393Y-50246D01*
X50406Y-50260D01*
X50419Y-50288D01*
X50419Y-50316D01*
X50406Y-50344D01*
X50393Y-50358D01*
X50367Y-50372D01*
X50275Y-50372D01*
X50551Y-50232D02*
X50551Y-50471D01*
X50564Y-50499D01*
X50577Y-50513D01*
X50603Y-50527D01*
X50656Y-50527D01*
X50682Y-50513D01*
X50695Y-50499D01*
X50708Y-50471D01*
X50708Y-50232D01*
X50826Y-50513D02*
X50866Y-50527D01*
X50931Y-50527D01*
X50958Y-50513D01*
X50971Y-50499D01*
X50984Y-50471D01*
X50984Y-50442D01*
X50971Y-50414D01*
X50958Y-50400D01*
X50931Y-50386D01*
X50879Y-50372D01*
X50853Y-50358D01*
X50839Y-50344D01*
X50826Y-50316D01*
X50826Y-50288D01*
X50839Y-50260D01*
X50853Y-50246D01*
X50879Y-50232D01*
X50944Y-50232D01*
X50984Y-50246D01*
X51259Y-50499D02*
X51246Y-50513D01*
X51207Y-50527D01*
X51181Y-50527D01*
X51141Y-50513D01*
X51115Y-50485D01*
X51102Y-50456D01*
X51089Y-50400D01*
X51089Y-50358D01*
X51102Y-50302D01*
X51115Y-50274D01*
X51141Y-50246D01*
X51181Y-50232D01*
X51207Y-50232D01*
X51246Y-50246D01*
X51259Y-50260D01*
X51509Y-50527D02*
X51377Y-50527D01*
X51377Y-50232D01*
X51601Y-50527D02*
X51601Y-50232D01*
X51758Y-50527D02*
X51640Y-50358D01*
X51758Y-50232D02*
X51601Y-50400D01*
X51181Y-51269D02*
X51154Y-51255D01*
X51115Y-51255D01*
X51076Y-51269D01*
X51049Y-51297D01*
X51036Y-51325D01*
X51023Y-51382D01*
X51023Y-51424D01*
X51036Y-51480D01*
X51049Y-51508D01*
X51076Y-51536D01*
X51115Y-51550D01*
X51141Y-51550D01*
X51181Y-51536D01*
X51194Y-51522D01*
X51194Y-51424D01*
X51141Y-51424D01*
X51312Y-51550D02*
X51312Y-51255D01*
X51469Y-51550D01*
X51469Y-51255D01*
X51601Y-51550D02*
X51601Y-51255D01*
X51666Y-51255D01*
X51706Y-51269D01*
X51732Y-51297D01*
X51745Y-51325D01*
X51758Y-51382D01*
X51758Y-51424D01*
X51745Y-51480D01*
X51732Y-51508D01*
X51706Y-51536D01*
X51666Y-51550D01*
X51601Y-51550D01*
X50629Y-52279D02*
X50721Y-52574D01*
X50813Y-52279D01*
X51062Y-52546D02*
X51049Y-52560D01*
X51010Y-52574D01*
X50984Y-52574D01*
X50944Y-52560D01*
X50918Y-52532D01*
X50905Y-52504D01*
X50892Y-52447D01*
X50892Y-52405D01*
X50905Y-52349D01*
X50918Y-52321D01*
X50944Y-52293D01*
X50984Y-52279D01*
X51010Y-52279D01*
X51049Y-52293D01*
X51062Y-52307D01*
X51338Y-52546D02*
X51325Y-52560D01*
X51286Y-52574D01*
X51259Y-52574D01*
X51220Y-52560D01*
X51194Y-52532D01*
X51181Y-52504D01*
X51167Y-52447D01*
X51167Y-52405D01*
X51181Y-52349D01*
X51194Y-52321D01*
X51220Y-52293D01*
X51259Y-52279D01*
X51286Y-52279D01*
X51325Y-52293D01*
X51338Y-52307D01*
X51456Y-52574D02*
X51456Y-52279D01*
X51640Y-52279D02*
X51692Y-52279D01*
X51719Y-52293D01*
X51745Y-52321D01*
X51758Y-52377D01*
X51758Y-52476D01*
X51745Y-52532D01*
X51719Y-52560D01*
X51692Y-52574D01*
X51640Y-52574D01*
X51614Y-52560D01*
X51587Y-52532D01*
X51574Y-52476D01*
X51574Y-52377D01*
X51587Y-52321D01*
X51614Y-52293D01*
X51640Y-52279D01*
X50643Y-53406D02*
X50853Y-53406D01*
X50748Y-53519D02*
X50748Y-53294D01*
X50958Y-53224D02*
X51128Y-53224D01*
X51036Y-53336D01*
X51076Y-53336D01*
X51102Y-53350D01*
X51115Y-53364D01*
X51128Y-53392D01*
X51128Y-53463D01*
X51115Y-53491D01*
X51102Y-53505D01*
X51076Y-53519D01*
X50997Y-53519D01*
X50971Y-53505D01*
X50958Y-53491D01*
X51246Y-53491D02*
X51259Y-53505D01*
X51246Y-53519D01*
X51233Y-53505D01*
X51246Y-53491D01*
X51246Y-53519D01*
X51351Y-53224D02*
X51522Y-53224D01*
X51430Y-53336D01*
X51469Y-53336D01*
X51496Y-53350D01*
X51509Y-53364D01*
X51522Y-53392D01*
X51522Y-53463D01*
X51509Y-53491D01*
X51496Y-53505D01*
X51469Y-53519D01*
X51391Y-53519D01*
X51364Y-53505D01*
X51351Y-53491D01*
X51601Y-53224D02*
X51692Y-53519D01*
X51784Y-53224D01*
X50380Y-54247D02*
X50472Y-54543D01*
X50564Y-54247D01*
X50813Y-54543D02*
X50721Y-54402D01*
X50656Y-54543D02*
X50656Y-54247D01*
X50761Y-54247D01*
X50787Y-54261D01*
X50800Y-54275D01*
X50813Y-54303D01*
X50813Y-54346D01*
X50800Y-54374D01*
X50787Y-54388D01*
X50761Y-54402D01*
X50656Y-54402D01*
X50931Y-54388D02*
X51023Y-54388D01*
X51062Y-54543D02*
X50931Y-54543D01*
X50931Y-54247D01*
X51062Y-54247D01*
X51325Y-54261D02*
X51299Y-54247D01*
X51259Y-54247D01*
X51220Y-54261D01*
X51194Y-54289D01*
X51181Y-54318D01*
X51167Y-54374D01*
X51167Y-54416D01*
X51181Y-54472D01*
X51194Y-54500D01*
X51220Y-54528D01*
X51259Y-54543D01*
X51286Y-54543D01*
X51325Y-54528D01*
X51338Y-54514D01*
X51338Y-54416D01*
X51286Y-54416D01*
X51456Y-54543D02*
X51456Y-54247D01*
X51587Y-54543D02*
X51587Y-54247D01*
X51745Y-54543D01*
X51745Y-54247D01*
X41154Y-54261D02*
X41128Y-54247D01*
X41089Y-54247D01*
X41049Y-54261D01*
X41023Y-54289D01*
X41010Y-54318D01*
X40997Y-54374D01*
X40997Y-54416D01*
X41010Y-54472D01*
X41023Y-54500D01*
X41049Y-54528D01*
X41089Y-54543D01*
X41115Y-54543D01*
X41154Y-54528D01*
X41167Y-54514D01*
X41167Y-54416D01*
X41115Y-54416D01*
X41286Y-54543D02*
X41286Y-54247D01*
X41443Y-54543D01*
X41443Y-54247D01*
X41574Y-54543D02*
X41574Y-54247D01*
X41640Y-54247D01*
X41679Y-54261D01*
X41706Y-54289D01*
X41719Y-54318D01*
X41732Y-54374D01*
X41732Y-54416D01*
X41719Y-54472D01*
X41706Y-54500D01*
X41679Y-54528D01*
X41640Y-54543D01*
X41574Y-54543D01*
X41167Y-53519D02*
X41076Y-53378D01*
X41010Y-53519D02*
X41010Y-53224D01*
X41115Y-53224D01*
X41141Y-53238D01*
X41154Y-53252D01*
X41167Y-53280D01*
X41167Y-53322D01*
X41154Y-53350D01*
X41141Y-53364D01*
X41115Y-53378D01*
X41010Y-53378D01*
X41286Y-53364D02*
X41377Y-53364D01*
X41417Y-53519D02*
X41286Y-53519D01*
X41286Y-53224D01*
X41417Y-53224D01*
X41522Y-53505D02*
X41561Y-53519D01*
X41627Y-53519D01*
X41653Y-53505D01*
X41666Y-53491D01*
X41679Y-53463D01*
X41679Y-53435D01*
X41666Y-53406D01*
X41653Y-53392D01*
X41627Y-53378D01*
X41574Y-53364D01*
X41548Y-53350D01*
X41535Y-53336D01*
X41522Y-53308D01*
X41522Y-53280D01*
X41535Y-53252D01*
X41548Y-53238D01*
X41574Y-53224D01*
X41640Y-53224D01*
X41679Y-53238D01*
X41797Y-53364D02*
X41889Y-53364D01*
X41929Y-53519D02*
X41797Y-53519D01*
X41797Y-53224D01*
X41929Y-53224D01*
X42007Y-53224D02*
X42165Y-53224D01*
X42086Y-53519D02*
X42086Y-53224D01*
X42244Y-53322D02*
X42440Y-53322D01*
X42322Y-53196D02*
X42244Y-53575D01*
X42414Y-53449D02*
X42217Y-53449D01*
X42335Y-53575D02*
X42414Y-53196D01*
X40997Y-52411D02*
X41128Y-52411D01*
X40971Y-52495D02*
X41062Y-52200D01*
X41154Y-52495D01*
X41404Y-52467D02*
X41391Y-52481D01*
X41351Y-52495D01*
X41325Y-52495D01*
X41286Y-52481D01*
X41259Y-52453D01*
X41246Y-52425D01*
X41233Y-52369D01*
X41233Y-52327D01*
X41246Y-52270D01*
X41259Y-52242D01*
X41286Y-52214D01*
X41325Y-52200D01*
X41351Y-52200D01*
X41391Y-52214D01*
X41404Y-52228D01*
X41614Y-52341D02*
X41653Y-52355D01*
X41666Y-52369D01*
X41679Y-52397D01*
X41679Y-52439D01*
X41666Y-52467D01*
X41653Y-52481D01*
X41627Y-52495D01*
X41522Y-52495D01*
X41522Y-52200D01*
X41614Y-52200D01*
X41640Y-52214D01*
X41653Y-52228D01*
X41666Y-52256D01*
X41666Y-52284D01*
X41653Y-52312D01*
X41640Y-52327D01*
X41614Y-52341D01*
X41522Y-52341D01*
X41797Y-52200D02*
X41797Y-52439D01*
X41811Y-52467D01*
X41824Y-52481D01*
X41850Y-52495D01*
X41902Y-52495D01*
X41929Y-52481D01*
X41942Y-52467D01*
X41955Y-52439D01*
X41955Y-52200D01*
X42073Y-52481D02*
X42112Y-52495D01*
X42178Y-52495D01*
X42204Y-52481D01*
X42217Y-52467D01*
X42230Y-52439D01*
X42230Y-52411D01*
X42217Y-52383D01*
X42204Y-52369D01*
X42178Y-52355D01*
X42125Y-52341D01*
X42099Y-52327D01*
X42086Y-52312D01*
X42073Y-52284D01*
X42073Y-52256D01*
X42086Y-52228D01*
X42099Y-52214D01*
X42125Y-52200D01*
X42191Y-52200D01*
X42230Y-52214D01*
X42362Y-52495D02*
X42414Y-52495D01*
X42440Y-52481D01*
X42454Y-52467D01*
X42480Y-52425D01*
X42493Y-52369D01*
X42493Y-52256D01*
X42480Y-52228D01*
X42467Y-52214D01*
X42440Y-52200D01*
X42388Y-52200D01*
X42362Y-52214D01*
X42349Y-52228D01*
X42335Y-52256D01*
X42335Y-52327D01*
X42349Y-52355D01*
X42362Y-52369D01*
X42388Y-52383D01*
X42440Y-52383D01*
X42467Y-52369D01*
X42480Y-52355D01*
X42493Y-52327D01*
X40997Y-51387D02*
X41128Y-51387D01*
X40971Y-51472D02*
X41062Y-51176D01*
X41154Y-51472D01*
X41404Y-51444D02*
X41391Y-51458D01*
X41351Y-51472D01*
X41325Y-51472D01*
X41286Y-51458D01*
X41259Y-51429D01*
X41246Y-51401D01*
X41233Y-51345D01*
X41233Y-51303D01*
X41246Y-51247D01*
X41259Y-51219D01*
X41286Y-51190D01*
X41325Y-51176D01*
X41351Y-51176D01*
X41391Y-51190D01*
X41404Y-51205D01*
X41614Y-51317D02*
X41653Y-51331D01*
X41666Y-51345D01*
X41679Y-51373D01*
X41679Y-51415D01*
X41666Y-51444D01*
X41653Y-51458D01*
X41627Y-51472D01*
X41522Y-51472D01*
X41522Y-51176D01*
X41614Y-51176D01*
X41640Y-51190D01*
X41653Y-51205D01*
X41666Y-51233D01*
X41666Y-51261D01*
X41653Y-51289D01*
X41640Y-51303D01*
X41614Y-51317D01*
X41522Y-51317D01*
X41797Y-51176D02*
X41797Y-51415D01*
X41811Y-51444D01*
X41824Y-51458D01*
X41850Y-51472D01*
X41902Y-51472D01*
X41929Y-51458D01*
X41942Y-51444D01*
X41955Y-51415D01*
X41955Y-51176D01*
X42073Y-51458D02*
X42112Y-51472D01*
X42178Y-51472D01*
X42204Y-51458D01*
X42217Y-51444D01*
X42230Y-51415D01*
X42230Y-51387D01*
X42217Y-51359D01*
X42204Y-51345D01*
X42178Y-51331D01*
X42125Y-51317D01*
X42099Y-51303D01*
X42086Y-51289D01*
X42073Y-51261D01*
X42073Y-51233D01*
X42086Y-51205D01*
X42099Y-51190D01*
X42125Y-51176D01*
X42191Y-51176D01*
X42230Y-51190D01*
X42388Y-51303D02*
X42362Y-51289D01*
X42349Y-51275D01*
X42335Y-51247D01*
X42335Y-51233D01*
X42349Y-51205D01*
X42362Y-51190D01*
X42388Y-51176D01*
X42440Y-51176D01*
X42467Y-51190D01*
X42480Y-51205D01*
X42493Y-51233D01*
X42493Y-51247D01*
X42480Y-51275D01*
X42467Y-51289D01*
X42440Y-51303D01*
X42388Y-51303D01*
X42362Y-51317D01*
X42349Y-51331D01*
X42335Y-51359D01*
X42335Y-51415D01*
X42349Y-51444D01*
X42362Y-51458D01*
X42388Y-51472D01*
X42440Y-51472D01*
X42467Y-51458D01*
X42480Y-51444D01*
X42493Y-51415D01*
X42493Y-51359D01*
X42480Y-51331D01*
X42467Y-51317D01*
X42440Y-51303D01*
X40997Y-50442D02*
X41128Y-50442D01*
X40971Y-50527D02*
X41062Y-50232D01*
X41154Y-50527D01*
X41404Y-50499D02*
X41391Y-50513D01*
X41351Y-50527D01*
X41325Y-50527D01*
X41286Y-50513D01*
X41259Y-50485D01*
X41246Y-50456D01*
X41233Y-50400D01*
X41233Y-50358D01*
X41246Y-50302D01*
X41259Y-50274D01*
X41286Y-50246D01*
X41325Y-50232D01*
X41351Y-50232D01*
X41391Y-50246D01*
X41404Y-50260D01*
X41614Y-50372D02*
X41653Y-50386D01*
X41666Y-50400D01*
X41679Y-50428D01*
X41679Y-50471D01*
X41666Y-50499D01*
X41653Y-50513D01*
X41627Y-50527D01*
X41522Y-50527D01*
X41522Y-50232D01*
X41614Y-50232D01*
X41640Y-50246D01*
X41653Y-50260D01*
X41666Y-50288D01*
X41666Y-50316D01*
X41653Y-50344D01*
X41640Y-50358D01*
X41614Y-50372D01*
X41522Y-50372D01*
X41797Y-50232D02*
X41797Y-50471D01*
X41811Y-50499D01*
X41824Y-50513D01*
X41850Y-50527D01*
X41902Y-50527D01*
X41929Y-50513D01*
X41942Y-50499D01*
X41955Y-50471D01*
X41955Y-50232D01*
X42073Y-50513D02*
X42112Y-50527D01*
X42178Y-50527D01*
X42204Y-50513D01*
X42217Y-50499D01*
X42230Y-50471D01*
X42230Y-50442D01*
X42217Y-50414D01*
X42204Y-50400D01*
X42178Y-50386D01*
X42125Y-50372D01*
X42099Y-50358D01*
X42086Y-50344D01*
X42073Y-50316D01*
X42073Y-50288D01*
X42086Y-50260D01*
X42099Y-50246D01*
X42125Y-50232D01*
X42191Y-50232D01*
X42230Y-50246D01*
X42322Y-50232D02*
X42506Y-50232D01*
X42388Y-50527D01*
X40997Y-49419D02*
X41128Y-49419D01*
X40971Y-49503D02*
X41062Y-49208D01*
X41154Y-49503D01*
X41404Y-49475D02*
X41391Y-49489D01*
X41351Y-49503D01*
X41325Y-49503D01*
X41286Y-49489D01*
X41259Y-49461D01*
X41246Y-49433D01*
X41233Y-49377D01*
X41233Y-49334D01*
X41246Y-49278D01*
X41259Y-49250D01*
X41286Y-49222D01*
X41325Y-49208D01*
X41351Y-49208D01*
X41391Y-49222D01*
X41404Y-49236D01*
X41614Y-49348D02*
X41653Y-49363D01*
X41666Y-49377D01*
X41679Y-49405D01*
X41679Y-49447D01*
X41666Y-49475D01*
X41653Y-49489D01*
X41627Y-49503D01*
X41522Y-49503D01*
X41522Y-49208D01*
X41614Y-49208D01*
X41640Y-49222D01*
X41653Y-49236D01*
X41666Y-49264D01*
X41666Y-49292D01*
X41653Y-49320D01*
X41640Y-49334D01*
X41614Y-49348D01*
X41522Y-49348D01*
X41797Y-49208D02*
X41797Y-49447D01*
X41811Y-49475D01*
X41824Y-49489D01*
X41850Y-49503D01*
X41902Y-49503D01*
X41929Y-49489D01*
X41942Y-49475D01*
X41955Y-49447D01*
X41955Y-49208D01*
X42073Y-49489D02*
X42112Y-49503D01*
X42178Y-49503D01*
X42204Y-49489D01*
X42217Y-49475D01*
X42230Y-49447D01*
X42230Y-49419D01*
X42217Y-49391D01*
X42204Y-49377D01*
X42178Y-49363D01*
X42125Y-49348D01*
X42099Y-49334D01*
X42086Y-49320D01*
X42073Y-49292D01*
X42073Y-49264D01*
X42086Y-49236D01*
X42099Y-49222D01*
X42125Y-49208D01*
X42191Y-49208D01*
X42230Y-49222D01*
X42467Y-49208D02*
X42414Y-49208D01*
X42388Y-49222D01*
X42375Y-49236D01*
X42349Y-49278D01*
X42335Y-49334D01*
X42335Y-49447D01*
X42349Y-49475D01*
X42362Y-49489D01*
X42388Y-49503D01*
X42440Y-49503D01*
X42467Y-49489D01*
X42480Y-49475D01*
X42493Y-49447D01*
X42493Y-49377D01*
X42480Y-49348D01*
X42467Y-49334D01*
X42440Y-49320D01*
X42388Y-49320D01*
X42362Y-49334D01*
X42349Y-49348D01*
X42335Y-49377D01*
X40997Y-48395D02*
X41128Y-48395D01*
X40971Y-48480D02*
X41062Y-48184D01*
X41154Y-48480D01*
X41404Y-48451D02*
X41391Y-48465D01*
X41351Y-48480D01*
X41325Y-48480D01*
X41286Y-48465D01*
X41259Y-48437D01*
X41246Y-48409D01*
X41233Y-48353D01*
X41233Y-48311D01*
X41246Y-48255D01*
X41259Y-48226D01*
X41286Y-48198D01*
X41325Y-48184D01*
X41351Y-48184D01*
X41391Y-48198D01*
X41404Y-48212D01*
X41614Y-48325D02*
X41653Y-48339D01*
X41666Y-48353D01*
X41679Y-48381D01*
X41679Y-48423D01*
X41666Y-48451D01*
X41653Y-48465D01*
X41627Y-48480D01*
X41522Y-48480D01*
X41522Y-48184D01*
X41614Y-48184D01*
X41640Y-48198D01*
X41653Y-48212D01*
X41666Y-48241D01*
X41666Y-48269D01*
X41653Y-48297D01*
X41640Y-48311D01*
X41614Y-48325D01*
X41522Y-48325D01*
X41797Y-48184D02*
X41797Y-48423D01*
X41811Y-48451D01*
X41824Y-48465D01*
X41850Y-48480D01*
X41902Y-48480D01*
X41929Y-48465D01*
X41942Y-48451D01*
X41955Y-48423D01*
X41955Y-48184D01*
X42073Y-48465D02*
X42112Y-48480D01*
X42178Y-48480D01*
X42204Y-48465D01*
X42217Y-48451D01*
X42230Y-48423D01*
X42230Y-48395D01*
X42217Y-48367D01*
X42204Y-48353D01*
X42178Y-48339D01*
X42125Y-48325D01*
X42099Y-48311D01*
X42086Y-48297D01*
X42073Y-48269D01*
X42073Y-48241D01*
X42086Y-48212D01*
X42099Y-48198D01*
X42125Y-48184D01*
X42191Y-48184D01*
X42230Y-48198D01*
X42467Y-48283D02*
X42467Y-48480D01*
X42401Y-48170D02*
X42335Y-48381D01*
X42506Y-48381D01*
X40997Y-47450D02*
X41128Y-47450D01*
X40971Y-47535D02*
X41062Y-47239D01*
X41154Y-47535D01*
X41404Y-47507D02*
X41391Y-47521D01*
X41351Y-47535D01*
X41325Y-47535D01*
X41286Y-47521D01*
X41259Y-47492D01*
X41246Y-47464D01*
X41233Y-47408D01*
X41233Y-47366D01*
X41246Y-47310D01*
X41259Y-47282D01*
X41286Y-47253D01*
X41325Y-47239D01*
X41351Y-47239D01*
X41391Y-47253D01*
X41404Y-47267D01*
X41614Y-47380D02*
X41653Y-47394D01*
X41666Y-47408D01*
X41679Y-47436D01*
X41679Y-47478D01*
X41666Y-47507D01*
X41653Y-47521D01*
X41627Y-47535D01*
X41522Y-47535D01*
X41522Y-47239D01*
X41614Y-47239D01*
X41640Y-47253D01*
X41653Y-47267D01*
X41666Y-47296D01*
X41666Y-47324D01*
X41653Y-47352D01*
X41640Y-47366D01*
X41614Y-47380D01*
X41522Y-47380D01*
X41797Y-47239D02*
X41797Y-47478D01*
X41811Y-47507D01*
X41824Y-47521D01*
X41850Y-47535D01*
X41902Y-47535D01*
X41929Y-47521D01*
X41942Y-47507D01*
X41955Y-47478D01*
X41955Y-47239D01*
X42073Y-47521D02*
X42112Y-47535D01*
X42178Y-47535D01*
X42204Y-47521D01*
X42217Y-47507D01*
X42230Y-47478D01*
X42230Y-47450D01*
X42217Y-47422D01*
X42204Y-47408D01*
X42178Y-47394D01*
X42125Y-47380D01*
X42099Y-47366D01*
X42086Y-47352D01*
X42073Y-47324D01*
X42073Y-47296D01*
X42086Y-47267D01*
X42099Y-47253D01*
X42125Y-47239D01*
X42191Y-47239D01*
X42230Y-47253D01*
X42322Y-47239D02*
X42493Y-47239D01*
X42401Y-47352D01*
X42440Y-47352D01*
X42467Y-47366D01*
X42480Y-47380D01*
X42493Y-47408D01*
X42493Y-47478D01*
X42480Y-47507D01*
X42467Y-47521D01*
X42440Y-47535D01*
X42362Y-47535D01*
X42335Y-47521D01*
X42322Y-47507D01*
X40997Y-46427D02*
X41128Y-46427D01*
X40971Y-46511D02*
X41062Y-46216D01*
X41154Y-46511D01*
X41404Y-46483D02*
X41391Y-46497D01*
X41351Y-46511D01*
X41325Y-46511D01*
X41286Y-46497D01*
X41259Y-46469D01*
X41246Y-46441D01*
X41233Y-46384D01*
X41233Y-46342D01*
X41246Y-46286D01*
X41259Y-46258D01*
X41286Y-46230D01*
X41325Y-46216D01*
X41351Y-46216D01*
X41391Y-46230D01*
X41404Y-46244D01*
X41614Y-46356D02*
X41653Y-46370D01*
X41666Y-46384D01*
X41679Y-46413D01*
X41679Y-46455D01*
X41666Y-46483D01*
X41653Y-46497D01*
X41627Y-46511D01*
X41522Y-46511D01*
X41522Y-46216D01*
X41614Y-46216D01*
X41640Y-46230D01*
X41653Y-46244D01*
X41666Y-46272D01*
X41666Y-46300D01*
X41653Y-46328D01*
X41640Y-46342D01*
X41614Y-46356D01*
X41522Y-46356D01*
X41797Y-46216D02*
X41797Y-46455D01*
X41811Y-46483D01*
X41824Y-46497D01*
X41850Y-46511D01*
X41902Y-46511D01*
X41929Y-46497D01*
X41942Y-46483D01*
X41955Y-46455D01*
X41955Y-46216D01*
X42073Y-46497D02*
X42112Y-46511D01*
X42178Y-46511D01*
X42204Y-46497D01*
X42217Y-46483D01*
X42230Y-46455D01*
X42230Y-46427D01*
X42217Y-46399D01*
X42204Y-46384D01*
X42178Y-46370D01*
X42125Y-46356D01*
X42099Y-46342D01*
X42086Y-46328D01*
X42073Y-46300D01*
X42073Y-46272D01*
X42086Y-46244D01*
X42099Y-46230D01*
X42125Y-46216D01*
X42191Y-46216D01*
X42230Y-46230D01*
X42335Y-46244D02*
X42349Y-46230D01*
X42375Y-46216D01*
X42440Y-46216D01*
X42467Y-46230D01*
X42480Y-46244D01*
X42493Y-46272D01*
X42493Y-46300D01*
X42480Y-46342D01*
X42322Y-46511D01*
X42493Y-46511D01*
X40997Y-45403D02*
X41128Y-45403D01*
X40971Y-45487D02*
X41062Y-45192D01*
X41154Y-45487D01*
X41404Y-45459D02*
X41391Y-45473D01*
X41351Y-45487D01*
X41325Y-45487D01*
X41286Y-45473D01*
X41259Y-45445D01*
X41246Y-45417D01*
X41233Y-45361D01*
X41233Y-45319D01*
X41246Y-45262D01*
X41259Y-45234D01*
X41286Y-45206D01*
X41325Y-45192D01*
X41351Y-45192D01*
X41391Y-45206D01*
X41404Y-45220D01*
X41614Y-45333D02*
X41653Y-45347D01*
X41666Y-45361D01*
X41679Y-45389D01*
X41679Y-45431D01*
X41666Y-45459D01*
X41653Y-45473D01*
X41627Y-45487D01*
X41522Y-45487D01*
X41522Y-45192D01*
X41614Y-45192D01*
X41640Y-45206D01*
X41653Y-45220D01*
X41666Y-45248D01*
X41666Y-45276D01*
X41653Y-45305D01*
X41640Y-45319D01*
X41614Y-45333D01*
X41522Y-45333D01*
X41797Y-45192D02*
X41797Y-45431D01*
X41811Y-45459D01*
X41824Y-45473D01*
X41850Y-45487D01*
X41902Y-45487D01*
X41929Y-45473D01*
X41942Y-45459D01*
X41955Y-45431D01*
X41955Y-45192D01*
X42073Y-45473D02*
X42112Y-45487D01*
X42178Y-45487D01*
X42204Y-45473D01*
X42217Y-45459D01*
X42230Y-45431D01*
X42230Y-45403D01*
X42217Y-45375D01*
X42204Y-45361D01*
X42178Y-45347D01*
X42125Y-45333D01*
X42099Y-45319D01*
X42086Y-45305D01*
X42073Y-45276D01*
X42073Y-45248D01*
X42086Y-45220D01*
X42099Y-45206D01*
X42125Y-45192D01*
X42191Y-45192D01*
X42230Y-45206D01*
X42493Y-45487D02*
X42335Y-45487D01*
X42414Y-45487D02*
X42414Y-45192D01*
X42388Y-45234D01*
X42362Y-45262D01*
X42335Y-45276D01*
X40997Y-44379D02*
X41128Y-44379D01*
X40971Y-44464D02*
X41062Y-44169D01*
X41154Y-44464D01*
X41404Y-44436D02*
X41391Y-44450D01*
X41351Y-44464D01*
X41325Y-44464D01*
X41286Y-44450D01*
X41259Y-44422D01*
X41246Y-44393D01*
X41233Y-44337D01*
X41233Y-44295D01*
X41246Y-44239D01*
X41259Y-44211D01*
X41286Y-44183D01*
X41325Y-44169D01*
X41351Y-44169D01*
X41391Y-44183D01*
X41404Y-44197D01*
X41614Y-44309D02*
X41653Y-44323D01*
X41666Y-44337D01*
X41679Y-44365D01*
X41679Y-44408D01*
X41666Y-44436D01*
X41653Y-44450D01*
X41627Y-44464D01*
X41522Y-44464D01*
X41522Y-44169D01*
X41614Y-44169D01*
X41640Y-44183D01*
X41653Y-44197D01*
X41666Y-44225D01*
X41666Y-44253D01*
X41653Y-44281D01*
X41640Y-44295D01*
X41614Y-44309D01*
X41522Y-44309D01*
X41797Y-44169D02*
X41797Y-44408D01*
X41811Y-44436D01*
X41824Y-44450D01*
X41850Y-44464D01*
X41902Y-44464D01*
X41929Y-44450D01*
X41942Y-44436D01*
X41955Y-44408D01*
X41955Y-44169D01*
X42073Y-44450D02*
X42112Y-44464D01*
X42178Y-44464D01*
X42204Y-44450D01*
X42217Y-44436D01*
X42230Y-44408D01*
X42230Y-44379D01*
X42217Y-44351D01*
X42204Y-44337D01*
X42178Y-44323D01*
X42125Y-44309D01*
X42099Y-44295D01*
X42086Y-44281D01*
X42073Y-44253D01*
X42073Y-44225D01*
X42086Y-44197D01*
X42099Y-44183D01*
X42125Y-44169D01*
X42191Y-44169D01*
X42230Y-44183D01*
X42401Y-44169D02*
X42427Y-44169D01*
X42454Y-44183D01*
X42467Y-44197D01*
X42480Y-44225D01*
X42493Y-44281D01*
X42493Y-44351D01*
X42480Y-44408D01*
X42467Y-44436D01*
X42454Y-44450D01*
X42427Y-44464D01*
X42401Y-44464D01*
X42375Y-44450D01*
X42362Y-44436D01*
X42349Y-44408D01*
X42335Y-44351D01*
X42335Y-44281D01*
X42349Y-44225D01*
X42362Y-44197D01*
X42375Y-44183D01*
X42401Y-44169D01*
X40971Y-43224D02*
X41062Y-43519D01*
X41154Y-43224D01*
X41338Y-43364D02*
X41377Y-43378D01*
X41391Y-43392D01*
X41404Y-43420D01*
X41404Y-43463D01*
X41391Y-43491D01*
X41377Y-43505D01*
X41351Y-43519D01*
X41246Y-43519D01*
X41246Y-43224D01*
X41338Y-43224D01*
X41364Y-43238D01*
X41377Y-43252D01*
X41391Y-43280D01*
X41391Y-43308D01*
X41377Y-43336D01*
X41364Y-43350D01*
X41338Y-43364D01*
X41246Y-43364D01*
X41522Y-43224D02*
X41522Y-43463D01*
X41535Y-43491D01*
X41548Y-43505D01*
X41574Y-43519D01*
X41627Y-43519D01*
X41653Y-43505D01*
X41666Y-43491D01*
X41679Y-43463D01*
X41679Y-43224D01*
X41797Y-43505D02*
X41837Y-43519D01*
X41902Y-43519D01*
X41929Y-43505D01*
X41942Y-43491D01*
X41955Y-43463D01*
X41955Y-43435D01*
X41942Y-43406D01*
X41929Y-43392D01*
X41902Y-43378D01*
X41850Y-43364D01*
X41824Y-43350D01*
X41811Y-43336D01*
X41797Y-43308D01*
X41797Y-43280D01*
X41811Y-43252D01*
X41824Y-43238D01*
X41850Y-43224D01*
X41916Y-43224D01*
X41955Y-43238D01*
X40971Y-42279D02*
X41062Y-42574D01*
X41154Y-42279D01*
X41404Y-42546D02*
X41391Y-42560D01*
X41351Y-42574D01*
X41325Y-42574D01*
X41286Y-42560D01*
X41259Y-42532D01*
X41246Y-42504D01*
X41233Y-42447D01*
X41233Y-42405D01*
X41246Y-42349D01*
X41259Y-42321D01*
X41286Y-42293D01*
X41325Y-42279D01*
X41351Y-42279D01*
X41391Y-42293D01*
X41404Y-42307D01*
X41679Y-42546D02*
X41666Y-42560D01*
X41627Y-42574D01*
X41601Y-42574D01*
X41561Y-42560D01*
X41535Y-42532D01*
X41522Y-42504D01*
X41509Y-42447D01*
X41509Y-42405D01*
X41522Y-42349D01*
X41535Y-42321D01*
X41561Y-42293D01*
X41601Y-42279D01*
X41627Y-42279D01*
X41666Y-42293D01*
X41679Y-42307D01*
X41797Y-42574D02*
X41797Y-42279D01*
X41981Y-42279D02*
X42034Y-42279D01*
X42060Y-42293D01*
X42086Y-42321D01*
X42099Y-42377D01*
X42099Y-42476D01*
X42086Y-42532D01*
X42060Y-42560D01*
X42034Y-42574D01*
X41981Y-42574D01*
X41955Y-42560D01*
X41929Y-42532D01*
X41916Y-42476D01*
X41916Y-42377D01*
X41929Y-42321D01*
X41955Y-42293D01*
X41981Y-42279D01*
G54D12*
X43398Y-40414D02*
X43267Y-40226D01*
X43173Y-40414D02*
X43173Y-40020D01*
X43323Y-40020D01*
X43361Y-40039D01*
X43380Y-40058D01*
X43398Y-40095D01*
X43398Y-40151D01*
X43380Y-40189D01*
X43361Y-40208D01*
X43323Y-40226D01*
X43173Y-40226D01*
X43530Y-40020D02*
X43792Y-40414D01*
X43792Y-40020D02*
X43530Y-40414D01*
X42062Y-40020D02*
X42287Y-40020D01*
X42174Y-40414D02*
X42174Y-40020D01*
X42380Y-40020D02*
X42643Y-40414D01*
X42643Y-40020D02*
X42380Y-40414D01*
G54D11*
X39370Y-39370D02*
X39370Y-57455D01*
X39370Y-57455D02*
X53385Y-57455D01*
X53385Y-39370D02*
X53385Y-57455D01*
X39370Y-39370D02*
X53385Y-39370D01*
G54D13*
X42535Y-53818D02*
X42417Y-53700D01*
X42535Y-53936D02*
X41827Y-53936D01*
X41827Y-53936D02*
X41827Y-53700D01*
X41827Y-53700D02*
X42535Y-53700D01*
X42535Y-53700D02*
X42535Y-53936D01*
G54D14*
X48912Y-51459D02*
G75*
G03X48912Y-51459I-49J0D01*
G74*
G01*
X49180Y-51140D02*
X48898Y-51423D01*
X48898Y-51423D02*
X48473Y-50999D01*
X48473Y-50999D02*
X48756Y-50716D01*
X49039Y-50433D02*
X49322Y-50151D01*
X49322Y-50151D02*
X49746Y-50575D01*
X49746Y-50575D02*
X49463Y-50858D01*
X50316Y-52617D02*
G75*
G03X50316Y-52617I-50J0D01*
G74*
G01*
X50266Y-53067D02*
X50266Y-52667D01*
X50266Y-52667D02*
X50866Y-52667D01*
X50866Y-52667D02*
X50866Y-53067D01*
X50866Y-53467D02*
X50866Y-53867D01*
X50866Y-53867D02*
X50266Y-53867D01*
X50266Y-53867D02*
X50266Y-53467D01*
X44722Y-51336D02*
G75*
G03X44722Y-51336I-49J0D01*
G74*
G01*
X44354Y-51654D02*
X44637Y-51371D01*
X44637Y-51371D02*
X45061Y-51795D01*
X45061Y-51795D02*
X44778Y-52078D01*
X44495Y-52361D02*
X44213Y-52644D01*
X44213Y-52644D02*
X43788Y-52220D01*
X43788Y-52220D02*
X44071Y-51937D01*
X44171Y-50784D02*
G75*
G03X44171Y-50784I-49J0D01*
G74*
G01*
X43803Y-51103D02*
X44086Y-50820D01*
X44086Y-50820D02*
X44510Y-51244D01*
X44510Y-51244D02*
X44227Y-51527D01*
X43944Y-51810D02*
X43661Y-52093D01*
X43661Y-52093D02*
X43237Y-51668D01*
X43237Y-51668D02*
X43520Y-51385D01*
X49433Y-49988D02*
G75*
G03X49433Y-49988I-49J0D01*
G74*
G01*
X49701Y-50306D02*
X49418Y-50024D01*
X49418Y-50024D02*
X49842Y-49599D01*
X49842Y-49599D02*
X50125Y-49882D01*
X50408Y-50165D02*
X50691Y-50448D01*
X50691Y-50448D02*
X50267Y-50872D01*
X50267Y-50872D02*
X49984Y-50589D01*
X47334Y-46516D02*
G75*
G03X47334Y-46516I-50J0D01*
G74*
G01*
X47284Y-46066D02*
X47284Y-46466D01*
X47284Y-46466D02*
X46684Y-46466D01*
X46684Y-46466D02*
X46684Y-46066D01*
X46684Y-45666D02*
X46684Y-45266D01*
X46684Y-45266D02*
X47284Y-45266D01*
X47284Y-45266D02*
X47284Y-45666D01*
X46546Y-46516D02*
G75*
G03X46546Y-46516I-50J0D01*
G74*
G01*
X46496Y-46066D02*
X46496Y-46466D01*
X46496Y-46466D02*
X45896Y-46466D01*
X45896Y-46466D02*
X45896Y-46066D01*
X45896Y-45666D02*
X45896Y-45266D01*
X45896Y-45266D02*
X46496Y-45266D01*
X46496Y-45266D02*
X46496Y-45666D01*
X47937Y-51484D02*
G75*
G03X47937Y-51484I-49J0D01*
G74*
G01*
X48205Y-51802D02*
X47922Y-51520D01*
X47922Y-51520D02*
X48346Y-51095D01*
X48346Y-51095D02*
X48629Y-51378D01*
X48912Y-51661D02*
X49195Y-51944D01*
X49195Y-51944D02*
X48771Y-52368D01*
X48771Y-52368D02*
X48488Y-52085D01*
X47767Y-43563D02*
G75*
G03X47767Y-43563I-50J0D01*
G74*
G01*
X47717Y-43113D02*
X47717Y-43513D01*
X47717Y-43513D02*
X47117Y-43513D01*
X47117Y-43513D02*
X47117Y-43113D01*
X47117Y-42713D02*
X47117Y-42313D01*
X47117Y-42313D02*
X47717Y-42313D01*
X47717Y-42313D02*
X47717Y-42713D01*
X46192Y-43563D02*
G75*
G03X46192Y-43563I-50J0D01*
G74*
G01*
X46142Y-43113D02*
X46142Y-43513D01*
X46142Y-43513D02*
X45542Y-43513D01*
X45542Y-43513D02*
X45542Y-43113D01*
X45542Y-42713D02*
X45542Y-42313D01*
X45542Y-42313D02*
X46142Y-42313D01*
X46142Y-42313D02*
X46142Y-42713D01*
X43397Y-55886D02*
G75*
G03X43397Y-55886I-50J0D01*
G74*
G01*
X43347Y-55436D02*
X43347Y-55836D01*
X43347Y-55836D02*
X42747Y-55836D01*
X42747Y-55836D02*
X42747Y-55436D01*
X42747Y-55036D02*
X42747Y-54636D01*
X42747Y-54636D02*
X43347Y-54636D01*
X43347Y-54636D02*
X43347Y-55036D01*
X42609Y-55886D02*
G75*
G03X42609Y-55886I-50J0D01*
G74*
G01*
X42559Y-55436D02*
X42559Y-55836D01*
X42559Y-55836D02*
X41959Y-55836D01*
X41959Y-55836D02*
X41959Y-55436D01*
X41959Y-55036D02*
X41959Y-54636D01*
X41959Y-54636D02*
X42559Y-54636D01*
X42559Y-54636D02*
X42559Y-55036D01*
X43436Y-54468D02*
G75*
G03X43436Y-54468I-50J0D01*
G74*
G01*
X43386Y-54018D02*
X43386Y-54418D01*
X43386Y-54418D02*
X42786Y-54418D01*
X42786Y-54418D02*
X42786Y-54018D01*
X42786Y-53618D02*
X42786Y-53218D01*
X42786Y-53218D02*
X43386Y-53218D01*
X43386Y-53218D02*
X43386Y-53618D01*
X41896Y-52977D02*
G75*
G03X41896Y-52977I-50J0D01*
G74*
G01*
X42296Y-52977D02*
X41896Y-52977D01*
X41896Y-52977D02*
X41896Y-52377D01*
X41896Y-52377D02*
X42296Y-52377D01*
X42696Y-52377D02*
X43096Y-52377D01*
X43096Y-52377D02*
X43096Y-52977D01*
X43096Y-52977D02*
X42696Y-52977D01*
X42127Y-42578D02*
G75*
G03X42127Y-42578I-50J0D01*
G74*
G01*
X42077Y-43028D02*
X42077Y-42628D01*
X42077Y-42628D02*
X42677Y-42628D01*
X42677Y-42628D02*
X42677Y-43028D01*
X42677Y-43428D02*
X42677Y-43828D01*
X42677Y-43828D02*
X42077Y-43828D01*
X42077Y-43828D02*
X42077Y-43428D01*
X43230Y-42578D02*
G75*
G03X43230Y-42578I-50J0D01*
G74*
G01*
X43180Y-43028D02*
X43180Y-42628D01*
X43180Y-42628D02*
X43780Y-42628D01*
X43780Y-42628D02*
X43780Y-43028D01*
X43780Y-43428D02*
X43780Y-43828D01*
X43780Y-43828D02*
X43180Y-43828D01*
X43180Y-43828D02*
X43180Y-43428D01*
X43361Y-50199D02*
G75*
G03X43361Y-50199I-49J0D01*
G74*
G01*
X43629Y-49881D02*
X43346Y-50163D01*
X43346Y-50163D02*
X42922Y-49739D01*
X42922Y-49739D02*
X43205Y-49456D01*
X43488Y-49174D02*
X43771Y-48891D01*
X43771Y-48891D02*
X44195Y-49315D01*
X44195Y-49315D02*
X43912Y-49598D01*
X49298Y-43715D02*
G75*
G03X49298Y-43715I-50J0D01*
G74*
G01*
X48798Y-43715D02*
X49198Y-43715D01*
X49198Y-43715D02*
X49198Y-44315D01*
X49198Y-44315D02*
X48798Y-44315D01*
X48398Y-44315D02*
X47998Y-44315D01*
X47998Y-44315D02*
X47998Y-43715D01*
X47998Y-43715D02*
X48398Y-43715D01*
X43807Y-46465D02*
G75*
G03X43807Y-46465I-49J0D01*
G74*
G01*
X44075Y-46783D02*
X43792Y-46500D01*
X43792Y-46500D02*
X44217Y-46076D01*
X44217Y-46076D02*
X44499Y-46359D01*
X44782Y-46641D02*
X45065Y-46924D01*
X45065Y-46924D02*
X44641Y-47348D01*
X44641Y-47348D02*
X44358Y-47066D01*
X49463Y-52010D02*
G75*
G03X49463Y-52010I-49J0D01*
G74*
G01*
X49732Y-51692D02*
X49449Y-51974D01*
X49449Y-51974D02*
X49025Y-51550D01*
X49025Y-51550D02*
X49307Y-51267D01*
X49590Y-50985D02*
X49873Y-50702D01*
X49873Y-50702D02*
X50297Y-51126D01*
X50297Y-51126D02*
X50014Y-51409D01*
X43620Y-50233D02*
G75*
G03X43620Y-50233I-49J0D01*
G74*
G01*
X43252Y-50551D02*
X43534Y-50269D01*
X43534Y-50269D02*
X43959Y-50693D01*
X43959Y-50693D02*
X43676Y-50976D01*
X43393Y-51259D02*
X43110Y-51541D01*
X43110Y-51541D02*
X42686Y-51117D01*
X42686Y-51117D02*
X42969Y-50834D01*
X43305Y-48304D02*
G75*
G03X43305Y-48304I-49J0D01*
G74*
G01*
X42937Y-48622D02*
X43220Y-48339D01*
X43220Y-48339D02*
X43644Y-48764D01*
X43644Y-48764D02*
X43361Y-49047D01*
X43078Y-49329D02*
X42795Y-49612D01*
X42795Y-49612D02*
X42371Y-49188D01*
X42371Y-49188D02*
X42654Y-48905D01*
X49735Y-55886D02*
G75*
G03X49735Y-55886I-50J0D01*
G74*
G01*
X49685Y-55436D02*
X49685Y-55836D01*
X49685Y-55836D02*
X49085Y-55836D01*
X49085Y-55836D02*
X49085Y-55436D01*
X49085Y-55036D02*
X49085Y-54636D01*
X49085Y-54636D02*
X49685Y-54636D01*
X49685Y-54636D02*
X49685Y-55036D01*
X44224Y-55886D02*
G75*
G03X44224Y-55886I-50J0D01*
G74*
G01*
X44174Y-55436D02*
X44174Y-55836D01*
X44174Y-55836D02*
X43574Y-55836D01*
X43574Y-55836D02*
X43574Y-55436D01*
X43574Y-55036D02*
X43574Y-54636D01*
X43574Y-54636D02*
X44174Y-54636D01*
X44174Y-54636D02*
X44174Y-55036D01*
X44224Y-54468D02*
G75*
G03X44224Y-54468I-50J0D01*
G74*
G01*
X44174Y-54018D02*
X44174Y-54418D01*
X44174Y-54418D02*
X43574Y-54418D01*
X43574Y-54418D02*
X43574Y-54018D01*
X43574Y-53618D02*
X43574Y-53218D01*
X43574Y-53218D02*
X44174Y-53218D01*
X44174Y-53218D02*
X44174Y-53618D01*
X47954Y-42263D02*
G75*
G03X47954Y-42263I-50J0D01*
G74*
G01*
X47904Y-42713D02*
X47904Y-42313D01*
X47904Y-42313D02*
X48504Y-42313D01*
X48504Y-42313D02*
X48504Y-42713D01*
X48504Y-43113D02*
X48504Y-43513D01*
X48504Y-43513D02*
X47904Y-43513D01*
X47904Y-43513D02*
X47904Y-43113D01*
X44748Y-52311D02*
G75*
G03X44748Y-52311I-49J0D01*
G74*
G01*
X45016Y-52629D02*
X44733Y-52346D01*
X44733Y-52346D02*
X45157Y-51922D01*
X45157Y-51922D02*
X45440Y-52205D01*
X45723Y-52488D02*
X46006Y-52771D01*
X46006Y-52771D02*
X45582Y-53195D01*
X45582Y-53195D02*
X45299Y-52912D01*
X47872Y-51611D02*
G75*
G03X47872Y-51611I-49J0D01*
G74*
G01*
X47504Y-51929D02*
X47786Y-51647D01*
X47786Y-51647D02*
X48211Y-52071D01*
X48211Y-52071D02*
X47928Y-52354D01*
X47645Y-52637D02*
X47362Y-52919D01*
X47362Y-52919D02*
X46938Y-52495D01*
X46938Y-52495D02*
X47221Y-52212D01*
X48423Y-52162D02*
G75*
G03X48423Y-52162I-49J0D01*
G74*
G01*
X48055Y-52481D02*
X48338Y-52198D01*
X48338Y-52198D02*
X48762Y-52622D01*
X48762Y-52622D02*
X48479Y-52905D01*
X48196Y-53188D02*
X47913Y-53471D01*
X47913Y-53471D02*
X47489Y-53046D01*
X47489Y-53046D02*
X47772Y-52763D01*
X44197Y-52862D02*
G75*
G03X44197Y-52862I-49J0D01*
G74*
G01*
X44465Y-53180D02*
X44182Y-52898D01*
X44182Y-52898D02*
X44606Y-52473D01*
X44606Y-52473D02*
X44889Y-52756D01*
X45172Y-53039D02*
X45455Y-53322D01*
X45455Y-53322D02*
X45031Y-53746D01*
X45031Y-53746D02*
X44748Y-53463D01*
G54D12*
X46787Y-50667D02*
G75*
G03X46787Y-50667I-196J0D01*
G74*
G01*
X44641Y-49275D02*
X46590Y-47326D01*
X46590Y-47326D02*
X48539Y-49275D01*
X48539Y-49275D02*
X46590Y-51224D01*
X46590Y-51224D02*
X44641Y-49275D01*
X43677Y-41614D02*
X43283Y-41614D01*
X43677Y-41299D02*
X43283Y-41299D01*
X43283Y-41299D02*
X43480Y-41614D01*
X43480Y-41614D02*
X43677Y-41299D01*
X43047Y-41259D02*
X43047Y-41732D01*
X43913Y-41259D02*
X43913Y-41732D01*
X42574Y-41614D02*
X42181Y-41614D01*
X42574Y-41299D02*
X42181Y-41299D01*
X42181Y-41299D02*
X42377Y-41614D01*
X42377Y-41614D02*
X42574Y-41299D01*
X41944Y-41259D02*
X41944Y-41732D01*
X42811Y-41259D02*
X42811Y-41732D01*
G54D15*
X47879Y-54236D02*
X45379Y-54236D01*
X47879Y-56236D02*
X45379Y-56236D01*
X44379Y-55236D02*
G75*
G03X45379Y-56236I1000J0D01*
G74*
G01*
X45379Y-54236D02*
G75*
G03X44379Y-55236I0J-1000D01*
G74*
G01*
X47879Y-56236D02*
G75*
G03X48879Y-55236I0J1000D01*
G74*
G01*
X48879Y-55236D02*
G75*
G03X47879Y-54236I-1000J0D01*
G74*
G01*
G54D14*
X48742Y-42263D02*
G75*
G03X48742Y-42263I-50J0D01*
G74*
G01*
X48692Y-42713D02*
X48692Y-42313D01*
X48692Y-42313D02*
X49292Y-42313D01*
X49292Y-42313D02*
X49292Y-42713D01*
X49292Y-43113D02*
X49292Y-43513D01*
X49292Y-43513D02*
X48692Y-43513D01*
X48692Y-43513D02*
X48692Y-43113D01*
X48479Y-54057D02*
G75*
G03X48479Y-54057I-49J0D01*
G74*
G01*
X48747Y-53739D02*
X48465Y-54022D01*
X48465Y-54022D02*
X48040Y-53597D01*
X48040Y-53597D02*
X48323Y-53315D01*
X48606Y-53032D02*
X48889Y-52749D01*
X48889Y-52749D02*
X49313Y-53173D01*
X49313Y-53173D02*
X49030Y-53456D01*
X50510Y-51218D02*
G75*
G03X50510Y-51218I-49J0D01*
G74*
G01*
X50141Y-51536D02*
X50424Y-51253D01*
X50424Y-51253D02*
X50848Y-51677D01*
X50848Y-51677D02*
X50566Y-51960D01*
X50283Y-52243D02*
X50000Y-52526D01*
X50000Y-52526D02*
X49576Y-52101D01*
X49576Y-52101D02*
X49859Y-51819D01*
G54D16*
X46904Y-42716D02*
X46904Y-42438D01*
X46904Y-42438D02*
X46354Y-42438D01*
X46354Y-42438D02*
X46354Y-42716D01*
X46904Y-43388D02*
X46904Y-43110D01*
X46904Y-43388D02*
X46354Y-43388D01*
X46354Y-43388D02*
X46354Y-43110D01*
X45330Y-42716D02*
X45330Y-42438D01*
X45330Y-42438D02*
X44780Y-42438D01*
X44780Y-42438D02*
X44780Y-42716D01*
X45330Y-43388D02*
X45330Y-43110D01*
X45330Y-43388D02*
X44780Y-43388D01*
X44780Y-43388D02*
X44780Y-43110D01*
G54D12*
X40870Y-41870D02*
X40870Y-54870D01*
X40870Y-54870D02*
X39870Y-54870D01*
X39870Y-54870D02*
X39870Y-41870D01*
X39870Y-41870D02*
X40870Y-41870D01*
X51870Y-54870D02*
X51870Y-41870D01*
X51870Y-41870D02*
X52870Y-41870D01*
X52870Y-41870D02*
X52870Y-54870D01*
X52870Y-54870D02*
X51870Y-54870D01*
G54D17*
X48776Y-40222D02*
X48776Y-40651D01*
X48747Y-40736D01*
X48690Y-40794D01*
X48604Y-40822D01*
X48547Y-40822D01*
X49376Y-40822D02*
X49033Y-40822D01*
X49204Y-40822D02*
X49204Y-40222D01*
X49147Y-40308D01*
X49090Y-40365D01*
X49033Y-40394D01*
G54D13*
X41559Y-53971D02*
X41721Y-53971D01*
X41740Y-53961D01*
X41750Y-53952D01*
X41759Y-53933D01*
X41759Y-53895D01*
X41750Y-53876D01*
X41740Y-53866D01*
X41721Y-53856D01*
X41559Y-53856D01*
X41759Y-53656D02*
X41759Y-53771D01*
X41759Y-53714D02*
X41559Y-53714D01*
X41588Y-53733D01*
X41607Y-53752D01*
X41616Y-53771D01*
G54D18*
X48700Y-50611D02*
X48700Y-50625D01*
X48687Y-50651D01*
X48673Y-50664D01*
X48647Y-50678D01*
X48620Y-50678D01*
X48600Y-50671D01*
X48567Y-50651D01*
X48547Y-50631D01*
X48527Y-50598D01*
X48521Y-50578D01*
X48521Y-50552D01*
X48534Y-50525D01*
X48547Y-50512D01*
X48574Y-50498D01*
X48587Y-50498D01*
X48846Y-50492D02*
X48766Y-50571D01*
X48806Y-50532D02*
X48667Y-50392D01*
X48673Y-50426D01*
X48673Y-50452D01*
X48667Y-50472D01*
X48773Y-50313D02*
X48773Y-50299D01*
X48779Y-50280D01*
X48813Y-50246D01*
X48833Y-50240D01*
X48846Y-50240D01*
X48866Y-50246D01*
X48879Y-50260D01*
X48892Y-50286D01*
X48892Y-50445D01*
X48978Y-50359D01*
X50424Y-54125D02*
X50415Y-54134D01*
X50387Y-54144D01*
X50368Y-54144D01*
X50340Y-54134D01*
X50321Y-54116D01*
X50311Y-54097D01*
X50302Y-54059D01*
X50302Y-54031D01*
X50311Y-53994D01*
X50321Y-53975D01*
X50340Y-53956D01*
X50368Y-53947D01*
X50387Y-53947D01*
X50415Y-53956D01*
X50424Y-53965D01*
X50612Y-54144D02*
X50499Y-54144D01*
X50555Y-54144D02*
X50555Y-53947D01*
X50537Y-53975D01*
X50518Y-53994D01*
X50499Y-54003D01*
X50677Y-53947D02*
X50799Y-53947D01*
X50734Y-54022D01*
X50762Y-54022D01*
X50781Y-54031D01*
X50790Y-54041D01*
X50799Y-54059D01*
X50799Y-54106D01*
X50790Y-54125D01*
X50781Y-54134D01*
X50762Y-54144D01*
X50705Y-54144D01*
X50687Y-54134D01*
X50677Y-54125D01*
X43718Y-52558D02*
X43705Y-52558D01*
X43679Y-52545D01*
X43665Y-52532D01*
X43652Y-52505D01*
X43652Y-52479D01*
X43659Y-52459D01*
X43679Y-52425D01*
X43699Y-52406D01*
X43732Y-52386D01*
X43752Y-52379D01*
X43778Y-52379D01*
X43805Y-52392D01*
X43818Y-52406D01*
X43831Y-52432D01*
X43831Y-52445D01*
X43838Y-52704D02*
X43758Y-52624D01*
X43798Y-52664D02*
X43937Y-52525D01*
X43904Y-52532D01*
X43878Y-52532D01*
X43858Y-52525D01*
X44050Y-52731D02*
X43957Y-52823D01*
X44070Y-52644D02*
X43937Y-52711D01*
X44024Y-52797D01*
X43167Y-52007D02*
X43154Y-52007D01*
X43127Y-51994D01*
X43114Y-51980D01*
X43101Y-51954D01*
X43101Y-51927D01*
X43108Y-51907D01*
X43127Y-51874D01*
X43147Y-51854D01*
X43181Y-51834D01*
X43200Y-51828D01*
X43227Y-51828D01*
X43254Y-51841D01*
X43267Y-51854D01*
X43280Y-51881D01*
X43280Y-51894D01*
X43287Y-52153D02*
X43207Y-52073D01*
X43247Y-52113D02*
X43386Y-51974D01*
X43353Y-51980D01*
X43326Y-51980D01*
X43307Y-51974D01*
X43552Y-52140D02*
X43486Y-52073D01*
X43413Y-52133D01*
X43426Y-52133D01*
X43446Y-52140D01*
X43479Y-52173D01*
X43486Y-52193D01*
X43486Y-52206D01*
X43479Y-52226D01*
X43446Y-52259D01*
X43426Y-52266D01*
X43413Y-52266D01*
X43393Y-52259D01*
X43360Y-52226D01*
X43353Y-52206D01*
X43353Y-52193D01*
X49487Y-49824D02*
X49487Y-49837D01*
X49474Y-49864D01*
X49461Y-49877D01*
X49434Y-49890D01*
X49408Y-49890D01*
X49388Y-49884D01*
X49355Y-49864D01*
X49335Y-49844D01*
X49315Y-49811D01*
X49308Y-49791D01*
X49308Y-49764D01*
X49321Y-49738D01*
X49335Y-49724D01*
X49361Y-49711D01*
X49374Y-49711D01*
X49633Y-49704D02*
X49554Y-49784D01*
X49593Y-49744D02*
X49454Y-49605D01*
X49461Y-49638D01*
X49461Y-49665D01*
X49454Y-49685D01*
X49613Y-49446D02*
X49587Y-49472D01*
X49580Y-49492D01*
X49580Y-49505D01*
X49587Y-49539D01*
X49607Y-49572D01*
X49660Y-49625D01*
X49680Y-49631D01*
X49693Y-49631D01*
X49713Y-49625D01*
X49739Y-49598D01*
X49746Y-49578D01*
X49746Y-49565D01*
X49739Y-49545D01*
X49706Y-49512D01*
X49686Y-49505D01*
X49673Y-49505D01*
X49653Y-49512D01*
X49627Y-49539D01*
X49620Y-49559D01*
X49620Y-49572D01*
X49627Y-49592D01*
X46841Y-45188D02*
X46832Y-45197D01*
X46804Y-45207D01*
X46785Y-45207D01*
X46757Y-45197D01*
X46738Y-45179D01*
X46729Y-45160D01*
X46719Y-45122D01*
X46719Y-45094D01*
X46729Y-45057D01*
X46738Y-45038D01*
X46757Y-45019D01*
X46785Y-45010D01*
X46804Y-45010D01*
X46832Y-45019D01*
X46841Y-45028D01*
X47029Y-45207D02*
X46916Y-45207D01*
X46973Y-45207D02*
X46973Y-45010D01*
X46954Y-45038D01*
X46935Y-45057D01*
X46916Y-45066D01*
X47095Y-45010D02*
X47226Y-45010D01*
X47142Y-45207D01*
X46054Y-45188D02*
X46045Y-45197D01*
X46016Y-45207D01*
X45998Y-45207D01*
X45970Y-45197D01*
X45951Y-45179D01*
X45941Y-45160D01*
X45932Y-45122D01*
X45932Y-45094D01*
X45941Y-45057D01*
X45951Y-45038D01*
X45970Y-45019D01*
X45998Y-45010D01*
X46016Y-45010D01*
X46045Y-45019D01*
X46054Y-45028D01*
X46242Y-45207D02*
X46129Y-45207D01*
X46185Y-45207D02*
X46185Y-45010D01*
X46167Y-45038D01*
X46148Y-45057D01*
X46129Y-45066D01*
X46354Y-45094D02*
X46335Y-45085D01*
X46326Y-45075D01*
X46317Y-45057D01*
X46317Y-45047D01*
X46326Y-45028D01*
X46335Y-45019D01*
X46354Y-45010D01*
X46392Y-45010D01*
X46410Y-45019D01*
X46420Y-45028D01*
X46429Y-45047D01*
X46429Y-45057D01*
X46420Y-45075D01*
X46410Y-45085D01*
X46392Y-45094D01*
X46354Y-45094D01*
X46335Y-45104D01*
X46326Y-45113D01*
X46317Y-45132D01*
X46317Y-45169D01*
X46326Y-45188D01*
X46335Y-45197D01*
X46354Y-45207D01*
X46392Y-45207D01*
X46410Y-45197D01*
X46420Y-45188D01*
X46429Y-45169D01*
X46429Y-45132D01*
X46420Y-45113D01*
X46410Y-45104D01*
X46392Y-45094D01*
X49134Y-52409D02*
X49021Y-52389D01*
X49054Y-52488D02*
X48915Y-52349D01*
X48968Y-52296D01*
X48988Y-52289D01*
X49001Y-52289D01*
X49021Y-52296D01*
X49041Y-52316D01*
X49048Y-52336D01*
X49048Y-52349D01*
X49041Y-52369D01*
X48988Y-52422D01*
X49041Y-52223D02*
X49134Y-52130D01*
X49213Y-52329D01*
X47368Y-42215D02*
X47303Y-42121D01*
X47256Y-42215D02*
X47256Y-42018D01*
X47331Y-42018D01*
X47349Y-42027D01*
X47359Y-42036D01*
X47368Y-42055D01*
X47368Y-42083D01*
X47359Y-42102D01*
X47349Y-42111D01*
X47331Y-42121D01*
X47256Y-42121D01*
X47481Y-42102D02*
X47462Y-42093D01*
X47453Y-42083D01*
X47443Y-42065D01*
X47443Y-42055D01*
X47453Y-42036D01*
X47462Y-42027D01*
X47481Y-42018D01*
X47518Y-42018D01*
X47537Y-42027D01*
X47546Y-42036D01*
X47556Y-42055D01*
X47556Y-42065D01*
X47546Y-42083D01*
X47537Y-42093D01*
X47518Y-42102D01*
X47481Y-42102D01*
X47462Y-42111D01*
X47453Y-42121D01*
X47443Y-42140D01*
X47443Y-42177D01*
X47453Y-42196D01*
X47462Y-42205D01*
X47481Y-42215D01*
X47518Y-42215D01*
X47537Y-42205D01*
X47546Y-42196D01*
X47556Y-42177D01*
X47556Y-42140D01*
X47546Y-42121D01*
X47537Y-42111D01*
X47518Y-42102D01*
X45793Y-42254D02*
X45728Y-42160D01*
X45681Y-42254D02*
X45681Y-42057D01*
X45756Y-42057D01*
X45775Y-42066D01*
X45784Y-42076D01*
X45793Y-42094D01*
X45793Y-42123D01*
X45784Y-42141D01*
X45775Y-42151D01*
X45756Y-42160D01*
X45681Y-42160D01*
X45887Y-42254D02*
X45925Y-42254D01*
X45944Y-42245D01*
X45953Y-42235D01*
X45972Y-42207D01*
X45981Y-42170D01*
X45981Y-42094D01*
X45972Y-42076D01*
X45962Y-42066D01*
X45944Y-42057D01*
X45906Y-42057D01*
X45887Y-42066D01*
X45878Y-42076D01*
X45868Y-42094D01*
X45868Y-42141D01*
X45878Y-42160D01*
X45887Y-42170D01*
X45906Y-42179D01*
X45944Y-42179D01*
X45962Y-42170D01*
X45972Y-42160D01*
X45981Y-42141D01*
X42998Y-56112D02*
X42932Y-56018D01*
X42886Y-56112D02*
X42886Y-55915D01*
X42961Y-55915D01*
X42979Y-55925D01*
X42989Y-55934D01*
X42998Y-55953D01*
X42998Y-55981D01*
X42989Y-56000D01*
X42979Y-56009D01*
X42961Y-56018D01*
X42886Y-56018D01*
X43167Y-55915D02*
X43129Y-55915D01*
X43111Y-55925D01*
X43101Y-55934D01*
X43083Y-55962D01*
X43073Y-56000D01*
X43073Y-56075D01*
X43083Y-56093D01*
X43092Y-56103D01*
X43111Y-56112D01*
X43148Y-56112D01*
X43167Y-56103D01*
X43176Y-56093D01*
X43186Y-56075D01*
X43186Y-56028D01*
X43176Y-56009D01*
X43167Y-56000D01*
X43148Y-55990D01*
X43111Y-55990D01*
X43092Y-56000D01*
X43083Y-56009D01*
X43073Y-56028D01*
X42211Y-56112D02*
X42145Y-56018D01*
X42098Y-56112D02*
X42098Y-55915D01*
X42173Y-55915D01*
X42192Y-55925D01*
X42201Y-55934D01*
X42211Y-55953D01*
X42211Y-55981D01*
X42201Y-56000D01*
X42192Y-56009D01*
X42173Y-56018D01*
X42098Y-56018D01*
X42380Y-55981D02*
X42380Y-56112D01*
X42333Y-55906D02*
X42286Y-56047D01*
X42408Y-56047D01*
X43435Y-53024D02*
X43341Y-53090D01*
X43435Y-53137D02*
X43238Y-53137D01*
X43238Y-53062D01*
X43247Y-53043D01*
X43257Y-53034D01*
X43276Y-53024D01*
X43304Y-53024D01*
X43323Y-53034D01*
X43332Y-53043D01*
X43341Y-53062D01*
X43341Y-53137D01*
X43238Y-52959D02*
X43238Y-52837D01*
X43313Y-52903D01*
X43313Y-52874D01*
X43323Y-52856D01*
X43332Y-52846D01*
X43351Y-52837D01*
X43398Y-52837D01*
X43416Y-52846D01*
X43426Y-52856D01*
X43435Y-52874D01*
X43435Y-52931D01*
X43426Y-52949D01*
X43416Y-52959D01*
X41821Y-52709D02*
X41727Y-52775D01*
X41821Y-52822D02*
X41624Y-52822D01*
X41624Y-52747D01*
X41633Y-52728D01*
X41643Y-52719D01*
X41661Y-52709D01*
X41690Y-52709D01*
X41708Y-52719D01*
X41718Y-52728D01*
X41727Y-52747D01*
X41727Y-52822D01*
X41624Y-52531D02*
X41624Y-52625D01*
X41718Y-52634D01*
X41708Y-52625D01*
X41699Y-52606D01*
X41699Y-52559D01*
X41708Y-52541D01*
X41718Y-52531D01*
X41736Y-52522D01*
X41783Y-52522D01*
X41802Y-52531D01*
X41812Y-52541D01*
X41821Y-52559D01*
X41821Y-52606D01*
X41812Y-52625D01*
X41802Y-52634D01*
X43002Y-43654D02*
X42908Y-43720D01*
X43002Y-43767D02*
X42805Y-43767D01*
X42805Y-43692D01*
X42814Y-43673D01*
X42824Y-43664D01*
X42843Y-43654D01*
X42871Y-43654D01*
X42889Y-43664D01*
X42899Y-43673D01*
X42908Y-43692D01*
X42908Y-43767D01*
X43002Y-43467D02*
X43002Y-43579D01*
X43002Y-43523D02*
X42805Y-43523D01*
X42833Y-43542D01*
X42852Y-43561D01*
X42861Y-43579D01*
X44104Y-43654D02*
X44011Y-43720D01*
X44104Y-43767D02*
X43907Y-43767D01*
X43907Y-43692D01*
X43917Y-43673D01*
X43926Y-43664D01*
X43945Y-43654D01*
X43973Y-43654D01*
X43992Y-43664D01*
X44001Y-43673D01*
X44011Y-43692D01*
X44011Y-43767D01*
X43926Y-43579D02*
X43917Y-43570D01*
X43907Y-43551D01*
X43907Y-43504D01*
X43917Y-43486D01*
X43926Y-43476D01*
X43945Y-43467D01*
X43964Y-43467D01*
X43992Y-43476D01*
X44104Y-43589D01*
X44104Y-43467D01*
X42839Y-50052D02*
X42859Y-49939D01*
X42759Y-49972D02*
X42899Y-49833D01*
X42952Y-49886D01*
X42958Y-49906D01*
X42958Y-49919D01*
X42952Y-49939D01*
X42932Y-49959D01*
X42912Y-49965D01*
X42899Y-49965D01*
X42879Y-49959D01*
X42826Y-49906D01*
X42972Y-50184D02*
X42892Y-50105D01*
X42932Y-50145D02*
X43071Y-50005D01*
X43038Y-50012D01*
X43012Y-50012D01*
X42992Y-50005D01*
X43104Y-50317D02*
X43025Y-50237D01*
X43065Y-50277D02*
X43204Y-50138D01*
X43171Y-50145D01*
X43144Y-50145D01*
X43124Y-50138D01*
X47923Y-44142D02*
X47829Y-44208D01*
X47923Y-44254D02*
X47726Y-44254D01*
X47726Y-44179D01*
X47736Y-44161D01*
X47745Y-44151D01*
X47764Y-44142D01*
X47792Y-44142D01*
X47811Y-44151D01*
X47820Y-44161D01*
X47829Y-44179D01*
X47829Y-44254D01*
X47923Y-43954D02*
X47923Y-44067D01*
X47923Y-44011D02*
X47726Y-44011D01*
X47754Y-44029D01*
X47773Y-44048D01*
X47783Y-44067D01*
X47745Y-43879D02*
X47736Y-43870D01*
X47726Y-43851D01*
X47726Y-43804D01*
X47736Y-43785D01*
X47745Y-43776D01*
X47764Y-43767D01*
X47783Y-43767D01*
X47811Y-43776D01*
X47923Y-43889D01*
X47923Y-43767D01*
X43914Y-46274D02*
X43801Y-46254D01*
X43834Y-46354D02*
X43695Y-46214D01*
X43748Y-46161D01*
X43768Y-46155D01*
X43781Y-46155D01*
X43801Y-46161D01*
X43821Y-46181D01*
X43828Y-46201D01*
X43828Y-46214D01*
X43821Y-46234D01*
X43768Y-46287D01*
X44047Y-46141D02*
X43967Y-46221D01*
X44007Y-46181D02*
X43867Y-46042D01*
X43874Y-46075D01*
X43874Y-46102D01*
X43867Y-46122D01*
X43994Y-45916D02*
X44007Y-45903D01*
X44027Y-45896D01*
X44040Y-45896D01*
X44060Y-45903D01*
X44093Y-45923D01*
X44126Y-45956D01*
X44146Y-45989D01*
X44153Y-46009D01*
X44153Y-46022D01*
X44146Y-46042D01*
X44133Y-46055D01*
X44113Y-46062D01*
X44100Y-46062D01*
X44080Y-46055D01*
X44047Y-46035D01*
X44013Y-46002D01*
X43994Y-45969D01*
X43987Y-45949D01*
X43987Y-45936D01*
X43994Y-45916D01*
X50511Y-51044D02*
X50511Y-51058D01*
X50498Y-51084D01*
X50484Y-51097D01*
X50458Y-51111D01*
X50431Y-51111D01*
X50411Y-51104D01*
X50378Y-51084D01*
X50358Y-51064D01*
X50338Y-51031D01*
X50332Y-51011D01*
X50332Y-50985D01*
X50345Y-50958D01*
X50358Y-50945D01*
X50385Y-50932D01*
X50398Y-50932D01*
X50657Y-50925D02*
X50577Y-51005D01*
X50617Y-50965D02*
X50478Y-50825D01*
X50484Y-50859D01*
X50484Y-50885D01*
X50478Y-50905D01*
X50789Y-50792D02*
X50710Y-50872D01*
X50750Y-50832D02*
X50610Y-50693D01*
X50617Y-50726D01*
X50617Y-50752D01*
X50610Y-50772D01*
X42616Y-51456D02*
X42603Y-51456D01*
X42576Y-51442D01*
X42563Y-51429D01*
X42550Y-51403D01*
X42550Y-51376D01*
X42556Y-51356D01*
X42576Y-51323D01*
X42596Y-51303D01*
X42629Y-51283D01*
X42649Y-51277D01*
X42676Y-51277D01*
X42702Y-51290D01*
X42716Y-51303D01*
X42729Y-51330D01*
X42729Y-51343D01*
X42736Y-51602D02*
X42656Y-51522D01*
X42696Y-51562D02*
X42835Y-51423D01*
X42802Y-51429D01*
X42775Y-51429D01*
X42755Y-51423D01*
X42961Y-51549D02*
X42974Y-51562D01*
X42981Y-51582D01*
X42981Y-51595D01*
X42974Y-51615D01*
X42954Y-51648D01*
X42921Y-51681D01*
X42888Y-51701D01*
X42868Y-51708D01*
X42855Y-51708D01*
X42835Y-51701D01*
X42822Y-51688D01*
X42815Y-51668D01*
X42815Y-51655D01*
X42822Y-51635D01*
X42842Y-51602D01*
X42875Y-51569D01*
X42908Y-51549D01*
X42928Y-51542D01*
X42941Y-51542D01*
X42961Y-51549D01*
X42367Y-49593D02*
X42354Y-49593D01*
X42328Y-49580D01*
X42314Y-49566D01*
X42301Y-49540D01*
X42301Y-49513D01*
X42308Y-49493D01*
X42328Y-49460D01*
X42348Y-49440D01*
X42381Y-49420D01*
X42401Y-49414D01*
X42427Y-49414D01*
X42454Y-49427D01*
X42467Y-49440D01*
X42480Y-49467D01*
X42480Y-49480D01*
X42421Y-49673D02*
X42447Y-49699D01*
X42467Y-49706D01*
X42480Y-49706D01*
X42513Y-49699D01*
X42547Y-49679D01*
X42600Y-49626D01*
X42606Y-49606D01*
X42606Y-49593D01*
X42600Y-49573D01*
X42573Y-49547D01*
X42553Y-49540D01*
X42540Y-49540D01*
X42520Y-49547D01*
X42487Y-49580D01*
X42480Y-49600D01*
X42480Y-49613D01*
X42487Y-49633D01*
X42513Y-49659D01*
X42533Y-49666D01*
X42547Y-49666D01*
X42566Y-49659D01*
X49297Y-56093D02*
X49288Y-56103D01*
X49260Y-56112D01*
X49241Y-56112D01*
X49213Y-56103D01*
X49194Y-56084D01*
X49185Y-56065D01*
X49175Y-56028D01*
X49175Y-56000D01*
X49185Y-55962D01*
X49194Y-55943D01*
X49213Y-55925D01*
X49241Y-55915D01*
X49260Y-55915D01*
X49288Y-55925D01*
X49297Y-55934D01*
X49363Y-55915D02*
X49494Y-55915D01*
X49410Y-56112D01*
X43786Y-56093D02*
X43776Y-56103D01*
X43748Y-56112D01*
X43729Y-56112D01*
X43701Y-56103D01*
X43682Y-56084D01*
X43673Y-56065D01*
X43664Y-56028D01*
X43664Y-56000D01*
X43673Y-55962D01*
X43682Y-55943D01*
X43701Y-55925D01*
X43729Y-55915D01*
X43748Y-55915D01*
X43776Y-55925D01*
X43786Y-55934D01*
X43964Y-55915D02*
X43870Y-55915D01*
X43861Y-56009D01*
X43870Y-56000D01*
X43889Y-55990D01*
X43936Y-55990D01*
X43954Y-56000D01*
X43964Y-56009D01*
X43973Y-56028D01*
X43973Y-56075D01*
X43964Y-56093D01*
X43954Y-56103D01*
X43936Y-56112D01*
X43889Y-56112D01*
X43870Y-56103D01*
X43861Y-56093D01*
X44440Y-54206D02*
X44449Y-54215D01*
X44459Y-54243D01*
X44459Y-54262D01*
X44449Y-54290D01*
X44431Y-54309D01*
X44412Y-54318D01*
X44374Y-54328D01*
X44346Y-54328D01*
X44309Y-54318D01*
X44290Y-54309D01*
X44271Y-54290D01*
X44262Y-54262D01*
X44262Y-54243D01*
X44271Y-54215D01*
X44280Y-54206D01*
X44459Y-54018D02*
X44459Y-54131D01*
X44459Y-54074D02*
X44262Y-54074D01*
X44290Y-54093D01*
X44309Y-54112D01*
X44318Y-54131D01*
X48156Y-42196D02*
X48146Y-42205D01*
X48118Y-42215D01*
X48099Y-42215D01*
X48071Y-42205D01*
X48052Y-42186D01*
X48043Y-42168D01*
X48034Y-42130D01*
X48034Y-42102D01*
X48043Y-42065D01*
X48052Y-42046D01*
X48071Y-42027D01*
X48099Y-42018D01*
X48118Y-42018D01*
X48146Y-42027D01*
X48156Y-42036D01*
X48325Y-42083D02*
X48325Y-42215D01*
X48278Y-42008D02*
X48231Y-42149D01*
X48353Y-42149D01*
X45932Y-53261D02*
X45932Y-53275D01*
X45918Y-53301D01*
X45905Y-53315D01*
X45878Y-53328D01*
X45852Y-53328D01*
X45832Y-53321D01*
X45799Y-53301D01*
X45779Y-53281D01*
X45759Y-53248D01*
X45752Y-53228D01*
X45752Y-53202D01*
X45766Y-53175D01*
X45779Y-53162D01*
X45806Y-53149D01*
X45819Y-53149D01*
X45852Y-53089D02*
X45938Y-53003D01*
X45945Y-53102D01*
X45965Y-53082D01*
X45985Y-53076D01*
X45998Y-53076D01*
X46018Y-53082D01*
X46051Y-53116D01*
X46058Y-53135D01*
X46058Y-53149D01*
X46051Y-53169D01*
X46011Y-53208D01*
X45991Y-53215D01*
X45978Y-53215D01*
X46974Y-52900D02*
X46961Y-52900D01*
X46934Y-52887D01*
X46921Y-52874D01*
X46907Y-52847D01*
X46907Y-52820D01*
X46914Y-52801D01*
X46934Y-52767D01*
X46954Y-52747D01*
X46987Y-52728D01*
X47007Y-52721D01*
X47033Y-52721D01*
X47060Y-52734D01*
X47073Y-52747D01*
X47087Y-52774D01*
X47087Y-52787D01*
X47120Y-52913D02*
X47113Y-52893D01*
X47113Y-52880D01*
X47120Y-52860D01*
X47126Y-52854D01*
X47146Y-52847D01*
X47160Y-52847D01*
X47179Y-52854D01*
X47206Y-52880D01*
X47213Y-52900D01*
X47213Y-52913D01*
X47206Y-52933D01*
X47199Y-52940D01*
X47179Y-52946D01*
X47166Y-52946D01*
X47146Y-52940D01*
X47120Y-52913D01*
X47100Y-52907D01*
X47087Y-52907D01*
X47067Y-52913D01*
X47040Y-52940D01*
X47033Y-52960D01*
X47033Y-52973D01*
X47040Y-52993D01*
X47067Y-53019D01*
X47087Y-53026D01*
X47100Y-53026D01*
X47120Y-53019D01*
X47146Y-52993D01*
X47153Y-52973D01*
X47153Y-52960D01*
X47146Y-52940D01*
X47486Y-53451D02*
X47472Y-53451D01*
X47446Y-53438D01*
X47433Y-53425D01*
X47419Y-53398D01*
X47419Y-53372D01*
X47426Y-53352D01*
X47446Y-53319D01*
X47466Y-53299D01*
X47499Y-53279D01*
X47519Y-53272D01*
X47545Y-53272D01*
X47572Y-53285D01*
X47585Y-53299D01*
X47598Y-53325D01*
X47598Y-53338D01*
X47731Y-53445D02*
X47704Y-53418D01*
X47685Y-53411D01*
X47671Y-53411D01*
X47638Y-53418D01*
X47605Y-53438D01*
X47552Y-53491D01*
X47545Y-53511D01*
X47545Y-53524D01*
X47552Y-53544D01*
X47578Y-53571D01*
X47598Y-53577D01*
X47612Y-53577D01*
X47632Y-53571D01*
X47665Y-53537D01*
X47671Y-53518D01*
X47671Y-53504D01*
X47665Y-53484D01*
X47638Y-53458D01*
X47618Y-53451D01*
X47605Y-53451D01*
X47585Y-53458D01*
X45420Y-53734D02*
X45420Y-53747D01*
X45406Y-53774D01*
X45393Y-53787D01*
X45367Y-53800D01*
X45340Y-53800D01*
X45320Y-53794D01*
X45287Y-53774D01*
X45267Y-53754D01*
X45247Y-53721D01*
X45241Y-53701D01*
X45241Y-53674D01*
X45254Y-53648D01*
X45267Y-53634D01*
X45294Y-53621D01*
X45307Y-53621D01*
X45360Y-53568D02*
X45360Y-53555D01*
X45367Y-53535D01*
X45400Y-53502D01*
X45420Y-53495D01*
X45433Y-53495D01*
X45453Y-53502D01*
X45466Y-53515D01*
X45479Y-53542D01*
X45479Y-53701D01*
X45566Y-53614D01*
G54D12*
X46186Y-51791D02*
X46411Y-52017D01*
X46451Y-52030D01*
X46478Y-52030D01*
X46518Y-52017D01*
X46571Y-51964D01*
X46584Y-51924D01*
X46584Y-51897D01*
X46571Y-51858D01*
X46345Y-51632D01*
X46491Y-51540D02*
X46491Y-51513D01*
X46504Y-51473D01*
X46571Y-51407D01*
X46610Y-51394D01*
X46637Y-51394D01*
X46677Y-51407D01*
X46703Y-51434D01*
X46730Y-51487D01*
X46730Y-51805D01*
X46902Y-51632D01*
G54D11*
X44104Y-42192D02*
X43907Y-42192D01*
X43907Y-42145D01*
X43917Y-42117D01*
X43936Y-42098D01*
X43954Y-42089D01*
X43992Y-42080D01*
X44020Y-42080D01*
X44057Y-42089D01*
X44076Y-42098D01*
X44095Y-42117D01*
X44104Y-42145D01*
X44104Y-42192D01*
X43973Y-41911D02*
X44104Y-41911D01*
X43898Y-41958D02*
X44039Y-42005D01*
X44039Y-41883D01*
X43002Y-42192D02*
X42805Y-42192D01*
X42805Y-42145D01*
X42814Y-42117D01*
X42833Y-42098D01*
X42852Y-42089D01*
X42889Y-42080D01*
X42918Y-42080D01*
X42955Y-42089D01*
X42974Y-42098D01*
X42993Y-42117D01*
X43002Y-42145D01*
X43002Y-42192D01*
X42805Y-42014D02*
X42805Y-41892D01*
X42880Y-41958D01*
X42880Y-41930D01*
X42889Y-41911D01*
X42899Y-41901D01*
X42918Y-41892D01*
X42964Y-41892D01*
X42983Y-41901D01*
X42993Y-41911D01*
X43002Y-41930D01*
X43002Y-41986D01*
X42993Y-42005D01*
X42983Y-42014D01*
G54D17*
X46144Y-56407D02*
X46544Y-57007D01*
X46544Y-56407D02*
X46144Y-57007D01*
X47087Y-57007D02*
X46744Y-57007D01*
X46915Y-57007D02*
X46915Y-56407D01*
X46858Y-56493D01*
X46801Y-56550D01*
X46744Y-56579D01*
G54D18*
X48812Y-42111D02*
X48746Y-42111D01*
X48746Y-42215D02*
X48746Y-42018D01*
X48840Y-42018D01*
X48981Y-42111D02*
X49009Y-42121D01*
X49018Y-42130D01*
X49027Y-42149D01*
X49027Y-42177D01*
X49018Y-42196D01*
X49009Y-42205D01*
X48990Y-42215D01*
X48915Y-42215D01*
X48915Y-42018D01*
X48981Y-42018D01*
X48999Y-42027D01*
X49009Y-42036D01*
X49018Y-42055D01*
X49018Y-42074D01*
X49009Y-42093D01*
X48999Y-42102D01*
X48981Y-42111D01*
X48915Y-42111D01*
X49215Y-42215D02*
X49103Y-42215D01*
X49159Y-42215D02*
X49159Y-42018D01*
X49140Y-42046D01*
X49121Y-42065D01*
X49103Y-42074D01*
X47964Y-53810D02*
X47918Y-53764D01*
X47845Y-53837D02*
X47984Y-53698D01*
X48050Y-53764D01*
X48084Y-53930D02*
X48097Y-53956D01*
X48097Y-53970D01*
X48090Y-53990D01*
X48070Y-54009D01*
X48050Y-54016D01*
X48037Y-54016D01*
X48017Y-54009D01*
X47964Y-53956D01*
X48104Y-53817D01*
X48150Y-53864D01*
X48157Y-53883D01*
X48157Y-53897D01*
X48150Y-53917D01*
X48137Y-53930D01*
X48117Y-53937D01*
X48104Y-53937D01*
X48084Y-53930D01*
X48037Y-53883D01*
X48223Y-53963D02*
X48236Y-53963D01*
X48256Y-53970D01*
X48289Y-54003D01*
X48296Y-54023D01*
X48296Y-54036D01*
X48289Y-54056D01*
X48276Y-54069D01*
X48249Y-54082D01*
X48090Y-54082D01*
X48177Y-54169D01*
X50641Y-51212D02*
X50595Y-51166D01*
X50522Y-51239D02*
X50661Y-51099D01*
X50728Y-51166D01*
X50761Y-51331D02*
X50774Y-51358D01*
X50774Y-51371D01*
X50767Y-51391D01*
X50748Y-51411D01*
X50728Y-51418D01*
X50714Y-51418D01*
X50694Y-51411D01*
X50641Y-51358D01*
X50781Y-51219D01*
X50827Y-51265D01*
X50834Y-51285D01*
X50834Y-51298D01*
X50827Y-51318D01*
X50814Y-51331D01*
X50794Y-51338D01*
X50781Y-51338D01*
X50761Y-51331D01*
X50714Y-51285D01*
X50907Y-51345D02*
X50993Y-51431D01*
X50893Y-51438D01*
X50913Y-51457D01*
X50920Y-51477D01*
X50920Y-51491D01*
X50913Y-51511D01*
X50880Y-51544D01*
X50860Y-51550D01*
X50847Y-51550D01*
X50827Y-51544D01*
X50787Y-51504D01*
X50781Y-51484D01*
X50781Y-51471D01*
G54D19*
X46481Y-42372D02*
X46481Y-42175D01*
X46524Y-42175D01*
X46549Y-42184D01*
X46567Y-42203D01*
X46575Y-42222D01*
X46584Y-42260D01*
X46584Y-42288D01*
X46575Y-42325D01*
X46567Y-42344D01*
X46549Y-42363D01*
X46524Y-42372D01*
X46481Y-42372D01*
X46755Y-42372D02*
X46652Y-42372D01*
X46704Y-42372D02*
X46704Y-42175D01*
X46687Y-42203D01*
X46669Y-42222D01*
X46652Y-42231D01*
X44906Y-42372D02*
X44906Y-42175D01*
X44949Y-42175D01*
X44975Y-42184D01*
X44992Y-42203D01*
X45000Y-42222D01*
X45009Y-42260D01*
X45009Y-42288D01*
X45000Y-42325D01*
X44992Y-42344D01*
X44975Y-42363D01*
X44949Y-42372D01*
X44906Y-42372D01*
X45077Y-42194D02*
X45086Y-42184D01*
X45103Y-42175D01*
X45146Y-42175D01*
X45163Y-42184D01*
X45172Y-42194D01*
X45180Y-42213D01*
X45180Y-42231D01*
X45172Y-42260D01*
X45069Y-42372D01*
X45180Y-42372D01*
G54D12*
X40103Y-41752D02*
X40103Y-41359D01*
X40253Y-41359D01*
X40290Y-41377D01*
X40309Y-41396D01*
X40328Y-41434D01*
X40328Y-41490D01*
X40309Y-41527D01*
X40290Y-41546D01*
X40253Y-41565D01*
X40103Y-41565D01*
X40478Y-41396D02*
X40496Y-41377D01*
X40534Y-41359D01*
X40628Y-41359D01*
X40665Y-41377D01*
X40684Y-41396D01*
X40703Y-41434D01*
X40703Y-41471D01*
X40684Y-41527D01*
X40459Y-41752D01*
X40703Y-41752D01*
X52071Y-41752D02*
X52071Y-41359D01*
X52221Y-41359D01*
X52259Y-41377D01*
X52277Y-41396D01*
X52296Y-41434D01*
X52296Y-41490D01*
X52277Y-41527D01*
X52259Y-41546D01*
X52221Y-41565D01*
X52071Y-41565D01*
X52671Y-41752D02*
X52446Y-41752D01*
X52559Y-41752D02*
X52559Y-41359D01*
X52521Y-41415D01*
X52484Y-41452D01*
X52446Y-41471D01*
%LPC*%
G54D20*
X45110Y-41495D03*
G54D21*
X44795Y-40570D03*
X47945Y-40570D03*
G54D22*
X45898Y-40570D03*
X46842Y-40570D03*
G54D20*
X47630Y-41495D03*
G54D23*
X46882Y-41623D03*
X46626Y-41623D03*
X46370Y-41623D03*
X46114Y-41623D03*
X45858Y-41623D03*
G54D24*
X42378Y-54101D03*
X42181Y-54101D03*
X41984Y-54101D03*
X41984Y-53535D03*
X42181Y-53535D03*
X42378Y-53535D03*
G54D10*
G36*
X48915Y-51370D02*
X48526Y-50981D01*
X48774Y-50734D01*
X49163Y-51123D01*
X48915Y-51370D01*
X48915Y-51370D01*
G37*
G36*
X49446Y-50840D02*
X49057Y-50451D01*
X49304Y-50204D01*
X49693Y-50592D01*
X49446Y-50840D01*
X49446Y-50840D01*
G37*
G54D25*
X50566Y-52892D03*
X50566Y-53642D03*
G54D10*
G36*
X44619Y-51424D02*
X45008Y-51813D01*
X44761Y-52060D01*
X44372Y-51671D01*
X44619Y-51424D01*
X44619Y-51424D01*
G37*
G36*
X44089Y-51954D02*
X44478Y-52343D01*
X44230Y-52591D01*
X43841Y-52202D01*
X44089Y-51954D01*
X44089Y-51954D01*
G37*
G36*
X44068Y-50873D02*
X44457Y-51262D01*
X44209Y-51509D01*
X43820Y-51120D01*
X44068Y-50873D01*
X44068Y-50873D01*
G37*
G36*
X43538Y-51403D02*
X43927Y-51792D01*
X43679Y-52040D01*
X43290Y-51651D01*
X43538Y-51403D01*
X43538Y-51403D01*
G37*
G36*
X49471Y-50041D02*
X49860Y-49652D01*
X50108Y-49900D01*
X49719Y-50289D01*
X49471Y-50041D01*
X49471Y-50041D01*
G37*
G36*
X50002Y-50572D02*
X50390Y-50183D01*
X50638Y-50430D01*
X50249Y-50819D01*
X50002Y-50572D01*
X50002Y-50572D01*
G37*
G54D25*
X46984Y-46241D03*
X46984Y-45491D03*
X46196Y-46241D03*
X46196Y-45491D03*
G54D10*
G36*
X47975Y-51537D02*
X48364Y-51148D01*
X48612Y-51396D01*
X48223Y-51785D01*
X47975Y-51537D01*
X47975Y-51537D01*
G37*
G36*
X48506Y-52068D02*
X48894Y-51679D01*
X49142Y-51926D01*
X48753Y-52315D01*
X48506Y-52068D01*
X48506Y-52068D01*
G37*
G54D25*
X47417Y-43288D03*
X47417Y-42538D03*
X45842Y-43288D03*
X45842Y-42538D03*
X43047Y-55611D03*
X43047Y-54861D03*
X42259Y-55611D03*
X42259Y-54861D03*
X43086Y-54193D03*
X43086Y-53443D03*
G54D26*
X42121Y-52677D03*
X42871Y-52677D03*
G54D25*
X42377Y-42853D03*
X42377Y-43603D03*
X43480Y-42853D03*
X43480Y-43603D03*
G54D10*
G36*
X43364Y-50110D02*
X42975Y-49722D01*
X43223Y-49474D01*
X43612Y-49863D01*
X43364Y-50110D01*
X43364Y-50110D01*
G37*
G36*
X43894Y-49580D02*
X43506Y-49191D01*
X43753Y-48944D01*
X44142Y-49333D01*
X43894Y-49580D01*
X43894Y-49580D01*
G37*
G54D26*
X48973Y-44015D03*
X48223Y-44015D03*
G54D10*
G36*
X43845Y-46518D02*
X44234Y-46129D01*
X44482Y-46376D01*
X44093Y-46765D01*
X43845Y-46518D01*
X43845Y-46518D01*
G37*
G36*
X44376Y-47048D02*
X44765Y-46659D01*
X45012Y-46907D01*
X44623Y-47295D01*
X44376Y-47048D01*
X44376Y-47048D01*
G37*
G36*
X49466Y-51921D02*
X49078Y-51533D01*
X49325Y-51285D01*
X49714Y-51674D01*
X49466Y-51921D01*
X49466Y-51921D01*
G37*
G36*
X49997Y-51391D02*
X49608Y-51002D01*
X49855Y-50755D01*
X50244Y-51144D01*
X49997Y-51391D01*
X49997Y-51391D01*
G37*
G36*
X43517Y-50322D02*
X43906Y-50711D01*
X43658Y-50958D01*
X43269Y-50569D01*
X43517Y-50322D01*
X43517Y-50322D01*
G37*
G36*
X42986Y-50852D02*
X43375Y-51241D01*
X43128Y-51488D01*
X42739Y-51099D01*
X42986Y-50852D01*
X42986Y-50852D01*
G37*
G36*
X43202Y-48393D02*
X43591Y-48781D01*
X43343Y-49029D01*
X42954Y-48640D01*
X43202Y-48393D01*
X43202Y-48393D01*
G37*
G36*
X42671Y-48923D02*
X43060Y-49312D01*
X42813Y-49559D01*
X42424Y-49170D01*
X42671Y-48923D01*
X42671Y-48923D01*
G37*
G54D25*
X49385Y-55611D03*
X49385Y-54861D03*
X43874Y-55611D03*
X43874Y-54861D03*
X43874Y-54193D03*
X43874Y-53443D03*
X48204Y-42538D03*
X48204Y-43288D03*
G54D10*
G36*
X44786Y-52364D02*
X45175Y-51975D01*
X45423Y-52223D01*
X45034Y-52612D01*
X44786Y-52364D01*
X44786Y-52364D01*
G37*
G36*
X45317Y-52894D02*
X45705Y-52506D01*
X45953Y-52753D01*
X45564Y-53142D01*
X45317Y-52894D01*
X45317Y-52894D01*
G37*
G36*
X47769Y-51700D02*
X48158Y-52089D01*
X47910Y-52336D01*
X47521Y-51947D01*
X47769Y-51700D01*
X47769Y-51700D01*
G37*
G36*
X47238Y-52230D02*
X47627Y-52619D01*
X47380Y-52866D01*
X46991Y-52477D01*
X47238Y-52230D01*
X47238Y-52230D01*
G37*
G36*
X48320Y-52251D02*
X48709Y-52640D01*
X48461Y-52887D01*
X48072Y-52498D01*
X48320Y-52251D01*
X48320Y-52251D01*
G37*
G36*
X47790Y-52781D02*
X48179Y-53170D01*
X47931Y-53418D01*
X47542Y-53029D01*
X47790Y-52781D01*
X47790Y-52781D01*
G37*
G36*
X44235Y-52915D02*
X44624Y-52526D01*
X44871Y-52774D01*
X44483Y-53163D01*
X44235Y-52915D01*
X44235Y-52915D01*
G37*
G36*
X44765Y-53446D02*
X45154Y-53057D01*
X45402Y-53304D01*
X45013Y-53693D01*
X44765Y-53446D01*
X44765Y-53446D01*
G37*
G36*
X47133Y-51433D02*
X46799Y-51099D01*
X46882Y-51015D01*
X47216Y-51349D01*
X47133Y-51433D01*
X47133Y-51433D01*
G37*
G36*
X47272Y-51293D02*
X46938Y-50959D01*
X47022Y-50876D01*
X47356Y-51210D01*
X47272Y-51293D01*
X47272Y-51293D01*
G37*
G36*
X47411Y-51154D02*
X47077Y-50820D01*
X47161Y-50737D01*
X47495Y-51071D01*
X47411Y-51154D01*
X47411Y-51154D01*
G37*
G36*
X47550Y-51015D02*
X47216Y-50681D01*
X47300Y-50597D01*
X47634Y-50932D01*
X47550Y-51015D01*
X47550Y-51015D01*
G37*
G36*
X47690Y-50876D02*
X47356Y-50542D01*
X47439Y-50458D01*
X47773Y-50792D01*
X47690Y-50876D01*
X47690Y-50876D01*
G37*
G36*
X47829Y-50737D02*
X47495Y-50403D01*
X47578Y-50319D01*
X47912Y-50653D01*
X47829Y-50737D01*
X47829Y-50737D01*
G37*
G36*
X47968Y-50597D02*
X47634Y-50263D01*
X47718Y-50180D01*
X48052Y-50514D01*
X47968Y-50597D01*
X47968Y-50597D01*
G37*
G36*
X48107Y-50458D02*
X47773Y-50124D01*
X47857Y-50041D01*
X48191Y-50375D01*
X48107Y-50458D01*
X48107Y-50458D01*
G37*
G36*
X48246Y-50319D02*
X47912Y-49985D01*
X47996Y-49901D01*
X48330Y-50236D01*
X48246Y-50319D01*
X48246Y-50319D01*
G37*
G36*
X48386Y-50180D02*
X48052Y-49846D01*
X48135Y-49762D01*
X48469Y-50096D01*
X48386Y-50180D01*
X48386Y-50180D01*
G37*
G36*
X48525Y-50041D02*
X48191Y-49707D01*
X48274Y-49623D01*
X48608Y-49957D01*
X48525Y-50041D01*
X48525Y-50041D01*
G37*
G36*
X48664Y-49901D02*
X48330Y-49567D01*
X48413Y-49484D01*
X48748Y-49818D01*
X48664Y-49901D01*
X48664Y-49901D01*
G37*
G36*
X48413Y-49066D02*
X48330Y-48983D01*
X48664Y-48649D01*
X48748Y-48732D01*
X48413Y-49066D01*
X48413Y-49066D01*
G37*
G36*
X48274Y-48927D02*
X48191Y-48844D01*
X48525Y-48510D01*
X48608Y-48593D01*
X48274Y-48927D01*
X48274Y-48927D01*
G37*
G36*
X48135Y-48788D02*
X48052Y-48704D01*
X48386Y-48370D01*
X48469Y-48454D01*
X48135Y-48788D01*
X48135Y-48788D01*
G37*
G36*
X47996Y-48649D02*
X47912Y-48565D01*
X48246Y-48231D01*
X48330Y-48315D01*
X47996Y-48649D01*
X47996Y-48649D01*
G37*
G36*
X47857Y-48510D02*
X47773Y-48426D01*
X48107Y-48092D01*
X48191Y-48175D01*
X47857Y-48510D01*
X47857Y-48510D01*
G37*
G36*
X47718Y-48370D02*
X47634Y-48287D01*
X47968Y-47953D01*
X48052Y-48036D01*
X47718Y-48370D01*
X47718Y-48370D01*
G37*
G36*
X47578Y-48231D02*
X47495Y-48148D01*
X47829Y-47814D01*
X47912Y-47897D01*
X47578Y-48231D01*
X47578Y-48231D01*
G37*
G36*
X47439Y-48092D02*
X47356Y-48008D01*
X47690Y-47674D01*
X47773Y-47758D01*
X47439Y-48092D01*
X47439Y-48092D01*
G37*
G36*
X47300Y-47953D02*
X47216Y-47869D01*
X47550Y-47535D01*
X47634Y-47619D01*
X47300Y-47953D01*
X47300Y-47953D01*
G37*
G36*
X47161Y-47814D02*
X47077Y-47730D01*
X47411Y-47396D01*
X47495Y-47479D01*
X47161Y-47814D01*
X47161Y-47814D01*
G37*
G36*
X47022Y-47674D02*
X46938Y-47591D01*
X47272Y-47257D01*
X47356Y-47340D01*
X47022Y-47674D01*
X47022Y-47674D01*
G37*
G36*
X46882Y-47535D02*
X46799Y-47452D01*
X47133Y-47118D01*
X47216Y-47201D01*
X46882Y-47535D01*
X46882Y-47535D01*
G37*
G36*
X46298Y-47535D02*
X45964Y-47201D01*
X46047Y-47118D01*
X46381Y-47452D01*
X46298Y-47535D01*
X46298Y-47535D01*
G37*
G36*
X46159Y-47674D02*
X45824Y-47340D01*
X45908Y-47257D01*
X46242Y-47591D01*
X46159Y-47674D01*
X46159Y-47674D01*
G37*
G36*
X46019Y-47814D02*
X45685Y-47479D01*
X45769Y-47396D01*
X46103Y-47730D01*
X46019Y-47814D01*
X46019Y-47814D01*
G37*
G36*
X45880Y-47953D02*
X45546Y-47619D01*
X45630Y-47535D01*
X45964Y-47869D01*
X45880Y-47953D01*
X45880Y-47953D01*
G37*
G36*
X45741Y-48092D02*
X45407Y-47758D01*
X45490Y-47674D01*
X45824Y-48008D01*
X45741Y-48092D01*
X45741Y-48092D01*
G37*
G36*
X45602Y-48231D02*
X45268Y-47897D01*
X45351Y-47814D01*
X45685Y-48148D01*
X45602Y-48231D01*
X45602Y-48231D01*
G37*
G36*
X45463Y-48370D02*
X45129Y-48036D01*
X45212Y-47953D01*
X45546Y-48287D01*
X45463Y-48370D01*
X45463Y-48370D01*
G37*
G36*
X45323Y-48510D02*
X44989Y-48175D01*
X45073Y-48092D01*
X45407Y-48426D01*
X45323Y-48510D01*
X45323Y-48510D01*
G37*
G36*
X45184Y-48649D02*
X44850Y-48315D01*
X44934Y-48231D01*
X45268Y-48565D01*
X45184Y-48649D01*
X45184Y-48649D01*
G37*
G36*
X45045Y-48788D02*
X44711Y-48454D01*
X44794Y-48370D01*
X45129Y-48704D01*
X45045Y-48788D01*
X45045Y-48788D01*
G37*
G36*
X44906Y-48927D02*
X44572Y-48593D01*
X44655Y-48510D01*
X44989Y-48844D01*
X44906Y-48927D01*
X44906Y-48927D01*
G37*
G36*
X44767Y-49066D02*
X44433Y-48732D01*
X44516Y-48649D01*
X44850Y-48983D01*
X44767Y-49066D01*
X44767Y-49066D01*
G37*
G36*
X44516Y-49901D02*
X44433Y-49818D01*
X44767Y-49484D01*
X44850Y-49567D01*
X44516Y-49901D01*
X44516Y-49901D01*
G37*
G36*
X44655Y-50041D02*
X44572Y-49957D01*
X44906Y-49623D01*
X44989Y-49707D01*
X44655Y-50041D01*
X44655Y-50041D01*
G37*
G36*
X44794Y-50180D02*
X44711Y-50096D01*
X45045Y-49762D01*
X45129Y-49846D01*
X44794Y-50180D01*
X44794Y-50180D01*
G37*
G36*
X44934Y-50319D02*
X44850Y-50236D01*
X45184Y-49901D01*
X45268Y-49985D01*
X44934Y-50319D01*
X44934Y-50319D01*
G37*
G36*
X45073Y-50458D02*
X44989Y-50375D01*
X45323Y-50041D01*
X45407Y-50124D01*
X45073Y-50458D01*
X45073Y-50458D01*
G37*
G36*
X45212Y-50597D02*
X45129Y-50514D01*
X45463Y-50180D01*
X45546Y-50263D01*
X45212Y-50597D01*
X45212Y-50597D01*
G37*
G36*
X45351Y-50737D02*
X45268Y-50653D01*
X45602Y-50319D01*
X45685Y-50403D01*
X45351Y-50737D01*
X45351Y-50737D01*
G37*
G36*
X45490Y-50876D02*
X45407Y-50792D01*
X45741Y-50458D01*
X45824Y-50542D01*
X45490Y-50876D01*
X45490Y-50876D01*
G37*
G36*
X45630Y-51015D02*
X45546Y-50932D01*
X45880Y-50597D01*
X45964Y-50681D01*
X45630Y-51015D01*
X45630Y-51015D01*
G37*
G36*
X45769Y-51154D02*
X45685Y-51071D01*
X46019Y-50737D01*
X46103Y-50820D01*
X45769Y-51154D01*
X45769Y-51154D01*
G37*
G36*
X45908Y-51293D02*
X45824Y-51210D01*
X46159Y-50876D01*
X46242Y-50959D01*
X45908Y-51293D01*
X45908Y-51293D01*
G37*
G36*
X46047Y-51433D02*
X45964Y-51349D01*
X46298Y-51015D01*
X46381Y-51099D01*
X46047Y-51433D01*
X46047Y-51433D01*
G37*
G54D27*
X52370Y-40370D03*
X40370Y-56370D03*
X40370Y-40370D03*
X52370Y-56370D03*
G54D28*
X43480Y-42096D03*
X43480Y-40895D03*
X42377Y-42096D03*
X42377Y-40895D03*
G54D29*
X47629Y-55236D03*
X45629Y-55236D03*
G54D25*
X48992Y-42538D03*
X48992Y-43288D03*
G54D10*
G36*
X48482Y-53969D02*
X48093Y-53580D01*
X48341Y-53332D01*
X48730Y-53721D01*
X48482Y-53969D01*
X48482Y-53969D01*
G37*
G36*
X49013Y-53438D02*
X48624Y-53049D01*
X48871Y-52802D01*
X49260Y-53191D01*
X49013Y-53438D01*
X49013Y-53438D01*
G37*
G36*
X50407Y-51306D02*
X50795Y-51695D01*
X50548Y-51942D01*
X50159Y-51553D01*
X50407Y-51306D01*
X50407Y-51306D01*
G37*
G36*
X49876Y-51836D02*
X50265Y-52225D01*
X50018Y-52473D01*
X49629Y-52084D01*
X49876Y-51836D01*
X49876Y-51836D01*
G37*
G54D30*
X46629Y-42613D03*
X46629Y-43213D03*
X45055Y-42613D03*
X45055Y-43213D03*
G54D31*
X40370Y-42370D03*
G54D32*
X40370Y-43370D03*
X40370Y-44370D03*
X40370Y-45370D03*
X40370Y-46370D03*
X40370Y-47370D03*
X40370Y-48370D03*
X40370Y-49370D03*
X40370Y-50370D03*
X40370Y-51370D03*
X40370Y-52370D03*
X40370Y-53370D03*
X40370Y-54370D03*
G54D31*
X52370Y-54370D03*
G54D32*
X52370Y-53370D03*
X52370Y-52370D03*
X52370Y-51370D03*
X52370Y-50370D03*
X52370Y-49370D03*
X52370Y-48370D03*
X52370Y-47370D03*
X52370Y-46370D03*
X52370Y-45370D03*
X52370Y-44370D03*
X52370Y-43370D03*
X52370Y-42370D03*
M02*
