M48
;DRILL file {Pcbnew (2013-mar-13)-testing} date Wed 17 Apr 2013 01:56:12 PM EDT
;FORMAT={-:-/ absolute / inch / decimal}
FMAT,2
INCH,TZ
T1C0.014
T2C0.030
T3C0.040
T4C0.125
%
G90
G05
M72
T1
X4.1398Y-5.5217
X4.1555Y-4.2953
X4.1693Y-5.4803
X4.2677Y-4.4626
X4.2736Y-4.4921
X4.2756Y-4.5276
X4.2756Y-5.1752
X4.2776Y-4.5591
X4.3051Y-5.5236
X4.3858Y-4.7106
X4.4449Y-5.3543
X4.4508Y-5.4508
X4.4882Y-5.0768
X4.5138Y-5.1142
X4.5374Y-5.1339
X4.5945Y-5.3169
X4.6063Y-5.2441
X4.6122Y-4.872
X4.6575Y-4.7933
X4.6791Y-4.813
X4.6969Y-5.2894
X4.7913Y-4.626
X4.7913Y-4.6594
X4.8504Y-4.4646
X4.8839Y-4.4646
X4.8878Y-5.439
X4.9606Y-4.2894
T2
X4.563Y-5.5236
X4.763Y-5.5236
T3
X4.037Y-4.237
X4.037Y-4.337
X4.037Y-4.437
X4.037Y-4.537
X4.037Y-4.637
X4.037Y-4.737
X4.037Y-4.837
X4.037Y-4.937
X4.037Y-5.037
X4.037Y-5.137
X4.037Y-5.237
X4.037Y-5.337
X4.037Y-5.437
X5.237Y-4.237
X5.237Y-4.337
X5.237Y-4.437
X5.237Y-4.537
X5.237Y-4.637
X5.237Y-4.737
X5.237Y-4.837
X5.237Y-4.937
X5.237Y-5.037
X5.237Y-5.137
X5.237Y-5.237
X5.237Y-5.337
X5.237Y-5.437
T4
X4.037Y-4.037
X4.037Y-5.637
X5.237Y-4.037
X5.237Y-5.637
T0
M30
