G04 (created by PCBNEW (2013-mar-13)-testing) date Sun 09 Jun 2013 10:04:26 PM EDT*
%MOIN*%
G04 Gerber Fmt 3.4, Leading zero omitted, Abs format*
%FSLAX34Y34*%
G01*
G70*
G90*
G04 APERTURE LIST*
%ADD10C,0.005906*%
%ADD11C,0.007874*%
%ADD12C,0.011811*%
%ADD13C,0.003937*%
%ADD14C,0.003900*%
%ADD15C,0.005000*%
%ADD16C,0.012500*%
%ADD17C,0.008000*%
%ADD18C,0.004300*%
%ADD19C,0.012000*%
G04 APERTURE END LIST*
G54D10*
X95074Y-52179D02*
X95313Y-52179D01*
X95341Y-52165D01*
X95355Y-52151D01*
X95369Y-52123D01*
X95369Y-52066D01*
X95355Y-52038D01*
X95341Y-52024D01*
X95313Y-52010D01*
X95074Y-52010D01*
X95355Y-51884D02*
X95369Y-51841D01*
X95369Y-51771D01*
X95355Y-51743D01*
X95341Y-51729D01*
X95313Y-51715D01*
X95285Y-51715D01*
X95257Y-51729D01*
X95243Y-51743D01*
X95229Y-51771D01*
X95215Y-51827D01*
X95201Y-51856D01*
X95187Y-51870D01*
X95158Y-51884D01*
X95130Y-51884D01*
X95102Y-51870D01*
X95088Y-51856D01*
X95074Y-51827D01*
X95074Y-51757D01*
X95088Y-51715D01*
X95215Y-51490D02*
X95229Y-51448D01*
X95243Y-51434D01*
X95271Y-51420D01*
X95313Y-51420D01*
X95341Y-51434D01*
X95355Y-51448D01*
X95369Y-51476D01*
X95369Y-51588D01*
X95074Y-51588D01*
X95074Y-51490D01*
X95088Y-51462D01*
X95102Y-51448D01*
X95130Y-51434D01*
X95158Y-51434D01*
X95187Y-51448D01*
X95201Y-51462D01*
X95215Y-51490D01*
X95215Y-51588D01*
X95215Y-51293D02*
X95215Y-51195D01*
X95369Y-51152D02*
X95369Y-51293D01*
X95074Y-51293D01*
X95074Y-51152D01*
X95369Y-50857D02*
X95229Y-50956D01*
X95369Y-51026D02*
X95074Y-51026D01*
X95074Y-50913D01*
X95088Y-50885D01*
X95102Y-50871D01*
X95130Y-50857D01*
X95172Y-50857D01*
X95201Y-50871D01*
X95215Y-50885D01*
X95229Y-50913D01*
X95229Y-51026D01*
X95369Y-50562D02*
X95229Y-50660D01*
X95369Y-50731D02*
X95074Y-50731D01*
X95074Y-50618D01*
X95088Y-50590D01*
X95102Y-50576D01*
X95130Y-50562D01*
X95172Y-50562D01*
X95201Y-50576D01*
X95215Y-50590D01*
X95229Y-50618D01*
X95229Y-50731D01*
G54D11*
X84387Y-59821D02*
X84406Y-59803D01*
X84443Y-59784D01*
X84537Y-59784D01*
X84575Y-59803D01*
X84593Y-59821D01*
X84612Y-59859D01*
X84612Y-59896D01*
X84593Y-59953D01*
X84368Y-60178D01*
X84612Y-60178D01*
X84856Y-59784D02*
X84893Y-59784D01*
X84931Y-59803D01*
X84950Y-59821D01*
X84968Y-59859D01*
X84987Y-59934D01*
X84987Y-60028D01*
X84968Y-60103D01*
X84950Y-60140D01*
X84931Y-60159D01*
X84893Y-60178D01*
X84856Y-60178D01*
X84818Y-60159D01*
X84800Y-60140D01*
X84781Y-60103D01*
X84762Y-60028D01*
X84762Y-59934D01*
X84781Y-59859D01*
X84800Y-59821D01*
X84818Y-59803D01*
X84856Y-59784D01*
X85362Y-60178D02*
X85137Y-60178D01*
X85250Y-60178D02*
X85250Y-59784D01*
X85212Y-59840D01*
X85175Y-59878D01*
X85137Y-59896D01*
X85493Y-59784D02*
X85737Y-59784D01*
X85606Y-59934D01*
X85662Y-59934D01*
X85700Y-59953D01*
X85718Y-59971D01*
X85737Y-60009D01*
X85737Y-60103D01*
X85718Y-60140D01*
X85700Y-60159D01*
X85662Y-60178D01*
X85550Y-60178D01*
X85512Y-60159D01*
X85493Y-60140D01*
X85906Y-60028D02*
X86206Y-60028D01*
X86468Y-59784D02*
X86506Y-59784D01*
X86543Y-59803D01*
X86562Y-59821D01*
X86581Y-59859D01*
X86599Y-59934D01*
X86599Y-60028D01*
X86581Y-60103D01*
X86562Y-60140D01*
X86543Y-60159D01*
X86506Y-60178D01*
X86468Y-60178D01*
X86431Y-60159D01*
X86412Y-60140D01*
X86393Y-60103D01*
X86374Y-60028D01*
X86374Y-59934D01*
X86393Y-59859D01*
X86412Y-59821D01*
X86431Y-59803D01*
X86468Y-59784D01*
X86937Y-59784D02*
X86862Y-59784D01*
X86824Y-59803D01*
X86806Y-59821D01*
X86768Y-59878D01*
X86749Y-59953D01*
X86749Y-60103D01*
X86768Y-60140D01*
X86787Y-60159D01*
X86824Y-60178D01*
X86899Y-60178D01*
X86937Y-60159D01*
X86956Y-60140D01*
X86974Y-60103D01*
X86974Y-60009D01*
X86956Y-59971D01*
X86937Y-59953D01*
X86899Y-59934D01*
X86824Y-59934D01*
X86787Y-59953D01*
X86768Y-59971D01*
X86749Y-60009D01*
X87143Y-60028D02*
X87443Y-60028D01*
X87706Y-59784D02*
X87743Y-59784D01*
X87781Y-59803D01*
X87799Y-59821D01*
X87818Y-59859D01*
X87837Y-59934D01*
X87837Y-60028D01*
X87818Y-60103D01*
X87799Y-60140D01*
X87781Y-60159D01*
X87743Y-60178D01*
X87706Y-60178D01*
X87668Y-60159D01*
X87649Y-60140D01*
X87631Y-60103D01*
X87612Y-60028D01*
X87612Y-59934D01*
X87631Y-59859D01*
X87649Y-59821D01*
X87668Y-59803D01*
X87706Y-59784D01*
X88174Y-59915D02*
X88174Y-60178D01*
X88081Y-59765D02*
X87987Y-60046D01*
X88231Y-60046D01*
G54D12*
X85921Y-58976D02*
X86118Y-59567D01*
X86315Y-58976D01*
X86821Y-59567D02*
X86484Y-59567D01*
X86653Y-59567D02*
X86653Y-58976D01*
X86596Y-59060D01*
X86540Y-59117D01*
X86484Y-59145D01*
X84383Y-61457D02*
X84186Y-61457D01*
X84186Y-61767D02*
X84186Y-61176D01*
X84467Y-61176D01*
X84608Y-61176D02*
X84945Y-61176D01*
X84777Y-61767D02*
X84777Y-61176D01*
X85086Y-61176D02*
X85452Y-61176D01*
X85255Y-61401D01*
X85339Y-61401D01*
X85395Y-61429D01*
X85423Y-61457D01*
X85452Y-61514D01*
X85452Y-61654D01*
X85423Y-61710D01*
X85395Y-61739D01*
X85339Y-61767D01*
X85170Y-61767D01*
X85114Y-61739D01*
X85086Y-61710D01*
X86014Y-61767D02*
X85677Y-61767D01*
X85845Y-61767D02*
X85845Y-61176D01*
X85789Y-61260D01*
X85733Y-61317D01*
X85677Y-61345D01*
X86239Y-61232D02*
X86267Y-61204D01*
X86323Y-61176D01*
X86464Y-61176D01*
X86520Y-61204D01*
X86548Y-61232D01*
X86576Y-61289D01*
X86576Y-61345D01*
X86548Y-61429D01*
X86211Y-61767D01*
X86576Y-61767D01*
X86830Y-61767D02*
X86830Y-61176D01*
X86970Y-61176D01*
X87055Y-61204D01*
X87111Y-61260D01*
X87139Y-61317D01*
X87167Y-61429D01*
X87167Y-61514D01*
X87139Y-61626D01*
X87111Y-61682D01*
X87055Y-61739D01*
X86970Y-61767D01*
X86830Y-61767D01*
X88067Y-61457D02*
X88151Y-61485D01*
X88179Y-61514D01*
X88207Y-61570D01*
X88207Y-61654D01*
X88179Y-61710D01*
X88151Y-61739D01*
X88095Y-61767D01*
X87870Y-61767D01*
X87870Y-61176D01*
X88067Y-61176D01*
X88123Y-61204D01*
X88151Y-61232D01*
X88179Y-61289D01*
X88179Y-61345D01*
X88151Y-61401D01*
X88123Y-61429D01*
X88067Y-61457D01*
X87870Y-61457D01*
X88461Y-61767D02*
X88461Y-61373D01*
X88461Y-61485D02*
X88489Y-61429D01*
X88517Y-61401D01*
X88573Y-61373D01*
X88629Y-61373D01*
X89051Y-61739D02*
X88995Y-61767D01*
X88882Y-61767D01*
X88826Y-61739D01*
X88798Y-61682D01*
X88798Y-61457D01*
X88826Y-61401D01*
X88882Y-61373D01*
X88995Y-61373D01*
X89051Y-61401D01*
X89079Y-61457D01*
X89079Y-61514D01*
X88798Y-61570D01*
X89585Y-61767D02*
X89585Y-61457D01*
X89557Y-61401D01*
X89501Y-61373D01*
X89389Y-61373D01*
X89332Y-61401D01*
X89585Y-61739D02*
X89529Y-61767D01*
X89389Y-61767D01*
X89332Y-61739D01*
X89304Y-61682D01*
X89304Y-61626D01*
X89332Y-61570D01*
X89389Y-61542D01*
X89529Y-61542D01*
X89585Y-61514D01*
X89867Y-61767D02*
X89867Y-61176D01*
X89923Y-61542D02*
X90092Y-61767D01*
X90092Y-61373D02*
X89867Y-61598D01*
X90907Y-61176D02*
X91020Y-61176D01*
X91076Y-61204D01*
X91132Y-61260D01*
X91160Y-61373D01*
X91160Y-61570D01*
X91132Y-61682D01*
X91076Y-61739D01*
X91020Y-61767D01*
X90907Y-61767D01*
X90851Y-61739D01*
X90795Y-61682D01*
X90767Y-61570D01*
X90767Y-61373D01*
X90795Y-61260D01*
X90851Y-61204D01*
X90907Y-61176D01*
X91666Y-61373D02*
X91666Y-61767D01*
X91413Y-61373D02*
X91413Y-61682D01*
X91441Y-61739D01*
X91498Y-61767D01*
X91582Y-61767D01*
X91638Y-61739D01*
X91666Y-61710D01*
X91863Y-61373D02*
X92088Y-61373D01*
X91948Y-61176D02*
X91948Y-61682D01*
X91976Y-61739D01*
X92032Y-61767D01*
X92088Y-61767D01*
X92932Y-61457D02*
X93016Y-61485D01*
X93044Y-61514D01*
X93073Y-61570D01*
X93073Y-61654D01*
X93044Y-61710D01*
X93016Y-61739D01*
X92960Y-61767D01*
X92735Y-61767D01*
X92735Y-61176D01*
X92932Y-61176D01*
X92988Y-61204D01*
X93016Y-61232D01*
X93044Y-61289D01*
X93044Y-61345D01*
X93016Y-61401D01*
X92988Y-61429D01*
X92932Y-61457D01*
X92735Y-61457D01*
X93410Y-61767D02*
X93354Y-61739D01*
X93326Y-61710D01*
X93297Y-61654D01*
X93297Y-61485D01*
X93326Y-61429D01*
X93354Y-61401D01*
X93410Y-61373D01*
X93494Y-61373D01*
X93551Y-61401D01*
X93579Y-61429D01*
X93607Y-61485D01*
X93607Y-61654D01*
X93579Y-61710D01*
X93551Y-61739D01*
X93494Y-61767D01*
X93410Y-61767D01*
X94113Y-61767D02*
X94113Y-61457D01*
X94085Y-61401D01*
X94029Y-61373D01*
X93916Y-61373D01*
X93860Y-61401D01*
X94113Y-61739D02*
X94057Y-61767D01*
X93916Y-61767D01*
X93860Y-61739D01*
X93832Y-61682D01*
X93832Y-61626D01*
X93860Y-61570D01*
X93916Y-61542D01*
X94057Y-61542D01*
X94113Y-61514D01*
X94394Y-61767D02*
X94394Y-61373D01*
X94394Y-61485D02*
X94422Y-61429D01*
X94450Y-61401D01*
X94507Y-61373D01*
X94563Y-61373D01*
X95013Y-61767D02*
X95013Y-61176D01*
X95013Y-61739D02*
X94957Y-61767D01*
X94844Y-61767D01*
X94788Y-61739D01*
X94760Y-61710D01*
X94732Y-61654D01*
X94732Y-61485D01*
X94760Y-61429D01*
X94788Y-61401D01*
X94844Y-61373D01*
X94957Y-61373D01*
X95013Y-61401D01*
G54D11*
X92295Y-49506D02*
X92295Y-49606D01*
X92345Y-49606D02*
X92395Y-49606D01*
X92295Y-49556D02*
X92345Y-49606D01*
X92195Y-49656D02*
X92295Y-49556D01*
X92495Y-49656D02*
X92095Y-49656D01*
X92295Y-49456D02*
X92495Y-49656D01*
X92295Y-49456D02*
X92095Y-49656D01*
X91295Y-49606D02*
X91295Y-49506D01*
X91245Y-49506D02*
X91195Y-49506D01*
X91295Y-49556D02*
X91245Y-49506D01*
X91395Y-49456D02*
X91295Y-49556D01*
X91095Y-49456D02*
X91495Y-49456D01*
X91295Y-49656D02*
X91095Y-49456D01*
X91295Y-49656D02*
X91495Y-49456D01*
X94195Y-49606D02*
X94295Y-49506D01*
X94395Y-49606D02*
X94195Y-49606D01*
X94295Y-49506D02*
X94395Y-49606D01*
X94095Y-49656D02*
X94495Y-49656D01*
X94295Y-49456D02*
X94095Y-49656D01*
X94295Y-49456D02*
X94495Y-49656D01*
X93295Y-49606D02*
X93295Y-49506D01*
X93295Y-49606D02*
X93345Y-49556D01*
X93195Y-49506D02*
X93295Y-49606D01*
X93395Y-49506D02*
X93195Y-49506D01*
X93495Y-49456D02*
X93095Y-49456D01*
X93295Y-49656D02*
X93495Y-49456D01*
X93095Y-49456D02*
X93295Y-49656D01*
X91645Y-50706D02*
X91645Y-49856D01*
X92645Y-50706D02*
X92645Y-49856D01*
X89645Y-51106D02*
X89645Y-49456D01*
X94515Y-49837D02*
X94515Y-50062D01*
X94121Y-49949D02*
X94515Y-49949D01*
X94515Y-50156D02*
X94121Y-50418D01*
X94515Y-50418D02*
X94121Y-50156D01*
X94121Y-50568D02*
X94515Y-50568D01*
X94515Y-50662D01*
X94496Y-50718D01*
X94459Y-50756D01*
X94421Y-50774D01*
X94346Y-50793D01*
X94290Y-50793D01*
X94215Y-50774D01*
X94178Y-50756D01*
X94140Y-50718D01*
X94121Y-50662D01*
X94121Y-50568D01*
X93121Y-50118D02*
X93309Y-49987D01*
X93121Y-49893D02*
X93515Y-49893D01*
X93515Y-50043D01*
X93496Y-50081D01*
X93478Y-50099D01*
X93440Y-50118D01*
X93384Y-50118D01*
X93346Y-50099D01*
X93328Y-50081D01*
X93309Y-50043D01*
X93309Y-49893D01*
X93515Y-50249D02*
X93121Y-50512D01*
X93515Y-50512D02*
X93121Y-50249D01*
X93121Y-50662D02*
X93515Y-50662D01*
X93515Y-50756D01*
X93496Y-50812D01*
X93459Y-50849D01*
X93421Y-50868D01*
X93346Y-50887D01*
X93290Y-50887D01*
X93215Y-50868D01*
X93178Y-50849D01*
X93140Y-50812D01*
X93121Y-50756D01*
X93121Y-50662D01*
X92121Y-50118D02*
X92309Y-49987D01*
X92121Y-49893D02*
X92515Y-49893D01*
X92515Y-50043D01*
X92496Y-50081D01*
X92478Y-50099D01*
X92440Y-50118D01*
X92384Y-50118D01*
X92346Y-50099D01*
X92328Y-50081D01*
X92309Y-50043D01*
X92309Y-49893D01*
X92515Y-50231D02*
X92515Y-50456D01*
X92121Y-50343D02*
X92515Y-50343D01*
X92140Y-50568D02*
X92121Y-50624D01*
X92121Y-50718D01*
X92140Y-50756D01*
X92159Y-50774D01*
X92196Y-50793D01*
X92234Y-50793D01*
X92271Y-50774D01*
X92290Y-50756D01*
X92309Y-50718D01*
X92328Y-50643D01*
X92346Y-50606D01*
X92365Y-50587D01*
X92403Y-50568D01*
X92440Y-50568D01*
X92478Y-50587D01*
X92496Y-50606D01*
X92515Y-50643D01*
X92515Y-50737D01*
X92496Y-50793D01*
X91159Y-50118D02*
X91140Y-50099D01*
X91121Y-50043D01*
X91121Y-50006D01*
X91140Y-49949D01*
X91178Y-49912D01*
X91215Y-49893D01*
X91290Y-49874D01*
X91346Y-49874D01*
X91421Y-49893D01*
X91459Y-49912D01*
X91496Y-49949D01*
X91515Y-50006D01*
X91515Y-50043D01*
X91496Y-50099D01*
X91478Y-50118D01*
X91515Y-50231D02*
X91515Y-50456D01*
X91121Y-50343D02*
X91515Y-50343D01*
X91140Y-50568D02*
X91121Y-50624D01*
X91121Y-50718D01*
X91140Y-50756D01*
X91159Y-50774D01*
X91196Y-50793D01*
X91234Y-50793D01*
X91271Y-50774D01*
X91290Y-50756D01*
X91309Y-50718D01*
X91328Y-50643D01*
X91346Y-50606D01*
X91365Y-50587D01*
X91403Y-50568D01*
X91440Y-50568D01*
X91478Y-50587D01*
X91496Y-50606D01*
X91515Y-50643D01*
X91515Y-50737D01*
X91496Y-50793D01*
X90515Y-49437D02*
X90515Y-49662D01*
X90121Y-49549D02*
X90515Y-49549D01*
X90515Y-49756D02*
X90121Y-50018D01*
X90515Y-50018D02*
X90121Y-49756D01*
X90234Y-50449D02*
X90234Y-50637D01*
X90121Y-50412D02*
X90515Y-50543D01*
X90121Y-50674D01*
X90159Y-51031D02*
X90140Y-51012D01*
X90121Y-50956D01*
X90121Y-50918D01*
X90140Y-50862D01*
X90178Y-50824D01*
X90215Y-50806D01*
X90290Y-50787D01*
X90346Y-50787D01*
X90421Y-50806D01*
X90459Y-50824D01*
X90496Y-50862D01*
X90515Y-50918D01*
X90515Y-50956D01*
X90496Y-51012D01*
X90478Y-51031D01*
X90515Y-51143D02*
X90515Y-51368D01*
X90121Y-51256D02*
X90515Y-51256D01*
X89121Y-49718D02*
X89309Y-49587D01*
X89121Y-49493D02*
X89515Y-49493D01*
X89515Y-49643D01*
X89496Y-49681D01*
X89478Y-49699D01*
X89440Y-49718D01*
X89384Y-49718D01*
X89346Y-49699D01*
X89328Y-49681D01*
X89309Y-49643D01*
X89309Y-49493D01*
X89328Y-49887D02*
X89328Y-50018D01*
X89121Y-50074D02*
X89121Y-49887D01*
X89515Y-49887D01*
X89515Y-50074D01*
X89140Y-50224D02*
X89121Y-50281D01*
X89121Y-50374D01*
X89140Y-50412D01*
X89159Y-50431D01*
X89196Y-50449D01*
X89234Y-50449D01*
X89271Y-50431D01*
X89290Y-50412D01*
X89309Y-50374D01*
X89328Y-50299D01*
X89346Y-50262D01*
X89365Y-50243D01*
X89403Y-50224D01*
X89440Y-50224D01*
X89478Y-50243D01*
X89496Y-50262D01*
X89515Y-50299D01*
X89515Y-50393D01*
X89496Y-50449D01*
X89328Y-50618D02*
X89328Y-50749D01*
X89121Y-50806D02*
X89121Y-50618D01*
X89515Y-50618D01*
X89515Y-50806D01*
X89515Y-50918D02*
X89515Y-51143D01*
X89121Y-51031D02*
X89515Y-51031D01*
X88515Y-49493D02*
X88196Y-49493D01*
X88159Y-49512D01*
X88140Y-49531D01*
X88121Y-49568D01*
X88121Y-49643D01*
X88140Y-49681D01*
X88159Y-49699D01*
X88196Y-49718D01*
X88515Y-49718D01*
X88140Y-49887D02*
X88121Y-49943D01*
X88121Y-50037D01*
X88140Y-50074D01*
X88159Y-50093D01*
X88196Y-50112D01*
X88234Y-50112D01*
X88271Y-50093D01*
X88290Y-50074D01*
X88309Y-50037D01*
X88328Y-49962D01*
X88346Y-49924D01*
X88365Y-49906D01*
X88403Y-49887D01*
X88440Y-49887D01*
X88478Y-49906D01*
X88496Y-49924D01*
X88515Y-49962D01*
X88515Y-50056D01*
X88496Y-50112D01*
X88328Y-50412D02*
X88309Y-50468D01*
X88290Y-50487D01*
X88253Y-50506D01*
X88196Y-50506D01*
X88159Y-50487D01*
X88140Y-50468D01*
X88121Y-50431D01*
X88121Y-50281D01*
X88515Y-50281D01*
X88515Y-50412D01*
X88496Y-50449D01*
X88478Y-50468D01*
X88440Y-50487D01*
X88403Y-50487D01*
X88365Y-50468D01*
X88346Y-50449D01*
X88328Y-50412D01*
X88328Y-50281D01*
X88328Y-50974D02*
X88328Y-51106D01*
X88121Y-51162D02*
X88121Y-50974D01*
X88515Y-50974D01*
X88515Y-51162D01*
X88121Y-51555D02*
X88309Y-51424D01*
X88121Y-51331D02*
X88515Y-51331D01*
X88515Y-51480D01*
X88496Y-51518D01*
X88478Y-51537D01*
X88440Y-51555D01*
X88384Y-51555D01*
X88346Y-51537D01*
X88328Y-51518D01*
X88309Y-51480D01*
X88309Y-51331D01*
X88121Y-51949D02*
X88309Y-51818D01*
X88121Y-51724D02*
X88515Y-51724D01*
X88515Y-51874D01*
X88496Y-51912D01*
X88478Y-51930D01*
X88440Y-51949D01*
X88384Y-51949D01*
X88346Y-51930D01*
X88328Y-51912D01*
X88309Y-51874D01*
X88309Y-51724D01*
X87271Y-49493D02*
X87271Y-49793D01*
X87121Y-49643D02*
X87421Y-49643D01*
X87515Y-49943D02*
X87515Y-50187D01*
X87365Y-50056D01*
X87365Y-50112D01*
X87346Y-50149D01*
X87328Y-50168D01*
X87290Y-50187D01*
X87196Y-50187D01*
X87159Y-50168D01*
X87140Y-50149D01*
X87121Y-50112D01*
X87121Y-49999D01*
X87140Y-49962D01*
X87159Y-49943D01*
X87159Y-50356D02*
X87140Y-50374D01*
X87121Y-50356D01*
X87140Y-50337D01*
X87159Y-50356D01*
X87121Y-50356D01*
X87515Y-50506D02*
X87515Y-50749D01*
X87365Y-50618D01*
X87365Y-50674D01*
X87346Y-50712D01*
X87328Y-50731D01*
X87290Y-50749D01*
X87196Y-50749D01*
X87159Y-50731D01*
X87140Y-50712D01*
X87121Y-50674D01*
X87121Y-50562D01*
X87140Y-50524D01*
X87159Y-50506D01*
X87515Y-50862D02*
X87121Y-50993D01*
X87515Y-51124D01*
X86271Y-49493D02*
X86271Y-49793D01*
X86121Y-49643D02*
X86421Y-49643D01*
X86515Y-50168D02*
X86515Y-49981D01*
X86328Y-49962D01*
X86346Y-49981D01*
X86365Y-50018D01*
X86365Y-50112D01*
X86346Y-50149D01*
X86328Y-50168D01*
X86290Y-50187D01*
X86196Y-50187D01*
X86159Y-50168D01*
X86140Y-50149D01*
X86121Y-50112D01*
X86121Y-50018D01*
X86140Y-49981D01*
X86159Y-49962D01*
X86515Y-50299D02*
X86121Y-50431D01*
X86515Y-50562D01*
X85496Y-49699D02*
X85515Y-49662D01*
X85515Y-49606D01*
X85496Y-49549D01*
X85459Y-49512D01*
X85421Y-49493D01*
X85346Y-49474D01*
X85290Y-49474D01*
X85215Y-49493D01*
X85178Y-49512D01*
X85140Y-49549D01*
X85121Y-49606D01*
X85121Y-49643D01*
X85140Y-49699D01*
X85159Y-49718D01*
X85290Y-49718D01*
X85290Y-49643D01*
X85121Y-49887D02*
X85515Y-49887D01*
X85121Y-50112D01*
X85515Y-50112D01*
X85121Y-50299D02*
X85515Y-50299D01*
X85515Y-50393D01*
X85496Y-50449D01*
X85459Y-50487D01*
X85421Y-50506D01*
X85346Y-50524D01*
X85290Y-50524D01*
X85215Y-50506D01*
X85178Y-50487D01*
X85140Y-50449D01*
X85121Y-50393D01*
X85121Y-50299D01*
G54D13*
X81800Y-62200D02*
X81800Y-47800D01*
X97200Y-62200D02*
X81800Y-62200D01*
X97200Y-47800D02*
X97200Y-62200D01*
X81800Y-47800D02*
X97200Y-47800D01*
G54D14*
X89172Y-52037D02*
G75*
G03X89172Y-52037I-50J0D01*
G74*
G01*
X89572Y-52037D02*
X89172Y-52037D01*
X89172Y-52037D02*
X89172Y-51437D01*
X89172Y-51437D02*
X89572Y-51437D01*
X89972Y-51437D02*
X90372Y-51437D01*
X90372Y-51437D02*
X90372Y-52037D01*
X90372Y-52037D02*
X89972Y-52037D01*
X87735Y-58769D02*
G75*
G03X87735Y-58769I-50J0D01*
G74*
G01*
X88135Y-58769D02*
X87735Y-58769D01*
X87735Y-58769D02*
X87735Y-58169D01*
X87735Y-58169D02*
X88135Y-58169D01*
X88535Y-58169D02*
X88935Y-58169D01*
X88935Y-58169D02*
X88935Y-58769D01*
X88935Y-58769D02*
X88535Y-58769D01*
X94400Y-56983D02*
G75*
G03X94400Y-56983I-50J0D01*
G74*
G01*
X93900Y-56983D02*
X94300Y-56983D01*
X94300Y-56983D02*
X94300Y-57583D01*
X94300Y-57583D02*
X93900Y-57583D01*
X93500Y-57583D02*
X93100Y-57583D01*
X93100Y-57583D02*
X93100Y-56983D01*
X93100Y-56983D02*
X93500Y-56983D01*
X94400Y-56097D02*
G75*
G03X94400Y-56097I-50J0D01*
G74*
G01*
X93900Y-56097D02*
X94300Y-56097D01*
X94300Y-56097D02*
X94300Y-56697D01*
X94300Y-56697D02*
X93900Y-56697D01*
X93500Y-56697D02*
X93100Y-56697D01*
X93100Y-56697D02*
X93100Y-56097D01*
X93100Y-56097D02*
X93500Y-56097D01*
X94400Y-53440D02*
G75*
G03X94400Y-53440I-50J0D01*
G74*
G01*
X93900Y-53440D02*
X94300Y-53440D01*
X94300Y-53440D02*
X94300Y-54040D01*
X94300Y-54040D02*
X93900Y-54040D01*
X93500Y-54040D02*
X93100Y-54040D01*
X93100Y-54040D02*
X93100Y-53440D01*
X93100Y-53440D02*
X93500Y-53440D01*
X86038Y-55220D02*
G75*
G03X86038Y-55220I-50J0D01*
G74*
G01*
X85988Y-55670D02*
X85988Y-55270D01*
X85988Y-55270D02*
X86588Y-55270D01*
X86588Y-55270D02*
X86588Y-55670D01*
X86588Y-56070D02*
X86588Y-56470D01*
X86588Y-56470D02*
X85988Y-56470D01*
X85988Y-56470D02*
X85988Y-56070D01*
X83640Y-53414D02*
G75*
G03X83640Y-53414I-50J0D01*
G74*
G01*
X84040Y-53414D02*
X83640Y-53414D01*
X83640Y-53414D02*
X83640Y-52814D01*
X83640Y-52814D02*
X84040Y-52814D01*
X84440Y-52814D02*
X84840Y-52814D01*
X84840Y-52814D02*
X84840Y-53414D01*
X84840Y-53414D02*
X84440Y-53414D01*
X83719Y-59162D02*
G75*
G03X83719Y-59162I-50J0D01*
G74*
G01*
X84119Y-59162D02*
X83719Y-59162D01*
X83719Y-59162D02*
X83719Y-58562D01*
X83719Y-58562D02*
X84119Y-58562D01*
X84519Y-58562D02*
X84919Y-58562D01*
X84919Y-58562D02*
X84919Y-59162D01*
X84919Y-59162D02*
X84519Y-59162D01*
G54D15*
X95550Y-52400D02*
X96450Y-52400D01*
X96450Y-52400D02*
X96450Y-51750D01*
X95550Y-51050D02*
X95550Y-50400D01*
X95550Y-50400D02*
X96450Y-50400D01*
X96450Y-50400D02*
X96450Y-51050D01*
X95550Y-51750D02*
X95550Y-52400D01*
G54D14*
X94400Y-57869D02*
G75*
G03X94400Y-57869I-50J0D01*
G74*
G01*
X93900Y-57869D02*
X94300Y-57869D01*
X94300Y-57869D02*
X94300Y-58469D01*
X94300Y-58469D02*
X93900Y-58469D01*
X93500Y-58469D02*
X93100Y-58469D01*
X93100Y-58469D02*
X93100Y-57869D01*
X93100Y-57869D02*
X93500Y-57869D01*
G54D10*
X94800Y-49300D02*
X84800Y-49300D01*
X84800Y-49300D02*
X84800Y-48300D01*
X84800Y-48300D02*
X94800Y-48300D01*
X94800Y-48300D02*
X94800Y-49300D01*
G54D14*
X94400Y-55211D02*
G75*
G03X94400Y-55211I-50J0D01*
G74*
G01*
X93900Y-55211D02*
X94300Y-55211D01*
X94300Y-55211D02*
X94300Y-55811D01*
X94300Y-55811D02*
X93900Y-55811D01*
X93500Y-55811D02*
X93100Y-55811D01*
X93100Y-55811D02*
X93100Y-55211D01*
X93100Y-55211D02*
X93500Y-55211D01*
X94400Y-54325D02*
G75*
G03X94400Y-54325I-50J0D01*
G74*
G01*
X93900Y-54325D02*
X94300Y-54325D01*
X94300Y-54325D02*
X94300Y-54925D01*
X94300Y-54925D02*
X93900Y-54925D01*
X93500Y-54925D02*
X93100Y-54925D01*
X93100Y-54925D02*
X93100Y-54325D01*
X93100Y-54325D02*
X93500Y-54325D01*
X94389Y-52578D02*
G75*
G03X94389Y-52578I-50J0D01*
G74*
G01*
X93889Y-52578D02*
X94289Y-52578D01*
X94289Y-52578D02*
X94289Y-53178D01*
X94289Y-53178D02*
X93889Y-53178D01*
X93489Y-53178D02*
X93089Y-53178D01*
X93089Y-53178D02*
X93089Y-52578D01*
X93089Y-52578D02*
X93489Y-52578D01*
G54D16*
X83319Y-54778D02*
X83319Y-57278D01*
X85319Y-54778D02*
X85319Y-57278D01*
X84319Y-58278D02*
G75*
G03X85319Y-57278I0J1000D01*
G74*
G01*
X83319Y-57278D02*
G75*
G03X84319Y-58278I1000J0D01*
G74*
G01*
X85319Y-54778D02*
G75*
G03X84319Y-53778I-1000J0D01*
G74*
G01*
X84319Y-53778D02*
G75*
G03X83319Y-54778I0J-1000D01*
G74*
G01*
G54D17*
X91600Y-61000D02*
X92800Y-61000D01*
X92800Y-61000D02*
X92800Y-58200D01*
X92800Y-58200D02*
X91600Y-58200D01*
X90400Y-61000D02*
X90100Y-61000D01*
X90100Y-61000D02*
X89200Y-60400D01*
X89200Y-60400D02*
X89200Y-58800D01*
X89200Y-58800D02*
X90100Y-58200D01*
X90100Y-58200D02*
X90400Y-58200D01*
G54D14*
X87735Y-57824D02*
G75*
G03X87735Y-57824I-50J0D01*
G74*
G01*
X88135Y-57824D02*
X87735Y-57824D01*
X87735Y-57824D02*
X87735Y-57224D01*
X87735Y-57224D02*
X88135Y-57224D01*
X88535Y-57224D02*
X88935Y-57224D01*
X88935Y-57224D02*
X88935Y-57824D01*
X88935Y-57824D02*
X88535Y-57824D01*
X91786Y-53882D02*
G75*
G03X91786Y-53882I-50J0D01*
G74*
G01*
X91736Y-54332D02*
X91736Y-53932D01*
X91736Y-53932D02*
X92336Y-53932D01*
X92336Y-53932D02*
X92336Y-54332D01*
X92336Y-54732D02*
X92336Y-55132D01*
X92336Y-55132D02*
X91736Y-55132D01*
X91736Y-55132D02*
X91736Y-54732D01*
X86638Y-54079D02*
G75*
G03X86638Y-54079I-50J0D01*
G74*
G01*
X86588Y-53629D02*
X86588Y-54029D01*
X86588Y-54029D02*
X85988Y-54029D01*
X85988Y-54029D02*
X85988Y-53629D01*
X85988Y-53229D02*
X85988Y-52829D01*
X85988Y-52829D02*
X86588Y-52829D01*
X86588Y-52829D02*
X86588Y-53229D01*
X89200Y-57800D02*
G75*
G03X89200Y-57800I-50J0D01*
G74*
G01*
X89600Y-57800D02*
X89200Y-57800D01*
X89200Y-57800D02*
X89200Y-57200D01*
X89200Y-57200D02*
X89600Y-57200D01*
X90000Y-57200D02*
X90400Y-57200D01*
X90400Y-57200D02*
X90400Y-57800D01*
X90400Y-57800D02*
X90000Y-57800D01*
G54D10*
X88414Y-53626D02*
G75*
G03X88414Y-53626I-196J0D01*
G74*
G01*
X90540Y-53272D02*
X90540Y-55949D01*
X90540Y-55949D02*
X87862Y-55949D01*
X87862Y-55949D02*
X87862Y-53272D01*
X87862Y-53272D02*
X90540Y-53272D01*
G54D18*
X90367Y-52370D02*
X90357Y-52379D01*
X90329Y-52389D01*
X90310Y-52389D01*
X90282Y-52379D01*
X90263Y-52360D01*
X90254Y-52342D01*
X90245Y-52304D01*
X90245Y-52276D01*
X90254Y-52239D01*
X90263Y-52220D01*
X90282Y-52201D01*
X90310Y-52192D01*
X90329Y-52192D01*
X90357Y-52201D01*
X90367Y-52210D01*
X90554Y-52389D02*
X90442Y-52389D01*
X90498Y-52389D02*
X90498Y-52192D01*
X90479Y-52220D01*
X90460Y-52239D01*
X90442Y-52248D01*
X87528Y-58506D02*
X87538Y-58516D01*
X87547Y-58544D01*
X87547Y-58563D01*
X87538Y-58591D01*
X87519Y-58610D01*
X87500Y-58619D01*
X87462Y-58628D01*
X87434Y-58628D01*
X87397Y-58619D01*
X87378Y-58610D01*
X87359Y-58591D01*
X87350Y-58563D01*
X87350Y-58544D01*
X87359Y-58516D01*
X87369Y-58506D01*
X87369Y-58431D02*
X87359Y-58422D01*
X87350Y-58403D01*
X87350Y-58356D01*
X87359Y-58337D01*
X87369Y-58328D01*
X87387Y-58319D01*
X87406Y-58319D01*
X87434Y-58328D01*
X87547Y-58441D01*
X87547Y-58319D01*
X94570Y-57332D02*
X94579Y-57342D01*
X94589Y-57370D01*
X94589Y-57389D01*
X94579Y-57417D01*
X94560Y-57436D01*
X94542Y-57445D01*
X94504Y-57454D01*
X94476Y-57454D01*
X94439Y-57445D01*
X94420Y-57436D01*
X94401Y-57417D01*
X94392Y-57389D01*
X94392Y-57370D01*
X94401Y-57342D01*
X94410Y-57332D01*
X94392Y-57267D02*
X94392Y-57145D01*
X94467Y-57210D01*
X94467Y-57182D01*
X94476Y-57163D01*
X94485Y-57154D01*
X94504Y-57145D01*
X94551Y-57145D01*
X94570Y-57154D01*
X94579Y-57163D01*
X94589Y-57182D01*
X94589Y-57239D01*
X94579Y-57257D01*
X94570Y-57267D01*
X94570Y-56432D02*
X94579Y-56442D01*
X94589Y-56470D01*
X94589Y-56489D01*
X94579Y-56517D01*
X94560Y-56536D01*
X94542Y-56545D01*
X94504Y-56554D01*
X94476Y-56554D01*
X94439Y-56545D01*
X94420Y-56536D01*
X94401Y-56517D01*
X94392Y-56489D01*
X94392Y-56470D01*
X94401Y-56442D01*
X94410Y-56432D01*
X94457Y-56263D02*
X94589Y-56263D01*
X94382Y-56310D02*
X94523Y-56357D01*
X94523Y-56235D01*
X94570Y-53732D02*
X94579Y-53742D01*
X94589Y-53770D01*
X94589Y-53789D01*
X94579Y-53817D01*
X94560Y-53836D01*
X94542Y-53845D01*
X94504Y-53854D01*
X94476Y-53854D01*
X94439Y-53845D01*
X94420Y-53836D01*
X94401Y-53817D01*
X94392Y-53789D01*
X94392Y-53770D01*
X94401Y-53742D01*
X94410Y-53732D01*
X94392Y-53554D02*
X94392Y-53648D01*
X94485Y-53657D01*
X94476Y-53648D01*
X94467Y-53629D01*
X94467Y-53582D01*
X94476Y-53563D01*
X94485Y-53554D01*
X94504Y-53545D01*
X94551Y-53545D01*
X94570Y-53554D01*
X94579Y-53563D01*
X94589Y-53582D01*
X94589Y-53629D01*
X94579Y-53648D01*
X94570Y-53657D01*
X85855Y-56282D02*
X85864Y-56291D01*
X85874Y-56319D01*
X85874Y-56338D01*
X85864Y-56366D01*
X85846Y-56385D01*
X85827Y-56395D01*
X85789Y-56404D01*
X85761Y-56404D01*
X85724Y-56395D01*
X85705Y-56385D01*
X85686Y-56366D01*
X85677Y-56338D01*
X85677Y-56319D01*
X85686Y-56291D01*
X85695Y-56282D01*
X85677Y-56113D02*
X85677Y-56151D01*
X85686Y-56169D01*
X85695Y-56179D01*
X85724Y-56198D01*
X85761Y-56207D01*
X85836Y-56207D01*
X85855Y-56198D01*
X85864Y-56188D01*
X85874Y-56169D01*
X85874Y-56132D01*
X85864Y-56113D01*
X85855Y-56104D01*
X85836Y-56094D01*
X85789Y-56094D01*
X85770Y-56104D01*
X85761Y-56113D01*
X85752Y-56132D01*
X85752Y-56169D01*
X85761Y-56188D01*
X85770Y-56198D01*
X85789Y-56207D01*
X83735Y-52634D02*
X83726Y-52643D01*
X83698Y-52652D01*
X83679Y-52652D01*
X83651Y-52643D01*
X83632Y-52624D01*
X83623Y-52605D01*
X83613Y-52568D01*
X83613Y-52540D01*
X83623Y-52502D01*
X83632Y-52484D01*
X83651Y-52465D01*
X83679Y-52455D01*
X83698Y-52455D01*
X83726Y-52465D01*
X83735Y-52474D01*
X83801Y-52455D02*
X83932Y-52455D01*
X83848Y-52652D01*
X83893Y-59563D02*
X83883Y-59572D01*
X83855Y-59582D01*
X83836Y-59582D01*
X83808Y-59572D01*
X83789Y-59553D01*
X83780Y-59535D01*
X83771Y-59497D01*
X83771Y-59469D01*
X83780Y-59431D01*
X83789Y-59413D01*
X83808Y-59394D01*
X83836Y-59385D01*
X83855Y-59385D01*
X83883Y-59394D01*
X83893Y-59403D01*
X84005Y-59469D02*
X83986Y-59460D01*
X83977Y-59450D01*
X83968Y-59431D01*
X83968Y-59422D01*
X83977Y-59403D01*
X83986Y-59394D01*
X84005Y-59385D01*
X84043Y-59385D01*
X84062Y-59394D01*
X84071Y-59403D01*
X84080Y-59422D01*
X84080Y-59431D01*
X84071Y-59450D01*
X84062Y-59460D01*
X84043Y-59469D01*
X84005Y-59469D01*
X83986Y-59478D01*
X83977Y-59488D01*
X83968Y-59506D01*
X83968Y-59544D01*
X83977Y-59563D01*
X83986Y-59572D01*
X84005Y-59582D01*
X84043Y-59582D01*
X84062Y-59572D01*
X84071Y-59563D01*
X84080Y-59544D01*
X84080Y-59506D01*
X84071Y-59488D01*
X84062Y-59478D01*
X84043Y-59469D01*
G54D15*
X95578Y-50235D02*
X95578Y-49935D01*
X95650Y-49935D01*
X95692Y-49950D01*
X95721Y-49978D01*
X95735Y-50007D01*
X95750Y-50064D01*
X95750Y-50107D01*
X95735Y-50164D01*
X95721Y-50192D01*
X95692Y-50221D01*
X95650Y-50235D01*
X95578Y-50235D01*
X96035Y-50235D02*
X95864Y-50235D01*
X95950Y-50235D02*
X95950Y-49935D01*
X95921Y-49978D01*
X95892Y-50007D01*
X95864Y-50021D01*
G54D18*
X94485Y-58364D02*
X94485Y-58429D01*
X94589Y-58429D02*
X94392Y-58429D01*
X94392Y-58336D01*
X94485Y-58195D02*
X94495Y-58167D01*
X94504Y-58157D01*
X94523Y-58148D01*
X94551Y-58148D01*
X94570Y-58157D01*
X94579Y-58167D01*
X94589Y-58185D01*
X94589Y-58260D01*
X94392Y-58260D01*
X94392Y-58195D01*
X94401Y-58176D01*
X94410Y-58167D01*
X94429Y-58157D01*
X94448Y-58157D01*
X94467Y-58167D01*
X94476Y-58176D01*
X94485Y-58195D01*
X94485Y-58260D01*
X94589Y-57960D02*
X94589Y-58073D01*
X94589Y-58017D02*
X94392Y-58017D01*
X94420Y-58035D01*
X94439Y-58054D01*
X94448Y-58073D01*
G54D19*
X95930Y-57313D02*
X95930Y-57742D01*
X95902Y-57828D01*
X95844Y-57885D01*
X95759Y-57913D01*
X95702Y-57913D01*
X96530Y-57913D02*
X96187Y-57913D01*
X96359Y-57913D02*
X96359Y-57313D01*
X96302Y-57399D01*
X96244Y-57456D01*
X96187Y-57485D01*
G54D18*
X94589Y-55532D02*
X94495Y-55598D01*
X94589Y-55645D02*
X94392Y-55645D01*
X94392Y-55570D01*
X94401Y-55551D01*
X94410Y-55542D01*
X94429Y-55532D01*
X94457Y-55532D01*
X94476Y-55542D01*
X94485Y-55551D01*
X94495Y-55570D01*
X94495Y-55645D01*
X94589Y-55345D02*
X94589Y-55457D01*
X94589Y-55401D02*
X94392Y-55401D01*
X94420Y-55420D01*
X94439Y-55439D01*
X94448Y-55457D01*
X94589Y-54632D02*
X94495Y-54698D01*
X94589Y-54745D02*
X94392Y-54745D01*
X94392Y-54670D01*
X94401Y-54651D01*
X94410Y-54642D01*
X94429Y-54632D01*
X94457Y-54632D01*
X94476Y-54642D01*
X94485Y-54651D01*
X94495Y-54670D01*
X94495Y-54745D01*
X94410Y-54557D02*
X94401Y-54548D01*
X94392Y-54529D01*
X94392Y-54482D01*
X94401Y-54463D01*
X94410Y-54454D01*
X94429Y-54445D01*
X94448Y-54445D01*
X94476Y-54454D01*
X94589Y-54567D01*
X94589Y-54445D01*
X94589Y-52932D02*
X94495Y-52998D01*
X94589Y-53045D02*
X94392Y-53045D01*
X94392Y-52970D01*
X94401Y-52951D01*
X94410Y-52942D01*
X94429Y-52932D01*
X94457Y-52932D01*
X94476Y-52942D01*
X94485Y-52951D01*
X94495Y-52970D01*
X94495Y-53045D01*
X94392Y-52867D02*
X94392Y-52745D01*
X94467Y-52810D01*
X94467Y-52782D01*
X94476Y-52763D01*
X94485Y-52754D01*
X94504Y-52745D01*
X94551Y-52745D01*
X94570Y-52754D01*
X94579Y-52763D01*
X94589Y-52782D01*
X94589Y-52839D01*
X94579Y-52857D01*
X94570Y-52867D01*
G54D19*
X82613Y-58679D02*
X83213Y-58279D01*
X82613Y-58279D02*
X83213Y-58679D01*
X83213Y-57736D02*
X83213Y-58079D01*
X83213Y-57907D02*
X82613Y-57907D01*
X82698Y-57965D01*
X82756Y-58022D01*
X82784Y-58079D01*
G54D17*
X92995Y-60280D02*
X92995Y-60604D01*
X93014Y-60642D01*
X93033Y-60661D01*
X93071Y-60680D01*
X93147Y-60680D01*
X93185Y-60661D01*
X93204Y-60642D01*
X93223Y-60604D01*
X93223Y-60280D01*
X93623Y-60680D02*
X93395Y-60680D01*
X93509Y-60680D02*
X93509Y-60280D01*
X93471Y-60338D01*
X93433Y-60376D01*
X93395Y-60395D01*
G54D18*
X87528Y-57561D02*
X87538Y-57571D01*
X87547Y-57599D01*
X87547Y-57618D01*
X87538Y-57646D01*
X87519Y-57665D01*
X87500Y-57674D01*
X87462Y-57683D01*
X87434Y-57683D01*
X87397Y-57674D01*
X87378Y-57665D01*
X87359Y-57646D01*
X87350Y-57618D01*
X87350Y-57599D01*
X87359Y-57571D01*
X87369Y-57561D01*
X87547Y-57468D02*
X87547Y-57430D01*
X87538Y-57411D01*
X87528Y-57402D01*
X87500Y-57383D01*
X87462Y-57374D01*
X87387Y-57374D01*
X87369Y-57383D01*
X87359Y-57393D01*
X87350Y-57411D01*
X87350Y-57449D01*
X87359Y-57468D01*
X87369Y-57477D01*
X87387Y-57486D01*
X87434Y-57486D01*
X87453Y-57477D01*
X87462Y-57468D01*
X87472Y-57449D01*
X87472Y-57411D01*
X87462Y-57393D01*
X87453Y-57383D01*
X87434Y-57374D01*
X91839Y-53741D02*
X91830Y-53750D01*
X91801Y-53759D01*
X91783Y-53759D01*
X91755Y-53750D01*
X91736Y-53731D01*
X91726Y-53713D01*
X91717Y-53675D01*
X91717Y-53647D01*
X91726Y-53609D01*
X91736Y-53591D01*
X91755Y-53572D01*
X91783Y-53562D01*
X91801Y-53562D01*
X91830Y-53572D01*
X91839Y-53581D01*
X92027Y-53759D02*
X91914Y-53759D01*
X91970Y-53759D02*
X91970Y-53562D01*
X91952Y-53591D01*
X91933Y-53609D01*
X91914Y-53619D01*
X92149Y-53562D02*
X92167Y-53562D01*
X92186Y-53572D01*
X92195Y-53581D01*
X92205Y-53600D01*
X92214Y-53638D01*
X92214Y-53684D01*
X92205Y-53722D01*
X92195Y-53741D01*
X92186Y-53750D01*
X92167Y-53759D01*
X92149Y-53759D01*
X92130Y-53750D01*
X92120Y-53741D01*
X92111Y-53722D01*
X92102Y-53684D01*
X92102Y-53638D01*
X92111Y-53600D01*
X92120Y-53581D01*
X92130Y-53572D01*
X92149Y-53562D01*
X85776Y-53266D02*
X85786Y-53275D01*
X85795Y-53303D01*
X85795Y-53322D01*
X85786Y-53350D01*
X85767Y-53369D01*
X85748Y-53378D01*
X85710Y-53387D01*
X85682Y-53387D01*
X85645Y-53378D01*
X85626Y-53369D01*
X85607Y-53350D01*
X85598Y-53322D01*
X85598Y-53303D01*
X85607Y-53275D01*
X85617Y-53266D01*
X85795Y-53078D02*
X85795Y-53190D01*
X85795Y-53134D02*
X85598Y-53134D01*
X85626Y-53153D01*
X85645Y-53172D01*
X85654Y-53190D01*
X85795Y-52890D02*
X85795Y-53003D01*
X85795Y-52947D02*
X85598Y-52947D01*
X85626Y-52965D01*
X85645Y-52984D01*
X85654Y-53003D01*
X89767Y-57464D02*
X89701Y-57370D01*
X89654Y-57464D02*
X89654Y-57267D01*
X89729Y-57267D01*
X89748Y-57276D01*
X89757Y-57285D01*
X89767Y-57304D01*
X89767Y-57332D01*
X89757Y-57351D01*
X89748Y-57360D01*
X89729Y-57370D01*
X89654Y-57370D01*
X89936Y-57332D02*
X89936Y-57464D01*
X89889Y-57257D02*
X89842Y-57398D01*
X89964Y-57398D01*
G54D10*
X86426Y-54910D02*
X86745Y-54910D01*
X86783Y-54892D01*
X86801Y-54873D01*
X86820Y-54835D01*
X86820Y-54761D01*
X86801Y-54723D01*
X86783Y-54704D01*
X86745Y-54686D01*
X86426Y-54686D01*
X86464Y-54517D02*
X86445Y-54498D01*
X86426Y-54461D01*
X86426Y-54367D01*
X86445Y-54329D01*
X86464Y-54311D01*
X86501Y-54292D01*
X86539Y-54292D01*
X86595Y-54311D01*
X86820Y-54536D01*
X86820Y-54292D01*
M02*
