G04 (created by PCBNEW (2013-mar-13)-testing) date Sun 09 Jun 2013 10:00:26 PM EDT*
%MOIN*%
G04 Gerber Fmt 3.4, Leading zero omitted, Abs format*
%FSLAX34Y34*%
G01*
G70*
G90*
G04 APERTURE LIST*
%ADD10C,0.005906*%
%ADD11C,0.007874*%
%ADD12C,0.003937*%
G04 APERTURE END LIST*
G54D10*
G54D11*
X96286Y-56078D02*
X96286Y-55684D01*
X96117Y-56078D02*
X96117Y-55871D01*
X96136Y-55834D01*
X96174Y-55815D01*
X96230Y-55815D01*
X96267Y-55834D01*
X96286Y-55853D01*
X95986Y-55815D02*
X95836Y-55815D01*
X95930Y-55684D02*
X95930Y-56021D01*
X95911Y-56059D01*
X95874Y-56078D01*
X95836Y-56078D01*
X95761Y-55815D02*
X95611Y-55815D01*
X95705Y-55684D02*
X95705Y-56021D01*
X95686Y-56059D01*
X95649Y-56078D01*
X95611Y-56078D01*
X95480Y-55815D02*
X95480Y-56209D01*
X95480Y-55834D02*
X95443Y-55815D01*
X95368Y-55815D01*
X95330Y-55834D01*
X95311Y-55853D01*
X95293Y-55890D01*
X95293Y-56003D01*
X95311Y-56040D01*
X95330Y-56059D01*
X95368Y-56078D01*
X95443Y-56078D01*
X95480Y-56059D01*
X95143Y-56059D02*
X95105Y-56078D01*
X95030Y-56078D01*
X94993Y-56059D01*
X94974Y-56021D01*
X94974Y-56003D01*
X94993Y-55965D01*
X95030Y-55946D01*
X95086Y-55946D01*
X95124Y-55928D01*
X95143Y-55890D01*
X95143Y-55871D01*
X95124Y-55834D01*
X95086Y-55815D01*
X95030Y-55815D01*
X94993Y-55834D01*
X94805Y-56040D02*
X94786Y-56059D01*
X94805Y-56078D01*
X94824Y-56059D01*
X94805Y-56040D01*
X94805Y-56078D01*
X94805Y-55834D02*
X94786Y-55853D01*
X94805Y-55871D01*
X94824Y-55853D01*
X94805Y-55834D01*
X94805Y-55871D01*
X94336Y-55665D02*
X94674Y-56171D01*
X93924Y-55665D02*
X94261Y-56171D01*
X93624Y-55815D02*
X93624Y-56134D01*
X93643Y-56171D01*
X93661Y-56190D01*
X93699Y-56209D01*
X93755Y-56209D01*
X93793Y-56190D01*
X93624Y-56059D02*
X93661Y-56078D01*
X93736Y-56078D01*
X93774Y-56059D01*
X93793Y-56040D01*
X93811Y-56003D01*
X93811Y-55890D01*
X93793Y-55853D01*
X93774Y-55834D01*
X93736Y-55815D01*
X93661Y-55815D01*
X93624Y-55834D01*
X93437Y-56078D02*
X93437Y-55815D01*
X93437Y-55684D02*
X93455Y-55703D01*
X93437Y-55721D01*
X93418Y-55703D01*
X93437Y-55684D01*
X93437Y-55721D01*
X93305Y-55815D02*
X93155Y-55815D01*
X93249Y-55684D02*
X93249Y-56021D01*
X93230Y-56059D01*
X93193Y-56078D01*
X93155Y-56078D01*
X93024Y-56078D02*
X93024Y-55684D01*
X92855Y-56078D02*
X92855Y-55871D01*
X92874Y-55834D01*
X92912Y-55815D01*
X92968Y-55815D01*
X93005Y-55834D01*
X93024Y-55853D01*
X92499Y-55815D02*
X92499Y-56078D01*
X92668Y-55815D02*
X92668Y-56021D01*
X92649Y-56059D01*
X92612Y-56078D01*
X92555Y-56078D01*
X92518Y-56059D01*
X92499Y-56040D01*
X92312Y-56078D02*
X92312Y-55684D01*
X92312Y-55834D02*
X92274Y-55815D01*
X92199Y-55815D01*
X92162Y-55834D01*
X92143Y-55853D01*
X92124Y-55890D01*
X92124Y-56003D01*
X92143Y-56040D01*
X92162Y-56059D01*
X92199Y-56078D01*
X92274Y-56078D01*
X92312Y-56059D01*
X91955Y-56040D02*
X91937Y-56059D01*
X91955Y-56078D01*
X91974Y-56059D01*
X91955Y-56040D01*
X91955Y-56078D01*
X91599Y-56059D02*
X91637Y-56078D01*
X91712Y-56078D01*
X91749Y-56059D01*
X91768Y-56040D01*
X91787Y-56003D01*
X91787Y-55890D01*
X91768Y-55853D01*
X91749Y-55834D01*
X91712Y-55815D01*
X91637Y-55815D01*
X91599Y-55834D01*
X91374Y-56078D02*
X91412Y-56059D01*
X91431Y-56040D01*
X91449Y-56003D01*
X91449Y-55890D01*
X91431Y-55853D01*
X91412Y-55834D01*
X91374Y-55815D01*
X91318Y-55815D01*
X91281Y-55834D01*
X91262Y-55853D01*
X91243Y-55890D01*
X91243Y-56003D01*
X91262Y-56040D01*
X91281Y-56059D01*
X91318Y-56078D01*
X91374Y-56078D01*
X91074Y-56078D02*
X91074Y-55815D01*
X91074Y-55853D02*
X91056Y-55834D01*
X91018Y-55815D01*
X90962Y-55815D01*
X90924Y-55834D01*
X90906Y-55871D01*
X90906Y-56078D01*
X90906Y-55871D02*
X90887Y-55834D01*
X90849Y-55815D01*
X90793Y-55815D01*
X90756Y-55834D01*
X90737Y-55871D01*
X90737Y-56078D01*
X90268Y-55665D02*
X90606Y-56171D01*
X90137Y-55815D02*
X90137Y-56153D01*
X90156Y-56190D01*
X90193Y-56209D01*
X90212Y-56209D01*
X90137Y-55684D02*
X90156Y-55703D01*
X90137Y-55721D01*
X90118Y-55703D01*
X90137Y-55684D01*
X90137Y-55721D01*
X89893Y-56078D02*
X89931Y-56059D01*
X89949Y-56040D01*
X89968Y-56003D01*
X89968Y-55890D01*
X89949Y-55853D01*
X89931Y-55834D01*
X89893Y-55815D01*
X89837Y-55815D01*
X89799Y-55834D01*
X89781Y-55853D01*
X89762Y-55890D01*
X89762Y-56003D01*
X89781Y-56040D01*
X89799Y-56059D01*
X89837Y-56078D01*
X89893Y-56078D01*
X89443Y-56059D02*
X89481Y-56078D01*
X89556Y-56078D01*
X89593Y-56059D01*
X89612Y-56021D01*
X89612Y-55871D01*
X89593Y-55834D01*
X89556Y-55815D01*
X89481Y-55815D01*
X89443Y-55834D01*
X89425Y-55871D01*
X89425Y-55909D01*
X89612Y-55946D01*
X89312Y-55815D02*
X89162Y-55815D01*
X89256Y-56078D02*
X89256Y-55740D01*
X89237Y-55703D01*
X89200Y-55684D01*
X89162Y-55684D01*
X88881Y-56059D02*
X88918Y-56078D01*
X88993Y-56078D01*
X89031Y-56059D01*
X89050Y-56021D01*
X89050Y-55871D01*
X89031Y-55834D01*
X88993Y-55815D01*
X88918Y-55815D01*
X88881Y-55834D01*
X88862Y-55871D01*
X88862Y-55909D01*
X89050Y-55946D01*
X88693Y-56078D02*
X88693Y-55815D01*
X88693Y-55890D02*
X88675Y-55853D01*
X88656Y-55834D01*
X88618Y-55815D01*
X88581Y-55815D01*
X88450Y-55815D02*
X88450Y-56078D01*
X88450Y-55853D02*
X88431Y-55834D01*
X88393Y-55815D01*
X88337Y-55815D01*
X88300Y-55834D01*
X88281Y-55871D01*
X88281Y-56078D01*
X87943Y-56059D02*
X87981Y-56078D01*
X88056Y-56078D01*
X88093Y-56059D01*
X88112Y-56021D01*
X88112Y-55871D01*
X88093Y-55834D01*
X88056Y-55815D01*
X87981Y-55815D01*
X87943Y-55834D01*
X87925Y-55871D01*
X87925Y-55909D01*
X88112Y-55946D01*
X87756Y-56078D02*
X87756Y-55815D01*
X87756Y-55890D02*
X87737Y-55853D01*
X87718Y-55834D01*
X87681Y-55815D01*
X87643Y-55815D01*
X87231Y-55665D02*
X87568Y-56171D01*
X87100Y-56078D02*
X87100Y-55684D01*
X87100Y-55834D02*
X87062Y-55815D01*
X86987Y-55815D01*
X86950Y-55834D01*
X86931Y-55853D01*
X86912Y-55890D01*
X86912Y-56003D01*
X86931Y-56040D01*
X86950Y-56059D01*
X86987Y-56078D01*
X87062Y-56078D01*
X87100Y-56059D01*
X86744Y-56078D02*
X86744Y-55815D01*
X86744Y-55890D02*
X86725Y-55853D01*
X86706Y-55834D01*
X86669Y-55815D01*
X86631Y-55815D01*
X86350Y-56059D02*
X86387Y-56078D01*
X86462Y-56078D01*
X86500Y-56059D01*
X86519Y-56021D01*
X86519Y-55871D01*
X86500Y-55834D01*
X86462Y-55815D01*
X86387Y-55815D01*
X86350Y-55834D01*
X86331Y-55871D01*
X86331Y-55909D01*
X86519Y-55946D01*
X85994Y-56078D02*
X85994Y-55871D01*
X86012Y-55834D01*
X86050Y-55815D01*
X86125Y-55815D01*
X86162Y-55834D01*
X85994Y-56059D02*
X86031Y-56078D01*
X86125Y-56078D01*
X86162Y-56059D01*
X86181Y-56021D01*
X86181Y-55984D01*
X86162Y-55946D01*
X86125Y-55928D01*
X86031Y-55928D01*
X85994Y-55909D01*
X85806Y-56078D02*
X85806Y-55684D01*
X85769Y-55928D02*
X85656Y-56078D01*
X85656Y-55815D02*
X85806Y-55965D01*
X85431Y-56078D02*
X85469Y-56059D01*
X85488Y-56040D01*
X85506Y-56003D01*
X85506Y-55890D01*
X85488Y-55853D01*
X85469Y-55834D01*
X85431Y-55815D01*
X85375Y-55815D01*
X85338Y-55834D01*
X85319Y-55853D01*
X85300Y-55890D01*
X85300Y-56003D01*
X85319Y-56040D01*
X85338Y-56059D01*
X85375Y-56078D01*
X85431Y-56078D01*
X84963Y-55815D02*
X84963Y-56078D01*
X85131Y-55815D02*
X85131Y-56021D01*
X85113Y-56059D01*
X85075Y-56078D01*
X85019Y-56078D01*
X84981Y-56059D01*
X84963Y-56040D01*
X84831Y-55815D02*
X84681Y-55815D01*
X84775Y-55684D02*
X84775Y-56021D01*
X84756Y-56059D01*
X84719Y-56078D01*
X84681Y-56078D01*
X84419Y-55871D02*
X84363Y-55890D01*
X84344Y-55909D01*
X84325Y-55946D01*
X84325Y-56003D01*
X84344Y-56040D01*
X84363Y-56059D01*
X84400Y-56078D01*
X84550Y-56078D01*
X84550Y-55684D01*
X84419Y-55684D01*
X84381Y-55703D01*
X84363Y-55721D01*
X84344Y-55759D01*
X84344Y-55796D01*
X84363Y-55834D01*
X84381Y-55853D01*
X84419Y-55871D01*
X84550Y-55871D01*
X84100Y-56078D02*
X84138Y-56059D01*
X84156Y-56040D01*
X84175Y-56003D01*
X84175Y-55890D01*
X84156Y-55853D01*
X84138Y-55834D01*
X84100Y-55815D01*
X84044Y-55815D01*
X84006Y-55834D01*
X83988Y-55853D01*
X83969Y-55890D01*
X83969Y-56003D01*
X83988Y-56040D01*
X84006Y-56059D01*
X84044Y-56078D01*
X84100Y-56078D01*
X83631Y-56078D02*
X83631Y-55871D01*
X83650Y-55834D01*
X83688Y-55815D01*
X83763Y-55815D01*
X83800Y-55834D01*
X83631Y-56059D02*
X83669Y-56078D01*
X83763Y-56078D01*
X83800Y-56059D01*
X83819Y-56021D01*
X83819Y-55984D01*
X83800Y-55946D01*
X83763Y-55928D01*
X83669Y-55928D01*
X83631Y-55909D01*
X83444Y-56078D02*
X83444Y-55815D01*
X83444Y-55890D02*
X83425Y-55853D01*
X83407Y-55834D01*
X83369Y-55815D01*
X83332Y-55815D01*
X83032Y-56078D02*
X83032Y-55684D01*
X83032Y-56059D02*
X83069Y-56078D01*
X83144Y-56078D01*
X83182Y-56059D01*
X83200Y-56040D01*
X83219Y-56003D01*
X83219Y-55890D01*
X83200Y-55853D01*
X83182Y-55834D01*
X83144Y-55815D01*
X83069Y-55815D01*
X83032Y-55834D01*
X82863Y-56059D02*
X82825Y-56078D01*
X82750Y-56078D01*
X82713Y-56059D01*
X82694Y-56021D01*
X82694Y-56003D01*
X82713Y-55965D01*
X82750Y-55946D01*
X82807Y-55946D01*
X82844Y-55928D01*
X82863Y-55890D01*
X82863Y-55871D01*
X82844Y-55834D01*
X82807Y-55815D01*
X82750Y-55815D01*
X82713Y-55834D01*
G54D12*
X81800Y-62200D02*
X81800Y-47800D01*
X97200Y-62200D02*
X81800Y-62200D01*
X97200Y-47800D02*
X97200Y-62200D01*
X81800Y-47800D02*
X97200Y-47800D01*
M02*
