G04 (created by PCBNEW (2013-mar-13)-testing) date Sun 09 Jun 2013 10:00:26 PM EDT*
%MOIN*%
G04 Gerber Fmt 3.4, Leading zero omitted, Abs format*
%FSLAX34Y34*%
G01*
G70*
G90*
G04 APERTURE LIST*
%ADD10C,0.005906*%
%ADD11C,0.003937*%
%ADD12R,0.060000X0.060000*%
%ADD13C,0.060000*%
%ADD14C,0.125000*%
%ADD15C,0.056000*%
%ADD16C,0.035000*%
%ADD17C,0.010000*%
%ADD18C,0.008000*%
G04 APERTURE END LIST*
G54D10*
G54D11*
X81800Y-62200D02*
X81800Y-47800D01*
X97200Y-62200D02*
X81800Y-62200D01*
X97200Y-47800D02*
X97200Y-62200D01*
X81800Y-47800D02*
X97200Y-47800D01*
G54D12*
X94300Y-48800D03*
G54D13*
X93300Y-48800D03*
X92300Y-48800D03*
X91300Y-48800D03*
X90300Y-48800D03*
X89300Y-48800D03*
X88300Y-48800D03*
X87300Y-48800D03*
X86300Y-48800D03*
X85300Y-48800D03*
G54D14*
X96000Y-49000D03*
X83000Y-49000D03*
X96000Y-61000D03*
X83000Y-61000D03*
G54D15*
X84319Y-55028D03*
X84319Y-57028D03*
G54D16*
X89500Y-58200D03*
X94800Y-54200D03*
X88591Y-59217D03*
X86327Y-52425D03*
X86229Y-56855D03*
X92725Y-54788D03*
X89772Y-52327D03*
G54D17*
X89300Y-58000D02*
X89300Y-48800D01*
X89500Y-58200D02*
X89300Y-58000D01*
G54D10*
G36*
X96960Y-61960D02*
X96765Y-61960D01*
X96765Y-60848D01*
X96765Y-48848D01*
X96648Y-48567D01*
X96433Y-48351D01*
X96152Y-48235D01*
X95848Y-48234D01*
X95567Y-48351D01*
X95351Y-48566D01*
X95235Y-48847D01*
X95234Y-49151D01*
X95351Y-49432D01*
X95566Y-49648D01*
X95847Y-49764D01*
X96151Y-49765D01*
X96432Y-49648D01*
X96648Y-49433D01*
X96764Y-49152D01*
X96765Y-48848D01*
X96765Y-60848D01*
X96648Y-60567D01*
X96433Y-60351D01*
X96152Y-60235D01*
X95848Y-60234D01*
X95567Y-60351D01*
X95351Y-60566D01*
X95235Y-60847D01*
X95234Y-61151D01*
X95351Y-61432D01*
X95566Y-61648D01*
X95847Y-61764D01*
X96151Y-61765D01*
X96432Y-61648D01*
X96648Y-61433D01*
X96764Y-61152D01*
X96765Y-60848D01*
X96765Y-61960D01*
X94740Y-61960D01*
X94740Y-49127D01*
X94740Y-49072D01*
X94740Y-48472D01*
X94718Y-48420D01*
X94679Y-48381D01*
X94627Y-48360D01*
X94572Y-48360D01*
X93972Y-48360D01*
X93920Y-48381D01*
X93881Y-48420D01*
X93860Y-48472D01*
X93860Y-48527D01*
X93860Y-49127D01*
X93881Y-49179D01*
X93920Y-49218D01*
X93972Y-49240D01*
X94027Y-49240D01*
X94627Y-49240D01*
X94679Y-49218D01*
X94718Y-49179D01*
X94740Y-49127D01*
X94740Y-61960D01*
X93740Y-61960D01*
X93740Y-48712D01*
X93673Y-48551D01*
X93549Y-48427D01*
X93387Y-48360D01*
X93212Y-48359D01*
X93051Y-48426D01*
X92927Y-48550D01*
X92860Y-48712D01*
X92859Y-48887D01*
X92926Y-49048D01*
X93050Y-49172D01*
X93212Y-49239D01*
X93387Y-49240D01*
X93548Y-49173D01*
X93672Y-49049D01*
X93739Y-48887D01*
X93740Y-48712D01*
X93740Y-61960D01*
X92740Y-61960D01*
X92740Y-48712D01*
X92673Y-48551D01*
X92549Y-48427D01*
X92387Y-48360D01*
X92212Y-48359D01*
X92051Y-48426D01*
X91927Y-48550D01*
X91860Y-48712D01*
X91859Y-48887D01*
X91926Y-49048D01*
X92050Y-49172D01*
X92212Y-49239D01*
X92387Y-49240D01*
X92548Y-49173D01*
X92672Y-49049D01*
X92739Y-48887D01*
X92740Y-48712D01*
X92740Y-61960D01*
X91740Y-61960D01*
X91740Y-48712D01*
X91673Y-48551D01*
X91549Y-48427D01*
X91387Y-48360D01*
X91212Y-48359D01*
X91051Y-48426D01*
X90927Y-48550D01*
X90860Y-48712D01*
X90859Y-48887D01*
X90926Y-49048D01*
X91050Y-49172D01*
X91212Y-49239D01*
X91387Y-49240D01*
X91548Y-49173D01*
X91672Y-49049D01*
X91739Y-48887D01*
X91740Y-48712D01*
X91740Y-61960D01*
X90740Y-61960D01*
X90740Y-48712D01*
X90673Y-48551D01*
X90549Y-48427D01*
X90387Y-48360D01*
X90212Y-48359D01*
X90051Y-48426D01*
X89927Y-48550D01*
X89860Y-48712D01*
X89859Y-48887D01*
X89926Y-49048D01*
X90050Y-49172D01*
X90212Y-49239D01*
X90387Y-49240D01*
X90548Y-49173D01*
X90672Y-49049D01*
X90739Y-48887D01*
X90740Y-48712D01*
X90740Y-61960D01*
X89815Y-61960D01*
X89815Y-58137D01*
X89767Y-58021D01*
X89678Y-57933D01*
X89562Y-57885D01*
X89490Y-57884D01*
X89490Y-49197D01*
X89548Y-49173D01*
X89672Y-49049D01*
X89739Y-48887D01*
X89740Y-48712D01*
X89673Y-48551D01*
X89549Y-48427D01*
X89387Y-48360D01*
X89212Y-48359D01*
X89051Y-48426D01*
X88927Y-48550D01*
X88860Y-48712D01*
X88859Y-48887D01*
X88926Y-49048D01*
X89050Y-49172D01*
X89110Y-49197D01*
X89110Y-58000D01*
X89124Y-58072D01*
X89165Y-58134D01*
X89185Y-58153D01*
X89184Y-58262D01*
X89232Y-58378D01*
X89321Y-58466D01*
X89437Y-58514D01*
X89562Y-58515D01*
X89678Y-58467D01*
X89766Y-58378D01*
X89814Y-58262D01*
X89815Y-58137D01*
X89815Y-61960D01*
X88740Y-61960D01*
X88740Y-48712D01*
X88673Y-48551D01*
X88549Y-48427D01*
X88387Y-48360D01*
X88212Y-48359D01*
X88051Y-48426D01*
X87927Y-48550D01*
X87860Y-48712D01*
X87859Y-48887D01*
X87926Y-49048D01*
X88050Y-49172D01*
X88212Y-49239D01*
X88387Y-49240D01*
X88548Y-49173D01*
X88672Y-49049D01*
X88739Y-48887D01*
X88740Y-48712D01*
X88740Y-61960D01*
X87740Y-61960D01*
X87740Y-48712D01*
X87673Y-48551D01*
X87549Y-48427D01*
X87387Y-48360D01*
X87212Y-48359D01*
X87051Y-48426D01*
X86927Y-48550D01*
X86860Y-48712D01*
X86859Y-48887D01*
X86926Y-49048D01*
X87050Y-49172D01*
X87212Y-49239D01*
X87387Y-49240D01*
X87548Y-49173D01*
X87672Y-49049D01*
X87739Y-48887D01*
X87740Y-48712D01*
X87740Y-61960D01*
X86740Y-61960D01*
X86740Y-48712D01*
X86673Y-48551D01*
X86549Y-48427D01*
X86387Y-48360D01*
X86212Y-48359D01*
X86051Y-48426D01*
X85927Y-48550D01*
X85860Y-48712D01*
X85859Y-48887D01*
X85926Y-49048D01*
X86050Y-49172D01*
X86212Y-49239D01*
X86387Y-49240D01*
X86548Y-49173D01*
X86672Y-49049D01*
X86739Y-48887D01*
X86740Y-48712D01*
X86740Y-61960D01*
X85741Y-61960D01*
X85741Y-48719D01*
X85677Y-48557D01*
X85668Y-48544D01*
X85599Y-48514D01*
X85585Y-48528D01*
X85585Y-48500D01*
X85555Y-48431D01*
X85394Y-48361D01*
X85219Y-48358D01*
X85057Y-48422D01*
X85044Y-48431D01*
X85014Y-48500D01*
X85300Y-48785D01*
X85585Y-48500D01*
X85585Y-48528D01*
X85314Y-48800D01*
X85599Y-49085D01*
X85668Y-49055D01*
X85738Y-48894D01*
X85741Y-48719D01*
X85741Y-61960D01*
X85585Y-61960D01*
X85585Y-49099D01*
X85300Y-48814D01*
X85285Y-48828D01*
X85285Y-48800D01*
X85000Y-48514D01*
X84931Y-48544D01*
X84861Y-48705D01*
X84858Y-48880D01*
X84922Y-49042D01*
X84931Y-49055D01*
X85000Y-49085D01*
X85285Y-48800D01*
X85285Y-48828D01*
X85014Y-49099D01*
X85044Y-49168D01*
X85205Y-49238D01*
X85380Y-49241D01*
X85542Y-49177D01*
X85555Y-49168D01*
X85585Y-49099D01*
X85585Y-61960D01*
X84739Y-61960D01*
X84739Y-56945D01*
X84739Y-54945D01*
X84675Y-54790D01*
X84557Y-54672D01*
X84403Y-54608D01*
X84236Y-54608D01*
X84082Y-54672D01*
X83963Y-54790D01*
X83899Y-54944D01*
X83899Y-55111D01*
X83963Y-55265D01*
X84081Y-55384D01*
X84235Y-55448D01*
X84402Y-55448D01*
X84557Y-55384D01*
X84675Y-55266D01*
X84739Y-55112D01*
X84739Y-54945D01*
X84739Y-56945D01*
X84675Y-56790D01*
X84557Y-56672D01*
X84403Y-56608D01*
X84236Y-56608D01*
X84082Y-56672D01*
X83963Y-56790D01*
X83899Y-56944D01*
X83899Y-57111D01*
X83963Y-57265D01*
X84081Y-57384D01*
X84235Y-57448D01*
X84402Y-57448D01*
X84557Y-57384D01*
X84675Y-57266D01*
X84739Y-57112D01*
X84739Y-56945D01*
X84739Y-61960D01*
X83765Y-61960D01*
X83765Y-60848D01*
X83765Y-48848D01*
X83648Y-48567D01*
X83433Y-48351D01*
X83152Y-48235D01*
X82848Y-48234D01*
X82567Y-48351D01*
X82351Y-48566D01*
X82235Y-48847D01*
X82234Y-49151D01*
X82351Y-49432D01*
X82566Y-49648D01*
X82847Y-49764D01*
X83151Y-49765D01*
X83432Y-49648D01*
X83648Y-49433D01*
X83764Y-49152D01*
X83765Y-48848D01*
X83765Y-60848D01*
X83648Y-60567D01*
X83433Y-60351D01*
X83152Y-60235D01*
X82848Y-60234D01*
X82567Y-60351D01*
X82351Y-60566D01*
X82235Y-60847D01*
X82234Y-61151D01*
X82351Y-61432D01*
X82566Y-61648D01*
X82847Y-61764D01*
X83151Y-61765D01*
X83432Y-61648D01*
X83648Y-61433D01*
X83764Y-61152D01*
X83765Y-60848D01*
X83765Y-61960D01*
X82040Y-61960D01*
X82040Y-48040D01*
X96960Y-48040D01*
X96960Y-61960D01*
X96960Y-61960D01*
G37*
G54D18*
X96960Y-61960D02*
X96765Y-61960D01*
X96765Y-60848D01*
X96765Y-48848D01*
X96648Y-48567D01*
X96433Y-48351D01*
X96152Y-48235D01*
X95848Y-48234D01*
X95567Y-48351D01*
X95351Y-48566D01*
X95235Y-48847D01*
X95234Y-49151D01*
X95351Y-49432D01*
X95566Y-49648D01*
X95847Y-49764D01*
X96151Y-49765D01*
X96432Y-49648D01*
X96648Y-49433D01*
X96764Y-49152D01*
X96765Y-48848D01*
X96765Y-60848D01*
X96648Y-60567D01*
X96433Y-60351D01*
X96152Y-60235D01*
X95848Y-60234D01*
X95567Y-60351D01*
X95351Y-60566D01*
X95235Y-60847D01*
X95234Y-61151D01*
X95351Y-61432D01*
X95566Y-61648D01*
X95847Y-61764D01*
X96151Y-61765D01*
X96432Y-61648D01*
X96648Y-61433D01*
X96764Y-61152D01*
X96765Y-60848D01*
X96765Y-61960D01*
X94740Y-61960D01*
X94740Y-49127D01*
X94740Y-49072D01*
X94740Y-48472D01*
X94718Y-48420D01*
X94679Y-48381D01*
X94627Y-48360D01*
X94572Y-48360D01*
X93972Y-48360D01*
X93920Y-48381D01*
X93881Y-48420D01*
X93860Y-48472D01*
X93860Y-48527D01*
X93860Y-49127D01*
X93881Y-49179D01*
X93920Y-49218D01*
X93972Y-49240D01*
X94027Y-49240D01*
X94627Y-49240D01*
X94679Y-49218D01*
X94718Y-49179D01*
X94740Y-49127D01*
X94740Y-61960D01*
X93740Y-61960D01*
X93740Y-48712D01*
X93673Y-48551D01*
X93549Y-48427D01*
X93387Y-48360D01*
X93212Y-48359D01*
X93051Y-48426D01*
X92927Y-48550D01*
X92860Y-48712D01*
X92859Y-48887D01*
X92926Y-49048D01*
X93050Y-49172D01*
X93212Y-49239D01*
X93387Y-49240D01*
X93548Y-49173D01*
X93672Y-49049D01*
X93739Y-48887D01*
X93740Y-48712D01*
X93740Y-61960D01*
X92740Y-61960D01*
X92740Y-48712D01*
X92673Y-48551D01*
X92549Y-48427D01*
X92387Y-48360D01*
X92212Y-48359D01*
X92051Y-48426D01*
X91927Y-48550D01*
X91860Y-48712D01*
X91859Y-48887D01*
X91926Y-49048D01*
X92050Y-49172D01*
X92212Y-49239D01*
X92387Y-49240D01*
X92548Y-49173D01*
X92672Y-49049D01*
X92739Y-48887D01*
X92740Y-48712D01*
X92740Y-61960D01*
X91740Y-61960D01*
X91740Y-48712D01*
X91673Y-48551D01*
X91549Y-48427D01*
X91387Y-48360D01*
X91212Y-48359D01*
X91051Y-48426D01*
X90927Y-48550D01*
X90860Y-48712D01*
X90859Y-48887D01*
X90926Y-49048D01*
X91050Y-49172D01*
X91212Y-49239D01*
X91387Y-49240D01*
X91548Y-49173D01*
X91672Y-49049D01*
X91739Y-48887D01*
X91740Y-48712D01*
X91740Y-61960D01*
X90740Y-61960D01*
X90740Y-48712D01*
X90673Y-48551D01*
X90549Y-48427D01*
X90387Y-48360D01*
X90212Y-48359D01*
X90051Y-48426D01*
X89927Y-48550D01*
X89860Y-48712D01*
X89859Y-48887D01*
X89926Y-49048D01*
X90050Y-49172D01*
X90212Y-49239D01*
X90387Y-49240D01*
X90548Y-49173D01*
X90672Y-49049D01*
X90739Y-48887D01*
X90740Y-48712D01*
X90740Y-61960D01*
X89815Y-61960D01*
X89815Y-58137D01*
X89767Y-58021D01*
X89678Y-57933D01*
X89562Y-57885D01*
X89490Y-57884D01*
X89490Y-49197D01*
X89548Y-49173D01*
X89672Y-49049D01*
X89739Y-48887D01*
X89740Y-48712D01*
X89673Y-48551D01*
X89549Y-48427D01*
X89387Y-48360D01*
X89212Y-48359D01*
X89051Y-48426D01*
X88927Y-48550D01*
X88860Y-48712D01*
X88859Y-48887D01*
X88926Y-49048D01*
X89050Y-49172D01*
X89110Y-49197D01*
X89110Y-58000D01*
X89124Y-58072D01*
X89165Y-58134D01*
X89185Y-58153D01*
X89184Y-58262D01*
X89232Y-58378D01*
X89321Y-58466D01*
X89437Y-58514D01*
X89562Y-58515D01*
X89678Y-58467D01*
X89766Y-58378D01*
X89814Y-58262D01*
X89815Y-58137D01*
X89815Y-61960D01*
X88740Y-61960D01*
X88740Y-48712D01*
X88673Y-48551D01*
X88549Y-48427D01*
X88387Y-48360D01*
X88212Y-48359D01*
X88051Y-48426D01*
X87927Y-48550D01*
X87860Y-48712D01*
X87859Y-48887D01*
X87926Y-49048D01*
X88050Y-49172D01*
X88212Y-49239D01*
X88387Y-49240D01*
X88548Y-49173D01*
X88672Y-49049D01*
X88739Y-48887D01*
X88740Y-48712D01*
X88740Y-61960D01*
X87740Y-61960D01*
X87740Y-48712D01*
X87673Y-48551D01*
X87549Y-48427D01*
X87387Y-48360D01*
X87212Y-48359D01*
X87051Y-48426D01*
X86927Y-48550D01*
X86860Y-48712D01*
X86859Y-48887D01*
X86926Y-49048D01*
X87050Y-49172D01*
X87212Y-49239D01*
X87387Y-49240D01*
X87548Y-49173D01*
X87672Y-49049D01*
X87739Y-48887D01*
X87740Y-48712D01*
X87740Y-61960D01*
X86740Y-61960D01*
X86740Y-48712D01*
X86673Y-48551D01*
X86549Y-48427D01*
X86387Y-48360D01*
X86212Y-48359D01*
X86051Y-48426D01*
X85927Y-48550D01*
X85860Y-48712D01*
X85859Y-48887D01*
X85926Y-49048D01*
X86050Y-49172D01*
X86212Y-49239D01*
X86387Y-49240D01*
X86548Y-49173D01*
X86672Y-49049D01*
X86739Y-48887D01*
X86740Y-48712D01*
X86740Y-61960D01*
X85741Y-61960D01*
X85741Y-48719D01*
X85677Y-48557D01*
X85668Y-48544D01*
X85599Y-48514D01*
X85585Y-48528D01*
X85585Y-48500D01*
X85555Y-48431D01*
X85394Y-48361D01*
X85219Y-48358D01*
X85057Y-48422D01*
X85044Y-48431D01*
X85014Y-48500D01*
X85300Y-48785D01*
X85585Y-48500D01*
X85585Y-48528D01*
X85314Y-48800D01*
X85599Y-49085D01*
X85668Y-49055D01*
X85738Y-48894D01*
X85741Y-48719D01*
X85741Y-61960D01*
X85585Y-61960D01*
X85585Y-49099D01*
X85300Y-48814D01*
X85285Y-48828D01*
X85285Y-48800D01*
X85000Y-48514D01*
X84931Y-48544D01*
X84861Y-48705D01*
X84858Y-48880D01*
X84922Y-49042D01*
X84931Y-49055D01*
X85000Y-49085D01*
X85285Y-48800D01*
X85285Y-48828D01*
X85014Y-49099D01*
X85044Y-49168D01*
X85205Y-49238D01*
X85380Y-49241D01*
X85542Y-49177D01*
X85555Y-49168D01*
X85585Y-49099D01*
X85585Y-61960D01*
X84739Y-61960D01*
X84739Y-56945D01*
X84739Y-54945D01*
X84675Y-54790D01*
X84557Y-54672D01*
X84403Y-54608D01*
X84236Y-54608D01*
X84082Y-54672D01*
X83963Y-54790D01*
X83899Y-54944D01*
X83899Y-55111D01*
X83963Y-55265D01*
X84081Y-55384D01*
X84235Y-55448D01*
X84402Y-55448D01*
X84557Y-55384D01*
X84675Y-55266D01*
X84739Y-55112D01*
X84739Y-54945D01*
X84739Y-56945D01*
X84675Y-56790D01*
X84557Y-56672D01*
X84403Y-56608D01*
X84236Y-56608D01*
X84082Y-56672D01*
X83963Y-56790D01*
X83899Y-56944D01*
X83899Y-57111D01*
X83963Y-57265D01*
X84081Y-57384D01*
X84235Y-57448D01*
X84402Y-57448D01*
X84557Y-57384D01*
X84675Y-57266D01*
X84739Y-57112D01*
X84739Y-56945D01*
X84739Y-61960D01*
X83765Y-61960D01*
X83765Y-60848D01*
X83765Y-48848D01*
X83648Y-48567D01*
X83433Y-48351D01*
X83152Y-48235D01*
X82848Y-48234D01*
X82567Y-48351D01*
X82351Y-48566D01*
X82235Y-48847D01*
X82234Y-49151D01*
X82351Y-49432D01*
X82566Y-49648D01*
X82847Y-49764D01*
X83151Y-49765D01*
X83432Y-49648D01*
X83648Y-49433D01*
X83764Y-49152D01*
X83765Y-48848D01*
X83765Y-60848D01*
X83648Y-60567D01*
X83433Y-60351D01*
X83152Y-60235D01*
X82848Y-60234D01*
X82567Y-60351D01*
X82351Y-60566D01*
X82235Y-60847D01*
X82234Y-61151D01*
X82351Y-61432D01*
X82566Y-61648D01*
X82847Y-61764D01*
X83151Y-61765D01*
X83432Y-61648D01*
X83648Y-61433D01*
X83764Y-61152D01*
X83765Y-60848D01*
X83765Y-61960D01*
X82040Y-61960D01*
X82040Y-48040D01*
X96960Y-48040D01*
X96960Y-61960D01*
M02*
