G04 (created by PCBNEW (2013-mar-13)-testing) date Sun 09 Jun 2013 10:04:26 PM EDT*
%MOIN*%
G04 Gerber Fmt 3.4, Leading zero omitted, Abs format*
%FSLAX34Y34*%
G01*
G70*
G90*
G04 APERTURE LIST*
%ADD10C,0.005906*%
%ADD11C,0.003937*%
%ADD12R,0.035000X0.055000*%
%ADD13R,0.055000X0.035000*%
%ADD14R,0.080000X0.060000*%
%ADD15R,0.055100X0.063000*%
%ADD16R,0.074800X0.070900*%
%ADD17R,0.074800X0.074800*%
%ADD18R,0.053100X0.015700*%
%ADD19R,0.060000X0.060000*%
%ADD20C,0.060000*%
%ADD21C,0.056000*%
%ADD22R,0.080000X0.144000*%
%ADD23R,0.080000X0.040000*%
%ADD24R,0.059055X0.021654*%
%ADD25R,0.021654X0.059055*%
G04 APERTURE END LIST*
G54D10*
G54D11*
X81800Y-62200D02*
X81800Y-47800D01*
X97200Y-62200D02*
X81800Y-62200D01*
X97200Y-47800D02*
X97200Y-62200D01*
X81800Y-47800D02*
X97200Y-47800D01*
G54D12*
X89397Y-51737D03*
X90147Y-51737D03*
X87960Y-58469D03*
X88710Y-58469D03*
X94075Y-57283D03*
X93325Y-57283D03*
X94075Y-56397D03*
X93325Y-56397D03*
X94075Y-53740D03*
X93325Y-53740D03*
G54D13*
X86288Y-55495D03*
X86288Y-56245D03*
G54D12*
X83865Y-53114D03*
X84615Y-53114D03*
X83944Y-58862D03*
X84694Y-58862D03*
G54D14*
X96000Y-52050D03*
X96000Y-50750D03*
G54D12*
X94075Y-58169D03*
X93325Y-58169D03*
G54D15*
X95675Y-53740D03*
G54D16*
X96600Y-53425D03*
X96600Y-56575D03*
G54D17*
X96600Y-54528D03*
X96600Y-55472D03*
G54D15*
X95675Y-56260D03*
G54D18*
X95547Y-55512D03*
X95547Y-55256D03*
X95547Y-55000D03*
X95547Y-54744D03*
X95547Y-54488D03*
G54D19*
X94300Y-48800D03*
G54D20*
X93300Y-48800D03*
X92300Y-48800D03*
X91300Y-48800D03*
X90300Y-48800D03*
X89300Y-48800D03*
X88300Y-48800D03*
X87300Y-48800D03*
X86300Y-48800D03*
X85300Y-48800D03*
G54D12*
X94075Y-55511D03*
X93325Y-55511D03*
X94075Y-54625D03*
X93325Y-54625D03*
X94064Y-52878D03*
X93314Y-52878D03*
G54D21*
X84319Y-55028D03*
X84319Y-57028D03*
G54D22*
X89700Y-59600D03*
G54D23*
X92300Y-59600D03*
X92300Y-58700D03*
X92300Y-60500D03*
G54D12*
X87960Y-57524D03*
X88710Y-57524D03*
G54D13*
X92036Y-54157D03*
X92036Y-54907D03*
X86288Y-53804D03*
X86288Y-53054D03*
G54D12*
X89425Y-57500D03*
X90175Y-57500D03*
G54D24*
X87548Y-53508D03*
X87548Y-53823D03*
X87548Y-54138D03*
X87548Y-54453D03*
X87548Y-54768D03*
X87548Y-55083D03*
X87548Y-55398D03*
X87548Y-55713D03*
G54D25*
X88099Y-56264D03*
X88414Y-56264D03*
X88729Y-56264D03*
X89044Y-56264D03*
X89359Y-56264D03*
X89674Y-56264D03*
X89988Y-56264D03*
X90303Y-56264D03*
G54D24*
X90855Y-55713D03*
X90855Y-55398D03*
X90855Y-55083D03*
X90855Y-54768D03*
X90855Y-54453D03*
X90855Y-54138D03*
X90855Y-53823D03*
X90855Y-53508D03*
G54D25*
X90303Y-52957D03*
X89988Y-52957D03*
X89674Y-52957D03*
X89359Y-52957D03*
X89044Y-52957D03*
X88729Y-52957D03*
X88414Y-52957D03*
X88099Y-52957D03*
M02*
