G04 (created by PCBNEW (2013-mar-13)-testing) date Sun 09 Jun 2013 10:01:08 PM EDT*
%MOIN*%
G04 Gerber Fmt 3.4, Leading zero omitted, Abs format*
%FSLAX34Y34*%
G01*
G70*
G90*
G04 APERTURE LIST*
%ADD10C,0.005906*%
%ADD11C,0.003937*%
%ADD12R,0.055000X0.035000*%
%ADD13R,0.035000X0.055000*%
%ADD14R,0.060000X0.060000*%
%ADD15C,0.060000*%
%ADD16R,0.023622X0.011811*%
%ADD17R,0.011811X0.023622*%
%ADD18R,0.023622X0.013780*%
%ADD19R,0.013780X0.023622*%
%ADD20C,0.035000*%
%ADD21C,0.010000*%
%ADD22C,0.008000*%
G04 APERTURE END LIST*
G54D10*
G54D11*
X54566Y-55826D02*
X71870Y-55826D01*
X54566Y-39251D02*
X54566Y-55826D01*
X71870Y-39251D02*
X71870Y-55826D01*
X54566Y-39251D02*
X71870Y-39251D01*
G54D12*
X58100Y-44625D03*
X58100Y-45375D03*
X57300Y-44625D03*
X57300Y-45375D03*
X59000Y-44625D03*
X59000Y-45375D03*
G54D13*
X59525Y-43600D03*
X60275Y-43600D03*
G54D12*
X67027Y-45097D03*
X67027Y-45847D03*
G54D13*
X67636Y-43996D03*
X68386Y-43996D03*
G54D12*
X66141Y-45097D03*
X66141Y-45847D03*
X65255Y-45097D03*
X65255Y-45847D03*
G54D14*
X55300Y-40000D03*
G54D15*
X56300Y-40000D03*
X57300Y-40000D03*
X58300Y-40000D03*
X59300Y-40000D03*
X60300Y-40000D03*
X61300Y-40000D03*
X62300Y-40000D03*
G54D14*
X70898Y-40000D03*
G54D15*
X69898Y-40000D03*
X68898Y-40000D03*
X67898Y-40000D03*
X66898Y-40000D03*
X65898Y-40000D03*
X64898Y-40000D03*
X63898Y-40000D03*
G54D12*
X60334Y-42796D03*
X60334Y-42046D03*
X59448Y-42796D03*
X59448Y-42046D03*
X70866Y-42894D03*
X70866Y-42144D03*
X69881Y-42894D03*
X69881Y-42144D03*
G54D14*
X55300Y-48100D03*
G54D15*
X55300Y-49100D03*
X55300Y-50100D03*
X55300Y-51100D03*
X55300Y-52100D03*
X55300Y-53100D03*
X55300Y-54100D03*
X55300Y-55100D03*
G54D14*
X59300Y-48100D03*
G54D15*
X59300Y-49100D03*
X59300Y-50100D03*
X59300Y-51100D03*
X59300Y-52100D03*
X59300Y-53100D03*
X59300Y-54100D03*
X59300Y-55100D03*
G54D10*
G36*
X56562Y-51510D02*
X56645Y-51426D01*
X56812Y-51593D01*
X56729Y-51677D01*
X56562Y-51510D01*
X56562Y-51510D01*
G37*
G36*
X56701Y-51371D02*
X56784Y-51287D01*
X56952Y-51454D01*
X56868Y-51538D01*
X56701Y-51371D01*
X56701Y-51371D01*
G37*
G36*
X56840Y-51232D02*
X56924Y-51148D01*
X57091Y-51315D01*
X57007Y-51399D01*
X56840Y-51232D01*
X56840Y-51232D01*
G37*
G36*
X56979Y-51092D02*
X57063Y-51009D01*
X57230Y-51176D01*
X57146Y-51259D01*
X56979Y-51092D01*
X56979Y-51092D01*
G37*
G36*
X57119Y-50953D02*
X57202Y-50870D01*
X57369Y-51037D01*
X57286Y-51120D01*
X57119Y-50953D01*
X57119Y-50953D01*
G37*
G36*
X57787Y-51621D02*
X57870Y-51538D01*
X58037Y-51705D01*
X57954Y-51788D01*
X57787Y-51621D01*
X57787Y-51621D01*
G37*
G36*
X57647Y-51760D02*
X57731Y-51677D01*
X57898Y-51844D01*
X57815Y-51928D01*
X57647Y-51760D01*
X57647Y-51760D01*
G37*
G36*
X57508Y-51900D02*
X57592Y-51816D01*
X57759Y-51983D01*
X57675Y-52067D01*
X57508Y-51900D01*
X57508Y-51900D01*
G37*
G36*
X57369Y-52039D02*
X57453Y-51955D01*
X57620Y-52122D01*
X57536Y-52206D01*
X57369Y-52039D01*
X57369Y-52039D01*
G37*
G36*
X57230Y-52178D02*
X57313Y-52095D01*
X57480Y-52262D01*
X57397Y-52345D01*
X57230Y-52178D01*
X57230Y-52178D01*
G37*
G36*
X57369Y-51176D02*
X57536Y-51009D01*
X57620Y-51092D01*
X57453Y-51259D01*
X57369Y-51176D01*
X57369Y-51176D01*
G37*
G36*
X57508Y-51315D02*
X57675Y-51148D01*
X57759Y-51232D01*
X57592Y-51399D01*
X57508Y-51315D01*
X57508Y-51315D01*
G37*
G36*
X57647Y-51454D02*
X57815Y-51287D01*
X57898Y-51371D01*
X57731Y-51538D01*
X57647Y-51454D01*
X57647Y-51454D01*
G37*
G36*
X56979Y-52122D02*
X57146Y-51955D01*
X57230Y-52039D01*
X57063Y-52206D01*
X56979Y-52122D01*
X56979Y-52122D01*
G37*
G36*
X56840Y-51983D02*
X57007Y-51816D01*
X57091Y-51900D01*
X56924Y-52067D01*
X56840Y-51983D01*
X56840Y-51983D01*
G37*
G36*
X56701Y-51844D02*
X56868Y-51677D01*
X56952Y-51760D01*
X56784Y-51928D01*
X56701Y-51844D01*
X56701Y-51844D01*
G37*
G54D16*
X58572Y-42806D03*
X58572Y-43003D03*
X58572Y-43200D03*
X58572Y-43396D03*
X58572Y-43593D03*
X57627Y-43593D03*
X57627Y-43396D03*
X57627Y-43200D03*
X57627Y-43003D03*
X57627Y-42806D03*
G54D17*
X58296Y-43672D03*
X58100Y-43672D03*
X57903Y-43672D03*
X57903Y-42727D03*
X58100Y-42727D03*
X58296Y-42727D03*
G54D18*
X66712Y-43120D03*
X66712Y-43375D03*
X66712Y-43631D03*
X66712Y-43887D03*
G54D19*
X66427Y-44173D03*
X66171Y-44173D03*
X65915Y-44173D03*
X65659Y-44173D03*
G54D18*
X65374Y-43887D03*
X65374Y-43631D03*
X65374Y-43375D03*
X65374Y-43120D03*
G54D19*
X65659Y-42834D03*
X65915Y-42834D03*
X66171Y-42834D03*
X66427Y-42834D03*
G54D14*
X67196Y-48157D03*
G54D15*
X67196Y-49157D03*
X67196Y-50157D03*
X67196Y-51157D03*
X67196Y-52157D03*
X67196Y-53157D03*
X67196Y-54157D03*
X67196Y-55157D03*
G54D14*
X71196Y-48157D03*
G54D15*
X71196Y-49157D03*
X71196Y-50157D03*
X71196Y-51157D03*
X71196Y-52157D03*
X71196Y-53157D03*
X71196Y-54157D03*
X71196Y-55157D03*
G54D10*
G36*
X68319Y-51420D02*
X68417Y-51323D01*
X68584Y-51490D01*
X68486Y-51587D01*
X68319Y-51420D01*
X68319Y-51420D01*
G37*
G36*
X68500Y-51239D02*
X68598Y-51142D01*
X68765Y-51309D01*
X68667Y-51406D01*
X68500Y-51239D01*
X68500Y-51239D01*
G37*
G36*
X68681Y-51058D02*
X68779Y-50961D01*
X68946Y-51128D01*
X68848Y-51225D01*
X68681Y-51058D01*
X68681Y-51058D01*
G37*
G36*
X68862Y-50877D02*
X68960Y-50780D01*
X69127Y-50947D01*
X69029Y-51045D01*
X68862Y-50877D01*
X68862Y-50877D01*
G37*
G36*
X69266Y-50947D02*
X69433Y-50780D01*
X69530Y-50877D01*
X69363Y-51045D01*
X69266Y-50947D01*
X69266Y-50947D01*
G37*
G36*
X69447Y-51128D02*
X69614Y-50961D01*
X69711Y-51058D01*
X69544Y-51225D01*
X69447Y-51128D01*
X69447Y-51128D01*
G37*
G36*
X69628Y-51309D02*
X69795Y-51142D01*
X69892Y-51239D01*
X69725Y-51406D01*
X69628Y-51309D01*
X69628Y-51309D01*
G37*
G36*
X69809Y-51490D02*
X69976Y-51323D01*
X70073Y-51420D01*
X69906Y-51587D01*
X69809Y-51490D01*
X69809Y-51490D01*
G37*
G36*
X69809Y-51824D02*
X69906Y-51727D01*
X70073Y-51894D01*
X69976Y-51991D01*
X69809Y-51824D01*
X69809Y-51824D01*
G37*
G36*
X69628Y-52005D02*
X69725Y-51908D01*
X69892Y-52075D01*
X69795Y-52172D01*
X69628Y-52005D01*
X69628Y-52005D01*
G37*
G36*
X69447Y-52186D02*
X69544Y-52088D01*
X69711Y-52256D01*
X69614Y-52353D01*
X69447Y-52186D01*
X69447Y-52186D01*
G37*
G36*
X69266Y-52367D02*
X69363Y-52269D01*
X69530Y-52436D01*
X69433Y-52534D01*
X69266Y-52367D01*
X69266Y-52367D01*
G37*
G36*
X68862Y-52436D02*
X69029Y-52269D01*
X69127Y-52367D01*
X68960Y-52534D01*
X68862Y-52436D01*
X68862Y-52436D01*
G37*
G36*
X68681Y-52256D02*
X68848Y-52088D01*
X68946Y-52186D01*
X68779Y-52353D01*
X68681Y-52256D01*
X68681Y-52256D01*
G37*
G36*
X68500Y-52075D02*
X68667Y-51908D01*
X68765Y-52005D01*
X68598Y-52172D01*
X68500Y-52075D01*
X68500Y-52075D01*
G37*
G36*
X68319Y-51894D02*
X68486Y-51727D01*
X68584Y-51824D01*
X68417Y-51991D01*
X68319Y-51894D01*
X68319Y-51894D01*
G37*
G54D20*
X56988Y-43700D03*
X58661Y-42421D03*
X60826Y-43700D03*
X57677Y-42224D03*
X68996Y-44192D03*
X64960Y-43110D03*
G54D21*
X58572Y-43396D02*
X59321Y-43396D01*
X59321Y-43396D02*
X59525Y-43600D01*
X57627Y-43593D02*
X57095Y-43593D01*
X57095Y-43593D02*
X56988Y-43700D01*
X58572Y-42806D02*
X58572Y-42805D01*
X58661Y-42716D02*
X58661Y-42421D01*
X58572Y-42805D02*
X58661Y-42716D01*
X60275Y-43600D02*
X60725Y-43600D01*
X60725Y-43600D02*
X60826Y-43700D01*
X57903Y-42727D02*
X57903Y-42450D01*
X57903Y-42450D02*
X57677Y-42224D01*
X57627Y-43200D02*
X57077Y-43200D01*
X56300Y-42422D02*
X56300Y-40000D01*
X57077Y-43200D02*
X56300Y-42422D01*
X56275Y-40025D02*
X56300Y-40000D01*
X57627Y-42806D02*
X57373Y-42806D01*
X57300Y-42733D02*
X57300Y-40000D01*
X57373Y-42806D02*
X57300Y-42733D01*
X58100Y-42727D02*
X58100Y-40200D01*
X58100Y-40200D02*
X58300Y-40000D01*
X60334Y-42046D02*
X60334Y-40034D01*
X60334Y-40034D02*
X60300Y-40000D01*
X58572Y-43003D02*
X58866Y-43003D01*
X59959Y-42421D02*
X60334Y-42046D01*
X59055Y-42421D02*
X59959Y-42421D01*
X58956Y-42519D02*
X59055Y-42421D01*
X58956Y-42913D02*
X58956Y-42519D01*
X58866Y-43003D02*
X58956Y-42913D01*
X59448Y-42046D02*
X59448Y-40148D01*
X59448Y-40148D02*
X59300Y-40000D01*
X58296Y-42727D02*
X58296Y-42293D01*
X58544Y-42046D02*
X59448Y-42046D01*
X58296Y-42293D02*
X58544Y-42046D01*
X60334Y-42796D02*
X59448Y-42796D01*
X60334Y-42796D02*
X60943Y-42796D01*
X60943Y-42796D02*
X61300Y-42440D01*
X59000Y-44625D02*
X60788Y-44625D01*
X61300Y-44113D02*
X61300Y-42440D01*
X60788Y-44625D02*
X61300Y-44113D01*
X61300Y-40000D02*
X61300Y-42440D01*
X58100Y-44625D02*
X59000Y-44625D01*
X58572Y-43593D02*
X58793Y-43593D01*
X58793Y-43593D02*
X59000Y-43800D01*
X59000Y-43800D02*
X59000Y-44625D01*
X57300Y-44625D02*
X58100Y-44625D01*
X57903Y-43672D02*
X57903Y-44428D01*
X57903Y-44428D02*
X58100Y-44625D01*
X66427Y-42834D02*
X66427Y-42671D01*
X67898Y-41200D02*
X67898Y-40000D01*
X66427Y-42671D02*
X67898Y-41200D01*
X68386Y-43996D02*
X68799Y-43996D01*
X68799Y-43996D02*
X68996Y-44192D01*
X65374Y-43120D02*
X64970Y-43120D01*
X64970Y-43120D02*
X64960Y-43110D01*
X65915Y-42834D02*
X65915Y-40016D01*
X65915Y-40016D02*
X65898Y-40000D01*
X66171Y-42834D02*
X66171Y-42327D01*
X66898Y-41600D02*
X66898Y-40000D01*
X66171Y-42327D02*
X66898Y-41600D01*
X66712Y-43631D02*
X67293Y-43631D01*
X70491Y-42519D02*
X70866Y-42144D01*
X68405Y-42519D02*
X70491Y-42519D01*
X67293Y-43631D02*
X68405Y-42519D01*
X70866Y-42144D02*
X70866Y-40032D01*
X70866Y-40032D02*
X70898Y-40000D01*
X66712Y-43375D02*
X67155Y-43375D01*
X68386Y-42144D02*
X69881Y-42144D01*
X67155Y-43375D02*
X68386Y-42144D01*
X69881Y-42144D02*
X69881Y-40016D01*
X69881Y-40016D02*
X69898Y-40000D01*
X66712Y-43120D02*
X67017Y-43120D01*
X68898Y-41239D02*
X68898Y-40000D01*
X67017Y-43120D02*
X68898Y-41239D01*
X67636Y-44567D02*
X67636Y-46142D01*
X64468Y-40429D02*
X64898Y-40000D01*
X64468Y-45964D02*
X64468Y-40429D01*
X64862Y-46358D02*
X64468Y-45964D01*
X67421Y-46358D02*
X64862Y-46358D01*
X67636Y-46142D02*
X67421Y-46358D01*
X69881Y-42894D02*
X70866Y-42894D01*
X69881Y-42894D02*
X68424Y-42894D01*
X67636Y-43682D02*
X67636Y-43996D01*
X68424Y-42894D02*
X67636Y-43682D01*
X67027Y-45097D02*
X67107Y-45097D01*
X67636Y-44567D02*
X67636Y-43996D01*
X67107Y-45097D02*
X67636Y-44567D01*
X66712Y-43887D02*
X67528Y-43887D01*
X67528Y-43887D02*
X67636Y-43996D01*
X67027Y-45097D02*
X66141Y-45097D01*
X66171Y-44173D02*
X66427Y-44173D01*
X66171Y-44173D02*
X66171Y-45067D01*
X66171Y-45067D02*
X66141Y-45097D01*
X57244Y-50995D02*
X57238Y-50995D01*
X57044Y-49844D02*
X55300Y-48100D01*
X57044Y-50800D02*
X57044Y-49844D01*
X57238Y-50995D02*
X57044Y-50800D01*
X57494Y-52081D02*
X57497Y-52081D01*
X57929Y-52729D02*
X59300Y-54100D01*
X57929Y-52513D02*
X57929Y-52729D01*
X57497Y-52081D02*
X57929Y-52513D01*
X57634Y-51941D02*
X57929Y-52237D01*
X59284Y-53084D02*
X59300Y-53100D01*
X58776Y-53084D02*
X59284Y-53084D01*
X58638Y-52946D02*
X58776Y-53084D01*
X57929Y-52237D02*
X58638Y-52946D01*
X57773Y-51802D02*
X57773Y-51805D01*
X58067Y-52100D02*
X59300Y-52100D01*
X57773Y-51805D02*
X58067Y-52100D01*
X57912Y-51663D02*
X57946Y-51663D01*
X58614Y-51785D02*
X59300Y-51100D01*
X58067Y-51785D02*
X58614Y-51785D01*
X57946Y-51663D02*
X58067Y-51785D01*
X57773Y-51413D02*
X57773Y-51410D01*
X59083Y-50100D02*
X59300Y-50100D01*
X57773Y-51410D02*
X59083Y-50100D01*
X57634Y-51273D02*
X58028Y-50879D01*
X58028Y-50371D02*
X59300Y-49100D01*
X58028Y-50879D02*
X58028Y-50371D01*
X57494Y-51134D02*
X57497Y-51134D01*
X57733Y-49666D02*
X59300Y-48100D01*
X57733Y-50899D02*
X57733Y-49666D01*
X57497Y-51134D02*
X57733Y-50899D01*
X57105Y-51134D02*
X57102Y-51134D01*
X56807Y-50607D02*
X55300Y-49100D01*
X56807Y-50840D02*
X56807Y-50607D01*
X57102Y-51134D02*
X56807Y-50840D01*
X56965Y-51273D02*
X56532Y-50840D01*
X55311Y-50111D02*
X55300Y-50100D01*
X55803Y-50111D02*
X55311Y-50111D01*
X55843Y-50151D02*
X55803Y-50111D01*
X56000Y-50308D02*
X55843Y-50151D01*
X56532Y-50840D02*
X56000Y-50308D01*
X56826Y-51413D02*
X56826Y-51410D01*
X56516Y-51100D02*
X55300Y-51100D01*
X56826Y-51410D02*
X56516Y-51100D01*
X56687Y-51552D02*
X56673Y-51552D01*
X56028Y-51371D02*
X55300Y-52100D01*
X56492Y-51371D02*
X56028Y-51371D01*
X56673Y-51552D02*
X56492Y-51371D01*
X56826Y-51802D02*
X56826Y-51805D01*
X55532Y-53100D02*
X55300Y-53100D01*
X56826Y-51805D02*
X55532Y-53100D01*
X56965Y-51941D02*
X56689Y-52218D01*
X56689Y-52710D02*
X55300Y-54100D01*
X56689Y-52218D02*
X56689Y-52710D01*
X57105Y-52081D02*
X57102Y-52081D01*
X56906Y-53493D02*
X55300Y-55100D01*
X56906Y-52277D02*
X56906Y-53493D01*
X57102Y-52081D02*
X56906Y-52277D01*
X57355Y-52220D02*
X57361Y-52220D01*
X57654Y-53454D02*
X59300Y-55100D01*
X57654Y-52513D02*
X57654Y-53454D01*
X57361Y-52220D02*
X57654Y-52513D01*
X69760Y-51274D02*
X69760Y-51263D01*
X70866Y-50157D02*
X71196Y-50157D01*
X69760Y-51263D02*
X70866Y-50157D01*
X69941Y-51455D02*
X69961Y-51455D01*
X70259Y-51157D02*
X71196Y-51157D01*
X69961Y-51455D02*
X70259Y-51157D01*
X69941Y-51859D02*
X69969Y-51859D01*
X70267Y-52157D02*
X71196Y-52157D01*
X69969Y-51859D02*
X70267Y-52157D01*
X69760Y-52040D02*
X69760Y-52044D01*
X70874Y-53157D02*
X71196Y-53157D01*
X69760Y-52044D02*
X70874Y-53157D01*
X69579Y-52221D02*
X69583Y-52221D01*
X69881Y-52842D02*
X71196Y-54157D01*
X69881Y-52519D02*
X69881Y-52842D01*
X69583Y-52221D02*
X69881Y-52519D01*
X69398Y-52402D02*
X69398Y-52430D01*
X69645Y-53606D02*
X71196Y-55157D01*
X69645Y-52677D02*
X69645Y-53606D01*
X69398Y-52430D02*
X69645Y-52677D01*
X68814Y-52221D02*
X68763Y-52221D01*
X68307Y-53047D02*
X67196Y-54157D01*
X68307Y-52677D02*
X68307Y-53047D01*
X68763Y-52221D02*
X68307Y-52677D01*
X68995Y-52402D02*
X68975Y-52402D01*
X68740Y-53614D02*
X67196Y-55157D01*
X68740Y-52637D02*
X68740Y-53614D01*
X68975Y-52402D02*
X68740Y-52637D01*
X68633Y-52040D02*
X68629Y-52040D01*
X67511Y-53157D02*
X67196Y-53157D01*
X68629Y-52040D02*
X67511Y-53157D01*
X68452Y-51455D02*
X68452Y-51444D01*
X68165Y-51157D02*
X67196Y-51157D01*
X68452Y-51444D02*
X68165Y-51157D01*
X68633Y-51274D02*
X68633Y-51270D01*
X67519Y-50157D02*
X67196Y-50157D01*
X68633Y-51270D02*
X67519Y-50157D01*
X65915Y-44173D02*
X65915Y-44517D01*
X65255Y-44881D02*
X65255Y-45097D01*
X65551Y-44586D02*
X65255Y-44881D01*
X65846Y-44586D02*
X65551Y-44586D01*
X65915Y-44517D02*
X65846Y-44586D01*
X68814Y-51093D02*
X68810Y-51093D01*
X68425Y-50385D02*
X67196Y-49157D01*
X68425Y-50708D02*
X68425Y-50385D01*
X68810Y-51093D02*
X68425Y-50708D01*
X68995Y-50912D02*
X68995Y-50884D01*
X68740Y-49700D02*
X67196Y-48157D01*
X68740Y-50629D02*
X68740Y-49700D01*
X68995Y-50884D02*
X68740Y-50629D01*
X68452Y-51859D02*
X68416Y-51859D01*
X68118Y-52157D02*
X67196Y-52157D01*
X68416Y-51859D02*
X68118Y-52157D01*
X69398Y-50912D02*
X69402Y-50912D01*
X69763Y-49590D02*
X71196Y-48157D01*
X69763Y-50551D02*
X69763Y-49590D01*
X69402Y-50912D02*
X69763Y-50551D01*
X69579Y-51093D02*
X69579Y-51089D01*
X70118Y-50236D02*
X71196Y-49157D01*
X70118Y-50551D02*
X70118Y-50236D01*
X69579Y-51089D02*
X70118Y-50551D01*
G54D10*
G36*
X59056Y-42251D02*
X59055Y-42251D01*
X58990Y-42264D01*
X58934Y-42301D01*
X58934Y-42301D01*
X58836Y-42399D01*
X58799Y-42454D01*
X58786Y-42519D01*
X58786Y-42645D01*
X58769Y-42628D01*
X58718Y-42607D01*
X58617Y-42607D01*
X58582Y-42642D01*
X58582Y-42796D01*
X58590Y-42796D01*
X58590Y-42816D01*
X58582Y-42816D01*
X58582Y-42824D01*
X58562Y-42824D01*
X58562Y-42816D01*
X58554Y-42816D01*
X58554Y-42796D01*
X58562Y-42796D01*
X58562Y-42642D01*
X58527Y-42607D01*
X58475Y-42607D01*
X58475Y-42585D01*
X58466Y-42563D01*
X58466Y-42364D01*
X58614Y-42216D01*
X59053Y-42216D01*
X59053Y-42245D01*
X59056Y-42251D01*
X59056Y-42251D01*
G37*
G54D22*
X59056Y-42251D02*
X59055Y-42251D01*
X58990Y-42264D01*
X58934Y-42301D01*
X58934Y-42301D01*
X58836Y-42399D01*
X58799Y-42454D01*
X58786Y-42519D01*
X58786Y-42645D01*
X58769Y-42628D01*
X58718Y-42607D01*
X58617Y-42607D01*
X58582Y-42642D01*
X58582Y-42796D01*
X58590Y-42796D01*
X58590Y-42816D01*
X58582Y-42816D01*
X58582Y-42824D01*
X58562Y-42824D01*
X58562Y-42816D01*
X58554Y-42816D01*
X58554Y-42796D01*
X58562Y-42796D01*
X58562Y-42642D01*
X58527Y-42607D01*
X58475Y-42607D01*
X58475Y-42585D01*
X58466Y-42563D01*
X58466Y-42364D01*
X58614Y-42216D01*
X59053Y-42216D01*
X59053Y-42245D01*
X59056Y-42251D01*
G54D10*
G36*
X61130Y-44042D02*
X60717Y-44455D01*
X60590Y-44455D01*
X60590Y-43902D01*
X60590Y-43847D01*
X60590Y-43645D01*
X60590Y-43555D01*
X60590Y-43352D01*
X60590Y-43297D01*
X60568Y-43245D01*
X60529Y-43206D01*
X60477Y-43185D01*
X60320Y-43185D01*
X60285Y-43220D01*
X60285Y-43590D01*
X60555Y-43590D01*
X60590Y-43555D01*
X60590Y-43645D01*
X60555Y-43610D01*
X60285Y-43610D01*
X60285Y-43980D01*
X60320Y-44015D01*
X60477Y-44015D01*
X60529Y-43993D01*
X60568Y-43954D01*
X60590Y-43902D01*
X60590Y-44455D01*
X60265Y-44455D01*
X60265Y-43980D01*
X60265Y-43610D01*
X60265Y-43590D01*
X60265Y-43220D01*
X60230Y-43185D01*
X60072Y-43185D01*
X60020Y-43206D01*
X59981Y-43245D01*
X59960Y-43297D01*
X59960Y-43352D01*
X59960Y-43555D01*
X59995Y-43590D01*
X60265Y-43590D01*
X60265Y-43610D01*
X59995Y-43610D01*
X59960Y-43645D01*
X59960Y-43847D01*
X59960Y-43902D01*
X59981Y-43954D01*
X60020Y-43993D01*
X60072Y-44015D01*
X60230Y-44015D01*
X60265Y-43980D01*
X60265Y-44455D01*
X59395Y-44455D01*
X59395Y-44426D01*
X59376Y-44382D01*
X59342Y-44348D01*
X59298Y-44330D01*
X59251Y-44330D01*
X59170Y-44330D01*
X59170Y-43800D01*
X59157Y-43734D01*
X59157Y-43734D01*
X59120Y-43679D01*
X59007Y-43566D01*
X59230Y-43566D01*
X59230Y-43898D01*
X59248Y-43942D01*
X59282Y-43976D01*
X59326Y-43995D01*
X59373Y-43995D01*
X59723Y-43995D01*
X59767Y-43976D01*
X59801Y-43942D01*
X59820Y-43898D01*
X59820Y-43851D01*
X59820Y-43301D01*
X59801Y-43257D01*
X59767Y-43223D01*
X59723Y-43205D01*
X59676Y-43205D01*
X59326Y-43205D01*
X59282Y-43223D01*
X59278Y-43226D01*
X58810Y-43226D01*
X58810Y-43173D01*
X58866Y-43173D01*
X58931Y-43160D01*
X58931Y-43160D01*
X58987Y-43123D01*
X59071Y-43038D01*
X59072Y-43039D01*
X59105Y-43072D01*
X59149Y-43091D01*
X59197Y-43091D01*
X59747Y-43091D01*
X59791Y-43072D01*
X59825Y-43039D01*
X59843Y-42995D01*
X59843Y-42966D01*
X59939Y-42966D01*
X59939Y-42995D01*
X59957Y-43039D01*
X59991Y-43072D01*
X60035Y-43091D01*
X60083Y-43091D01*
X60633Y-43091D01*
X60677Y-43072D01*
X60711Y-43039D01*
X60729Y-42995D01*
X60729Y-42966D01*
X60943Y-42966D01*
X61008Y-42953D01*
X61008Y-42953D01*
X61064Y-42916D01*
X61130Y-42850D01*
X61130Y-44042D01*
X61130Y-44042D01*
G37*
G54D22*
X61130Y-44042D02*
X60717Y-44455D01*
X60590Y-44455D01*
X60590Y-43902D01*
X60590Y-43847D01*
X60590Y-43645D01*
X60590Y-43555D01*
X60590Y-43352D01*
X60590Y-43297D01*
X60568Y-43245D01*
X60529Y-43206D01*
X60477Y-43185D01*
X60320Y-43185D01*
X60285Y-43220D01*
X60285Y-43590D01*
X60555Y-43590D01*
X60590Y-43555D01*
X60590Y-43645D01*
X60555Y-43610D01*
X60285Y-43610D01*
X60285Y-43980D01*
X60320Y-44015D01*
X60477Y-44015D01*
X60529Y-43993D01*
X60568Y-43954D01*
X60590Y-43902D01*
X60590Y-44455D01*
X60265Y-44455D01*
X60265Y-43980D01*
X60265Y-43610D01*
X60265Y-43590D01*
X60265Y-43220D01*
X60230Y-43185D01*
X60072Y-43185D01*
X60020Y-43206D01*
X59981Y-43245D01*
X59960Y-43297D01*
X59960Y-43352D01*
X59960Y-43555D01*
X59995Y-43590D01*
X60265Y-43590D01*
X60265Y-43610D01*
X59995Y-43610D01*
X59960Y-43645D01*
X59960Y-43847D01*
X59960Y-43902D01*
X59981Y-43954D01*
X60020Y-43993D01*
X60072Y-44015D01*
X60230Y-44015D01*
X60265Y-43980D01*
X60265Y-44455D01*
X59395Y-44455D01*
X59395Y-44426D01*
X59376Y-44382D01*
X59342Y-44348D01*
X59298Y-44330D01*
X59251Y-44330D01*
X59170Y-44330D01*
X59170Y-43800D01*
X59157Y-43734D01*
X59157Y-43734D01*
X59120Y-43679D01*
X59007Y-43566D01*
X59230Y-43566D01*
X59230Y-43898D01*
X59248Y-43942D01*
X59282Y-43976D01*
X59326Y-43995D01*
X59373Y-43995D01*
X59723Y-43995D01*
X59767Y-43976D01*
X59801Y-43942D01*
X59820Y-43898D01*
X59820Y-43851D01*
X59820Y-43301D01*
X59801Y-43257D01*
X59767Y-43223D01*
X59723Y-43205D01*
X59676Y-43205D01*
X59326Y-43205D01*
X59282Y-43223D01*
X59278Y-43226D01*
X58810Y-43226D01*
X58810Y-43173D01*
X58866Y-43173D01*
X58931Y-43160D01*
X58931Y-43160D01*
X58987Y-43123D01*
X59071Y-43038D01*
X59072Y-43039D01*
X59105Y-43072D01*
X59149Y-43091D01*
X59197Y-43091D01*
X59747Y-43091D01*
X59791Y-43072D01*
X59825Y-43039D01*
X59843Y-42995D01*
X59843Y-42966D01*
X59939Y-42966D01*
X59939Y-42995D01*
X59957Y-43039D01*
X59991Y-43072D01*
X60035Y-43091D01*
X60083Y-43091D01*
X60633Y-43091D01*
X60677Y-43072D01*
X60711Y-43039D01*
X60729Y-42995D01*
X60729Y-42966D01*
X60943Y-42966D01*
X61008Y-42953D01*
X61008Y-42953D01*
X61064Y-42916D01*
X61130Y-42850D01*
X61130Y-44042D01*
G54D10*
G36*
X62860Y-47160D02*
X62741Y-47160D01*
X62741Y-39919D01*
X62677Y-39757D01*
X62668Y-39744D01*
X62599Y-39714D01*
X62585Y-39728D01*
X62585Y-39700D01*
X62555Y-39631D01*
X62394Y-39561D01*
X62219Y-39558D01*
X62057Y-39622D01*
X62044Y-39631D01*
X62014Y-39700D01*
X62300Y-39985D01*
X62585Y-39700D01*
X62585Y-39728D01*
X62314Y-40000D01*
X62599Y-40285D01*
X62668Y-40255D01*
X62738Y-40094D01*
X62741Y-39919D01*
X62741Y-47160D01*
X62585Y-47160D01*
X62585Y-40299D01*
X62300Y-40014D01*
X62285Y-40028D01*
X62285Y-40000D01*
X62000Y-39714D01*
X61931Y-39744D01*
X61861Y-39905D01*
X61858Y-40080D01*
X61922Y-40242D01*
X61931Y-40255D01*
X62000Y-40285D01*
X62285Y-40000D01*
X62285Y-40028D01*
X62014Y-40299D01*
X62044Y-40368D01*
X62205Y-40438D01*
X62380Y-40441D01*
X62542Y-40377D01*
X62555Y-40368D01*
X62585Y-40299D01*
X62585Y-47160D01*
X61720Y-47160D01*
X61720Y-39916D01*
X61656Y-39762D01*
X61538Y-39644D01*
X61383Y-39580D01*
X61216Y-39579D01*
X61062Y-39643D01*
X60944Y-39761D01*
X60880Y-39916D01*
X60879Y-40083D01*
X60943Y-40237D01*
X61061Y-40355D01*
X61130Y-40384D01*
X61130Y-42369D01*
X60873Y-42626D01*
X60729Y-42626D01*
X60729Y-42597D01*
X60711Y-42553D01*
X60677Y-42519D01*
X60633Y-42501D01*
X60585Y-42501D01*
X60120Y-42501D01*
X60280Y-42341D01*
X60633Y-42341D01*
X60677Y-42322D01*
X60711Y-42289D01*
X60729Y-42245D01*
X60729Y-42197D01*
X60729Y-41847D01*
X60711Y-41803D01*
X60677Y-41769D01*
X60633Y-41751D01*
X60585Y-41751D01*
X60504Y-41751D01*
X60504Y-40369D01*
X60537Y-40356D01*
X60655Y-40238D01*
X60719Y-40083D01*
X60720Y-39916D01*
X60656Y-39762D01*
X60538Y-39644D01*
X60383Y-39580D01*
X60216Y-39579D01*
X60062Y-39643D01*
X59944Y-39761D01*
X59880Y-39916D01*
X59879Y-40083D01*
X59943Y-40237D01*
X60061Y-40355D01*
X60164Y-40398D01*
X60164Y-41751D01*
X60035Y-41751D01*
X59991Y-41769D01*
X59957Y-41803D01*
X59939Y-41847D01*
X59939Y-41895D01*
X59939Y-42200D01*
X59889Y-42251D01*
X59841Y-42251D01*
X59843Y-42245D01*
X59843Y-42197D01*
X59843Y-41847D01*
X59825Y-41803D01*
X59791Y-41769D01*
X59747Y-41751D01*
X59699Y-41751D01*
X59618Y-41751D01*
X59618Y-40275D01*
X59655Y-40238D01*
X59719Y-40083D01*
X59720Y-39916D01*
X59656Y-39762D01*
X59538Y-39644D01*
X59383Y-39580D01*
X59216Y-39579D01*
X59062Y-39643D01*
X58944Y-39761D01*
X58880Y-39916D01*
X58879Y-40083D01*
X58943Y-40237D01*
X59061Y-40355D01*
X59216Y-40419D01*
X59278Y-40419D01*
X59278Y-41751D01*
X59149Y-41751D01*
X59105Y-41769D01*
X59072Y-41803D01*
X59053Y-41847D01*
X59053Y-41876D01*
X58544Y-41876D01*
X58479Y-41889D01*
X58424Y-41926D01*
X58270Y-42080D01*
X58270Y-40419D01*
X58383Y-40420D01*
X58537Y-40356D01*
X58655Y-40238D01*
X58719Y-40083D01*
X58720Y-39916D01*
X58656Y-39762D01*
X58538Y-39644D01*
X58383Y-39580D01*
X58216Y-39579D01*
X58062Y-39643D01*
X57944Y-39761D01*
X57880Y-39916D01*
X57879Y-40083D01*
X57930Y-40204D01*
X57930Y-42487D01*
X57913Y-42504D01*
X57913Y-42717D01*
X57920Y-42717D01*
X57920Y-42737D01*
X57913Y-42737D01*
X57913Y-42950D01*
X57948Y-42985D01*
X57990Y-42985D01*
X58038Y-42965D01*
X58064Y-42965D01*
X58182Y-42965D01*
X58198Y-42959D01*
X58213Y-42965D01*
X58261Y-42965D01*
X58334Y-42965D01*
X58334Y-42967D01*
X58334Y-43086D01*
X58340Y-43101D01*
X58334Y-43117D01*
X58334Y-43164D01*
X58334Y-43282D01*
X58340Y-43298D01*
X58334Y-43313D01*
X58334Y-43361D01*
X58334Y-43421D01*
X58306Y-43449D01*
X58306Y-43662D01*
X58314Y-43662D01*
X58314Y-43682D01*
X58306Y-43682D01*
X58306Y-43895D01*
X58341Y-43930D01*
X58383Y-43930D01*
X58435Y-43909D01*
X58474Y-43869D01*
X58495Y-43818D01*
X58495Y-43772D01*
X58714Y-43772D01*
X58727Y-43767D01*
X58830Y-43870D01*
X58830Y-44330D01*
X58701Y-44330D01*
X58657Y-44348D01*
X58623Y-44382D01*
X58605Y-44426D01*
X58605Y-44455D01*
X58495Y-44455D01*
X58495Y-44426D01*
X58476Y-44382D01*
X58442Y-44348D01*
X58398Y-44330D01*
X58351Y-44330D01*
X58299Y-44330D01*
X58299Y-43818D01*
X58299Y-43762D01*
X58299Y-43717D01*
X58299Y-43627D01*
X58299Y-43582D01*
X58299Y-43526D01*
X58286Y-43497D01*
X58286Y-43449D01*
X58251Y-43414D01*
X58209Y-43414D01*
X58198Y-43419D01*
X58186Y-43414D01*
X58145Y-43414D01*
X58110Y-43449D01*
X58110Y-43497D01*
X58097Y-43526D01*
X58097Y-43582D01*
X58097Y-43627D01*
X58110Y-43639D01*
X58110Y-43662D01*
X58132Y-43662D01*
X58264Y-43662D01*
X58286Y-43662D01*
X58286Y-43639D01*
X58299Y-43627D01*
X58299Y-43717D01*
X58286Y-43705D01*
X58286Y-43682D01*
X58264Y-43682D01*
X58132Y-43682D01*
X58110Y-43682D01*
X58110Y-43705D01*
X58097Y-43717D01*
X58097Y-43762D01*
X58097Y-43818D01*
X58110Y-43847D01*
X58110Y-43895D01*
X58145Y-43930D01*
X58186Y-43930D01*
X58198Y-43925D01*
X58209Y-43930D01*
X58251Y-43930D01*
X58286Y-43895D01*
X58286Y-43847D01*
X58299Y-43818D01*
X58299Y-44330D01*
X58073Y-44330D01*
X58073Y-43912D01*
X58090Y-43895D01*
X58090Y-43682D01*
X58082Y-43682D01*
X58082Y-43662D01*
X58090Y-43662D01*
X58090Y-43449D01*
X58055Y-43414D01*
X58013Y-43414D01*
X57964Y-43434D01*
X57938Y-43434D01*
X57893Y-43434D01*
X57893Y-42950D01*
X57893Y-42737D01*
X57885Y-42737D01*
X57885Y-42717D01*
X57893Y-42717D01*
X57893Y-42504D01*
X57858Y-42469D01*
X57816Y-42469D01*
X57764Y-42490D01*
X57725Y-42530D01*
X57704Y-42581D01*
X57704Y-42627D01*
X57485Y-42627D01*
X57470Y-42633D01*
X57470Y-40384D01*
X57537Y-40356D01*
X57655Y-40238D01*
X57719Y-40083D01*
X57720Y-39916D01*
X57656Y-39762D01*
X57538Y-39644D01*
X57383Y-39580D01*
X57216Y-39579D01*
X57062Y-39643D01*
X56944Y-39761D01*
X56880Y-39916D01*
X56879Y-40083D01*
X56943Y-40237D01*
X57061Y-40355D01*
X57130Y-40384D01*
X57130Y-42733D01*
X57142Y-42798D01*
X57179Y-42853D01*
X57253Y-42926D01*
X57308Y-42963D01*
X57308Y-42963D01*
X57318Y-42965D01*
X57373Y-42976D01*
X57373Y-42976D01*
X57373Y-42976D01*
X57387Y-42976D01*
X57404Y-42993D01*
X57617Y-42993D01*
X57617Y-42985D01*
X57637Y-42985D01*
X57637Y-42993D01*
X57850Y-42993D01*
X57858Y-42985D01*
X57885Y-42958D01*
X57893Y-42950D01*
X57893Y-43434D01*
X57885Y-43434D01*
X57885Y-43351D01*
X57885Y-43309D01*
X57865Y-43261D01*
X57865Y-43235D01*
X57865Y-43138D01*
X57885Y-43090D01*
X57885Y-43048D01*
X57850Y-43013D01*
X57637Y-43013D01*
X57637Y-43020D01*
X57617Y-43020D01*
X57617Y-43013D01*
X57404Y-43013D01*
X57387Y-43030D01*
X57148Y-43030D01*
X56470Y-42351D01*
X56470Y-40384D01*
X56537Y-40356D01*
X56655Y-40238D01*
X56719Y-40083D01*
X56720Y-39916D01*
X56656Y-39762D01*
X56538Y-39644D01*
X56383Y-39580D01*
X56216Y-39579D01*
X56062Y-39643D01*
X55944Y-39761D01*
X55880Y-39916D01*
X55879Y-40083D01*
X55943Y-40237D01*
X56061Y-40355D01*
X56130Y-40384D01*
X56130Y-42422D01*
X56142Y-42487D01*
X56179Y-42542D01*
X56957Y-43320D01*
X57012Y-43357D01*
X57012Y-43357D01*
X57077Y-43370D01*
X57387Y-43370D01*
X57404Y-43386D01*
X57617Y-43386D01*
X57617Y-43379D01*
X57637Y-43379D01*
X57637Y-43386D01*
X57850Y-43386D01*
X57885Y-43351D01*
X57885Y-43434D01*
X57878Y-43434D01*
X57850Y-43406D01*
X57802Y-43406D01*
X57773Y-43394D01*
X57672Y-43394D01*
X57660Y-43406D01*
X57637Y-43406D01*
X57637Y-43429D01*
X57637Y-43560D01*
X57637Y-43583D01*
X57645Y-43583D01*
X57645Y-43603D01*
X57637Y-43603D01*
X57637Y-43757D01*
X57672Y-43792D01*
X57724Y-43792D01*
X57724Y-43814D01*
X57733Y-43836D01*
X57733Y-44372D01*
X57723Y-44382D01*
X57705Y-44426D01*
X57705Y-44455D01*
X57695Y-44455D01*
X57695Y-44426D01*
X57676Y-44382D01*
X57642Y-44348D01*
X57617Y-44337D01*
X57617Y-43757D01*
X57617Y-43603D01*
X57617Y-43583D01*
X57617Y-43560D01*
X57617Y-43429D01*
X57617Y-43406D01*
X57594Y-43406D01*
X57582Y-43394D01*
X57481Y-43394D01*
X57452Y-43406D01*
X57404Y-43406D01*
X57369Y-43441D01*
X57369Y-43483D01*
X57374Y-43495D01*
X57369Y-43506D01*
X57369Y-43548D01*
X57404Y-43583D01*
X57452Y-43583D01*
X57481Y-43595D01*
X57582Y-43595D01*
X57594Y-43583D01*
X57617Y-43583D01*
X57617Y-43603D01*
X57404Y-43603D01*
X57369Y-43638D01*
X57369Y-43680D01*
X57390Y-43732D01*
X57430Y-43771D01*
X57481Y-43792D01*
X57582Y-43792D01*
X57617Y-43757D01*
X57617Y-44337D01*
X57598Y-44330D01*
X57551Y-44330D01*
X57001Y-44330D01*
X56957Y-44348D01*
X56923Y-44382D01*
X56905Y-44426D01*
X56905Y-44473D01*
X56905Y-44823D01*
X56923Y-44867D01*
X56957Y-44901D01*
X57001Y-44920D01*
X57048Y-44920D01*
X57598Y-44920D01*
X57642Y-44901D01*
X57676Y-44867D01*
X57695Y-44823D01*
X57695Y-44795D01*
X57705Y-44795D01*
X57705Y-44823D01*
X57723Y-44867D01*
X57757Y-44901D01*
X57801Y-44920D01*
X57848Y-44920D01*
X58398Y-44920D01*
X58442Y-44901D01*
X58476Y-44867D01*
X58495Y-44823D01*
X58495Y-44795D01*
X58605Y-44795D01*
X58605Y-44823D01*
X58623Y-44867D01*
X58657Y-44901D01*
X58701Y-44920D01*
X58748Y-44920D01*
X59298Y-44920D01*
X59342Y-44901D01*
X59376Y-44867D01*
X59395Y-44823D01*
X59395Y-44795D01*
X60788Y-44795D01*
X60853Y-44782D01*
X60853Y-44782D01*
X60908Y-44745D01*
X61420Y-44233D01*
X61420Y-44233D01*
X61420Y-44233D01*
X61444Y-44196D01*
X61457Y-44178D01*
X61457Y-44178D01*
X61470Y-44113D01*
X61470Y-44113D01*
X61470Y-44113D01*
X61470Y-42440D01*
X61470Y-40384D01*
X61537Y-40356D01*
X61655Y-40238D01*
X61719Y-40083D01*
X61720Y-39916D01*
X61720Y-47160D01*
X59415Y-47160D01*
X59415Y-45577D01*
X59415Y-45420D01*
X59415Y-45330D01*
X59415Y-45172D01*
X59393Y-45120D01*
X59354Y-45081D01*
X59302Y-45060D01*
X59247Y-45060D01*
X59045Y-45060D01*
X59010Y-45095D01*
X59010Y-45365D01*
X59380Y-45365D01*
X59415Y-45330D01*
X59415Y-45420D01*
X59380Y-45385D01*
X59010Y-45385D01*
X59010Y-45655D01*
X59045Y-45690D01*
X59247Y-45690D01*
X59302Y-45690D01*
X59354Y-45668D01*
X59393Y-45629D01*
X59415Y-45577D01*
X59415Y-47160D01*
X58990Y-47160D01*
X58990Y-45655D01*
X58990Y-45385D01*
X58990Y-45365D01*
X58990Y-45095D01*
X58955Y-45060D01*
X58752Y-45060D01*
X58697Y-45060D01*
X58645Y-45081D01*
X58606Y-45120D01*
X58585Y-45172D01*
X58585Y-45330D01*
X58620Y-45365D01*
X58990Y-45365D01*
X58990Y-45385D01*
X58620Y-45385D01*
X58585Y-45420D01*
X58585Y-45577D01*
X58606Y-45629D01*
X58645Y-45668D01*
X58697Y-45690D01*
X58752Y-45690D01*
X58955Y-45690D01*
X58990Y-45655D01*
X58990Y-47160D01*
X58515Y-47160D01*
X58515Y-45577D01*
X58515Y-45420D01*
X58515Y-45330D01*
X58515Y-45172D01*
X58493Y-45120D01*
X58454Y-45081D01*
X58402Y-45060D01*
X58347Y-45060D01*
X58145Y-45060D01*
X58110Y-45095D01*
X58110Y-45365D01*
X58480Y-45365D01*
X58515Y-45330D01*
X58515Y-45420D01*
X58480Y-45385D01*
X58110Y-45385D01*
X58110Y-45655D01*
X58145Y-45690D01*
X58347Y-45690D01*
X58402Y-45690D01*
X58454Y-45668D01*
X58493Y-45629D01*
X58515Y-45577D01*
X58515Y-47160D01*
X58090Y-47160D01*
X58090Y-45655D01*
X58090Y-45385D01*
X58090Y-45365D01*
X58090Y-45095D01*
X58055Y-45060D01*
X57852Y-45060D01*
X57797Y-45060D01*
X57745Y-45081D01*
X57706Y-45120D01*
X57700Y-45135D01*
X57693Y-45120D01*
X57654Y-45081D01*
X57602Y-45060D01*
X57547Y-45060D01*
X57345Y-45060D01*
X57310Y-45095D01*
X57310Y-45365D01*
X57680Y-45365D01*
X57700Y-45345D01*
X57720Y-45365D01*
X58090Y-45365D01*
X58090Y-45385D01*
X57720Y-45385D01*
X57700Y-45405D01*
X57680Y-45385D01*
X57310Y-45385D01*
X57310Y-45655D01*
X57345Y-45690D01*
X57547Y-45690D01*
X57602Y-45690D01*
X57654Y-45668D01*
X57693Y-45629D01*
X57700Y-45614D01*
X57706Y-45629D01*
X57745Y-45668D01*
X57797Y-45690D01*
X57852Y-45690D01*
X58055Y-45690D01*
X58090Y-45655D01*
X58090Y-47160D01*
X57290Y-47160D01*
X57290Y-45655D01*
X57290Y-45385D01*
X57290Y-45365D01*
X57290Y-45095D01*
X57255Y-45060D01*
X57052Y-45060D01*
X56997Y-45060D01*
X56945Y-45081D01*
X56906Y-45120D01*
X56885Y-45172D01*
X56885Y-45330D01*
X56920Y-45365D01*
X57290Y-45365D01*
X57290Y-45385D01*
X56920Y-45385D01*
X56885Y-45420D01*
X56885Y-45577D01*
X56906Y-45629D01*
X56945Y-45668D01*
X56997Y-45690D01*
X57052Y-45690D01*
X57255Y-45690D01*
X57290Y-45655D01*
X57290Y-47160D01*
X55740Y-47160D01*
X55740Y-40327D01*
X55740Y-40272D01*
X55740Y-40045D01*
X55740Y-39955D01*
X55740Y-39727D01*
X55740Y-39672D01*
X55718Y-39620D01*
X55679Y-39581D01*
X55627Y-39560D01*
X55345Y-39560D01*
X55310Y-39595D01*
X55310Y-39990D01*
X55705Y-39990D01*
X55740Y-39955D01*
X55740Y-40045D01*
X55705Y-40010D01*
X55310Y-40010D01*
X55310Y-40405D01*
X55345Y-40440D01*
X55627Y-40440D01*
X55679Y-40418D01*
X55718Y-40379D01*
X55740Y-40327D01*
X55740Y-47160D01*
X55290Y-47160D01*
X55290Y-40405D01*
X55290Y-40010D01*
X55290Y-39990D01*
X55290Y-39595D01*
X55255Y-39560D01*
X54972Y-39560D01*
X54920Y-39581D01*
X54881Y-39620D01*
X54860Y-39672D01*
X54860Y-39727D01*
X54860Y-39955D01*
X54895Y-39990D01*
X55290Y-39990D01*
X55290Y-40010D01*
X54895Y-40010D01*
X54860Y-40045D01*
X54860Y-40272D01*
X54860Y-40327D01*
X54881Y-40379D01*
X54920Y-40418D01*
X54972Y-40440D01*
X55255Y-40440D01*
X55290Y-40405D01*
X55290Y-47160D01*
X54740Y-47160D01*
X54740Y-39440D01*
X62860Y-39440D01*
X62860Y-47160D01*
X62860Y-47160D01*
G37*
G54D22*
X62860Y-47160D02*
X62741Y-47160D01*
X62741Y-39919D01*
X62677Y-39757D01*
X62668Y-39744D01*
X62599Y-39714D01*
X62585Y-39728D01*
X62585Y-39700D01*
X62555Y-39631D01*
X62394Y-39561D01*
X62219Y-39558D01*
X62057Y-39622D01*
X62044Y-39631D01*
X62014Y-39700D01*
X62300Y-39985D01*
X62585Y-39700D01*
X62585Y-39728D01*
X62314Y-40000D01*
X62599Y-40285D01*
X62668Y-40255D01*
X62738Y-40094D01*
X62741Y-39919D01*
X62741Y-47160D01*
X62585Y-47160D01*
X62585Y-40299D01*
X62300Y-40014D01*
X62285Y-40028D01*
X62285Y-40000D01*
X62000Y-39714D01*
X61931Y-39744D01*
X61861Y-39905D01*
X61858Y-40080D01*
X61922Y-40242D01*
X61931Y-40255D01*
X62000Y-40285D01*
X62285Y-40000D01*
X62285Y-40028D01*
X62014Y-40299D01*
X62044Y-40368D01*
X62205Y-40438D01*
X62380Y-40441D01*
X62542Y-40377D01*
X62555Y-40368D01*
X62585Y-40299D01*
X62585Y-47160D01*
X61720Y-47160D01*
X61720Y-39916D01*
X61656Y-39762D01*
X61538Y-39644D01*
X61383Y-39580D01*
X61216Y-39579D01*
X61062Y-39643D01*
X60944Y-39761D01*
X60880Y-39916D01*
X60879Y-40083D01*
X60943Y-40237D01*
X61061Y-40355D01*
X61130Y-40384D01*
X61130Y-42369D01*
X60873Y-42626D01*
X60729Y-42626D01*
X60729Y-42597D01*
X60711Y-42553D01*
X60677Y-42519D01*
X60633Y-42501D01*
X60585Y-42501D01*
X60120Y-42501D01*
X60280Y-42341D01*
X60633Y-42341D01*
X60677Y-42322D01*
X60711Y-42289D01*
X60729Y-42245D01*
X60729Y-42197D01*
X60729Y-41847D01*
X60711Y-41803D01*
X60677Y-41769D01*
X60633Y-41751D01*
X60585Y-41751D01*
X60504Y-41751D01*
X60504Y-40369D01*
X60537Y-40356D01*
X60655Y-40238D01*
X60719Y-40083D01*
X60720Y-39916D01*
X60656Y-39762D01*
X60538Y-39644D01*
X60383Y-39580D01*
X60216Y-39579D01*
X60062Y-39643D01*
X59944Y-39761D01*
X59880Y-39916D01*
X59879Y-40083D01*
X59943Y-40237D01*
X60061Y-40355D01*
X60164Y-40398D01*
X60164Y-41751D01*
X60035Y-41751D01*
X59991Y-41769D01*
X59957Y-41803D01*
X59939Y-41847D01*
X59939Y-41895D01*
X59939Y-42200D01*
X59889Y-42251D01*
X59841Y-42251D01*
X59843Y-42245D01*
X59843Y-42197D01*
X59843Y-41847D01*
X59825Y-41803D01*
X59791Y-41769D01*
X59747Y-41751D01*
X59699Y-41751D01*
X59618Y-41751D01*
X59618Y-40275D01*
X59655Y-40238D01*
X59719Y-40083D01*
X59720Y-39916D01*
X59656Y-39762D01*
X59538Y-39644D01*
X59383Y-39580D01*
X59216Y-39579D01*
X59062Y-39643D01*
X58944Y-39761D01*
X58880Y-39916D01*
X58879Y-40083D01*
X58943Y-40237D01*
X59061Y-40355D01*
X59216Y-40419D01*
X59278Y-40419D01*
X59278Y-41751D01*
X59149Y-41751D01*
X59105Y-41769D01*
X59072Y-41803D01*
X59053Y-41847D01*
X59053Y-41876D01*
X58544Y-41876D01*
X58479Y-41889D01*
X58424Y-41926D01*
X58270Y-42080D01*
X58270Y-40419D01*
X58383Y-40420D01*
X58537Y-40356D01*
X58655Y-40238D01*
X58719Y-40083D01*
X58720Y-39916D01*
X58656Y-39762D01*
X58538Y-39644D01*
X58383Y-39580D01*
X58216Y-39579D01*
X58062Y-39643D01*
X57944Y-39761D01*
X57880Y-39916D01*
X57879Y-40083D01*
X57930Y-40204D01*
X57930Y-42487D01*
X57913Y-42504D01*
X57913Y-42717D01*
X57920Y-42717D01*
X57920Y-42737D01*
X57913Y-42737D01*
X57913Y-42950D01*
X57948Y-42985D01*
X57990Y-42985D01*
X58038Y-42965D01*
X58064Y-42965D01*
X58182Y-42965D01*
X58198Y-42959D01*
X58213Y-42965D01*
X58261Y-42965D01*
X58334Y-42965D01*
X58334Y-42967D01*
X58334Y-43086D01*
X58340Y-43101D01*
X58334Y-43117D01*
X58334Y-43164D01*
X58334Y-43282D01*
X58340Y-43298D01*
X58334Y-43313D01*
X58334Y-43361D01*
X58334Y-43421D01*
X58306Y-43449D01*
X58306Y-43662D01*
X58314Y-43662D01*
X58314Y-43682D01*
X58306Y-43682D01*
X58306Y-43895D01*
X58341Y-43930D01*
X58383Y-43930D01*
X58435Y-43909D01*
X58474Y-43869D01*
X58495Y-43818D01*
X58495Y-43772D01*
X58714Y-43772D01*
X58727Y-43767D01*
X58830Y-43870D01*
X58830Y-44330D01*
X58701Y-44330D01*
X58657Y-44348D01*
X58623Y-44382D01*
X58605Y-44426D01*
X58605Y-44455D01*
X58495Y-44455D01*
X58495Y-44426D01*
X58476Y-44382D01*
X58442Y-44348D01*
X58398Y-44330D01*
X58351Y-44330D01*
X58299Y-44330D01*
X58299Y-43818D01*
X58299Y-43762D01*
X58299Y-43717D01*
X58299Y-43627D01*
X58299Y-43582D01*
X58299Y-43526D01*
X58286Y-43497D01*
X58286Y-43449D01*
X58251Y-43414D01*
X58209Y-43414D01*
X58198Y-43419D01*
X58186Y-43414D01*
X58145Y-43414D01*
X58110Y-43449D01*
X58110Y-43497D01*
X58097Y-43526D01*
X58097Y-43582D01*
X58097Y-43627D01*
X58110Y-43639D01*
X58110Y-43662D01*
X58132Y-43662D01*
X58264Y-43662D01*
X58286Y-43662D01*
X58286Y-43639D01*
X58299Y-43627D01*
X58299Y-43717D01*
X58286Y-43705D01*
X58286Y-43682D01*
X58264Y-43682D01*
X58132Y-43682D01*
X58110Y-43682D01*
X58110Y-43705D01*
X58097Y-43717D01*
X58097Y-43762D01*
X58097Y-43818D01*
X58110Y-43847D01*
X58110Y-43895D01*
X58145Y-43930D01*
X58186Y-43930D01*
X58198Y-43925D01*
X58209Y-43930D01*
X58251Y-43930D01*
X58286Y-43895D01*
X58286Y-43847D01*
X58299Y-43818D01*
X58299Y-44330D01*
X58073Y-44330D01*
X58073Y-43912D01*
X58090Y-43895D01*
X58090Y-43682D01*
X58082Y-43682D01*
X58082Y-43662D01*
X58090Y-43662D01*
X58090Y-43449D01*
X58055Y-43414D01*
X58013Y-43414D01*
X57964Y-43434D01*
X57938Y-43434D01*
X57893Y-43434D01*
X57893Y-42950D01*
X57893Y-42737D01*
X57885Y-42737D01*
X57885Y-42717D01*
X57893Y-42717D01*
X57893Y-42504D01*
X57858Y-42469D01*
X57816Y-42469D01*
X57764Y-42490D01*
X57725Y-42530D01*
X57704Y-42581D01*
X57704Y-42627D01*
X57485Y-42627D01*
X57470Y-42633D01*
X57470Y-40384D01*
X57537Y-40356D01*
X57655Y-40238D01*
X57719Y-40083D01*
X57720Y-39916D01*
X57656Y-39762D01*
X57538Y-39644D01*
X57383Y-39580D01*
X57216Y-39579D01*
X57062Y-39643D01*
X56944Y-39761D01*
X56880Y-39916D01*
X56879Y-40083D01*
X56943Y-40237D01*
X57061Y-40355D01*
X57130Y-40384D01*
X57130Y-42733D01*
X57142Y-42798D01*
X57179Y-42853D01*
X57253Y-42926D01*
X57308Y-42963D01*
X57308Y-42963D01*
X57318Y-42965D01*
X57373Y-42976D01*
X57373Y-42976D01*
X57373Y-42976D01*
X57387Y-42976D01*
X57404Y-42993D01*
X57617Y-42993D01*
X57617Y-42985D01*
X57637Y-42985D01*
X57637Y-42993D01*
X57850Y-42993D01*
X57858Y-42985D01*
X57885Y-42958D01*
X57893Y-42950D01*
X57893Y-43434D01*
X57885Y-43434D01*
X57885Y-43351D01*
X57885Y-43309D01*
X57865Y-43261D01*
X57865Y-43235D01*
X57865Y-43138D01*
X57885Y-43090D01*
X57885Y-43048D01*
X57850Y-43013D01*
X57637Y-43013D01*
X57637Y-43020D01*
X57617Y-43020D01*
X57617Y-43013D01*
X57404Y-43013D01*
X57387Y-43030D01*
X57148Y-43030D01*
X56470Y-42351D01*
X56470Y-40384D01*
X56537Y-40356D01*
X56655Y-40238D01*
X56719Y-40083D01*
X56720Y-39916D01*
X56656Y-39762D01*
X56538Y-39644D01*
X56383Y-39580D01*
X56216Y-39579D01*
X56062Y-39643D01*
X55944Y-39761D01*
X55880Y-39916D01*
X55879Y-40083D01*
X55943Y-40237D01*
X56061Y-40355D01*
X56130Y-40384D01*
X56130Y-42422D01*
X56142Y-42487D01*
X56179Y-42542D01*
X56957Y-43320D01*
X57012Y-43357D01*
X57012Y-43357D01*
X57077Y-43370D01*
X57387Y-43370D01*
X57404Y-43386D01*
X57617Y-43386D01*
X57617Y-43379D01*
X57637Y-43379D01*
X57637Y-43386D01*
X57850Y-43386D01*
X57885Y-43351D01*
X57885Y-43434D01*
X57878Y-43434D01*
X57850Y-43406D01*
X57802Y-43406D01*
X57773Y-43394D01*
X57672Y-43394D01*
X57660Y-43406D01*
X57637Y-43406D01*
X57637Y-43429D01*
X57637Y-43560D01*
X57637Y-43583D01*
X57645Y-43583D01*
X57645Y-43603D01*
X57637Y-43603D01*
X57637Y-43757D01*
X57672Y-43792D01*
X57724Y-43792D01*
X57724Y-43814D01*
X57733Y-43836D01*
X57733Y-44372D01*
X57723Y-44382D01*
X57705Y-44426D01*
X57705Y-44455D01*
X57695Y-44455D01*
X57695Y-44426D01*
X57676Y-44382D01*
X57642Y-44348D01*
X57617Y-44337D01*
X57617Y-43757D01*
X57617Y-43603D01*
X57617Y-43583D01*
X57617Y-43560D01*
X57617Y-43429D01*
X57617Y-43406D01*
X57594Y-43406D01*
X57582Y-43394D01*
X57481Y-43394D01*
X57452Y-43406D01*
X57404Y-43406D01*
X57369Y-43441D01*
X57369Y-43483D01*
X57374Y-43495D01*
X57369Y-43506D01*
X57369Y-43548D01*
X57404Y-43583D01*
X57452Y-43583D01*
X57481Y-43595D01*
X57582Y-43595D01*
X57594Y-43583D01*
X57617Y-43583D01*
X57617Y-43603D01*
X57404Y-43603D01*
X57369Y-43638D01*
X57369Y-43680D01*
X57390Y-43732D01*
X57430Y-43771D01*
X57481Y-43792D01*
X57582Y-43792D01*
X57617Y-43757D01*
X57617Y-44337D01*
X57598Y-44330D01*
X57551Y-44330D01*
X57001Y-44330D01*
X56957Y-44348D01*
X56923Y-44382D01*
X56905Y-44426D01*
X56905Y-44473D01*
X56905Y-44823D01*
X56923Y-44867D01*
X56957Y-44901D01*
X57001Y-44920D01*
X57048Y-44920D01*
X57598Y-44920D01*
X57642Y-44901D01*
X57676Y-44867D01*
X57695Y-44823D01*
X57695Y-44795D01*
X57705Y-44795D01*
X57705Y-44823D01*
X57723Y-44867D01*
X57757Y-44901D01*
X57801Y-44920D01*
X57848Y-44920D01*
X58398Y-44920D01*
X58442Y-44901D01*
X58476Y-44867D01*
X58495Y-44823D01*
X58495Y-44795D01*
X58605Y-44795D01*
X58605Y-44823D01*
X58623Y-44867D01*
X58657Y-44901D01*
X58701Y-44920D01*
X58748Y-44920D01*
X59298Y-44920D01*
X59342Y-44901D01*
X59376Y-44867D01*
X59395Y-44823D01*
X59395Y-44795D01*
X60788Y-44795D01*
X60853Y-44782D01*
X60853Y-44782D01*
X60908Y-44745D01*
X61420Y-44233D01*
X61420Y-44233D01*
X61420Y-44233D01*
X61444Y-44196D01*
X61457Y-44178D01*
X61457Y-44178D01*
X61470Y-44113D01*
X61470Y-44113D01*
X61470Y-44113D01*
X61470Y-42440D01*
X61470Y-40384D01*
X61537Y-40356D01*
X61655Y-40238D01*
X61719Y-40083D01*
X61720Y-39916D01*
X61720Y-47160D01*
X59415Y-47160D01*
X59415Y-45577D01*
X59415Y-45420D01*
X59415Y-45330D01*
X59415Y-45172D01*
X59393Y-45120D01*
X59354Y-45081D01*
X59302Y-45060D01*
X59247Y-45060D01*
X59045Y-45060D01*
X59010Y-45095D01*
X59010Y-45365D01*
X59380Y-45365D01*
X59415Y-45330D01*
X59415Y-45420D01*
X59380Y-45385D01*
X59010Y-45385D01*
X59010Y-45655D01*
X59045Y-45690D01*
X59247Y-45690D01*
X59302Y-45690D01*
X59354Y-45668D01*
X59393Y-45629D01*
X59415Y-45577D01*
X59415Y-47160D01*
X58990Y-47160D01*
X58990Y-45655D01*
X58990Y-45385D01*
X58990Y-45365D01*
X58990Y-45095D01*
X58955Y-45060D01*
X58752Y-45060D01*
X58697Y-45060D01*
X58645Y-45081D01*
X58606Y-45120D01*
X58585Y-45172D01*
X58585Y-45330D01*
X58620Y-45365D01*
X58990Y-45365D01*
X58990Y-45385D01*
X58620Y-45385D01*
X58585Y-45420D01*
X58585Y-45577D01*
X58606Y-45629D01*
X58645Y-45668D01*
X58697Y-45690D01*
X58752Y-45690D01*
X58955Y-45690D01*
X58990Y-45655D01*
X58990Y-47160D01*
X58515Y-47160D01*
X58515Y-45577D01*
X58515Y-45420D01*
X58515Y-45330D01*
X58515Y-45172D01*
X58493Y-45120D01*
X58454Y-45081D01*
X58402Y-45060D01*
X58347Y-45060D01*
X58145Y-45060D01*
X58110Y-45095D01*
X58110Y-45365D01*
X58480Y-45365D01*
X58515Y-45330D01*
X58515Y-45420D01*
X58480Y-45385D01*
X58110Y-45385D01*
X58110Y-45655D01*
X58145Y-45690D01*
X58347Y-45690D01*
X58402Y-45690D01*
X58454Y-45668D01*
X58493Y-45629D01*
X58515Y-45577D01*
X58515Y-47160D01*
X58090Y-47160D01*
X58090Y-45655D01*
X58090Y-45385D01*
X58090Y-45365D01*
X58090Y-45095D01*
X58055Y-45060D01*
X57852Y-45060D01*
X57797Y-45060D01*
X57745Y-45081D01*
X57706Y-45120D01*
X57700Y-45135D01*
X57693Y-45120D01*
X57654Y-45081D01*
X57602Y-45060D01*
X57547Y-45060D01*
X57345Y-45060D01*
X57310Y-45095D01*
X57310Y-45365D01*
X57680Y-45365D01*
X57700Y-45345D01*
X57720Y-45365D01*
X58090Y-45365D01*
X58090Y-45385D01*
X57720Y-45385D01*
X57700Y-45405D01*
X57680Y-45385D01*
X57310Y-45385D01*
X57310Y-45655D01*
X57345Y-45690D01*
X57547Y-45690D01*
X57602Y-45690D01*
X57654Y-45668D01*
X57693Y-45629D01*
X57700Y-45614D01*
X57706Y-45629D01*
X57745Y-45668D01*
X57797Y-45690D01*
X57852Y-45690D01*
X58055Y-45690D01*
X58090Y-45655D01*
X58090Y-47160D01*
X57290Y-47160D01*
X57290Y-45655D01*
X57290Y-45385D01*
X57290Y-45365D01*
X57290Y-45095D01*
X57255Y-45060D01*
X57052Y-45060D01*
X56997Y-45060D01*
X56945Y-45081D01*
X56906Y-45120D01*
X56885Y-45172D01*
X56885Y-45330D01*
X56920Y-45365D01*
X57290Y-45365D01*
X57290Y-45385D01*
X56920Y-45385D01*
X56885Y-45420D01*
X56885Y-45577D01*
X56906Y-45629D01*
X56945Y-45668D01*
X56997Y-45690D01*
X57052Y-45690D01*
X57255Y-45690D01*
X57290Y-45655D01*
X57290Y-47160D01*
X55740Y-47160D01*
X55740Y-40327D01*
X55740Y-40272D01*
X55740Y-40045D01*
X55740Y-39955D01*
X55740Y-39727D01*
X55740Y-39672D01*
X55718Y-39620D01*
X55679Y-39581D01*
X55627Y-39560D01*
X55345Y-39560D01*
X55310Y-39595D01*
X55310Y-39990D01*
X55705Y-39990D01*
X55740Y-39955D01*
X55740Y-40045D01*
X55705Y-40010D01*
X55310Y-40010D01*
X55310Y-40405D01*
X55345Y-40440D01*
X55627Y-40440D01*
X55679Y-40418D01*
X55718Y-40379D01*
X55740Y-40327D01*
X55740Y-47160D01*
X55290Y-47160D01*
X55290Y-40405D01*
X55290Y-40010D01*
X55290Y-39990D01*
X55290Y-39595D01*
X55255Y-39560D01*
X54972Y-39560D01*
X54920Y-39581D01*
X54881Y-39620D01*
X54860Y-39672D01*
X54860Y-39727D01*
X54860Y-39955D01*
X54895Y-39990D01*
X55290Y-39990D01*
X55290Y-40010D01*
X54895Y-40010D01*
X54860Y-40045D01*
X54860Y-40272D01*
X54860Y-40327D01*
X54881Y-40379D01*
X54920Y-40418D01*
X54972Y-40440D01*
X55255Y-40440D01*
X55290Y-40405D01*
X55290Y-47160D01*
X54740Y-47160D01*
X54740Y-39440D01*
X62860Y-39440D01*
X62860Y-47160D01*
G54D10*
G36*
X71467Y-46788D02*
X71338Y-46788D01*
X71338Y-40327D01*
X71338Y-40272D01*
X71338Y-39672D01*
X71317Y-39620D01*
X71277Y-39581D01*
X71226Y-39560D01*
X71170Y-39560D01*
X70570Y-39560D01*
X70519Y-39581D01*
X70479Y-39620D01*
X70458Y-39672D01*
X70458Y-39727D01*
X70458Y-40327D01*
X70479Y-40379D01*
X70519Y-40418D01*
X70570Y-40440D01*
X70626Y-40440D01*
X70676Y-40440D01*
X70676Y-41829D01*
X70563Y-41829D01*
X70511Y-41850D01*
X70472Y-41890D01*
X70451Y-41941D01*
X70451Y-41997D01*
X70451Y-42290D01*
X70412Y-42329D01*
X70296Y-42329D01*
X70296Y-42291D01*
X70296Y-41941D01*
X70275Y-41890D01*
X70236Y-41850D01*
X70184Y-41829D01*
X70129Y-41829D01*
X70071Y-41829D01*
X70071Y-40404D01*
X70147Y-40373D01*
X70271Y-40249D01*
X70338Y-40087D01*
X70338Y-39912D01*
X70271Y-39751D01*
X70147Y-39627D01*
X69986Y-39560D01*
X69811Y-39559D01*
X69649Y-39626D01*
X69525Y-39750D01*
X69458Y-39912D01*
X69458Y-40087D01*
X69525Y-40248D01*
X69648Y-40372D01*
X69691Y-40390D01*
X69691Y-41829D01*
X69579Y-41829D01*
X69527Y-41850D01*
X69488Y-41890D01*
X69466Y-41941D01*
X69466Y-41954D01*
X68451Y-41954D01*
X69032Y-41373D01*
X69073Y-41312D01*
X69088Y-41239D01*
X69088Y-40397D01*
X69147Y-40373D01*
X69271Y-40249D01*
X69338Y-40087D01*
X69338Y-39912D01*
X69271Y-39751D01*
X69147Y-39627D01*
X68986Y-39560D01*
X68811Y-39559D01*
X68649Y-39626D01*
X68525Y-39750D01*
X68458Y-39912D01*
X68458Y-40087D01*
X68525Y-40248D01*
X68648Y-40372D01*
X68708Y-40397D01*
X68708Y-41160D01*
X66939Y-42930D01*
X66904Y-42930D01*
X66858Y-42911D01*
X66802Y-42911D01*
X66636Y-42911D01*
X66636Y-42731D01*
X68032Y-41334D01*
X68073Y-41272D01*
X68088Y-41200D01*
X68088Y-40397D01*
X68147Y-40373D01*
X68271Y-40249D01*
X68338Y-40087D01*
X68338Y-39912D01*
X68271Y-39751D01*
X68147Y-39627D01*
X67986Y-39560D01*
X67811Y-39559D01*
X67649Y-39626D01*
X67525Y-39750D01*
X67458Y-39912D01*
X67458Y-40087D01*
X67525Y-40248D01*
X67648Y-40372D01*
X67708Y-40397D01*
X67708Y-41121D01*
X66361Y-42468D01*
X66361Y-42405D01*
X67032Y-41734D01*
X67032Y-41734D01*
X67032Y-41734D01*
X67073Y-41672D01*
X67088Y-41600D01*
X67088Y-40397D01*
X67147Y-40373D01*
X67271Y-40249D01*
X67338Y-40087D01*
X67338Y-39912D01*
X67271Y-39751D01*
X67147Y-39627D01*
X66986Y-39560D01*
X66811Y-39559D01*
X66649Y-39626D01*
X66525Y-39750D01*
X66458Y-39912D01*
X66458Y-40087D01*
X66525Y-40248D01*
X66648Y-40372D01*
X66708Y-40397D01*
X66708Y-41521D01*
X66105Y-42124D01*
X66105Y-40390D01*
X66147Y-40373D01*
X66271Y-40249D01*
X66338Y-40087D01*
X66338Y-39912D01*
X66271Y-39751D01*
X66147Y-39627D01*
X65986Y-39560D01*
X65811Y-39559D01*
X65649Y-39626D01*
X65525Y-39750D01*
X65458Y-39912D01*
X65458Y-40087D01*
X65525Y-40248D01*
X65648Y-40372D01*
X65725Y-40404D01*
X65725Y-42576D01*
X65704Y-42576D01*
X65669Y-42611D01*
X65669Y-42824D01*
X65677Y-42824D01*
X65677Y-42844D01*
X65669Y-42844D01*
X65669Y-43057D01*
X65704Y-43092D01*
X65756Y-43092D01*
X65787Y-43079D01*
X65818Y-43092D01*
X65874Y-43092D01*
X66012Y-43092D01*
X66043Y-43079D01*
X66074Y-43092D01*
X66130Y-43092D01*
X66268Y-43092D01*
X66299Y-43079D01*
X66330Y-43092D01*
X66386Y-43092D01*
X66454Y-43092D01*
X66454Y-43216D01*
X66467Y-43248D01*
X66454Y-43279D01*
X66454Y-43334D01*
X66454Y-43472D01*
X66467Y-43503D01*
X66454Y-43535D01*
X66454Y-43590D01*
X66454Y-43728D01*
X66467Y-43759D01*
X66454Y-43791D01*
X66454Y-43846D01*
X66454Y-43915D01*
X66330Y-43915D01*
X66299Y-43928D01*
X66268Y-43915D01*
X66212Y-43915D01*
X66074Y-43915D01*
X66043Y-43928D01*
X66012Y-43915D01*
X65956Y-43915D01*
X65818Y-43915D01*
X65787Y-43928D01*
X65756Y-43915D01*
X65704Y-43915D01*
X65669Y-43950D01*
X65669Y-44163D01*
X65677Y-44163D01*
X65677Y-44183D01*
X65669Y-44183D01*
X65669Y-44191D01*
X65649Y-44191D01*
X65649Y-44183D01*
X65649Y-44163D01*
X65649Y-43950D01*
X65649Y-43057D01*
X65649Y-42844D01*
X65649Y-42824D01*
X65649Y-42611D01*
X65614Y-42576D01*
X65562Y-42576D01*
X65511Y-42597D01*
X65471Y-42637D01*
X65450Y-42688D01*
X65450Y-42744D01*
X65450Y-42789D01*
X65485Y-42824D01*
X65649Y-42824D01*
X65649Y-42844D01*
X65485Y-42844D01*
X65450Y-42879D01*
X65450Y-42911D01*
X65419Y-42911D01*
X65384Y-42946D01*
X65384Y-43110D01*
X65597Y-43110D01*
X65614Y-43092D01*
X65632Y-43075D01*
X65649Y-43057D01*
X65649Y-43950D01*
X65632Y-43932D01*
X65632Y-43842D01*
X65632Y-43791D01*
X65619Y-43759D01*
X65632Y-43728D01*
X65632Y-43676D01*
X65632Y-43586D01*
X65632Y-43535D01*
X65619Y-43503D01*
X65632Y-43472D01*
X65632Y-43420D01*
X65632Y-43330D01*
X65632Y-43279D01*
X65619Y-43248D01*
X65632Y-43216D01*
X65632Y-43165D01*
X65597Y-43130D01*
X65384Y-43130D01*
X65384Y-43202D01*
X65384Y-43293D01*
X65384Y-43365D01*
X65597Y-43365D01*
X65632Y-43330D01*
X65632Y-43420D01*
X65597Y-43385D01*
X65384Y-43385D01*
X65384Y-43457D01*
X65384Y-43549D01*
X65384Y-43621D01*
X65597Y-43621D01*
X65632Y-43586D01*
X65632Y-43676D01*
X65597Y-43641D01*
X65384Y-43641D01*
X65384Y-43713D01*
X65384Y-43805D01*
X65384Y-43877D01*
X65597Y-43877D01*
X65632Y-43842D01*
X65632Y-43932D01*
X65614Y-43915D01*
X65597Y-43897D01*
X65384Y-43897D01*
X65384Y-44061D01*
X65419Y-44096D01*
X65450Y-44096D01*
X65450Y-44128D01*
X65485Y-44163D01*
X65649Y-44163D01*
X65649Y-44183D01*
X65485Y-44183D01*
X65450Y-44218D01*
X65450Y-44263D01*
X65450Y-44319D01*
X65471Y-44370D01*
X65506Y-44405D01*
X65478Y-44411D01*
X65416Y-44452D01*
X65364Y-44505D01*
X65364Y-44061D01*
X65364Y-43897D01*
X65364Y-43877D01*
X65364Y-43805D01*
X65364Y-43713D01*
X65364Y-43641D01*
X65364Y-43621D01*
X65364Y-43549D01*
X65364Y-43457D01*
X65364Y-43385D01*
X65364Y-43365D01*
X65364Y-43293D01*
X65364Y-43202D01*
X65364Y-43130D01*
X65364Y-43110D01*
X65364Y-42946D01*
X65329Y-42911D01*
X65228Y-42911D01*
X65176Y-42932D01*
X65137Y-42971D01*
X65115Y-43023D01*
X65115Y-43075D01*
X65150Y-43110D01*
X65364Y-43110D01*
X65364Y-43130D01*
X65150Y-43130D01*
X65115Y-43165D01*
X65115Y-43216D01*
X65128Y-43248D01*
X65115Y-43279D01*
X65115Y-43330D01*
X65150Y-43365D01*
X65364Y-43365D01*
X65364Y-43385D01*
X65150Y-43385D01*
X65115Y-43420D01*
X65115Y-43472D01*
X65128Y-43503D01*
X65115Y-43535D01*
X65115Y-43586D01*
X65150Y-43621D01*
X65364Y-43621D01*
X65364Y-43641D01*
X65150Y-43641D01*
X65115Y-43676D01*
X65115Y-43728D01*
X65128Y-43759D01*
X65115Y-43791D01*
X65115Y-43842D01*
X65150Y-43877D01*
X65364Y-43877D01*
X65364Y-43897D01*
X65150Y-43897D01*
X65115Y-43932D01*
X65115Y-43984D01*
X65137Y-44035D01*
X65176Y-44075D01*
X65228Y-44096D01*
X65329Y-44096D01*
X65364Y-44061D01*
X65364Y-44505D01*
X65121Y-44747D01*
X65098Y-44782D01*
X64953Y-44782D01*
X64901Y-44803D01*
X64862Y-44843D01*
X64840Y-44894D01*
X64840Y-44950D01*
X64840Y-45300D01*
X64862Y-45351D01*
X64901Y-45391D01*
X64953Y-45412D01*
X65008Y-45412D01*
X65558Y-45412D01*
X65610Y-45391D01*
X65649Y-45351D01*
X65670Y-45300D01*
X65670Y-45244D01*
X65670Y-44894D01*
X65649Y-44843D01*
X65610Y-44803D01*
X65604Y-44801D01*
X65629Y-44776D01*
X65846Y-44776D01*
X65919Y-44762D01*
X65980Y-44720D01*
X65981Y-44720D01*
X65981Y-44782D01*
X65838Y-44782D01*
X65787Y-44803D01*
X65748Y-44843D01*
X65726Y-44894D01*
X65726Y-44950D01*
X65726Y-45300D01*
X65748Y-45351D01*
X65787Y-45391D01*
X65838Y-45412D01*
X65894Y-45412D01*
X66444Y-45412D01*
X66496Y-45391D01*
X66535Y-45351D01*
X66556Y-45300D01*
X66556Y-45287D01*
X66612Y-45287D01*
X66612Y-45300D01*
X66633Y-45351D01*
X66673Y-45391D01*
X66724Y-45412D01*
X66780Y-45412D01*
X67330Y-45412D01*
X67381Y-45391D01*
X67421Y-45351D01*
X67442Y-45300D01*
X67442Y-45244D01*
X67442Y-45030D01*
X67446Y-45026D01*
X67446Y-46064D01*
X67429Y-46080D01*
X67442Y-46050D01*
X67442Y-45892D01*
X67442Y-45802D01*
X67442Y-45644D01*
X67421Y-45593D01*
X67381Y-45553D01*
X67330Y-45532D01*
X67274Y-45532D01*
X67072Y-45532D01*
X67037Y-45567D01*
X67037Y-45837D01*
X67407Y-45837D01*
X67442Y-45802D01*
X67442Y-45892D01*
X67407Y-45857D01*
X67037Y-45857D01*
X67037Y-46127D01*
X67072Y-46162D01*
X67274Y-46162D01*
X67330Y-46162D01*
X67361Y-46149D01*
X67342Y-46168D01*
X67017Y-46168D01*
X67017Y-46127D01*
X67017Y-45857D01*
X67017Y-45837D01*
X67017Y-45567D01*
X66982Y-45532D01*
X66780Y-45532D01*
X66724Y-45532D01*
X66673Y-45553D01*
X66633Y-45593D01*
X66612Y-45644D01*
X66612Y-45802D01*
X66647Y-45837D01*
X67017Y-45837D01*
X67017Y-45857D01*
X66647Y-45857D01*
X66612Y-45892D01*
X66612Y-46050D01*
X66633Y-46101D01*
X66673Y-46141D01*
X66724Y-46162D01*
X66780Y-46162D01*
X66982Y-46162D01*
X67017Y-46127D01*
X67017Y-46168D01*
X66556Y-46168D01*
X66556Y-46050D01*
X66556Y-45892D01*
X66556Y-45802D01*
X66556Y-45644D01*
X66535Y-45593D01*
X66496Y-45553D01*
X66444Y-45532D01*
X66388Y-45532D01*
X66186Y-45532D01*
X66151Y-45567D01*
X66151Y-45837D01*
X66521Y-45837D01*
X66556Y-45802D01*
X66556Y-45892D01*
X66521Y-45857D01*
X66151Y-45857D01*
X66151Y-46127D01*
X66186Y-46162D01*
X66388Y-46162D01*
X66444Y-46162D01*
X66496Y-46141D01*
X66535Y-46101D01*
X66556Y-46050D01*
X66556Y-46168D01*
X66131Y-46168D01*
X66131Y-46127D01*
X66131Y-45857D01*
X66131Y-45837D01*
X66131Y-45567D01*
X66096Y-45532D01*
X65894Y-45532D01*
X65838Y-45532D01*
X65787Y-45553D01*
X65748Y-45593D01*
X65726Y-45644D01*
X65726Y-45802D01*
X65761Y-45837D01*
X66131Y-45837D01*
X66131Y-45857D01*
X65761Y-45857D01*
X65726Y-45892D01*
X65726Y-46050D01*
X65748Y-46101D01*
X65787Y-46141D01*
X65838Y-46162D01*
X65894Y-46162D01*
X66096Y-46162D01*
X66131Y-46127D01*
X66131Y-46168D01*
X65670Y-46168D01*
X65670Y-46050D01*
X65670Y-45892D01*
X65670Y-45802D01*
X65670Y-45644D01*
X65649Y-45593D01*
X65610Y-45553D01*
X65558Y-45532D01*
X65503Y-45532D01*
X65300Y-45532D01*
X65265Y-45567D01*
X65265Y-45837D01*
X65635Y-45837D01*
X65670Y-45802D01*
X65670Y-45892D01*
X65635Y-45857D01*
X65265Y-45857D01*
X65265Y-46127D01*
X65300Y-46162D01*
X65503Y-46162D01*
X65558Y-46162D01*
X65610Y-46141D01*
X65649Y-46101D01*
X65670Y-46050D01*
X65670Y-46168D01*
X64940Y-46168D01*
X64922Y-46149D01*
X64953Y-46162D01*
X65008Y-46162D01*
X65210Y-46162D01*
X65245Y-46127D01*
X65245Y-45857D01*
X65245Y-45837D01*
X65245Y-45567D01*
X65210Y-45532D01*
X65008Y-45532D01*
X64953Y-45532D01*
X64901Y-45553D01*
X64862Y-45593D01*
X64840Y-45644D01*
X64840Y-45802D01*
X64875Y-45837D01*
X65245Y-45837D01*
X65245Y-45857D01*
X64875Y-45857D01*
X64840Y-45892D01*
X64840Y-46050D01*
X64853Y-46080D01*
X64658Y-45885D01*
X64658Y-40508D01*
X64751Y-40415D01*
X64810Y-40439D01*
X64985Y-40440D01*
X65147Y-40373D01*
X65271Y-40249D01*
X65338Y-40087D01*
X65338Y-39912D01*
X65271Y-39751D01*
X65147Y-39627D01*
X64986Y-39560D01*
X64811Y-39559D01*
X64649Y-39626D01*
X64525Y-39750D01*
X64458Y-39912D01*
X64458Y-40087D01*
X64482Y-40146D01*
X64339Y-40289D01*
X64339Y-39919D01*
X64275Y-39757D01*
X64267Y-39744D01*
X64197Y-39714D01*
X64183Y-39728D01*
X64183Y-39700D01*
X64153Y-39631D01*
X63993Y-39561D01*
X63818Y-39558D01*
X63655Y-39622D01*
X63642Y-39631D01*
X63613Y-39700D01*
X63898Y-39985D01*
X64183Y-39700D01*
X64183Y-39728D01*
X63912Y-40000D01*
X64197Y-40285D01*
X64267Y-40255D01*
X64336Y-40094D01*
X64339Y-39919D01*
X64339Y-40289D01*
X64334Y-40295D01*
X64292Y-40357D01*
X64278Y-40429D01*
X64278Y-45964D01*
X64292Y-46037D01*
X64334Y-46098D01*
X64727Y-46492D01*
X64727Y-46492D01*
X64727Y-46492D01*
X64789Y-46533D01*
X64862Y-46548D01*
X64862Y-46548D01*
X64862Y-46548D01*
X67421Y-46548D01*
X67493Y-46533D01*
X67555Y-46492D01*
X67771Y-46277D01*
X67812Y-46215D01*
X67826Y-46142D01*
X67826Y-44567D01*
X67826Y-44411D01*
X67839Y-44411D01*
X67891Y-44389D01*
X67930Y-44350D01*
X67951Y-44298D01*
X67951Y-44243D01*
X67951Y-43693D01*
X67934Y-43652D01*
X68502Y-43084D01*
X69466Y-43084D01*
X69466Y-43097D01*
X69488Y-43148D01*
X69527Y-43188D01*
X69579Y-43209D01*
X69634Y-43209D01*
X70184Y-43209D01*
X70236Y-43188D01*
X70275Y-43148D01*
X70296Y-43097D01*
X70296Y-43084D01*
X70451Y-43084D01*
X70451Y-43097D01*
X70472Y-43148D01*
X70511Y-43188D01*
X70563Y-43209D01*
X70618Y-43209D01*
X71168Y-43209D01*
X71220Y-43188D01*
X71259Y-43148D01*
X71281Y-43097D01*
X71281Y-43041D01*
X71281Y-42691D01*
X71259Y-42640D01*
X71220Y-42600D01*
X71168Y-42579D01*
X71113Y-42579D01*
X70699Y-42579D01*
X70819Y-42459D01*
X71168Y-42459D01*
X71220Y-42438D01*
X71259Y-42398D01*
X71281Y-42347D01*
X71281Y-42291D01*
X71281Y-41941D01*
X71259Y-41890D01*
X71220Y-41850D01*
X71168Y-41829D01*
X71113Y-41829D01*
X71056Y-41829D01*
X71056Y-40440D01*
X71226Y-40440D01*
X71277Y-40418D01*
X71317Y-40379D01*
X71338Y-40327D01*
X71338Y-46788D01*
X68701Y-46788D01*
X68701Y-44298D01*
X68701Y-44243D01*
X68701Y-44041D01*
X68701Y-43951D01*
X68701Y-43748D01*
X68701Y-43693D01*
X68680Y-43641D01*
X68641Y-43602D01*
X68589Y-43581D01*
X68431Y-43581D01*
X68396Y-43616D01*
X68396Y-43986D01*
X68666Y-43986D01*
X68701Y-43951D01*
X68701Y-44041D01*
X68666Y-44006D01*
X68396Y-44006D01*
X68396Y-44376D01*
X68431Y-44411D01*
X68589Y-44411D01*
X68641Y-44389D01*
X68680Y-44350D01*
X68701Y-44298D01*
X68701Y-46788D01*
X68376Y-46788D01*
X68376Y-44376D01*
X68376Y-44006D01*
X68376Y-43986D01*
X68376Y-43616D01*
X68341Y-43581D01*
X68183Y-43581D01*
X68132Y-43602D01*
X68093Y-43641D01*
X68071Y-43693D01*
X68071Y-43748D01*
X68071Y-43951D01*
X68106Y-43986D01*
X68376Y-43986D01*
X68376Y-44006D01*
X68106Y-44006D01*
X68071Y-44041D01*
X68071Y-44243D01*
X68071Y-44298D01*
X68093Y-44350D01*
X68132Y-44389D01*
X68183Y-44411D01*
X68341Y-44411D01*
X68376Y-44376D01*
X68376Y-46788D01*
X64183Y-46788D01*
X64183Y-40299D01*
X63898Y-40014D01*
X63884Y-40028D01*
X63884Y-40000D01*
X63598Y-39714D01*
X63529Y-39744D01*
X63459Y-39905D01*
X63457Y-40080D01*
X63521Y-40242D01*
X63529Y-40255D01*
X63598Y-40285D01*
X63884Y-40000D01*
X63884Y-40028D01*
X63613Y-40299D01*
X63642Y-40368D01*
X63803Y-40438D01*
X63978Y-40441D01*
X64141Y-40377D01*
X64153Y-40368D01*
X64183Y-40299D01*
X64183Y-46788D01*
X63347Y-46788D01*
X63347Y-39485D01*
X71467Y-39485D01*
X71467Y-46788D01*
X71467Y-46788D01*
G37*
G54D22*
X71467Y-46788D02*
X71338Y-46788D01*
X71338Y-40327D01*
X71338Y-40272D01*
X71338Y-39672D01*
X71317Y-39620D01*
X71277Y-39581D01*
X71226Y-39560D01*
X71170Y-39560D01*
X70570Y-39560D01*
X70519Y-39581D01*
X70479Y-39620D01*
X70458Y-39672D01*
X70458Y-39727D01*
X70458Y-40327D01*
X70479Y-40379D01*
X70519Y-40418D01*
X70570Y-40440D01*
X70626Y-40440D01*
X70676Y-40440D01*
X70676Y-41829D01*
X70563Y-41829D01*
X70511Y-41850D01*
X70472Y-41890D01*
X70451Y-41941D01*
X70451Y-41997D01*
X70451Y-42290D01*
X70412Y-42329D01*
X70296Y-42329D01*
X70296Y-42291D01*
X70296Y-41941D01*
X70275Y-41890D01*
X70236Y-41850D01*
X70184Y-41829D01*
X70129Y-41829D01*
X70071Y-41829D01*
X70071Y-40404D01*
X70147Y-40373D01*
X70271Y-40249D01*
X70338Y-40087D01*
X70338Y-39912D01*
X70271Y-39751D01*
X70147Y-39627D01*
X69986Y-39560D01*
X69811Y-39559D01*
X69649Y-39626D01*
X69525Y-39750D01*
X69458Y-39912D01*
X69458Y-40087D01*
X69525Y-40248D01*
X69648Y-40372D01*
X69691Y-40390D01*
X69691Y-41829D01*
X69579Y-41829D01*
X69527Y-41850D01*
X69488Y-41890D01*
X69466Y-41941D01*
X69466Y-41954D01*
X68451Y-41954D01*
X69032Y-41373D01*
X69073Y-41312D01*
X69088Y-41239D01*
X69088Y-40397D01*
X69147Y-40373D01*
X69271Y-40249D01*
X69338Y-40087D01*
X69338Y-39912D01*
X69271Y-39751D01*
X69147Y-39627D01*
X68986Y-39560D01*
X68811Y-39559D01*
X68649Y-39626D01*
X68525Y-39750D01*
X68458Y-39912D01*
X68458Y-40087D01*
X68525Y-40248D01*
X68648Y-40372D01*
X68708Y-40397D01*
X68708Y-41160D01*
X66939Y-42930D01*
X66904Y-42930D01*
X66858Y-42911D01*
X66802Y-42911D01*
X66636Y-42911D01*
X66636Y-42731D01*
X68032Y-41334D01*
X68073Y-41272D01*
X68088Y-41200D01*
X68088Y-40397D01*
X68147Y-40373D01*
X68271Y-40249D01*
X68338Y-40087D01*
X68338Y-39912D01*
X68271Y-39751D01*
X68147Y-39627D01*
X67986Y-39560D01*
X67811Y-39559D01*
X67649Y-39626D01*
X67525Y-39750D01*
X67458Y-39912D01*
X67458Y-40087D01*
X67525Y-40248D01*
X67648Y-40372D01*
X67708Y-40397D01*
X67708Y-41121D01*
X66361Y-42468D01*
X66361Y-42405D01*
X67032Y-41734D01*
X67032Y-41734D01*
X67032Y-41734D01*
X67073Y-41672D01*
X67088Y-41600D01*
X67088Y-40397D01*
X67147Y-40373D01*
X67271Y-40249D01*
X67338Y-40087D01*
X67338Y-39912D01*
X67271Y-39751D01*
X67147Y-39627D01*
X66986Y-39560D01*
X66811Y-39559D01*
X66649Y-39626D01*
X66525Y-39750D01*
X66458Y-39912D01*
X66458Y-40087D01*
X66525Y-40248D01*
X66648Y-40372D01*
X66708Y-40397D01*
X66708Y-41521D01*
X66105Y-42124D01*
X66105Y-40390D01*
X66147Y-40373D01*
X66271Y-40249D01*
X66338Y-40087D01*
X66338Y-39912D01*
X66271Y-39751D01*
X66147Y-39627D01*
X65986Y-39560D01*
X65811Y-39559D01*
X65649Y-39626D01*
X65525Y-39750D01*
X65458Y-39912D01*
X65458Y-40087D01*
X65525Y-40248D01*
X65648Y-40372D01*
X65725Y-40404D01*
X65725Y-42576D01*
X65704Y-42576D01*
X65669Y-42611D01*
X65669Y-42824D01*
X65677Y-42824D01*
X65677Y-42844D01*
X65669Y-42844D01*
X65669Y-43057D01*
X65704Y-43092D01*
X65756Y-43092D01*
X65787Y-43079D01*
X65818Y-43092D01*
X65874Y-43092D01*
X66012Y-43092D01*
X66043Y-43079D01*
X66074Y-43092D01*
X66130Y-43092D01*
X66268Y-43092D01*
X66299Y-43079D01*
X66330Y-43092D01*
X66386Y-43092D01*
X66454Y-43092D01*
X66454Y-43216D01*
X66467Y-43248D01*
X66454Y-43279D01*
X66454Y-43334D01*
X66454Y-43472D01*
X66467Y-43503D01*
X66454Y-43535D01*
X66454Y-43590D01*
X66454Y-43728D01*
X66467Y-43759D01*
X66454Y-43791D01*
X66454Y-43846D01*
X66454Y-43915D01*
X66330Y-43915D01*
X66299Y-43928D01*
X66268Y-43915D01*
X66212Y-43915D01*
X66074Y-43915D01*
X66043Y-43928D01*
X66012Y-43915D01*
X65956Y-43915D01*
X65818Y-43915D01*
X65787Y-43928D01*
X65756Y-43915D01*
X65704Y-43915D01*
X65669Y-43950D01*
X65669Y-44163D01*
X65677Y-44163D01*
X65677Y-44183D01*
X65669Y-44183D01*
X65669Y-44191D01*
X65649Y-44191D01*
X65649Y-44183D01*
X65649Y-44163D01*
X65649Y-43950D01*
X65649Y-43057D01*
X65649Y-42844D01*
X65649Y-42824D01*
X65649Y-42611D01*
X65614Y-42576D01*
X65562Y-42576D01*
X65511Y-42597D01*
X65471Y-42637D01*
X65450Y-42688D01*
X65450Y-42744D01*
X65450Y-42789D01*
X65485Y-42824D01*
X65649Y-42824D01*
X65649Y-42844D01*
X65485Y-42844D01*
X65450Y-42879D01*
X65450Y-42911D01*
X65419Y-42911D01*
X65384Y-42946D01*
X65384Y-43110D01*
X65597Y-43110D01*
X65614Y-43092D01*
X65632Y-43075D01*
X65649Y-43057D01*
X65649Y-43950D01*
X65632Y-43932D01*
X65632Y-43842D01*
X65632Y-43791D01*
X65619Y-43759D01*
X65632Y-43728D01*
X65632Y-43676D01*
X65632Y-43586D01*
X65632Y-43535D01*
X65619Y-43503D01*
X65632Y-43472D01*
X65632Y-43420D01*
X65632Y-43330D01*
X65632Y-43279D01*
X65619Y-43248D01*
X65632Y-43216D01*
X65632Y-43165D01*
X65597Y-43130D01*
X65384Y-43130D01*
X65384Y-43202D01*
X65384Y-43293D01*
X65384Y-43365D01*
X65597Y-43365D01*
X65632Y-43330D01*
X65632Y-43420D01*
X65597Y-43385D01*
X65384Y-43385D01*
X65384Y-43457D01*
X65384Y-43549D01*
X65384Y-43621D01*
X65597Y-43621D01*
X65632Y-43586D01*
X65632Y-43676D01*
X65597Y-43641D01*
X65384Y-43641D01*
X65384Y-43713D01*
X65384Y-43805D01*
X65384Y-43877D01*
X65597Y-43877D01*
X65632Y-43842D01*
X65632Y-43932D01*
X65614Y-43915D01*
X65597Y-43897D01*
X65384Y-43897D01*
X65384Y-44061D01*
X65419Y-44096D01*
X65450Y-44096D01*
X65450Y-44128D01*
X65485Y-44163D01*
X65649Y-44163D01*
X65649Y-44183D01*
X65485Y-44183D01*
X65450Y-44218D01*
X65450Y-44263D01*
X65450Y-44319D01*
X65471Y-44370D01*
X65506Y-44405D01*
X65478Y-44411D01*
X65416Y-44452D01*
X65364Y-44505D01*
X65364Y-44061D01*
X65364Y-43897D01*
X65364Y-43877D01*
X65364Y-43805D01*
X65364Y-43713D01*
X65364Y-43641D01*
X65364Y-43621D01*
X65364Y-43549D01*
X65364Y-43457D01*
X65364Y-43385D01*
X65364Y-43365D01*
X65364Y-43293D01*
X65364Y-43202D01*
X65364Y-43130D01*
X65364Y-43110D01*
X65364Y-42946D01*
X65329Y-42911D01*
X65228Y-42911D01*
X65176Y-42932D01*
X65137Y-42971D01*
X65115Y-43023D01*
X65115Y-43075D01*
X65150Y-43110D01*
X65364Y-43110D01*
X65364Y-43130D01*
X65150Y-43130D01*
X65115Y-43165D01*
X65115Y-43216D01*
X65128Y-43248D01*
X65115Y-43279D01*
X65115Y-43330D01*
X65150Y-43365D01*
X65364Y-43365D01*
X65364Y-43385D01*
X65150Y-43385D01*
X65115Y-43420D01*
X65115Y-43472D01*
X65128Y-43503D01*
X65115Y-43535D01*
X65115Y-43586D01*
X65150Y-43621D01*
X65364Y-43621D01*
X65364Y-43641D01*
X65150Y-43641D01*
X65115Y-43676D01*
X65115Y-43728D01*
X65128Y-43759D01*
X65115Y-43791D01*
X65115Y-43842D01*
X65150Y-43877D01*
X65364Y-43877D01*
X65364Y-43897D01*
X65150Y-43897D01*
X65115Y-43932D01*
X65115Y-43984D01*
X65137Y-44035D01*
X65176Y-44075D01*
X65228Y-44096D01*
X65329Y-44096D01*
X65364Y-44061D01*
X65364Y-44505D01*
X65121Y-44747D01*
X65098Y-44782D01*
X64953Y-44782D01*
X64901Y-44803D01*
X64862Y-44843D01*
X64840Y-44894D01*
X64840Y-44950D01*
X64840Y-45300D01*
X64862Y-45351D01*
X64901Y-45391D01*
X64953Y-45412D01*
X65008Y-45412D01*
X65558Y-45412D01*
X65610Y-45391D01*
X65649Y-45351D01*
X65670Y-45300D01*
X65670Y-45244D01*
X65670Y-44894D01*
X65649Y-44843D01*
X65610Y-44803D01*
X65604Y-44801D01*
X65629Y-44776D01*
X65846Y-44776D01*
X65919Y-44762D01*
X65980Y-44720D01*
X65981Y-44720D01*
X65981Y-44782D01*
X65838Y-44782D01*
X65787Y-44803D01*
X65748Y-44843D01*
X65726Y-44894D01*
X65726Y-44950D01*
X65726Y-45300D01*
X65748Y-45351D01*
X65787Y-45391D01*
X65838Y-45412D01*
X65894Y-45412D01*
X66444Y-45412D01*
X66496Y-45391D01*
X66535Y-45351D01*
X66556Y-45300D01*
X66556Y-45287D01*
X66612Y-45287D01*
X66612Y-45300D01*
X66633Y-45351D01*
X66673Y-45391D01*
X66724Y-45412D01*
X66780Y-45412D01*
X67330Y-45412D01*
X67381Y-45391D01*
X67421Y-45351D01*
X67442Y-45300D01*
X67442Y-45244D01*
X67442Y-45030D01*
X67446Y-45026D01*
X67446Y-46064D01*
X67429Y-46080D01*
X67442Y-46050D01*
X67442Y-45892D01*
X67442Y-45802D01*
X67442Y-45644D01*
X67421Y-45593D01*
X67381Y-45553D01*
X67330Y-45532D01*
X67274Y-45532D01*
X67072Y-45532D01*
X67037Y-45567D01*
X67037Y-45837D01*
X67407Y-45837D01*
X67442Y-45802D01*
X67442Y-45892D01*
X67407Y-45857D01*
X67037Y-45857D01*
X67037Y-46127D01*
X67072Y-46162D01*
X67274Y-46162D01*
X67330Y-46162D01*
X67361Y-46149D01*
X67342Y-46168D01*
X67017Y-46168D01*
X67017Y-46127D01*
X67017Y-45857D01*
X67017Y-45837D01*
X67017Y-45567D01*
X66982Y-45532D01*
X66780Y-45532D01*
X66724Y-45532D01*
X66673Y-45553D01*
X66633Y-45593D01*
X66612Y-45644D01*
X66612Y-45802D01*
X66647Y-45837D01*
X67017Y-45837D01*
X67017Y-45857D01*
X66647Y-45857D01*
X66612Y-45892D01*
X66612Y-46050D01*
X66633Y-46101D01*
X66673Y-46141D01*
X66724Y-46162D01*
X66780Y-46162D01*
X66982Y-46162D01*
X67017Y-46127D01*
X67017Y-46168D01*
X66556Y-46168D01*
X66556Y-46050D01*
X66556Y-45892D01*
X66556Y-45802D01*
X66556Y-45644D01*
X66535Y-45593D01*
X66496Y-45553D01*
X66444Y-45532D01*
X66388Y-45532D01*
X66186Y-45532D01*
X66151Y-45567D01*
X66151Y-45837D01*
X66521Y-45837D01*
X66556Y-45802D01*
X66556Y-45892D01*
X66521Y-45857D01*
X66151Y-45857D01*
X66151Y-46127D01*
X66186Y-46162D01*
X66388Y-46162D01*
X66444Y-46162D01*
X66496Y-46141D01*
X66535Y-46101D01*
X66556Y-46050D01*
X66556Y-46168D01*
X66131Y-46168D01*
X66131Y-46127D01*
X66131Y-45857D01*
X66131Y-45837D01*
X66131Y-45567D01*
X66096Y-45532D01*
X65894Y-45532D01*
X65838Y-45532D01*
X65787Y-45553D01*
X65748Y-45593D01*
X65726Y-45644D01*
X65726Y-45802D01*
X65761Y-45837D01*
X66131Y-45837D01*
X66131Y-45857D01*
X65761Y-45857D01*
X65726Y-45892D01*
X65726Y-46050D01*
X65748Y-46101D01*
X65787Y-46141D01*
X65838Y-46162D01*
X65894Y-46162D01*
X66096Y-46162D01*
X66131Y-46127D01*
X66131Y-46168D01*
X65670Y-46168D01*
X65670Y-46050D01*
X65670Y-45892D01*
X65670Y-45802D01*
X65670Y-45644D01*
X65649Y-45593D01*
X65610Y-45553D01*
X65558Y-45532D01*
X65503Y-45532D01*
X65300Y-45532D01*
X65265Y-45567D01*
X65265Y-45837D01*
X65635Y-45837D01*
X65670Y-45802D01*
X65670Y-45892D01*
X65635Y-45857D01*
X65265Y-45857D01*
X65265Y-46127D01*
X65300Y-46162D01*
X65503Y-46162D01*
X65558Y-46162D01*
X65610Y-46141D01*
X65649Y-46101D01*
X65670Y-46050D01*
X65670Y-46168D01*
X64940Y-46168D01*
X64922Y-46149D01*
X64953Y-46162D01*
X65008Y-46162D01*
X65210Y-46162D01*
X65245Y-46127D01*
X65245Y-45857D01*
X65245Y-45837D01*
X65245Y-45567D01*
X65210Y-45532D01*
X65008Y-45532D01*
X64953Y-45532D01*
X64901Y-45553D01*
X64862Y-45593D01*
X64840Y-45644D01*
X64840Y-45802D01*
X64875Y-45837D01*
X65245Y-45837D01*
X65245Y-45857D01*
X64875Y-45857D01*
X64840Y-45892D01*
X64840Y-46050D01*
X64853Y-46080D01*
X64658Y-45885D01*
X64658Y-40508D01*
X64751Y-40415D01*
X64810Y-40439D01*
X64985Y-40440D01*
X65147Y-40373D01*
X65271Y-40249D01*
X65338Y-40087D01*
X65338Y-39912D01*
X65271Y-39751D01*
X65147Y-39627D01*
X64986Y-39560D01*
X64811Y-39559D01*
X64649Y-39626D01*
X64525Y-39750D01*
X64458Y-39912D01*
X64458Y-40087D01*
X64482Y-40146D01*
X64339Y-40289D01*
X64339Y-39919D01*
X64275Y-39757D01*
X64267Y-39744D01*
X64197Y-39714D01*
X64183Y-39728D01*
X64183Y-39700D01*
X64153Y-39631D01*
X63993Y-39561D01*
X63818Y-39558D01*
X63655Y-39622D01*
X63642Y-39631D01*
X63613Y-39700D01*
X63898Y-39985D01*
X64183Y-39700D01*
X64183Y-39728D01*
X63912Y-40000D01*
X64197Y-40285D01*
X64267Y-40255D01*
X64336Y-40094D01*
X64339Y-39919D01*
X64339Y-40289D01*
X64334Y-40295D01*
X64292Y-40357D01*
X64278Y-40429D01*
X64278Y-45964D01*
X64292Y-46037D01*
X64334Y-46098D01*
X64727Y-46492D01*
X64727Y-46492D01*
X64727Y-46492D01*
X64789Y-46533D01*
X64862Y-46548D01*
X64862Y-46548D01*
X64862Y-46548D01*
X67421Y-46548D01*
X67493Y-46533D01*
X67555Y-46492D01*
X67771Y-46277D01*
X67812Y-46215D01*
X67826Y-46142D01*
X67826Y-44567D01*
X67826Y-44411D01*
X67839Y-44411D01*
X67891Y-44389D01*
X67930Y-44350D01*
X67951Y-44298D01*
X67951Y-44243D01*
X67951Y-43693D01*
X67934Y-43652D01*
X68502Y-43084D01*
X69466Y-43084D01*
X69466Y-43097D01*
X69488Y-43148D01*
X69527Y-43188D01*
X69579Y-43209D01*
X69634Y-43209D01*
X70184Y-43209D01*
X70236Y-43188D01*
X70275Y-43148D01*
X70296Y-43097D01*
X70296Y-43084D01*
X70451Y-43084D01*
X70451Y-43097D01*
X70472Y-43148D01*
X70511Y-43188D01*
X70563Y-43209D01*
X70618Y-43209D01*
X71168Y-43209D01*
X71220Y-43188D01*
X71259Y-43148D01*
X71281Y-43097D01*
X71281Y-43041D01*
X71281Y-42691D01*
X71259Y-42640D01*
X71220Y-42600D01*
X71168Y-42579D01*
X71113Y-42579D01*
X70699Y-42579D01*
X70819Y-42459D01*
X71168Y-42459D01*
X71220Y-42438D01*
X71259Y-42398D01*
X71281Y-42347D01*
X71281Y-42291D01*
X71281Y-41941D01*
X71259Y-41890D01*
X71220Y-41850D01*
X71168Y-41829D01*
X71113Y-41829D01*
X71056Y-41829D01*
X71056Y-40440D01*
X71226Y-40440D01*
X71277Y-40418D01*
X71317Y-40379D01*
X71338Y-40327D01*
X71338Y-46788D01*
X68701Y-46788D01*
X68701Y-44298D01*
X68701Y-44243D01*
X68701Y-44041D01*
X68701Y-43951D01*
X68701Y-43748D01*
X68701Y-43693D01*
X68680Y-43641D01*
X68641Y-43602D01*
X68589Y-43581D01*
X68431Y-43581D01*
X68396Y-43616D01*
X68396Y-43986D01*
X68666Y-43986D01*
X68701Y-43951D01*
X68701Y-44041D01*
X68666Y-44006D01*
X68396Y-44006D01*
X68396Y-44376D01*
X68431Y-44411D01*
X68589Y-44411D01*
X68641Y-44389D01*
X68680Y-44350D01*
X68701Y-44298D01*
X68701Y-46788D01*
X68376Y-46788D01*
X68376Y-44376D01*
X68376Y-44006D01*
X68376Y-43986D01*
X68376Y-43616D01*
X68341Y-43581D01*
X68183Y-43581D01*
X68132Y-43602D01*
X68093Y-43641D01*
X68071Y-43693D01*
X68071Y-43748D01*
X68071Y-43951D01*
X68106Y-43986D01*
X68376Y-43986D01*
X68376Y-44006D01*
X68106Y-44006D01*
X68071Y-44041D01*
X68071Y-44243D01*
X68071Y-44298D01*
X68093Y-44350D01*
X68132Y-44389D01*
X68183Y-44411D01*
X68341Y-44411D01*
X68376Y-44376D01*
X68376Y-46788D01*
X64183Y-46788D01*
X64183Y-40299D01*
X63898Y-40014D01*
X63884Y-40028D01*
X63884Y-40000D01*
X63598Y-39714D01*
X63529Y-39744D01*
X63459Y-39905D01*
X63457Y-40080D01*
X63521Y-40242D01*
X63529Y-40255D01*
X63598Y-40285D01*
X63884Y-40000D01*
X63884Y-40028D01*
X63613Y-40299D01*
X63642Y-40368D01*
X63803Y-40438D01*
X63978Y-40441D01*
X64141Y-40377D01*
X64153Y-40368D01*
X64183Y-40299D01*
X64183Y-46788D01*
X63347Y-46788D01*
X63347Y-39485D01*
X71467Y-39485D01*
X71467Y-46788D01*
M02*
