G04 (created by PCBNEW (2013-mar-13)-testing) date Wed 17 Apr 2013 02:01:02 PM EDT*
%MOIN*%
G04 Gerber Fmt 3.4, Leading zero omitted, Abs format*
%FSLAX34Y34*%
G01*
G70*
G90*
G04 APERTURE LIST*
%ADD10C,0.006*%
%ADD11C,0.00393701*%
%ADD12R,0.06X0.06*%
%ADD13C,0.06*%
%ADD14C,0.0590551*%
%ADD15C,0.0593*%
%ADD16O,0.1378X0.2756*%
%ADD17O,0.063X0.0984*%
G04 APERTURE END LIST*
G54D10*
G54D11*
X39370Y-39370D02*
X39370Y-78740D01*
X78740Y-39370D02*
X78740Y-78740D01*
X39370Y-78740D02*
X78740Y-78740D01*
X39370Y-39370D02*
X78740Y-39370D01*
G54D12*
X50370Y-63370D03*
G54D13*
X50370Y-62370D03*
X50370Y-61370D03*
X50370Y-60370D03*
X50370Y-59370D03*
X50370Y-58370D03*
X50370Y-57370D03*
X50370Y-56370D03*
X50370Y-55370D03*
X50370Y-54370D03*
X50370Y-53370D03*
X50370Y-52370D03*
X50370Y-51370D03*
X50370Y-50370D03*
X50370Y-49370D03*
X50370Y-48370D03*
X50370Y-47370D03*
X50370Y-46370D03*
X50370Y-45370D03*
X50370Y-44370D03*
X50370Y-43370D03*
X50370Y-42370D03*
X50370Y-41370D03*
X50370Y-40370D03*
G54D12*
X40370Y-40370D03*
G54D13*
X40370Y-41370D03*
X40370Y-42370D03*
X40370Y-43370D03*
X40370Y-44370D03*
X40370Y-45370D03*
X40370Y-46370D03*
X40370Y-47370D03*
X40370Y-48370D03*
X40370Y-49370D03*
X40370Y-50370D03*
X40370Y-51370D03*
X40370Y-52370D03*
X40370Y-53370D03*
X40370Y-54370D03*
X40370Y-55370D03*
X40370Y-56370D03*
X40370Y-57370D03*
X40370Y-58370D03*
X40370Y-59370D03*
X40370Y-60370D03*
X40370Y-61370D03*
X40370Y-62370D03*
X40370Y-63370D03*
G54D12*
X50370Y-69688D03*
G54D13*
X49370Y-69688D03*
X48370Y-69688D03*
X47370Y-69688D03*
X46370Y-69688D03*
X45370Y-69688D03*
X44370Y-69688D03*
X43370Y-69688D03*
X42370Y-69688D03*
X41370Y-69688D03*
G54D14*
X47570Y-73188D03*
X46669Y-73188D03*
X45771Y-73188D03*
X44866Y-73188D03*
X43964Y-73188D03*
X48019Y-74188D03*
X47118Y-74188D03*
X46216Y-74188D03*
X45314Y-74188D03*
X44413Y-74188D03*
X47570Y-75188D03*
X46669Y-75188D03*
X45771Y-75188D03*
X44866Y-75188D03*
X43964Y-75188D03*
G54D12*
X65370Y-66370D03*
G54D13*
X65370Y-65370D03*
X65370Y-64370D03*
X65370Y-63370D03*
X65370Y-62370D03*
X65370Y-61370D03*
X65370Y-60370D03*
X65370Y-59370D03*
X65370Y-58370D03*
X65370Y-57370D03*
X65370Y-56370D03*
X65370Y-55370D03*
X65370Y-54370D03*
X65370Y-53370D03*
X65370Y-52370D03*
X65370Y-51370D03*
X65370Y-50370D03*
X65370Y-49370D03*
X65370Y-48370D03*
X65370Y-47370D03*
X65370Y-46370D03*
X65370Y-45370D03*
X65370Y-44370D03*
X65370Y-43370D03*
X65370Y-42370D03*
X65370Y-41370D03*
X65370Y-40370D03*
G54D12*
X53370Y-40370D03*
G54D13*
X53370Y-41370D03*
X53370Y-42370D03*
X53370Y-43370D03*
X53370Y-44370D03*
X53370Y-45370D03*
X53370Y-46370D03*
X53370Y-47370D03*
X53370Y-48370D03*
X53370Y-49370D03*
X53370Y-50370D03*
X53370Y-51370D03*
X53370Y-52370D03*
X53370Y-53370D03*
X53370Y-54370D03*
X53370Y-55370D03*
X53370Y-56370D03*
X53370Y-57370D03*
X53370Y-58370D03*
X53370Y-59370D03*
X53370Y-60370D03*
X53370Y-61370D03*
X53370Y-62370D03*
X53370Y-63370D03*
X53370Y-64370D03*
X53370Y-65370D03*
X53370Y-66370D03*
G54D12*
X54500Y-77250D03*
G54D13*
X55500Y-77250D03*
X56500Y-77250D03*
G54D12*
X54500Y-74250D03*
G54D13*
X55500Y-74250D03*
X56500Y-74250D03*
G54D12*
X54500Y-76250D03*
G54D13*
X54500Y-75250D03*
X55500Y-76250D03*
X55500Y-75250D03*
X56500Y-76250D03*
X56500Y-75250D03*
X60816Y-71511D03*
G54D15*
X61066Y-77261D03*
X61066Y-76261D03*
X62066Y-77261D03*
X62066Y-76261D03*
X63066Y-77261D03*
X63066Y-76261D03*
X64066Y-77261D03*
X64066Y-76261D03*
X65066Y-77261D03*
X65066Y-76261D03*
X66066Y-77261D03*
X66066Y-76261D03*
X67066Y-77261D03*
X67066Y-76261D03*
X68066Y-77261D03*
X68066Y-76261D03*
X69066Y-77261D03*
X69066Y-76261D03*
X70066Y-77261D03*
X70066Y-76261D03*
G54D12*
X75500Y-46000D03*
G54D13*
X74500Y-46000D03*
G54D16*
X73493Y-42790D03*
X77508Y-42790D03*
G54D17*
X75500Y-44469D03*
X74516Y-44469D03*
G54D12*
X70500Y-48750D03*
G54D13*
X70500Y-49750D03*
X70500Y-50750D03*
X70500Y-51750D03*
X70500Y-52750D03*
X70500Y-53750D03*
X70500Y-54750D03*
X70500Y-55750D03*
X70500Y-56750D03*
X70500Y-57750D03*
X70500Y-58750D03*
X70500Y-59750D03*
X70500Y-60750D03*
X70500Y-61750D03*
G54D12*
X77750Y-61750D03*
G54D13*
X77750Y-60750D03*
X77750Y-59750D03*
X77750Y-58750D03*
X77750Y-57750D03*
X77750Y-56750D03*
X77750Y-55750D03*
X77750Y-54750D03*
X77750Y-53750D03*
X77750Y-52750D03*
X77750Y-51750D03*
X77750Y-50750D03*
X77750Y-49750D03*
X77750Y-48750D03*
G54D12*
X74671Y-64270D03*
G54D13*
X74671Y-65270D03*
X74671Y-66270D03*
G54D12*
X77671Y-64270D03*
G54D13*
X77671Y-65270D03*
X77671Y-66270D03*
M02*
