G04 (created by PCBNEW (2013-mar-13)-testing) date Wed 17 Apr 2013 02:01:02 PM EDT*
%MOIN*%
G04 Gerber Fmt 3.4, Leading zero omitted, Abs format*
%FSLAX34Y34*%
G01*
G70*
G90*
G04 APERTURE LIST*
%ADD10C,0.006*%
%ADD11C,0.011811*%
%ADD12C,0.00393701*%
%ADD13R,0.06X0.06*%
%ADD14C,0.06*%
%ADD15C,0.0590551*%
%ADD16C,0.0593*%
%ADD17O,0.1378X0.2756*%
%ADD18O,0.063X0.0984*%
G04 APERTURE END LIST*
G54D10*
G54D11*
X77045Y-40557D02*
X76960Y-40585D01*
X76932Y-40614D01*
X76904Y-40670D01*
X76904Y-40754D01*
X76932Y-40810D01*
X76960Y-40839D01*
X77016Y-40867D01*
X77241Y-40867D01*
X77241Y-40276D01*
X77045Y-40276D01*
X76988Y-40304D01*
X76960Y-40332D01*
X76932Y-40389D01*
X76932Y-40445D01*
X76960Y-40501D01*
X76988Y-40529D01*
X77045Y-40557D01*
X77241Y-40557D01*
X76651Y-40867D02*
X76651Y-40276D01*
X76313Y-40867D01*
X76313Y-40276D01*
X75695Y-40810D02*
X75723Y-40839D01*
X75807Y-40867D01*
X75864Y-40867D01*
X75948Y-40839D01*
X76004Y-40782D01*
X76032Y-40726D01*
X76060Y-40614D01*
X76060Y-40529D01*
X76032Y-40417D01*
X76004Y-40360D01*
X75948Y-40304D01*
X75864Y-40276D01*
X75807Y-40276D01*
X75723Y-40304D01*
X75695Y-40332D01*
X74795Y-40557D02*
X74711Y-40585D01*
X74682Y-40614D01*
X74654Y-40670D01*
X74654Y-40754D01*
X74682Y-40810D01*
X74711Y-40839D01*
X74767Y-40867D01*
X74992Y-40867D01*
X74992Y-40276D01*
X74795Y-40276D01*
X74739Y-40304D01*
X74711Y-40332D01*
X74682Y-40389D01*
X74682Y-40445D01*
X74711Y-40501D01*
X74739Y-40529D01*
X74795Y-40557D01*
X74992Y-40557D01*
X74317Y-40867D02*
X74373Y-40839D01*
X74401Y-40810D01*
X74429Y-40754D01*
X74429Y-40585D01*
X74401Y-40529D01*
X74373Y-40501D01*
X74317Y-40473D01*
X74232Y-40473D01*
X74176Y-40501D01*
X74148Y-40529D01*
X74120Y-40585D01*
X74120Y-40754D01*
X74148Y-40810D01*
X74176Y-40839D01*
X74232Y-40867D01*
X74317Y-40867D01*
X73670Y-40557D02*
X73586Y-40585D01*
X73558Y-40614D01*
X73529Y-40670D01*
X73529Y-40754D01*
X73558Y-40810D01*
X73586Y-40839D01*
X73642Y-40867D01*
X73867Y-40867D01*
X73867Y-40276D01*
X73670Y-40276D01*
X73614Y-40304D01*
X73586Y-40332D01*
X73558Y-40389D01*
X73558Y-40445D01*
X73586Y-40501D01*
X73614Y-40529D01*
X73670Y-40557D01*
X73867Y-40557D01*
X50715Y-77376D02*
X50518Y-77967D01*
X50321Y-77376D01*
X49815Y-77404D02*
X49871Y-77376D01*
X49955Y-77376D01*
X50040Y-77404D01*
X50096Y-77460D01*
X50124Y-77517D01*
X50152Y-77629D01*
X50152Y-77714D01*
X50124Y-77826D01*
X50096Y-77882D01*
X50040Y-77939D01*
X49955Y-77967D01*
X49899Y-77967D01*
X49815Y-77939D01*
X49787Y-77910D01*
X49787Y-77714D01*
X49899Y-77714D01*
X49562Y-77798D02*
X49280Y-77798D01*
X49618Y-77967D02*
X49421Y-77376D01*
X49224Y-77967D01*
X48380Y-77657D02*
X48296Y-77685D01*
X48268Y-77714D01*
X48240Y-77770D01*
X48240Y-77854D01*
X48268Y-77910D01*
X48296Y-77939D01*
X48352Y-77967D01*
X48577Y-77967D01*
X48577Y-77376D01*
X48380Y-77376D01*
X48324Y-77404D01*
X48296Y-77432D01*
X48268Y-77489D01*
X48268Y-77545D01*
X48296Y-77601D01*
X48324Y-77629D01*
X48380Y-77657D01*
X48577Y-77657D01*
X47987Y-77967D02*
X47987Y-77573D01*
X47987Y-77685D02*
X47959Y-77629D01*
X47931Y-77601D01*
X47874Y-77573D01*
X47818Y-77573D01*
X47396Y-77939D02*
X47452Y-77967D01*
X47565Y-77967D01*
X47621Y-77939D01*
X47649Y-77882D01*
X47649Y-77657D01*
X47621Y-77601D01*
X47565Y-77573D01*
X47452Y-77573D01*
X47396Y-77601D01*
X47368Y-77657D01*
X47368Y-77714D01*
X47649Y-77770D01*
X46862Y-77967D02*
X46862Y-77657D01*
X46890Y-77601D01*
X46946Y-77573D01*
X47059Y-77573D01*
X47115Y-77601D01*
X46862Y-77939D02*
X46918Y-77967D01*
X47059Y-77967D01*
X47115Y-77939D01*
X47143Y-77882D01*
X47143Y-77826D01*
X47115Y-77770D01*
X47059Y-77742D01*
X46918Y-77742D01*
X46862Y-77714D01*
X46581Y-77967D02*
X46581Y-77376D01*
X46524Y-77742D02*
X46356Y-77967D01*
X46356Y-77573D02*
X46581Y-77798D01*
X46018Y-77967D02*
X46075Y-77939D01*
X46103Y-77910D01*
X46131Y-77854D01*
X46131Y-77685D01*
X46103Y-77629D01*
X46075Y-77601D01*
X46018Y-77573D01*
X45934Y-77573D01*
X45878Y-77601D01*
X45850Y-77629D01*
X45821Y-77685D01*
X45821Y-77854D01*
X45850Y-77910D01*
X45878Y-77939D01*
X45934Y-77967D01*
X46018Y-77967D01*
X45315Y-77573D02*
X45315Y-77967D01*
X45568Y-77573D02*
X45568Y-77882D01*
X45540Y-77939D01*
X45484Y-77967D01*
X45400Y-77967D01*
X45343Y-77939D01*
X45315Y-77910D01*
X45118Y-77573D02*
X44893Y-77573D01*
X45034Y-77376D02*
X45034Y-77882D01*
X45006Y-77939D01*
X44950Y-77967D01*
X44893Y-77967D01*
X44050Y-77657D02*
X43965Y-77685D01*
X43937Y-77714D01*
X43909Y-77770D01*
X43909Y-77854D01*
X43937Y-77910D01*
X43965Y-77939D01*
X44022Y-77967D01*
X44247Y-77967D01*
X44247Y-77376D01*
X44050Y-77376D01*
X43994Y-77404D01*
X43965Y-77432D01*
X43937Y-77489D01*
X43937Y-77545D01*
X43965Y-77601D01*
X43994Y-77629D01*
X44050Y-77657D01*
X44247Y-77657D01*
X43572Y-77967D02*
X43628Y-77939D01*
X43656Y-77910D01*
X43684Y-77854D01*
X43684Y-77685D01*
X43656Y-77629D01*
X43628Y-77601D01*
X43572Y-77573D01*
X43487Y-77573D01*
X43431Y-77601D01*
X43403Y-77629D01*
X43375Y-77685D01*
X43375Y-77854D01*
X43403Y-77910D01*
X43431Y-77939D01*
X43487Y-77967D01*
X43572Y-77967D01*
X42869Y-77967D02*
X42869Y-77657D01*
X42897Y-77601D01*
X42953Y-77573D01*
X43066Y-77573D01*
X43122Y-77601D01*
X42869Y-77939D02*
X42925Y-77967D01*
X43066Y-77967D01*
X43122Y-77939D01*
X43150Y-77882D01*
X43150Y-77826D01*
X43122Y-77770D01*
X43066Y-77742D01*
X42925Y-77742D01*
X42869Y-77714D01*
X42587Y-77967D02*
X42587Y-77573D01*
X42587Y-77685D02*
X42559Y-77629D01*
X42531Y-77601D01*
X42475Y-77573D01*
X42419Y-77573D01*
X41969Y-77967D02*
X41969Y-77376D01*
X41969Y-77939D02*
X42025Y-77967D01*
X42138Y-77967D01*
X42194Y-77939D01*
X42222Y-77910D01*
X42250Y-77854D01*
X42250Y-77685D01*
X42222Y-77629D01*
X42194Y-77601D01*
X42138Y-77573D01*
X42025Y-77573D01*
X41969Y-77601D01*
X61374Y-72210D02*
X61374Y-72631D01*
X61402Y-72716D01*
X61458Y-72772D01*
X61542Y-72800D01*
X61598Y-72800D01*
X61177Y-72210D02*
X60839Y-72210D01*
X61008Y-72800D02*
X61008Y-72210D01*
X60670Y-72631D02*
X60389Y-72631D01*
X60727Y-72800D02*
X60530Y-72210D01*
X60333Y-72800D01*
X59827Y-72238D02*
X59883Y-72210D01*
X59967Y-72210D01*
X60052Y-72238D01*
X60108Y-72294D01*
X60136Y-72350D01*
X60164Y-72463D01*
X60164Y-72547D01*
X60136Y-72660D01*
X60108Y-72716D01*
X60052Y-72772D01*
X59967Y-72800D01*
X59911Y-72800D01*
X59827Y-72772D01*
X59799Y-72744D01*
X59799Y-72547D01*
X59911Y-72547D01*
X61809Y-73211D02*
X61781Y-73183D01*
X61725Y-73154D01*
X61584Y-73154D01*
X61528Y-73183D01*
X61500Y-73211D01*
X61472Y-73267D01*
X61472Y-73323D01*
X61500Y-73408D01*
X61838Y-73745D01*
X61472Y-73745D01*
X61106Y-73154D02*
X61050Y-73154D01*
X60994Y-73183D01*
X60966Y-73211D01*
X60938Y-73267D01*
X60910Y-73379D01*
X60910Y-73520D01*
X60938Y-73633D01*
X60966Y-73689D01*
X60994Y-73717D01*
X61050Y-73745D01*
X61106Y-73745D01*
X61163Y-73717D01*
X61191Y-73689D01*
X61219Y-73633D01*
X61247Y-73520D01*
X61247Y-73379D01*
X61219Y-73267D01*
X61191Y-73211D01*
X61163Y-73183D01*
X61106Y-73154D01*
X60656Y-73351D02*
X60656Y-73942D01*
X60656Y-73379D02*
X60600Y-73351D01*
X60488Y-73351D01*
X60431Y-73379D01*
X60403Y-73408D01*
X60375Y-73464D01*
X60375Y-73633D01*
X60403Y-73689D01*
X60431Y-73717D01*
X60488Y-73745D01*
X60600Y-73745D01*
X60656Y-73717D01*
X60122Y-73745D02*
X60122Y-73351D01*
X60122Y-73154D02*
X60150Y-73183D01*
X60122Y-73211D01*
X60094Y-73183D01*
X60122Y-73154D01*
X60122Y-73211D01*
X59841Y-73351D02*
X59841Y-73745D01*
X59841Y-73408D02*
X59813Y-73379D01*
X59757Y-73351D01*
X59672Y-73351D01*
X59616Y-73379D01*
X59588Y-73436D01*
X59588Y-73745D01*
X61064Y-74296D02*
X60839Y-74296D01*
X60980Y-74099D02*
X60980Y-74606D01*
X60952Y-74662D01*
X60895Y-74690D01*
X60839Y-74690D01*
X60558Y-74690D02*
X60614Y-74662D01*
X60642Y-74634D01*
X60670Y-74577D01*
X60670Y-74409D01*
X60642Y-74352D01*
X60614Y-74324D01*
X60558Y-74296D01*
X60474Y-74296D01*
X60417Y-74324D01*
X60389Y-74352D01*
X60361Y-74409D01*
X60361Y-74577D01*
X60389Y-74634D01*
X60417Y-74662D01*
X60474Y-74690D01*
X60558Y-74690D01*
X61472Y-75635D02*
X61809Y-75635D01*
X61641Y-75635D02*
X61641Y-75044D01*
X61697Y-75129D01*
X61753Y-75185D01*
X61809Y-75213D01*
X61106Y-75044D02*
X61050Y-75044D01*
X60994Y-75072D01*
X60966Y-75100D01*
X60938Y-75157D01*
X60910Y-75269D01*
X60910Y-75410D01*
X60938Y-75522D01*
X60966Y-75579D01*
X60994Y-75607D01*
X61050Y-75635D01*
X61106Y-75635D01*
X61163Y-75607D01*
X61191Y-75579D01*
X61219Y-75522D01*
X61247Y-75410D01*
X61247Y-75269D01*
X61219Y-75157D01*
X61191Y-75100D01*
X61163Y-75072D01*
X61106Y-75044D01*
X60656Y-75241D02*
X60656Y-75832D01*
X60656Y-75269D02*
X60600Y-75241D01*
X60488Y-75241D01*
X60431Y-75269D01*
X60403Y-75297D01*
X60375Y-75354D01*
X60375Y-75522D01*
X60403Y-75579D01*
X60431Y-75607D01*
X60488Y-75635D01*
X60600Y-75635D01*
X60656Y-75607D01*
X60122Y-75635D02*
X60122Y-75241D01*
X60122Y-75044D02*
X60150Y-75072D01*
X60122Y-75100D01*
X60094Y-75072D01*
X60122Y-75044D01*
X60122Y-75100D01*
X59841Y-75241D02*
X59841Y-75635D01*
X59841Y-75297D02*
X59813Y-75269D01*
X59757Y-75241D01*
X59672Y-75241D01*
X59616Y-75269D01*
X59588Y-75325D01*
X59588Y-75635D01*
G54D12*
X39370Y-39370D02*
X39370Y-78740D01*
X78740Y-39370D02*
X78740Y-78740D01*
X39370Y-78740D02*
X78740Y-78740D01*
X39370Y-39370D02*
X78740Y-39370D01*
%LPC*%
G54D13*
X50370Y-63370D03*
G54D14*
X50370Y-62370D03*
X50370Y-61370D03*
X50370Y-60370D03*
X50370Y-59370D03*
X50370Y-58370D03*
X50370Y-57370D03*
X50370Y-56370D03*
X50370Y-55370D03*
X50370Y-54370D03*
X50370Y-53370D03*
X50370Y-52370D03*
X50370Y-51370D03*
X50370Y-50370D03*
X50370Y-49370D03*
X50370Y-48370D03*
X50370Y-47370D03*
X50370Y-46370D03*
X50370Y-45370D03*
X50370Y-44370D03*
X50370Y-43370D03*
X50370Y-42370D03*
X50370Y-41370D03*
X50370Y-40370D03*
G54D13*
X40370Y-40370D03*
G54D14*
X40370Y-41370D03*
X40370Y-42370D03*
X40370Y-43370D03*
X40370Y-44370D03*
X40370Y-45370D03*
X40370Y-46370D03*
X40370Y-47370D03*
X40370Y-48370D03*
X40370Y-49370D03*
X40370Y-50370D03*
X40370Y-51370D03*
X40370Y-52370D03*
X40370Y-53370D03*
X40370Y-54370D03*
X40370Y-55370D03*
X40370Y-56370D03*
X40370Y-57370D03*
X40370Y-58370D03*
X40370Y-59370D03*
X40370Y-60370D03*
X40370Y-61370D03*
X40370Y-62370D03*
X40370Y-63370D03*
G54D13*
X50370Y-69688D03*
G54D14*
X49370Y-69688D03*
X48370Y-69688D03*
X47370Y-69688D03*
X46370Y-69688D03*
X45370Y-69688D03*
X44370Y-69688D03*
X43370Y-69688D03*
X42370Y-69688D03*
X41370Y-69688D03*
G54D15*
X47570Y-73188D03*
X46669Y-73188D03*
X45771Y-73188D03*
X44866Y-73188D03*
X43964Y-73188D03*
X48019Y-74188D03*
X47118Y-74188D03*
X46216Y-74188D03*
X45314Y-74188D03*
X44413Y-74188D03*
X47570Y-75188D03*
X46669Y-75188D03*
X45771Y-75188D03*
X44866Y-75188D03*
X43964Y-75188D03*
G54D13*
X65370Y-66370D03*
G54D14*
X65370Y-65370D03*
X65370Y-64370D03*
X65370Y-63370D03*
X65370Y-62370D03*
X65370Y-61370D03*
X65370Y-60370D03*
X65370Y-59370D03*
X65370Y-58370D03*
X65370Y-57370D03*
X65370Y-56370D03*
X65370Y-55370D03*
X65370Y-54370D03*
X65370Y-53370D03*
X65370Y-52370D03*
X65370Y-51370D03*
X65370Y-50370D03*
X65370Y-49370D03*
X65370Y-48370D03*
X65370Y-47370D03*
X65370Y-46370D03*
X65370Y-45370D03*
X65370Y-44370D03*
X65370Y-43370D03*
X65370Y-42370D03*
X65370Y-41370D03*
X65370Y-40370D03*
G54D13*
X53370Y-40370D03*
G54D14*
X53370Y-41370D03*
X53370Y-42370D03*
X53370Y-43370D03*
X53370Y-44370D03*
X53370Y-45370D03*
X53370Y-46370D03*
X53370Y-47370D03*
X53370Y-48370D03*
X53370Y-49370D03*
X53370Y-50370D03*
X53370Y-51370D03*
X53370Y-52370D03*
X53370Y-53370D03*
X53370Y-54370D03*
X53370Y-55370D03*
X53370Y-56370D03*
X53370Y-57370D03*
X53370Y-58370D03*
X53370Y-59370D03*
X53370Y-60370D03*
X53370Y-61370D03*
X53370Y-62370D03*
X53370Y-63370D03*
X53370Y-64370D03*
X53370Y-65370D03*
X53370Y-66370D03*
G54D13*
X54500Y-77250D03*
G54D14*
X55500Y-77250D03*
X56500Y-77250D03*
G54D13*
X54500Y-74250D03*
G54D14*
X55500Y-74250D03*
X56500Y-74250D03*
G54D13*
X54500Y-76250D03*
G54D14*
X54500Y-75250D03*
X55500Y-76250D03*
X55500Y-75250D03*
X56500Y-76250D03*
X56500Y-75250D03*
X60816Y-71511D03*
G54D16*
X61066Y-77261D03*
X61066Y-76261D03*
X62066Y-77261D03*
X62066Y-76261D03*
X63066Y-77261D03*
X63066Y-76261D03*
X64066Y-77261D03*
X64066Y-76261D03*
X65066Y-77261D03*
X65066Y-76261D03*
X66066Y-77261D03*
X66066Y-76261D03*
X67066Y-77261D03*
X67066Y-76261D03*
X68066Y-77261D03*
X68066Y-76261D03*
X69066Y-77261D03*
X69066Y-76261D03*
X70066Y-77261D03*
X70066Y-76261D03*
G54D13*
X75500Y-46000D03*
G54D14*
X74500Y-46000D03*
G54D17*
X73493Y-42790D03*
X77508Y-42790D03*
G54D18*
X75500Y-44469D03*
X74516Y-44469D03*
G54D13*
X70500Y-48750D03*
G54D14*
X70500Y-49750D03*
X70500Y-50750D03*
X70500Y-51750D03*
X70500Y-52750D03*
X70500Y-53750D03*
X70500Y-54750D03*
X70500Y-55750D03*
X70500Y-56750D03*
X70500Y-57750D03*
X70500Y-58750D03*
X70500Y-59750D03*
X70500Y-60750D03*
X70500Y-61750D03*
G54D13*
X77750Y-61750D03*
G54D14*
X77750Y-60750D03*
X77750Y-59750D03*
X77750Y-58750D03*
X77750Y-57750D03*
X77750Y-56750D03*
X77750Y-55750D03*
X77750Y-54750D03*
X77750Y-53750D03*
X77750Y-52750D03*
X77750Y-51750D03*
X77750Y-50750D03*
X77750Y-49750D03*
X77750Y-48750D03*
G54D13*
X74671Y-64270D03*
G54D14*
X74671Y-65270D03*
X74671Y-66270D03*
G54D13*
X77671Y-64270D03*
G54D14*
X77671Y-65270D03*
X77671Y-66270D03*
M02*
