G04 (created by PCBNEW (2013-mar-13)-testing) date Sun 09 Jun 2013 10:01:08 PM EDT*
%MOIN*%
G04 Gerber Fmt 3.4, Leading zero omitted, Abs format*
%FSLAX34Y34*%
G01*
G70*
G90*
G04 APERTURE LIST*
%ADD10C,0.005906*%
%ADD11C,0.007874*%
%ADD12C,0.003937*%
%ADD13C,0.006693*%
%ADD14C,0.003900*%
%ADD15C,0.004300*%
G04 APERTURE END LIST*
G54D10*
G54D11*
X66535Y-47480D02*
X66535Y-55669D01*
X71732Y-47480D02*
X66535Y-47480D01*
X59940Y-47342D02*
X59940Y-55807D01*
X71700Y-47000D02*
X71700Y-39400D01*
X63100Y-47000D02*
X71700Y-47000D01*
X63090Y-47342D02*
X63090Y-39370D01*
X54724Y-47342D02*
X63090Y-47342D01*
G54D12*
X54566Y-55826D02*
X71870Y-55826D01*
X54566Y-39251D02*
X54566Y-55826D01*
X71870Y-39251D02*
X71870Y-55826D01*
X54566Y-39251D02*
X71870Y-39251D01*
G54D13*
X67254Y-46262D02*
X67359Y-46616D01*
X67464Y-46262D01*
X67734Y-46616D02*
X67554Y-46616D01*
X67644Y-46616D02*
X67644Y-46262D01*
X67614Y-46313D01*
X67584Y-46347D01*
X67554Y-46363D01*
X68094Y-46296D02*
X68109Y-46279D01*
X68139Y-46262D01*
X68214Y-46262D01*
X68244Y-46279D01*
X68259Y-46296D01*
X68274Y-46330D01*
X68274Y-46363D01*
X68259Y-46414D01*
X68079Y-46616D01*
X68274Y-46616D01*
X68469Y-46262D02*
X68499Y-46262D01*
X68529Y-46279D01*
X68544Y-46296D01*
X68559Y-46330D01*
X68574Y-46397D01*
X68574Y-46482D01*
X68559Y-46549D01*
X68544Y-46583D01*
X68529Y-46600D01*
X68499Y-46616D01*
X68469Y-46616D01*
X68439Y-46600D01*
X68424Y-46583D01*
X68409Y-46549D01*
X68394Y-46482D01*
X68394Y-46397D01*
X68409Y-46330D01*
X68424Y-46296D01*
X68439Y-46279D01*
X68469Y-46262D01*
X68874Y-46616D02*
X68694Y-46616D01*
X68784Y-46616D02*
X68784Y-46262D01*
X68754Y-46313D01*
X68724Y-46347D01*
X68694Y-46363D01*
X68979Y-46262D02*
X69174Y-46262D01*
X69069Y-46397D01*
X69114Y-46397D01*
X69144Y-46414D01*
X69159Y-46431D01*
X69174Y-46465D01*
X69174Y-46549D01*
X69159Y-46583D01*
X69144Y-46600D01*
X69114Y-46616D01*
X69024Y-46616D01*
X68994Y-46600D01*
X68979Y-46583D01*
X69309Y-46482D02*
X69549Y-46482D01*
X69759Y-46262D02*
X69789Y-46262D01*
X69819Y-46279D01*
X69834Y-46296D01*
X69849Y-46330D01*
X69864Y-46397D01*
X69864Y-46482D01*
X69849Y-46549D01*
X69834Y-46583D01*
X69819Y-46600D01*
X69789Y-46616D01*
X69759Y-46616D01*
X69729Y-46600D01*
X69714Y-46583D01*
X69699Y-46549D01*
X69684Y-46482D01*
X69684Y-46397D01*
X69699Y-46330D01*
X69714Y-46296D01*
X69729Y-46279D01*
X69759Y-46262D01*
X70134Y-46262D02*
X70074Y-46262D01*
X70044Y-46279D01*
X70029Y-46296D01*
X69999Y-46347D01*
X69984Y-46414D01*
X69984Y-46549D01*
X69999Y-46583D01*
X70014Y-46600D01*
X70044Y-46616D01*
X70104Y-46616D01*
X70134Y-46600D01*
X70149Y-46583D01*
X70164Y-46549D01*
X70164Y-46465D01*
X70149Y-46431D01*
X70134Y-46414D01*
X70104Y-46397D01*
X70044Y-46397D01*
X70014Y-46414D01*
X69999Y-46431D01*
X69984Y-46465D01*
X70299Y-46482D02*
X70538Y-46482D01*
X70748Y-46262D02*
X70778Y-46262D01*
X70808Y-46279D01*
X70823Y-46296D01*
X70838Y-46330D01*
X70853Y-46397D01*
X70853Y-46482D01*
X70838Y-46549D01*
X70823Y-46583D01*
X70808Y-46600D01*
X70778Y-46616D01*
X70748Y-46616D01*
X70718Y-46600D01*
X70703Y-46583D01*
X70688Y-46549D01*
X70673Y-46482D01*
X70673Y-46397D01*
X70688Y-46330D01*
X70703Y-46296D01*
X70718Y-46279D01*
X70748Y-46262D01*
X71123Y-46262D02*
X71063Y-46262D01*
X71033Y-46279D01*
X71018Y-46296D01*
X70988Y-46347D01*
X70973Y-46414D01*
X70973Y-46549D01*
X70988Y-46583D01*
X71003Y-46600D01*
X71033Y-46616D01*
X71093Y-46616D01*
X71123Y-46600D01*
X71138Y-46583D01*
X71153Y-46549D01*
X71153Y-46465D01*
X71138Y-46431D01*
X71123Y-46414D01*
X71093Y-46397D01*
X71033Y-46397D01*
X71003Y-46414D01*
X70988Y-46431D01*
X70973Y-46465D01*
X55129Y-46505D02*
X55234Y-46860D01*
X55339Y-46505D01*
X55609Y-46860D02*
X55429Y-46860D01*
X55519Y-46860D02*
X55519Y-46505D01*
X55489Y-46556D01*
X55459Y-46590D01*
X55429Y-46607D01*
X55969Y-46539D02*
X55984Y-46522D01*
X56014Y-46505D01*
X56089Y-46505D01*
X56119Y-46522D01*
X56134Y-46539D01*
X56149Y-46573D01*
X56149Y-46607D01*
X56134Y-46657D01*
X55954Y-46860D01*
X56149Y-46860D01*
X56344Y-46505D02*
X56374Y-46505D01*
X56404Y-46522D01*
X56419Y-46539D01*
X56434Y-46573D01*
X56449Y-46640D01*
X56449Y-46725D01*
X56434Y-46792D01*
X56419Y-46826D01*
X56404Y-46843D01*
X56374Y-46860D01*
X56344Y-46860D01*
X56314Y-46843D01*
X56299Y-46826D01*
X56284Y-46792D01*
X56269Y-46725D01*
X56269Y-46640D01*
X56284Y-46573D01*
X56299Y-46539D01*
X56314Y-46522D01*
X56344Y-46505D01*
X56749Y-46860D02*
X56569Y-46860D01*
X56659Y-46860D02*
X56659Y-46505D01*
X56629Y-46556D01*
X56599Y-46590D01*
X56569Y-46607D01*
X56854Y-46505D02*
X57049Y-46505D01*
X56944Y-46640D01*
X56989Y-46640D01*
X57019Y-46657D01*
X57034Y-46674D01*
X57049Y-46708D01*
X57049Y-46792D01*
X57034Y-46826D01*
X57019Y-46843D01*
X56989Y-46860D01*
X56899Y-46860D01*
X56869Y-46843D01*
X56854Y-46826D01*
X57184Y-46725D02*
X57424Y-46725D01*
X57634Y-46505D02*
X57664Y-46505D01*
X57694Y-46522D01*
X57709Y-46539D01*
X57724Y-46573D01*
X57739Y-46640D01*
X57739Y-46725D01*
X57724Y-46792D01*
X57709Y-46826D01*
X57694Y-46843D01*
X57664Y-46860D01*
X57634Y-46860D01*
X57604Y-46843D01*
X57589Y-46826D01*
X57574Y-46792D01*
X57559Y-46725D01*
X57559Y-46640D01*
X57574Y-46573D01*
X57589Y-46539D01*
X57604Y-46522D01*
X57634Y-46505D01*
X58009Y-46505D02*
X57949Y-46505D01*
X57919Y-46522D01*
X57904Y-46539D01*
X57874Y-46590D01*
X57859Y-46657D01*
X57859Y-46792D01*
X57874Y-46826D01*
X57889Y-46843D01*
X57919Y-46860D01*
X57979Y-46860D01*
X58009Y-46843D01*
X58024Y-46826D01*
X58039Y-46792D01*
X58039Y-46708D01*
X58024Y-46674D01*
X58009Y-46657D01*
X57979Y-46640D01*
X57919Y-46640D01*
X57889Y-46657D01*
X57874Y-46674D01*
X57859Y-46708D01*
X58174Y-46725D02*
X58414Y-46725D01*
X58624Y-46505D02*
X58654Y-46505D01*
X58684Y-46522D01*
X58699Y-46539D01*
X58714Y-46573D01*
X58729Y-46640D01*
X58729Y-46725D01*
X58714Y-46792D01*
X58699Y-46826D01*
X58684Y-46843D01*
X58654Y-46860D01*
X58624Y-46860D01*
X58594Y-46843D01*
X58579Y-46826D01*
X58564Y-46792D01*
X58549Y-46725D01*
X58549Y-46640D01*
X58564Y-46573D01*
X58579Y-46539D01*
X58594Y-46522D01*
X58624Y-46505D01*
X58999Y-46505D02*
X58939Y-46505D01*
X58909Y-46522D01*
X58894Y-46539D01*
X58864Y-46590D01*
X58849Y-46657D01*
X58849Y-46792D01*
X58864Y-46826D01*
X58879Y-46843D01*
X58909Y-46860D01*
X58969Y-46860D01*
X58999Y-46843D01*
X59014Y-46826D01*
X59029Y-46792D01*
X59029Y-46708D01*
X59014Y-46674D01*
X58999Y-46657D01*
X58969Y-46640D01*
X58909Y-46640D01*
X58879Y-46657D01*
X58864Y-46674D01*
X58849Y-46708D01*
X64235Y-46487D02*
X64235Y-46637D01*
X63880Y-46637D01*
X63880Y-46412D02*
X63880Y-46217D01*
X64015Y-46322D01*
X64015Y-46277D01*
X64032Y-46247D01*
X64049Y-46232D01*
X64083Y-46217D01*
X64167Y-46217D01*
X64201Y-46232D01*
X64218Y-46247D01*
X64235Y-46277D01*
X64235Y-46367D01*
X64218Y-46397D01*
X64201Y-46412D01*
X63897Y-45917D02*
X63880Y-45947D01*
X63880Y-45992D01*
X63897Y-46037D01*
X63931Y-46067D01*
X63965Y-46082D01*
X64032Y-46097D01*
X64083Y-46097D01*
X64150Y-46082D01*
X64184Y-46067D01*
X64218Y-46037D01*
X64235Y-45992D01*
X64235Y-45962D01*
X64218Y-45917D01*
X64201Y-45902D01*
X64083Y-45902D01*
X64083Y-45962D01*
X64235Y-45767D02*
X63880Y-45767D01*
X63880Y-45692D01*
X63897Y-45647D01*
X63931Y-45617D01*
X63965Y-45602D01*
X64032Y-45587D01*
X64083Y-45587D01*
X64150Y-45602D01*
X64184Y-45617D01*
X64218Y-45647D01*
X64235Y-45692D01*
X64235Y-45767D01*
X63914Y-45467D02*
X63897Y-45452D01*
X63880Y-45422D01*
X63880Y-45347D01*
X63897Y-45317D01*
X63914Y-45302D01*
X63948Y-45287D01*
X63982Y-45287D01*
X64032Y-45302D01*
X64235Y-45482D01*
X64235Y-45287D01*
X63880Y-45092D02*
X63880Y-45062D01*
X63897Y-45032D01*
X63914Y-45017D01*
X63948Y-45002D01*
X64015Y-44987D01*
X64100Y-44987D01*
X64167Y-45002D01*
X64201Y-45017D01*
X64218Y-45032D01*
X64235Y-45062D01*
X64235Y-45092D01*
X64218Y-45122D01*
X64201Y-45137D01*
X64167Y-45152D01*
X64100Y-45167D01*
X64015Y-45167D01*
X63948Y-45152D01*
X63914Y-45137D01*
X63897Y-45122D01*
X63880Y-45092D01*
X64612Y-46532D02*
X64629Y-46487D01*
X64646Y-46472D01*
X64679Y-46457D01*
X64730Y-46457D01*
X64764Y-46472D01*
X64781Y-46487D01*
X64798Y-46517D01*
X64798Y-46637D01*
X64443Y-46637D01*
X64443Y-46532D01*
X64460Y-46502D01*
X64477Y-46487D01*
X64511Y-46472D01*
X64544Y-46472D01*
X64578Y-46487D01*
X64595Y-46502D01*
X64612Y-46532D01*
X64612Y-46637D01*
X64798Y-46322D02*
X64561Y-46322D01*
X64629Y-46322D02*
X64595Y-46307D01*
X64578Y-46292D01*
X64561Y-46262D01*
X64561Y-46232D01*
X64781Y-46007D02*
X64798Y-46037D01*
X64798Y-46097D01*
X64781Y-46127D01*
X64747Y-46142D01*
X64612Y-46142D01*
X64578Y-46127D01*
X64561Y-46097D01*
X64561Y-46037D01*
X64578Y-46007D01*
X64612Y-45992D01*
X64646Y-45992D01*
X64679Y-46142D01*
X64798Y-45722D02*
X64612Y-45722D01*
X64578Y-45737D01*
X64561Y-45767D01*
X64561Y-45827D01*
X64578Y-45857D01*
X64781Y-45722D02*
X64798Y-45752D01*
X64798Y-45827D01*
X64781Y-45857D01*
X64747Y-45872D01*
X64713Y-45872D01*
X64679Y-45857D01*
X64663Y-45827D01*
X64663Y-45752D01*
X64646Y-45722D01*
X64798Y-45572D02*
X64443Y-45572D01*
X64663Y-45542D02*
X64798Y-45452D01*
X64561Y-45452D02*
X64696Y-45572D01*
X64443Y-45017D02*
X64443Y-44957D01*
X64460Y-44927D01*
X64494Y-44897D01*
X64561Y-44882D01*
X64679Y-44882D01*
X64747Y-44897D01*
X64781Y-44927D01*
X64798Y-44957D01*
X64798Y-45017D01*
X64781Y-45047D01*
X64747Y-45077D01*
X64679Y-45092D01*
X64561Y-45092D01*
X64494Y-45077D01*
X64460Y-45047D01*
X64443Y-45017D01*
X64561Y-44612D02*
X64798Y-44612D01*
X64561Y-44747D02*
X64747Y-44747D01*
X64781Y-44732D01*
X64798Y-44702D01*
X64798Y-44657D01*
X64781Y-44627D01*
X64764Y-44612D01*
X64561Y-44507D02*
X64561Y-44387D01*
X64443Y-44462D02*
X64747Y-44462D01*
X64781Y-44447D01*
X64798Y-44417D01*
X64798Y-44387D01*
X64612Y-43937D02*
X64629Y-43892D01*
X64646Y-43877D01*
X64679Y-43862D01*
X64730Y-43862D01*
X64764Y-43877D01*
X64781Y-43892D01*
X64798Y-43922D01*
X64798Y-44042D01*
X64443Y-44042D01*
X64443Y-43937D01*
X64460Y-43907D01*
X64477Y-43892D01*
X64511Y-43877D01*
X64544Y-43877D01*
X64578Y-43892D01*
X64595Y-43907D01*
X64612Y-43937D01*
X64612Y-44042D01*
X64798Y-43682D02*
X64781Y-43712D01*
X64764Y-43727D01*
X64730Y-43742D01*
X64629Y-43742D01*
X64595Y-43727D01*
X64578Y-43712D01*
X64561Y-43682D01*
X64561Y-43637D01*
X64578Y-43607D01*
X64595Y-43592D01*
X64629Y-43577D01*
X64730Y-43577D01*
X64764Y-43592D01*
X64781Y-43607D01*
X64798Y-43637D01*
X64798Y-43682D01*
X64798Y-43308D02*
X64612Y-43308D01*
X64578Y-43323D01*
X64561Y-43353D01*
X64561Y-43413D01*
X64578Y-43443D01*
X64781Y-43308D02*
X64798Y-43338D01*
X64798Y-43413D01*
X64781Y-43443D01*
X64747Y-43458D01*
X64713Y-43458D01*
X64679Y-43443D01*
X64663Y-43413D01*
X64663Y-43338D01*
X64646Y-43308D01*
X64798Y-43158D02*
X64561Y-43158D01*
X64629Y-43158D02*
X64595Y-43143D01*
X64578Y-43128D01*
X64561Y-43098D01*
X64561Y-43068D01*
X64798Y-42828D02*
X64443Y-42828D01*
X64781Y-42828D02*
X64798Y-42858D01*
X64798Y-42918D01*
X64781Y-42948D01*
X64764Y-42963D01*
X64730Y-42978D01*
X64629Y-42978D01*
X64595Y-42963D01*
X64578Y-42948D01*
X64561Y-42918D01*
X64561Y-42858D01*
X64578Y-42828D01*
X61858Y-46825D02*
X61504Y-46825D01*
X61757Y-46720D01*
X61504Y-46615D01*
X61858Y-46615D01*
X61858Y-46465D02*
X61504Y-46465D01*
X61757Y-46360D01*
X61504Y-46255D01*
X61858Y-46255D01*
X61757Y-46120D02*
X61757Y-45970D01*
X61858Y-46150D02*
X61504Y-46045D01*
X61858Y-45940D01*
X61656Y-45790D02*
X61639Y-45820D01*
X61622Y-45835D01*
X61588Y-45850D01*
X61571Y-45850D01*
X61538Y-45835D01*
X61521Y-45820D01*
X61504Y-45790D01*
X61504Y-45730D01*
X61521Y-45700D01*
X61538Y-45685D01*
X61571Y-45670D01*
X61588Y-45670D01*
X61622Y-45685D01*
X61639Y-45700D01*
X61656Y-45730D01*
X61656Y-45790D01*
X61673Y-45820D01*
X61689Y-45835D01*
X61723Y-45850D01*
X61791Y-45850D01*
X61824Y-45835D01*
X61841Y-45820D01*
X61858Y-45790D01*
X61858Y-45730D01*
X61841Y-45700D01*
X61824Y-45685D01*
X61791Y-45670D01*
X61723Y-45670D01*
X61689Y-45685D01*
X61673Y-45700D01*
X61656Y-45730D01*
X61622Y-45400D02*
X61858Y-45400D01*
X61487Y-45475D02*
X61740Y-45550D01*
X61740Y-45355D01*
X61504Y-45085D02*
X61504Y-45235D01*
X61673Y-45250D01*
X61656Y-45235D01*
X61639Y-45205D01*
X61639Y-45130D01*
X61656Y-45100D01*
X61673Y-45085D01*
X61706Y-45070D01*
X61791Y-45070D01*
X61824Y-45085D01*
X61841Y-45100D01*
X61858Y-45130D01*
X61858Y-45205D01*
X61841Y-45235D01*
X61824Y-45250D01*
X61504Y-44965D02*
X61504Y-44770D01*
X61639Y-44875D01*
X61639Y-44830D01*
X61656Y-44800D01*
X61673Y-44785D01*
X61706Y-44770D01*
X61791Y-44770D01*
X61824Y-44785D01*
X61841Y-44800D01*
X61858Y-44830D01*
X61858Y-44920D01*
X61841Y-44950D01*
X61824Y-44965D01*
X61892Y-44425D02*
X61875Y-44455D01*
X61841Y-44485D01*
X61791Y-44530D01*
X61774Y-44560D01*
X61774Y-44590D01*
X61858Y-44575D02*
X61841Y-44605D01*
X61808Y-44635D01*
X61740Y-44650D01*
X61622Y-44650D01*
X61555Y-44635D01*
X61521Y-44605D01*
X61504Y-44575D01*
X61504Y-44515D01*
X61521Y-44485D01*
X61555Y-44455D01*
X61622Y-44440D01*
X61740Y-44440D01*
X61808Y-44455D01*
X61841Y-44485D01*
X61858Y-44515D01*
X61858Y-44575D01*
X62236Y-46720D02*
X62252Y-46675D01*
X62269Y-46660D01*
X62303Y-46645D01*
X62354Y-46645D01*
X62387Y-46660D01*
X62404Y-46675D01*
X62421Y-46705D01*
X62421Y-46825D01*
X62067Y-46825D01*
X62067Y-46720D01*
X62084Y-46690D01*
X62101Y-46675D01*
X62134Y-46660D01*
X62168Y-46660D01*
X62202Y-46675D01*
X62219Y-46690D01*
X62236Y-46720D01*
X62236Y-46825D01*
X62421Y-46510D02*
X62185Y-46510D01*
X62252Y-46510D02*
X62219Y-46495D01*
X62202Y-46480D01*
X62185Y-46450D01*
X62185Y-46420D01*
X62404Y-46195D02*
X62421Y-46225D01*
X62421Y-46285D01*
X62404Y-46315D01*
X62371Y-46330D01*
X62236Y-46330D01*
X62202Y-46315D01*
X62185Y-46285D01*
X62185Y-46225D01*
X62202Y-46195D01*
X62236Y-46180D01*
X62269Y-46180D01*
X62303Y-46330D01*
X62421Y-45910D02*
X62236Y-45910D01*
X62202Y-45925D01*
X62185Y-45955D01*
X62185Y-46015D01*
X62202Y-46045D01*
X62404Y-45910D02*
X62421Y-45940D01*
X62421Y-46015D01*
X62404Y-46045D01*
X62371Y-46060D01*
X62337Y-46060D01*
X62303Y-46045D01*
X62286Y-46015D01*
X62286Y-45940D01*
X62269Y-45910D01*
X62421Y-45760D02*
X62067Y-45760D01*
X62286Y-45730D02*
X62421Y-45640D01*
X62185Y-45640D02*
X62320Y-45760D01*
X62067Y-45205D02*
X62067Y-45145D01*
X62084Y-45115D01*
X62117Y-45085D01*
X62185Y-45070D01*
X62303Y-45070D01*
X62371Y-45085D01*
X62404Y-45115D01*
X62421Y-45145D01*
X62421Y-45205D01*
X62404Y-45235D01*
X62371Y-45265D01*
X62303Y-45280D01*
X62185Y-45280D01*
X62117Y-45265D01*
X62084Y-45235D01*
X62067Y-45205D01*
X62185Y-44800D02*
X62421Y-44800D01*
X62185Y-44935D02*
X62371Y-44935D01*
X62404Y-44920D01*
X62421Y-44890D01*
X62421Y-44845D01*
X62404Y-44815D01*
X62387Y-44800D01*
X62185Y-44695D02*
X62185Y-44575D01*
X62067Y-44650D02*
X62371Y-44650D01*
X62404Y-44635D01*
X62421Y-44605D01*
X62421Y-44575D01*
X62236Y-44125D02*
X62252Y-44080D01*
X62269Y-44065D01*
X62303Y-44050D01*
X62354Y-44050D01*
X62387Y-44065D01*
X62404Y-44080D01*
X62421Y-44110D01*
X62421Y-44230D01*
X62067Y-44230D01*
X62067Y-44125D01*
X62084Y-44095D01*
X62101Y-44080D01*
X62134Y-44065D01*
X62168Y-44065D01*
X62202Y-44080D01*
X62219Y-44095D01*
X62236Y-44125D01*
X62236Y-44230D01*
X62421Y-43870D02*
X62404Y-43900D01*
X62387Y-43915D01*
X62354Y-43930D01*
X62252Y-43930D01*
X62219Y-43915D01*
X62202Y-43900D01*
X62185Y-43870D01*
X62185Y-43825D01*
X62202Y-43795D01*
X62219Y-43780D01*
X62252Y-43765D01*
X62354Y-43765D01*
X62387Y-43780D01*
X62404Y-43795D01*
X62421Y-43825D01*
X62421Y-43870D01*
X62421Y-43495D02*
X62236Y-43495D01*
X62202Y-43510D01*
X62185Y-43540D01*
X62185Y-43600D01*
X62202Y-43630D01*
X62404Y-43495D02*
X62421Y-43525D01*
X62421Y-43600D01*
X62404Y-43630D01*
X62371Y-43645D01*
X62337Y-43645D01*
X62303Y-43630D01*
X62286Y-43600D01*
X62286Y-43525D01*
X62269Y-43495D01*
X62421Y-43345D02*
X62185Y-43345D01*
X62252Y-43345D02*
X62219Y-43330D01*
X62202Y-43315D01*
X62185Y-43285D01*
X62185Y-43255D01*
X62421Y-43015D02*
X62067Y-43015D01*
X62404Y-43015D02*
X62421Y-43045D01*
X62421Y-43105D01*
X62404Y-43135D01*
X62387Y-43150D01*
X62354Y-43165D01*
X62252Y-43165D01*
X62219Y-43150D01*
X62202Y-43135D01*
X62185Y-43105D01*
X62185Y-43045D01*
X62202Y-43015D01*
G54D11*
X55496Y-40899D02*
X55515Y-40862D01*
X55515Y-40806D01*
X55496Y-40749D01*
X55459Y-40712D01*
X55421Y-40693D01*
X55346Y-40674D01*
X55290Y-40674D01*
X55215Y-40693D01*
X55178Y-40712D01*
X55140Y-40749D01*
X55121Y-40806D01*
X55121Y-40843D01*
X55140Y-40899D01*
X55159Y-40918D01*
X55290Y-40918D01*
X55290Y-40843D01*
X55121Y-41087D02*
X55515Y-41087D01*
X55121Y-41312D01*
X55515Y-41312D01*
X55121Y-41499D02*
X55515Y-41499D01*
X55515Y-41593D01*
X55496Y-41649D01*
X55459Y-41687D01*
X55421Y-41706D01*
X55346Y-41724D01*
X55290Y-41724D01*
X55215Y-41706D01*
X55178Y-41687D01*
X55140Y-41649D01*
X55121Y-41593D01*
X55121Y-41499D01*
X59140Y-40674D02*
X59121Y-40731D01*
X59121Y-40824D01*
X59140Y-40862D01*
X59159Y-40881D01*
X59196Y-40899D01*
X59234Y-40899D01*
X59271Y-40881D01*
X59290Y-40862D01*
X59309Y-40824D01*
X59328Y-40749D01*
X59346Y-40712D01*
X59365Y-40693D01*
X59403Y-40674D01*
X59440Y-40674D01*
X59478Y-40693D01*
X59496Y-40712D01*
X59515Y-40749D01*
X59515Y-40843D01*
X59496Y-40899D01*
X59159Y-41293D02*
X59140Y-41274D01*
X59121Y-41218D01*
X59121Y-41181D01*
X59140Y-41124D01*
X59178Y-41087D01*
X59215Y-41068D01*
X59290Y-41049D01*
X59346Y-41049D01*
X59421Y-41068D01*
X59459Y-41087D01*
X59496Y-41124D01*
X59515Y-41181D01*
X59515Y-41218D01*
X59496Y-41274D01*
X59478Y-41293D01*
X59121Y-41649D02*
X59121Y-41462D01*
X59515Y-41462D01*
X60140Y-40674D02*
X60121Y-40731D01*
X60121Y-40824D01*
X60140Y-40862D01*
X60159Y-40881D01*
X60196Y-40899D01*
X60234Y-40899D01*
X60271Y-40881D01*
X60290Y-40862D01*
X60309Y-40824D01*
X60328Y-40749D01*
X60346Y-40712D01*
X60365Y-40693D01*
X60403Y-40674D01*
X60440Y-40674D01*
X60478Y-40693D01*
X60496Y-40712D01*
X60515Y-40749D01*
X60515Y-40843D01*
X60496Y-40899D01*
X60121Y-41068D02*
X60515Y-41068D01*
X60515Y-41162D01*
X60496Y-41218D01*
X60459Y-41256D01*
X60421Y-41274D01*
X60346Y-41293D01*
X60290Y-41293D01*
X60215Y-41274D01*
X60178Y-41256D01*
X60140Y-41218D01*
X60121Y-41162D01*
X60121Y-41068D01*
X60234Y-41443D02*
X60234Y-41631D01*
X60121Y-41406D02*
X60515Y-41537D01*
X60121Y-41668D01*
X58140Y-40674D02*
X58121Y-40731D01*
X58121Y-40824D01*
X58140Y-40862D01*
X58159Y-40881D01*
X58196Y-40899D01*
X58234Y-40899D01*
X58271Y-40881D01*
X58290Y-40862D01*
X58309Y-40824D01*
X58328Y-40749D01*
X58346Y-40712D01*
X58365Y-40693D01*
X58403Y-40674D01*
X58440Y-40674D01*
X58478Y-40693D01*
X58496Y-40712D01*
X58515Y-40749D01*
X58515Y-40843D01*
X58496Y-40899D01*
X58234Y-41049D02*
X58234Y-41237D01*
X58121Y-41012D02*
X58515Y-41143D01*
X58121Y-41274D01*
X58515Y-41481D02*
X58515Y-41518D01*
X58496Y-41556D01*
X58478Y-41574D01*
X58440Y-41593D01*
X58365Y-41612D01*
X58271Y-41612D01*
X58196Y-41593D01*
X58159Y-41574D01*
X58140Y-41556D01*
X58121Y-41518D01*
X58121Y-41481D01*
X58140Y-41443D01*
X58159Y-41424D01*
X58196Y-41406D01*
X58271Y-41387D01*
X58365Y-41387D01*
X58440Y-41406D01*
X58478Y-41424D01*
X58496Y-41443D01*
X58515Y-41481D01*
X56121Y-40693D02*
X56515Y-40693D01*
X56121Y-40881D02*
X56515Y-40881D01*
X56121Y-41106D01*
X56515Y-41106D01*
X56515Y-41237D02*
X56515Y-41462D01*
X56121Y-41349D02*
X56515Y-41349D01*
X56121Y-41799D02*
X56121Y-41574D01*
X56121Y-41687D02*
X56515Y-41687D01*
X56459Y-41649D01*
X56421Y-41612D01*
X56403Y-41574D01*
X57121Y-40693D02*
X57515Y-40693D01*
X57121Y-40881D02*
X57515Y-40881D01*
X57121Y-41106D01*
X57515Y-41106D01*
X57515Y-41237D02*
X57515Y-41462D01*
X57121Y-41349D02*
X57515Y-41349D01*
X57478Y-41574D02*
X57496Y-41593D01*
X57515Y-41631D01*
X57515Y-41724D01*
X57496Y-41762D01*
X57478Y-41781D01*
X57440Y-41799D01*
X57403Y-41799D01*
X57346Y-41781D01*
X57121Y-41556D01*
X57121Y-41799D01*
X61515Y-40637D02*
X61121Y-40768D01*
X61515Y-40899D01*
X61121Y-41031D02*
X61515Y-41031D01*
X61515Y-41124D01*
X61496Y-41181D01*
X61459Y-41218D01*
X61421Y-41237D01*
X61346Y-41256D01*
X61290Y-41256D01*
X61215Y-41237D01*
X61178Y-41218D01*
X61140Y-41181D01*
X61121Y-41124D01*
X61121Y-41031D01*
X61121Y-41424D02*
X61515Y-41424D01*
X61515Y-41518D01*
X61496Y-41574D01*
X61459Y-41612D01*
X61421Y-41631D01*
X61346Y-41649D01*
X61290Y-41649D01*
X61215Y-41631D01*
X61178Y-41612D01*
X61140Y-41574D01*
X61121Y-41518D01*
X61121Y-41424D01*
X62496Y-40899D02*
X62515Y-40862D01*
X62515Y-40806D01*
X62496Y-40749D01*
X62459Y-40712D01*
X62421Y-40693D01*
X62346Y-40674D01*
X62290Y-40674D01*
X62215Y-40693D01*
X62178Y-40712D01*
X62140Y-40749D01*
X62121Y-40806D01*
X62121Y-40843D01*
X62140Y-40899D01*
X62159Y-40918D01*
X62290Y-40918D01*
X62290Y-40843D01*
X62121Y-41087D02*
X62515Y-41087D01*
X62121Y-41312D01*
X62515Y-41312D01*
X62121Y-41499D02*
X62515Y-41499D01*
X62515Y-41593D01*
X62496Y-41649D01*
X62459Y-41687D01*
X62421Y-41706D01*
X62346Y-41724D01*
X62290Y-41724D01*
X62215Y-41706D01*
X62178Y-41687D01*
X62140Y-41649D01*
X62121Y-41593D01*
X62121Y-41499D01*
X64095Y-40899D02*
X64114Y-40862D01*
X64114Y-40806D01*
X64095Y-40749D01*
X64057Y-40712D01*
X64020Y-40693D01*
X63945Y-40674D01*
X63889Y-40674D01*
X63814Y-40693D01*
X63776Y-40712D01*
X63739Y-40749D01*
X63720Y-40806D01*
X63720Y-40843D01*
X63739Y-40899D01*
X63757Y-40918D01*
X63889Y-40918D01*
X63889Y-40843D01*
X63720Y-41087D02*
X64114Y-41087D01*
X63720Y-41312D01*
X64114Y-41312D01*
X63720Y-41499D02*
X64114Y-41499D01*
X64114Y-41593D01*
X64095Y-41649D01*
X64057Y-41687D01*
X64020Y-41706D01*
X63945Y-41724D01*
X63889Y-41724D01*
X63814Y-41706D01*
X63776Y-41687D01*
X63739Y-41649D01*
X63720Y-41593D01*
X63720Y-41499D01*
X65114Y-40637D02*
X64720Y-40768D01*
X65114Y-40899D01*
X64720Y-41031D02*
X65114Y-41031D01*
X65114Y-41124D01*
X65095Y-41181D01*
X65057Y-41218D01*
X65020Y-41237D01*
X64945Y-41256D01*
X64889Y-41256D01*
X64814Y-41237D01*
X64776Y-41218D01*
X64739Y-41181D01*
X64720Y-41124D01*
X64720Y-41031D01*
X64720Y-41424D02*
X65114Y-41424D01*
X65114Y-41518D01*
X65095Y-41574D01*
X65057Y-41612D01*
X65020Y-41631D01*
X64945Y-41649D01*
X64889Y-41649D01*
X64814Y-41631D01*
X64776Y-41612D01*
X64739Y-41574D01*
X64720Y-41518D01*
X64720Y-41424D01*
X65720Y-40693D02*
X66114Y-40693D01*
X65720Y-40881D02*
X66114Y-40881D01*
X65720Y-41106D01*
X66114Y-41106D01*
X66114Y-41237D02*
X66114Y-41462D01*
X65720Y-41349D02*
X66114Y-41349D01*
X65720Y-41799D02*
X65720Y-41574D01*
X65720Y-41687D02*
X66114Y-41687D01*
X66057Y-41649D01*
X66020Y-41612D01*
X66001Y-41574D01*
X66720Y-40693D02*
X67114Y-40693D01*
X66720Y-40881D02*
X67114Y-40881D01*
X66720Y-41106D01*
X67114Y-41106D01*
X67114Y-41237D02*
X67114Y-41462D01*
X66720Y-41349D02*
X67114Y-41349D01*
X67076Y-41574D02*
X67095Y-41593D01*
X67114Y-41631D01*
X67114Y-41724D01*
X67095Y-41762D01*
X67076Y-41781D01*
X67039Y-41799D01*
X67001Y-41799D01*
X66945Y-41781D01*
X66720Y-41556D01*
X66720Y-41799D01*
X67757Y-40918D02*
X67739Y-40899D01*
X67720Y-40843D01*
X67720Y-40806D01*
X67739Y-40749D01*
X67776Y-40712D01*
X67814Y-40693D01*
X67889Y-40674D01*
X67945Y-40674D01*
X68020Y-40693D01*
X68057Y-40712D01*
X68095Y-40749D01*
X68114Y-40806D01*
X68114Y-40843D01*
X68095Y-40899D01*
X68076Y-40918D01*
X67739Y-41068D02*
X67720Y-41124D01*
X67720Y-41218D01*
X67739Y-41256D01*
X67757Y-41274D01*
X67795Y-41293D01*
X67832Y-41293D01*
X67870Y-41274D01*
X67889Y-41256D01*
X67907Y-41218D01*
X67926Y-41143D01*
X67945Y-41106D01*
X67964Y-41087D01*
X68001Y-41068D01*
X68039Y-41068D01*
X68076Y-41087D01*
X68095Y-41106D01*
X68114Y-41143D01*
X68114Y-41237D01*
X68095Y-41293D01*
X68739Y-40674D02*
X68720Y-40731D01*
X68720Y-40824D01*
X68739Y-40862D01*
X68757Y-40881D01*
X68795Y-40899D01*
X68832Y-40899D01*
X68870Y-40881D01*
X68889Y-40862D01*
X68907Y-40824D01*
X68926Y-40749D01*
X68945Y-40712D01*
X68964Y-40693D01*
X69001Y-40674D01*
X69039Y-40674D01*
X69076Y-40693D01*
X69095Y-40712D01*
X69114Y-40749D01*
X69114Y-40843D01*
X69095Y-40899D01*
X68720Y-41068D02*
X69114Y-41068D01*
X69114Y-41162D01*
X69095Y-41218D01*
X69057Y-41256D01*
X69020Y-41274D01*
X68945Y-41293D01*
X68889Y-41293D01*
X68814Y-41274D01*
X68776Y-41256D01*
X68739Y-41218D01*
X68720Y-41162D01*
X68720Y-41068D01*
X69114Y-41537D02*
X69114Y-41612D01*
X69095Y-41649D01*
X69057Y-41687D01*
X68982Y-41706D01*
X68851Y-41706D01*
X68776Y-41687D01*
X68739Y-41649D01*
X68720Y-41612D01*
X68720Y-41537D01*
X68739Y-41499D01*
X68776Y-41462D01*
X68851Y-41443D01*
X68982Y-41443D01*
X69057Y-41462D01*
X69095Y-41499D01*
X69114Y-41537D01*
X69739Y-40674D02*
X69720Y-40731D01*
X69720Y-40824D01*
X69739Y-40862D01*
X69757Y-40881D01*
X69795Y-40899D01*
X69832Y-40899D01*
X69870Y-40881D01*
X69889Y-40862D01*
X69907Y-40824D01*
X69926Y-40749D01*
X69945Y-40712D01*
X69964Y-40693D01*
X70001Y-40674D01*
X70039Y-40674D01*
X70076Y-40693D01*
X70095Y-40712D01*
X70114Y-40749D01*
X70114Y-40843D01*
X70095Y-40899D01*
X69720Y-41068D02*
X70114Y-41068D01*
X70114Y-41162D01*
X70095Y-41218D01*
X70057Y-41256D01*
X70020Y-41274D01*
X69945Y-41293D01*
X69889Y-41293D01*
X69814Y-41274D01*
X69776Y-41256D01*
X69739Y-41218D01*
X69720Y-41162D01*
X69720Y-41068D01*
X69832Y-41443D02*
X69832Y-41631D01*
X69720Y-41406D02*
X70114Y-41537D01*
X69720Y-41668D01*
X70739Y-40674D02*
X70720Y-40731D01*
X70720Y-40824D01*
X70739Y-40862D01*
X70757Y-40881D01*
X70795Y-40899D01*
X70832Y-40899D01*
X70870Y-40881D01*
X70889Y-40862D01*
X70907Y-40824D01*
X70926Y-40749D01*
X70945Y-40712D01*
X70964Y-40693D01*
X71001Y-40674D01*
X71039Y-40674D01*
X71076Y-40693D01*
X71095Y-40712D01*
X71114Y-40749D01*
X71114Y-40843D01*
X71095Y-40899D01*
X70757Y-41293D02*
X70739Y-41274D01*
X70720Y-41218D01*
X70720Y-41181D01*
X70739Y-41124D01*
X70776Y-41087D01*
X70814Y-41068D01*
X70889Y-41049D01*
X70945Y-41049D01*
X71020Y-41068D01*
X71057Y-41087D01*
X71095Y-41124D01*
X71114Y-41181D01*
X71114Y-41218D01*
X71095Y-41274D01*
X71076Y-41293D01*
X70720Y-41649D02*
X70720Y-41462D01*
X71114Y-41462D01*
G54D14*
X57850Y-44350D02*
G75*
G03X57850Y-44350I-50J0D01*
G74*
G01*
X57800Y-44800D02*
X57800Y-44400D01*
X57800Y-44400D02*
X58400Y-44400D01*
X58400Y-44400D02*
X58400Y-44800D01*
X58400Y-45200D02*
X58400Y-45600D01*
X58400Y-45600D02*
X57800Y-45600D01*
X57800Y-45600D02*
X57800Y-45200D01*
X57050Y-44350D02*
G75*
G03X57050Y-44350I-50J0D01*
G74*
G01*
X57000Y-44800D02*
X57000Y-44400D01*
X57000Y-44400D02*
X57600Y-44400D01*
X57600Y-44400D02*
X57600Y-44800D01*
X57600Y-45200D02*
X57600Y-45600D01*
X57600Y-45600D02*
X57000Y-45600D01*
X57000Y-45600D02*
X57000Y-45200D01*
X58750Y-44350D02*
G75*
G03X58750Y-44350I-50J0D01*
G74*
G01*
X58700Y-44800D02*
X58700Y-44400D01*
X58700Y-44400D02*
X59300Y-44400D01*
X59300Y-44400D02*
X59300Y-44800D01*
X59300Y-45200D02*
X59300Y-45600D01*
X59300Y-45600D02*
X58700Y-45600D01*
X58700Y-45600D02*
X58700Y-45200D01*
X59300Y-43900D02*
G75*
G03X59300Y-43900I-50J0D01*
G74*
G01*
X59700Y-43900D02*
X59300Y-43900D01*
X59300Y-43900D02*
X59300Y-43300D01*
X59300Y-43300D02*
X59700Y-43300D01*
X60100Y-43300D02*
X60500Y-43300D01*
X60500Y-43300D02*
X60500Y-43900D01*
X60500Y-43900D02*
X60100Y-43900D01*
X66777Y-44822D02*
G75*
G03X66777Y-44822I-50J0D01*
G74*
G01*
X66727Y-45272D02*
X66727Y-44872D01*
X66727Y-44872D02*
X67327Y-44872D01*
X67327Y-44872D02*
X67327Y-45272D01*
X67327Y-45672D02*
X67327Y-46072D01*
X67327Y-46072D02*
X66727Y-46072D01*
X66727Y-46072D02*
X66727Y-45672D01*
X67411Y-44296D02*
G75*
G03X67411Y-44296I-50J0D01*
G74*
G01*
X67811Y-44296D02*
X67411Y-44296D01*
X67411Y-44296D02*
X67411Y-43696D01*
X67411Y-43696D02*
X67811Y-43696D01*
X68211Y-43696D02*
X68611Y-43696D01*
X68611Y-43696D02*
X68611Y-44296D01*
X68611Y-44296D02*
X68211Y-44296D01*
X65891Y-44822D02*
G75*
G03X65891Y-44822I-50J0D01*
G74*
G01*
X65841Y-45272D02*
X65841Y-44872D01*
X65841Y-44872D02*
X66441Y-44872D01*
X66441Y-44872D02*
X66441Y-45272D01*
X66441Y-45672D02*
X66441Y-46072D01*
X66441Y-46072D02*
X65841Y-46072D01*
X65841Y-46072D02*
X65841Y-45672D01*
X65005Y-44822D02*
G75*
G03X65005Y-44822I-50J0D01*
G74*
G01*
X64955Y-45272D02*
X64955Y-44872D01*
X64955Y-44872D02*
X65555Y-44872D01*
X65555Y-44872D02*
X65555Y-45272D01*
X65555Y-45672D02*
X65555Y-46072D01*
X65555Y-46072D02*
X64955Y-46072D01*
X64955Y-46072D02*
X64955Y-45672D01*
G54D10*
X54800Y-39500D02*
X62800Y-39500D01*
X62800Y-39500D02*
X62800Y-40500D01*
X62800Y-40500D02*
X54800Y-40500D01*
X54800Y-40500D02*
X54800Y-39500D01*
X71398Y-40500D02*
X63398Y-40500D01*
X63398Y-40500D02*
X63398Y-39500D01*
X63398Y-39500D02*
X71398Y-39500D01*
X71398Y-39500D02*
X71398Y-40500D01*
G54D14*
X60684Y-43071D02*
G75*
G03X60684Y-43071I-50J0D01*
G74*
G01*
X60634Y-42621D02*
X60634Y-43021D01*
X60634Y-43021D02*
X60034Y-43021D01*
X60034Y-43021D02*
X60034Y-42621D01*
X60034Y-42221D02*
X60034Y-41821D01*
X60034Y-41821D02*
X60634Y-41821D01*
X60634Y-41821D02*
X60634Y-42221D01*
X59798Y-43071D02*
G75*
G03X59798Y-43071I-50J0D01*
G74*
G01*
X59748Y-42621D02*
X59748Y-43021D01*
X59748Y-43021D02*
X59148Y-43021D01*
X59148Y-43021D02*
X59148Y-42621D01*
X59148Y-42221D02*
X59148Y-41821D01*
X59148Y-41821D02*
X59748Y-41821D01*
X59748Y-41821D02*
X59748Y-42221D01*
X71216Y-43169D02*
G75*
G03X71216Y-43169I-50J0D01*
G74*
G01*
X71166Y-42719D02*
X71166Y-43119D01*
X71166Y-43119D02*
X70566Y-43119D01*
X70566Y-43119D02*
X70566Y-42719D01*
X70566Y-42319D02*
X70566Y-41919D01*
X70566Y-41919D02*
X71166Y-41919D01*
X71166Y-41919D02*
X71166Y-42319D01*
X70231Y-43169D02*
G75*
G03X70231Y-43169I-50J0D01*
G74*
G01*
X70181Y-42719D02*
X70181Y-43119D01*
X70181Y-43119D02*
X69581Y-43119D01*
X69581Y-43119D02*
X69581Y-42719D01*
X69581Y-42319D02*
X69581Y-41919D01*
X69581Y-41919D02*
X70181Y-41919D01*
X70181Y-41919D02*
X70181Y-42319D01*
G54D10*
X55800Y-47600D02*
X55800Y-55600D01*
X55800Y-55600D02*
X54800Y-55600D01*
X54800Y-55600D02*
X54800Y-47600D01*
X54800Y-47600D02*
X55800Y-47600D01*
X59800Y-47600D02*
X59800Y-55600D01*
X59800Y-55600D02*
X58800Y-55600D01*
X58800Y-55600D02*
X58800Y-47600D01*
X58800Y-47600D02*
X59800Y-47600D01*
X57300Y-50772D02*
X58135Y-51607D01*
X58135Y-51607D02*
X57300Y-52443D01*
X57300Y-52443D02*
X56464Y-51607D01*
X56464Y-51607D02*
X57300Y-50772D01*
X58690Y-43790D02*
X57509Y-43790D01*
X57509Y-43790D02*
X57509Y-42609D01*
X57509Y-42609D02*
X58690Y-42609D01*
X58690Y-42609D02*
X58690Y-43790D01*
X66830Y-44291D02*
X66909Y-44370D01*
X66909Y-44370D02*
X66870Y-44409D01*
X66870Y-44409D02*
X66948Y-44330D01*
X66948Y-44330D02*
X66909Y-44330D01*
X66830Y-44291D02*
X67027Y-44291D01*
X67027Y-44291D02*
X66830Y-44488D01*
X66830Y-44291D02*
X66830Y-44488D01*
X66830Y-44291D02*
X65255Y-44291D01*
X65255Y-44291D02*
X65255Y-42716D01*
X65255Y-42716D02*
X66830Y-42716D01*
X66830Y-42716D02*
X66830Y-44291D01*
X67696Y-47657D02*
X67696Y-55657D01*
X67696Y-55657D02*
X66696Y-55657D01*
X66696Y-55657D02*
X66696Y-47657D01*
X66696Y-47657D02*
X67696Y-47657D01*
X71696Y-47657D02*
X71696Y-55657D01*
X71696Y-55657D02*
X70696Y-55657D01*
X70696Y-55657D02*
X70696Y-47657D01*
X70696Y-47657D02*
X71696Y-47657D01*
X69196Y-50543D02*
X69196Y-50432D01*
X69196Y-50432D02*
X69252Y-50432D01*
X69252Y-50432D02*
X69141Y-50432D01*
X69141Y-50432D02*
X69169Y-50460D01*
X69196Y-50543D02*
X69057Y-50404D01*
X69057Y-50404D02*
X69336Y-50404D01*
X69196Y-50543D02*
X69336Y-50404D01*
X69196Y-50543D02*
X70310Y-51657D01*
X70310Y-51657D02*
X69196Y-52771D01*
X69196Y-52771D02*
X68083Y-51657D01*
X68083Y-51657D02*
X69196Y-50543D01*
G54D15*
X58295Y-45032D02*
X58304Y-45042D01*
X58314Y-45070D01*
X58314Y-45089D01*
X58304Y-45117D01*
X58285Y-45136D01*
X58267Y-45145D01*
X58229Y-45154D01*
X58201Y-45154D01*
X58164Y-45145D01*
X58145Y-45136D01*
X58126Y-45117D01*
X58117Y-45089D01*
X58117Y-45070D01*
X58126Y-45042D01*
X58135Y-45032D01*
X58314Y-44845D02*
X58314Y-44957D01*
X58314Y-44901D02*
X58117Y-44901D01*
X58145Y-44920D01*
X58164Y-44939D01*
X58173Y-44957D01*
X57495Y-45032D02*
X57504Y-45042D01*
X57514Y-45070D01*
X57514Y-45089D01*
X57504Y-45117D01*
X57485Y-45136D01*
X57467Y-45145D01*
X57429Y-45154D01*
X57401Y-45154D01*
X57364Y-45145D01*
X57345Y-45136D01*
X57326Y-45117D01*
X57317Y-45089D01*
X57317Y-45070D01*
X57326Y-45042D01*
X57335Y-45032D01*
X57335Y-44957D02*
X57326Y-44948D01*
X57317Y-44929D01*
X57317Y-44882D01*
X57326Y-44863D01*
X57335Y-44854D01*
X57354Y-44845D01*
X57373Y-44845D01*
X57401Y-44854D01*
X57514Y-44967D01*
X57514Y-44845D01*
X59195Y-45032D02*
X59204Y-45042D01*
X59214Y-45070D01*
X59214Y-45089D01*
X59204Y-45117D01*
X59185Y-45136D01*
X59167Y-45145D01*
X59129Y-45154D01*
X59101Y-45154D01*
X59064Y-45145D01*
X59045Y-45136D01*
X59026Y-45117D01*
X59017Y-45089D01*
X59017Y-45070D01*
X59026Y-45042D01*
X59035Y-45032D01*
X59017Y-44967D02*
X59017Y-44845D01*
X59092Y-44910D01*
X59092Y-44882D01*
X59101Y-44863D01*
X59110Y-44854D01*
X59129Y-44845D01*
X59176Y-44845D01*
X59195Y-44854D01*
X59204Y-44863D01*
X59214Y-44882D01*
X59214Y-44939D01*
X59204Y-44957D01*
X59195Y-44967D01*
X59867Y-43545D02*
X59857Y-43554D01*
X59829Y-43564D01*
X59810Y-43564D01*
X59782Y-43554D01*
X59763Y-43535D01*
X59754Y-43517D01*
X59745Y-43479D01*
X59745Y-43451D01*
X59754Y-43414D01*
X59763Y-43395D01*
X59782Y-43376D01*
X59810Y-43367D01*
X59829Y-43367D01*
X59857Y-43376D01*
X59867Y-43385D01*
X60036Y-43432D02*
X60036Y-43564D01*
X59989Y-43357D02*
X59942Y-43498D01*
X60064Y-43498D01*
X67222Y-45505D02*
X67232Y-45514D01*
X67241Y-45542D01*
X67241Y-45561D01*
X67232Y-45589D01*
X67213Y-45608D01*
X67194Y-45617D01*
X67157Y-45627D01*
X67129Y-45627D01*
X67091Y-45617D01*
X67072Y-45608D01*
X67054Y-45589D01*
X67044Y-45561D01*
X67044Y-45542D01*
X67054Y-45514D01*
X67063Y-45505D01*
X67044Y-45327D02*
X67044Y-45420D01*
X67138Y-45430D01*
X67129Y-45420D01*
X67119Y-45402D01*
X67119Y-45355D01*
X67129Y-45336D01*
X67138Y-45327D01*
X67157Y-45317D01*
X67204Y-45317D01*
X67222Y-45327D01*
X67232Y-45336D01*
X67241Y-45355D01*
X67241Y-45402D01*
X67232Y-45420D01*
X67222Y-45430D01*
X67978Y-43941D02*
X67969Y-43950D01*
X67941Y-43960D01*
X67922Y-43960D01*
X67894Y-43950D01*
X67875Y-43932D01*
X67866Y-43913D01*
X67857Y-43875D01*
X67857Y-43847D01*
X67866Y-43810D01*
X67875Y-43791D01*
X67894Y-43772D01*
X67922Y-43763D01*
X67941Y-43763D01*
X67969Y-43772D01*
X67978Y-43781D01*
X68147Y-43763D02*
X68110Y-43763D01*
X68091Y-43772D01*
X68082Y-43781D01*
X68063Y-43810D01*
X68054Y-43847D01*
X68054Y-43922D01*
X68063Y-43941D01*
X68072Y-43950D01*
X68091Y-43960D01*
X68129Y-43960D01*
X68147Y-43950D01*
X68157Y-43941D01*
X68166Y-43922D01*
X68166Y-43875D01*
X68157Y-43856D01*
X68147Y-43847D01*
X68129Y-43838D01*
X68091Y-43838D01*
X68072Y-43847D01*
X68063Y-43856D01*
X68054Y-43875D01*
X66337Y-45505D02*
X66346Y-45514D01*
X66355Y-45542D01*
X66355Y-45561D01*
X66346Y-45589D01*
X66327Y-45608D01*
X66308Y-45617D01*
X66271Y-45627D01*
X66243Y-45627D01*
X66205Y-45617D01*
X66186Y-45608D01*
X66168Y-45589D01*
X66158Y-45561D01*
X66158Y-45542D01*
X66168Y-45514D01*
X66177Y-45505D01*
X66158Y-45439D02*
X66158Y-45308D01*
X66355Y-45392D01*
X65451Y-45505D02*
X65460Y-45514D01*
X65470Y-45542D01*
X65470Y-45561D01*
X65460Y-45589D01*
X65441Y-45608D01*
X65423Y-45617D01*
X65385Y-45627D01*
X65357Y-45627D01*
X65319Y-45617D01*
X65301Y-45608D01*
X65282Y-45589D01*
X65273Y-45561D01*
X65273Y-45542D01*
X65282Y-45514D01*
X65291Y-45505D01*
X65470Y-45411D02*
X65470Y-45373D01*
X65460Y-45355D01*
X65451Y-45345D01*
X65423Y-45327D01*
X65385Y-45317D01*
X65310Y-45317D01*
X65291Y-45327D01*
X65282Y-45336D01*
X65273Y-45355D01*
X65273Y-45392D01*
X65282Y-45411D01*
X65291Y-45420D01*
X65310Y-45430D01*
X65357Y-45430D01*
X65376Y-45420D01*
X65385Y-45411D01*
X65394Y-45392D01*
X65394Y-45355D01*
X65385Y-45336D01*
X65376Y-45327D01*
X65357Y-45317D01*
X60298Y-42454D02*
X60204Y-42519D01*
X60298Y-42566D02*
X60101Y-42566D01*
X60101Y-42491D01*
X60111Y-42472D01*
X60120Y-42463D01*
X60139Y-42454D01*
X60167Y-42454D01*
X60186Y-42463D01*
X60195Y-42472D01*
X60204Y-42491D01*
X60204Y-42566D01*
X60298Y-42266D02*
X60298Y-42379D01*
X60298Y-42322D02*
X60101Y-42322D01*
X60129Y-42341D01*
X60148Y-42360D01*
X60158Y-42379D01*
X59412Y-42454D02*
X59319Y-42519D01*
X59412Y-42566D02*
X59215Y-42566D01*
X59215Y-42491D01*
X59225Y-42472D01*
X59234Y-42463D01*
X59253Y-42454D01*
X59281Y-42454D01*
X59300Y-42463D01*
X59309Y-42472D01*
X59319Y-42491D01*
X59319Y-42566D01*
X59234Y-42379D02*
X59225Y-42369D01*
X59215Y-42350D01*
X59215Y-42303D01*
X59225Y-42285D01*
X59234Y-42275D01*
X59253Y-42266D01*
X59272Y-42266D01*
X59300Y-42275D01*
X59412Y-42388D01*
X59412Y-42266D01*
X70830Y-42552D02*
X70736Y-42618D01*
X70830Y-42665D02*
X70633Y-42665D01*
X70633Y-42590D01*
X70642Y-42571D01*
X70652Y-42561D01*
X70670Y-42552D01*
X70698Y-42552D01*
X70717Y-42561D01*
X70727Y-42571D01*
X70736Y-42590D01*
X70736Y-42665D01*
X70633Y-42486D02*
X70633Y-42364D01*
X70708Y-42430D01*
X70708Y-42402D01*
X70717Y-42383D01*
X70727Y-42374D01*
X70745Y-42364D01*
X70792Y-42364D01*
X70811Y-42374D01*
X70820Y-42383D01*
X70830Y-42402D01*
X70830Y-42458D01*
X70820Y-42477D01*
X70811Y-42486D01*
X69846Y-42552D02*
X69752Y-42618D01*
X69846Y-42665D02*
X69649Y-42665D01*
X69649Y-42590D01*
X69658Y-42571D01*
X69667Y-42561D01*
X69686Y-42552D01*
X69714Y-42552D01*
X69733Y-42561D01*
X69742Y-42571D01*
X69752Y-42590D01*
X69752Y-42665D01*
X69714Y-42383D02*
X69846Y-42383D01*
X69639Y-42430D02*
X69780Y-42477D01*
X69780Y-42355D01*
G54D10*
X56391Y-52091D02*
X56166Y-52317D01*
X56153Y-52356D01*
X56153Y-52383D01*
X56166Y-52423D01*
X56219Y-52476D01*
X56259Y-52489D01*
X56285Y-52489D01*
X56325Y-52476D01*
X56550Y-52250D01*
X56656Y-52356D02*
X56829Y-52529D01*
X56630Y-52542D01*
X56670Y-52582D01*
X56683Y-52622D01*
X56683Y-52648D01*
X56670Y-52688D01*
X56603Y-52754D01*
X56564Y-52767D01*
X56537Y-52767D01*
X56497Y-52754D01*
X56418Y-52675D01*
X56405Y-52635D01*
X56405Y-52608D01*
X57800Y-41784D02*
X57800Y-42103D01*
X57818Y-42140D01*
X57837Y-42159D01*
X57875Y-42178D01*
X57950Y-42178D01*
X57987Y-42159D01*
X58006Y-42140D01*
X58025Y-42103D01*
X58025Y-41784D01*
X58418Y-42178D02*
X58193Y-42178D01*
X58306Y-42178D02*
X58306Y-41784D01*
X58268Y-41840D01*
X58231Y-41878D01*
X58193Y-41896D01*
X65743Y-41988D02*
X65743Y-42307D01*
X65762Y-42344D01*
X65780Y-42363D01*
X65818Y-42382D01*
X65893Y-42382D01*
X65930Y-42363D01*
X65949Y-42344D01*
X65968Y-42307D01*
X65968Y-41988D01*
X66137Y-42025D02*
X66155Y-42007D01*
X66193Y-41988D01*
X66287Y-41988D01*
X66324Y-42007D01*
X66343Y-42025D01*
X66362Y-42063D01*
X66362Y-42100D01*
X66343Y-42157D01*
X66118Y-42382D01*
X66362Y-42382D01*
X68217Y-52212D02*
X67992Y-52437D01*
X67979Y-52477D01*
X67979Y-52503D01*
X67992Y-52543D01*
X68045Y-52596D01*
X68085Y-52609D01*
X68111Y-52609D01*
X68151Y-52596D01*
X68377Y-52371D01*
X68536Y-52715D02*
X68350Y-52901D01*
X68575Y-52543D02*
X68310Y-52676D01*
X68483Y-52848D01*
M02*
