G04 (created by PCBNEW (2013-mar-13)-testing) date Sun 09 Jun 2013 10:01:08 PM EDT*
%MOIN*%
G04 Gerber Fmt 3.4, Leading zero omitted, Abs format*
%FSLAX34Y34*%
G01*
G70*
G90*
G04 APERTURE LIST*
%ADD10C,0.005906*%
%ADD11C,0.011811*%
%ADD12C,0.003937*%
%ADD13C,0.004921*%
G04 APERTURE END LIST*
G54D10*
G54D11*
X69007Y-48087D02*
X69007Y-47806D01*
X68416Y-47806D01*
X68444Y-48593D02*
X68416Y-48537D01*
X68416Y-48453D01*
X68444Y-48368D01*
X68501Y-48312D01*
X68557Y-48284D01*
X68669Y-48256D01*
X68754Y-48256D01*
X68866Y-48284D01*
X68922Y-48312D01*
X68979Y-48368D01*
X69007Y-48453D01*
X69007Y-48509D01*
X68979Y-48593D01*
X68951Y-48622D01*
X68754Y-48622D01*
X68754Y-48509D01*
X68838Y-48847D02*
X68838Y-49128D01*
X69007Y-48790D02*
X68416Y-48987D01*
X69007Y-49184D01*
X69007Y-49690D02*
X69007Y-49353D01*
X69007Y-49521D02*
X68416Y-49521D01*
X68501Y-49465D01*
X68557Y-49409D01*
X68585Y-49353D01*
X68416Y-50196D02*
X68416Y-50084D01*
X68444Y-50028D01*
X68473Y-50000D01*
X68557Y-49943D01*
X68669Y-49915D01*
X68894Y-49915D01*
X68951Y-49943D01*
X68979Y-49971D01*
X69007Y-50028D01*
X69007Y-50140D01*
X68979Y-50196D01*
X68951Y-50224D01*
X68894Y-50253D01*
X68754Y-50253D01*
X68697Y-50224D01*
X68669Y-50196D01*
X68641Y-50140D01*
X68641Y-50028D01*
X68669Y-49971D01*
X68697Y-49943D01*
X68754Y-49915D01*
X68782Y-50506D02*
X68782Y-50956D01*
X68416Y-51349D02*
X68416Y-51406D01*
X68444Y-51462D01*
X68473Y-51490D01*
X68529Y-51518D01*
X68641Y-51546D01*
X68782Y-51546D01*
X68894Y-51518D01*
X68951Y-51490D01*
X68979Y-51462D01*
X69007Y-51406D01*
X69007Y-51349D01*
X68979Y-51293D01*
X68951Y-51265D01*
X68894Y-51237D01*
X68782Y-51209D01*
X68641Y-51209D01*
X68529Y-51237D01*
X68473Y-51265D01*
X68444Y-51293D01*
X68416Y-51349D01*
X68951Y-51799D02*
X68979Y-51827D01*
X69007Y-51799D01*
X68979Y-51771D01*
X68951Y-51799D01*
X69007Y-51799D01*
X68416Y-52334D02*
X68416Y-52221D01*
X68444Y-52165D01*
X68473Y-52137D01*
X68557Y-52080D01*
X68669Y-52052D01*
X68894Y-52052D01*
X68951Y-52080D01*
X68979Y-52109D01*
X69007Y-52165D01*
X69007Y-52277D01*
X68979Y-52334D01*
X68951Y-52362D01*
X68894Y-52390D01*
X68754Y-52390D01*
X68697Y-52362D01*
X68669Y-52334D01*
X68641Y-52277D01*
X68641Y-52165D01*
X68669Y-52109D01*
X68697Y-52080D01*
X68754Y-52052D01*
X68416Y-52924D02*
X68416Y-52643D01*
X68697Y-52615D01*
X68669Y-52643D01*
X68641Y-52699D01*
X68641Y-52840D01*
X68669Y-52896D01*
X68697Y-52924D01*
X68754Y-52952D01*
X68894Y-52952D01*
X68951Y-52924D01*
X68979Y-52896D01*
X69007Y-52840D01*
X69007Y-52699D01*
X68979Y-52643D01*
X68951Y-52615D01*
X68782Y-53205D02*
X68782Y-53655D01*
X68613Y-54190D02*
X69007Y-54190D01*
X68388Y-54049D02*
X68810Y-53908D01*
X68810Y-54274D01*
X68416Y-54443D02*
X69007Y-54836D01*
X68416Y-54836D02*
X69007Y-54443D01*
X68613Y-55314D02*
X69007Y-55314D01*
X68388Y-55174D02*
X68810Y-55033D01*
X68810Y-55399D01*
X69642Y-48200D02*
X69670Y-48284D01*
X69699Y-48312D01*
X69755Y-48340D01*
X69839Y-48340D01*
X69895Y-48312D01*
X69924Y-48284D01*
X69952Y-48228D01*
X69952Y-48003D01*
X69361Y-48003D01*
X69361Y-48200D01*
X69389Y-48256D01*
X69417Y-48284D01*
X69474Y-48312D01*
X69530Y-48312D01*
X69586Y-48284D01*
X69614Y-48256D01*
X69642Y-48200D01*
X69642Y-48003D01*
X69952Y-48593D02*
X69558Y-48593D01*
X69670Y-48593D02*
X69614Y-48622D01*
X69586Y-48650D01*
X69558Y-48706D01*
X69558Y-48762D01*
X69924Y-49184D02*
X69952Y-49128D01*
X69952Y-49015D01*
X69924Y-48959D01*
X69867Y-48931D01*
X69642Y-48931D01*
X69586Y-48959D01*
X69558Y-49015D01*
X69558Y-49128D01*
X69586Y-49184D01*
X69642Y-49212D01*
X69699Y-49212D01*
X69755Y-48931D01*
X69952Y-49718D02*
X69642Y-49718D01*
X69586Y-49690D01*
X69558Y-49634D01*
X69558Y-49521D01*
X69586Y-49465D01*
X69924Y-49718D02*
X69952Y-49662D01*
X69952Y-49521D01*
X69924Y-49465D01*
X69867Y-49437D01*
X69811Y-49437D01*
X69755Y-49465D01*
X69727Y-49521D01*
X69727Y-49662D01*
X69699Y-49718D01*
X69952Y-50000D02*
X69361Y-50000D01*
X69727Y-50056D02*
X69952Y-50224D01*
X69558Y-50224D02*
X69783Y-50000D01*
X69361Y-51040D02*
X69361Y-51152D01*
X69389Y-51209D01*
X69446Y-51265D01*
X69558Y-51293D01*
X69755Y-51293D01*
X69867Y-51265D01*
X69924Y-51209D01*
X69952Y-51152D01*
X69952Y-51040D01*
X69924Y-50984D01*
X69867Y-50928D01*
X69755Y-50899D01*
X69558Y-50899D01*
X69446Y-50928D01*
X69389Y-50984D01*
X69361Y-51040D01*
X69558Y-51799D02*
X69952Y-51799D01*
X69558Y-51546D02*
X69867Y-51546D01*
X69924Y-51574D01*
X69952Y-51631D01*
X69952Y-51715D01*
X69924Y-51771D01*
X69895Y-51799D01*
X69558Y-51996D02*
X69558Y-52221D01*
X69361Y-52080D02*
X69867Y-52080D01*
X69924Y-52109D01*
X69952Y-52165D01*
X69952Y-52221D01*
X69642Y-53065D02*
X69670Y-53149D01*
X69699Y-53177D01*
X69755Y-53205D01*
X69839Y-53205D01*
X69895Y-53177D01*
X69924Y-53149D01*
X69952Y-53093D01*
X69952Y-52868D01*
X69361Y-52868D01*
X69361Y-53065D01*
X69389Y-53121D01*
X69417Y-53149D01*
X69474Y-53177D01*
X69530Y-53177D01*
X69586Y-53149D01*
X69614Y-53121D01*
X69642Y-53065D01*
X69642Y-52868D01*
X69952Y-53543D02*
X69924Y-53487D01*
X69895Y-53458D01*
X69839Y-53430D01*
X69670Y-53430D01*
X69614Y-53458D01*
X69586Y-53487D01*
X69558Y-53543D01*
X69558Y-53627D01*
X69586Y-53683D01*
X69614Y-53712D01*
X69670Y-53740D01*
X69839Y-53740D01*
X69895Y-53712D01*
X69924Y-53683D01*
X69952Y-53627D01*
X69952Y-53543D01*
X69952Y-54246D02*
X69642Y-54246D01*
X69586Y-54218D01*
X69558Y-54161D01*
X69558Y-54049D01*
X69586Y-53993D01*
X69924Y-54246D02*
X69952Y-54190D01*
X69952Y-54049D01*
X69924Y-53993D01*
X69867Y-53965D01*
X69811Y-53965D01*
X69755Y-53993D01*
X69727Y-54049D01*
X69727Y-54190D01*
X69699Y-54246D01*
X69952Y-54527D02*
X69558Y-54527D01*
X69670Y-54527D02*
X69614Y-54555D01*
X69586Y-54583D01*
X69558Y-54640D01*
X69558Y-54696D01*
X69952Y-55146D02*
X69361Y-55146D01*
X69924Y-55146D02*
X69952Y-55089D01*
X69952Y-54977D01*
X69924Y-54921D01*
X69895Y-54893D01*
X69839Y-54865D01*
X69670Y-54865D01*
X69614Y-54893D01*
X69586Y-54921D01*
X69558Y-54977D01*
X69558Y-55089D01*
X69586Y-55146D01*
X57173Y-48318D02*
X57145Y-48262D01*
X57089Y-48205D01*
X57005Y-48121D01*
X56976Y-48065D01*
X56976Y-48008D01*
X57117Y-48037D02*
X57089Y-47980D01*
X57033Y-47924D01*
X56920Y-47896D01*
X56723Y-47896D01*
X56611Y-47924D01*
X56555Y-47980D01*
X56526Y-48037D01*
X56526Y-48149D01*
X56555Y-48205D01*
X56611Y-48262D01*
X56723Y-48290D01*
X56920Y-48290D01*
X57033Y-48262D01*
X57089Y-48205D01*
X57117Y-48149D01*
X57117Y-48037D01*
X56808Y-48740D02*
X56808Y-48543D01*
X57117Y-48543D02*
X56526Y-48543D01*
X56526Y-48824D01*
X57117Y-49049D02*
X56526Y-49049D01*
X57117Y-49386D01*
X56526Y-49386D01*
X57117Y-49977D02*
X57117Y-49640D01*
X57117Y-49808D02*
X56526Y-49808D01*
X56611Y-49752D01*
X56667Y-49696D01*
X56695Y-49640D01*
X56526Y-50483D02*
X56526Y-50371D01*
X56555Y-50314D01*
X56583Y-50286D01*
X56667Y-50230D01*
X56780Y-50202D01*
X57005Y-50202D01*
X57061Y-50230D01*
X57089Y-50258D01*
X57117Y-50314D01*
X57117Y-50427D01*
X57089Y-50483D01*
X57061Y-50511D01*
X57005Y-50539D01*
X56864Y-50539D01*
X56808Y-50511D01*
X56780Y-50483D01*
X56751Y-50427D01*
X56751Y-50314D01*
X56780Y-50258D01*
X56808Y-50230D01*
X56864Y-50202D01*
X56892Y-50793D02*
X56892Y-51242D01*
X56526Y-51636D02*
X56526Y-51692D01*
X56555Y-51749D01*
X56583Y-51777D01*
X56639Y-51805D01*
X56751Y-51833D01*
X56892Y-51833D01*
X57005Y-51805D01*
X57061Y-51777D01*
X57089Y-51749D01*
X57117Y-51692D01*
X57117Y-51636D01*
X57089Y-51580D01*
X57061Y-51552D01*
X57005Y-51524D01*
X56892Y-51496D01*
X56751Y-51496D01*
X56639Y-51524D01*
X56583Y-51552D01*
X56555Y-51580D01*
X56526Y-51636D01*
X57061Y-52086D02*
X57089Y-52114D01*
X57117Y-52086D01*
X57089Y-52058D01*
X57061Y-52086D01*
X57117Y-52086D01*
X56526Y-52649D02*
X56526Y-52367D01*
X56808Y-52339D01*
X56780Y-52367D01*
X56751Y-52424D01*
X56751Y-52564D01*
X56780Y-52620D01*
X56808Y-52649D01*
X56864Y-52677D01*
X57005Y-52677D01*
X57061Y-52649D01*
X57089Y-52620D01*
X57117Y-52564D01*
X57117Y-52424D01*
X57089Y-52367D01*
X57061Y-52339D01*
X56892Y-52930D02*
X56892Y-53380D01*
X56526Y-53605D02*
X56526Y-53970D01*
X56751Y-53773D01*
X56751Y-53858D01*
X56780Y-53914D01*
X56808Y-53942D01*
X56864Y-53970D01*
X57005Y-53970D01*
X57061Y-53942D01*
X57089Y-53914D01*
X57117Y-53858D01*
X57117Y-53689D01*
X57089Y-53633D01*
X57061Y-53605D01*
X56526Y-54167D02*
X57117Y-54561D01*
X56526Y-54561D02*
X57117Y-54167D01*
X56526Y-54730D02*
X56526Y-55095D01*
X56751Y-54898D01*
X56751Y-54983D01*
X56780Y-55039D01*
X56808Y-55067D01*
X56864Y-55095D01*
X57005Y-55095D01*
X57061Y-55067D01*
X57089Y-55039D01*
X57117Y-54983D01*
X57117Y-54814D01*
X57089Y-54758D01*
X57061Y-54730D01*
X57753Y-48121D02*
X57781Y-48205D01*
X57809Y-48233D01*
X57865Y-48262D01*
X57949Y-48262D01*
X58006Y-48233D01*
X58034Y-48205D01*
X58062Y-48149D01*
X58062Y-47924D01*
X57471Y-47924D01*
X57471Y-48121D01*
X57500Y-48177D01*
X57528Y-48205D01*
X57584Y-48233D01*
X57640Y-48233D01*
X57696Y-48205D01*
X57724Y-48177D01*
X57753Y-48121D01*
X57753Y-47924D01*
X58062Y-48515D02*
X57668Y-48515D01*
X57781Y-48515D02*
X57724Y-48543D01*
X57696Y-48571D01*
X57668Y-48627D01*
X57668Y-48683D01*
X58034Y-49105D02*
X58062Y-49049D01*
X58062Y-48937D01*
X58034Y-48880D01*
X57978Y-48852D01*
X57753Y-48852D01*
X57696Y-48880D01*
X57668Y-48937D01*
X57668Y-49049D01*
X57696Y-49105D01*
X57753Y-49133D01*
X57809Y-49133D01*
X57865Y-48852D01*
X58062Y-49640D02*
X57753Y-49640D01*
X57696Y-49611D01*
X57668Y-49555D01*
X57668Y-49443D01*
X57696Y-49386D01*
X58034Y-49640D02*
X58062Y-49583D01*
X58062Y-49443D01*
X58034Y-49386D01*
X57978Y-49358D01*
X57921Y-49358D01*
X57865Y-49386D01*
X57837Y-49443D01*
X57837Y-49583D01*
X57809Y-49640D01*
X58062Y-49921D02*
X57471Y-49921D01*
X57837Y-49977D02*
X58062Y-50146D01*
X57668Y-50146D02*
X57893Y-49921D01*
X57471Y-50961D02*
X57471Y-51074D01*
X57500Y-51130D01*
X57556Y-51186D01*
X57668Y-51214D01*
X57865Y-51214D01*
X57978Y-51186D01*
X58034Y-51130D01*
X58062Y-51074D01*
X58062Y-50961D01*
X58034Y-50905D01*
X57978Y-50849D01*
X57865Y-50821D01*
X57668Y-50821D01*
X57556Y-50849D01*
X57500Y-50905D01*
X57471Y-50961D01*
X57668Y-51721D02*
X58062Y-51721D01*
X57668Y-51467D02*
X57978Y-51467D01*
X58034Y-51496D01*
X58062Y-51552D01*
X58062Y-51636D01*
X58034Y-51692D01*
X58006Y-51721D01*
X57668Y-51917D02*
X57668Y-52142D01*
X57471Y-52002D02*
X57978Y-52002D01*
X58034Y-52030D01*
X58062Y-52086D01*
X58062Y-52142D01*
X57753Y-52986D02*
X57781Y-53070D01*
X57809Y-53098D01*
X57865Y-53127D01*
X57949Y-53127D01*
X58006Y-53098D01*
X58034Y-53070D01*
X58062Y-53014D01*
X58062Y-52789D01*
X57471Y-52789D01*
X57471Y-52986D01*
X57500Y-53042D01*
X57528Y-53070D01*
X57584Y-53098D01*
X57640Y-53098D01*
X57696Y-53070D01*
X57724Y-53042D01*
X57753Y-52986D01*
X57753Y-52789D01*
X58062Y-53464D02*
X58034Y-53408D01*
X58006Y-53380D01*
X57949Y-53352D01*
X57781Y-53352D01*
X57724Y-53380D01*
X57696Y-53408D01*
X57668Y-53464D01*
X57668Y-53548D01*
X57696Y-53605D01*
X57724Y-53633D01*
X57781Y-53661D01*
X57949Y-53661D01*
X58006Y-53633D01*
X58034Y-53605D01*
X58062Y-53548D01*
X58062Y-53464D01*
X58062Y-54167D02*
X57753Y-54167D01*
X57696Y-54139D01*
X57668Y-54083D01*
X57668Y-53970D01*
X57696Y-53914D01*
X58034Y-54167D02*
X58062Y-54111D01*
X58062Y-53970D01*
X58034Y-53914D01*
X57978Y-53886D01*
X57921Y-53886D01*
X57865Y-53914D01*
X57837Y-53970D01*
X57837Y-54111D01*
X57809Y-54167D01*
X58062Y-54448D02*
X57668Y-54448D01*
X57781Y-54448D02*
X57724Y-54476D01*
X57696Y-54505D01*
X57668Y-54561D01*
X57668Y-54617D01*
X58062Y-55067D02*
X57471Y-55067D01*
X58034Y-55067D02*
X58062Y-55011D01*
X58062Y-54898D01*
X58034Y-54842D01*
X58006Y-54814D01*
X57949Y-54786D01*
X57781Y-54786D01*
X57724Y-54814D01*
X57696Y-54842D01*
X57668Y-54898D01*
X57668Y-55011D01*
X57696Y-55067D01*
G54D12*
X54566Y-55826D02*
X71870Y-55826D01*
X54566Y-39251D02*
X54566Y-55826D01*
X71870Y-39251D02*
X71870Y-55826D01*
X54566Y-39251D02*
X71870Y-39251D01*
G54D13*
X70132Y-43524D02*
X70132Y-43249D01*
X70014Y-43524D02*
X70014Y-43380D01*
X70027Y-43354D01*
X70054Y-43340D01*
X70093Y-43340D01*
X70119Y-43354D01*
X70132Y-43367D01*
X69922Y-43340D02*
X69817Y-43340D01*
X69883Y-43249D02*
X69883Y-43485D01*
X69870Y-43511D01*
X69844Y-43524D01*
X69817Y-43524D01*
X69765Y-43340D02*
X69660Y-43340D01*
X69725Y-43249D02*
X69725Y-43485D01*
X69712Y-43511D01*
X69686Y-43524D01*
X69660Y-43524D01*
X69568Y-43340D02*
X69568Y-43616D01*
X69568Y-43354D02*
X69542Y-43340D01*
X69489Y-43340D01*
X69463Y-43354D01*
X69450Y-43367D01*
X69437Y-43393D01*
X69437Y-43472D01*
X69450Y-43498D01*
X69463Y-43511D01*
X69489Y-43524D01*
X69542Y-43524D01*
X69568Y-43511D01*
X69332Y-43511D02*
X69306Y-43524D01*
X69253Y-43524D01*
X69227Y-43511D01*
X69214Y-43485D01*
X69214Y-43472D01*
X69227Y-43445D01*
X69253Y-43432D01*
X69292Y-43432D01*
X69319Y-43419D01*
X69332Y-43393D01*
X69332Y-43380D01*
X69319Y-43354D01*
X69292Y-43340D01*
X69253Y-43340D01*
X69227Y-43354D01*
X69096Y-43498D02*
X69082Y-43511D01*
X69096Y-43524D01*
X69109Y-43511D01*
X69096Y-43498D01*
X69096Y-43524D01*
X69096Y-43354D02*
X69082Y-43367D01*
X69096Y-43380D01*
X69109Y-43367D01*
X69096Y-43354D01*
X69096Y-43380D01*
X68767Y-43235D02*
X69004Y-43590D01*
X68479Y-43235D02*
X68715Y-43590D01*
X68269Y-43340D02*
X68269Y-43564D01*
X68282Y-43590D01*
X68295Y-43603D01*
X68321Y-43616D01*
X68361Y-43616D01*
X68387Y-43603D01*
X68269Y-43511D02*
X68295Y-43524D01*
X68348Y-43524D01*
X68374Y-43511D01*
X68387Y-43498D01*
X68400Y-43472D01*
X68400Y-43393D01*
X68387Y-43367D01*
X68374Y-43354D01*
X68348Y-43340D01*
X68295Y-43340D01*
X68269Y-43354D01*
X68138Y-43524D02*
X68138Y-43340D01*
X68138Y-43249D02*
X68151Y-43262D01*
X68138Y-43275D01*
X68124Y-43262D01*
X68138Y-43249D01*
X68138Y-43275D01*
X68046Y-43340D02*
X67941Y-43340D01*
X68006Y-43249D02*
X68006Y-43485D01*
X67993Y-43511D01*
X67967Y-43524D01*
X67941Y-43524D01*
X67849Y-43524D02*
X67849Y-43249D01*
X67731Y-43524D02*
X67731Y-43380D01*
X67744Y-43354D01*
X67770Y-43340D01*
X67809Y-43340D01*
X67836Y-43354D01*
X67849Y-43367D01*
X67481Y-43340D02*
X67481Y-43524D01*
X67600Y-43340D02*
X67600Y-43485D01*
X67586Y-43511D01*
X67560Y-43524D01*
X67521Y-43524D01*
X67495Y-43511D01*
X67481Y-43498D01*
X67350Y-43524D02*
X67350Y-43249D01*
X67350Y-43354D02*
X67324Y-43340D01*
X67271Y-43340D01*
X67245Y-43354D01*
X67232Y-43367D01*
X67219Y-43393D01*
X67219Y-43472D01*
X67232Y-43498D01*
X67245Y-43511D01*
X67271Y-43524D01*
X67324Y-43524D01*
X67350Y-43511D01*
X67101Y-43498D02*
X67088Y-43511D01*
X67101Y-43524D01*
X67114Y-43511D01*
X67101Y-43498D01*
X67101Y-43524D01*
X66851Y-43511D02*
X66878Y-43524D01*
X66930Y-43524D01*
X66956Y-43511D01*
X66970Y-43498D01*
X66983Y-43472D01*
X66983Y-43393D01*
X66970Y-43367D01*
X66956Y-43354D01*
X66930Y-43340D01*
X66878Y-43340D01*
X66851Y-43354D01*
X66694Y-43524D02*
X66720Y-43511D01*
X66733Y-43498D01*
X66746Y-43472D01*
X66746Y-43393D01*
X66733Y-43367D01*
X66720Y-43354D01*
X66694Y-43340D01*
X66655Y-43340D01*
X66628Y-43354D01*
X66615Y-43367D01*
X66602Y-43393D01*
X66602Y-43472D01*
X66615Y-43498D01*
X66628Y-43511D01*
X66655Y-43524D01*
X66694Y-43524D01*
X66484Y-43524D02*
X66484Y-43340D01*
X66484Y-43367D02*
X66471Y-43354D01*
X66445Y-43340D01*
X66405Y-43340D01*
X66379Y-43354D01*
X66366Y-43380D01*
X66366Y-43524D01*
X66366Y-43380D02*
X66353Y-43354D01*
X66327Y-43340D01*
X66287Y-43340D01*
X66261Y-43354D01*
X66248Y-43380D01*
X66248Y-43524D01*
X65920Y-43235D02*
X66156Y-43590D01*
X69712Y-43775D02*
X69712Y-44012D01*
X69725Y-44038D01*
X69752Y-44051D01*
X69765Y-44051D01*
X69712Y-43684D02*
X69725Y-43697D01*
X69712Y-43710D01*
X69699Y-43697D01*
X69712Y-43684D01*
X69712Y-43710D01*
X69542Y-43959D02*
X69568Y-43946D01*
X69581Y-43933D01*
X69594Y-43907D01*
X69594Y-43828D01*
X69581Y-43802D01*
X69568Y-43789D01*
X69542Y-43775D01*
X69502Y-43775D01*
X69476Y-43789D01*
X69463Y-43802D01*
X69450Y-43828D01*
X69450Y-43907D01*
X69463Y-43933D01*
X69476Y-43946D01*
X69502Y-43959D01*
X69542Y-43959D01*
X69227Y-43946D02*
X69253Y-43959D01*
X69306Y-43959D01*
X69332Y-43946D01*
X69345Y-43920D01*
X69345Y-43815D01*
X69332Y-43789D01*
X69306Y-43775D01*
X69253Y-43775D01*
X69227Y-43789D01*
X69214Y-43815D01*
X69214Y-43841D01*
X69345Y-43867D01*
X69135Y-43775D02*
X69030Y-43775D01*
X69096Y-43959D02*
X69096Y-43723D01*
X69082Y-43697D01*
X69056Y-43684D01*
X69030Y-43684D01*
X68833Y-43946D02*
X68859Y-43959D01*
X68912Y-43959D01*
X68938Y-43946D01*
X68951Y-43920D01*
X68951Y-43815D01*
X68938Y-43789D01*
X68912Y-43775D01*
X68859Y-43775D01*
X68833Y-43789D01*
X68820Y-43815D01*
X68820Y-43841D01*
X68951Y-43867D01*
X68702Y-43959D02*
X68702Y-43775D01*
X68702Y-43828D02*
X68689Y-43802D01*
X68676Y-43789D01*
X68649Y-43775D01*
X68623Y-43775D01*
X68531Y-43775D02*
X68531Y-43959D01*
X68531Y-43802D02*
X68518Y-43789D01*
X68492Y-43775D01*
X68453Y-43775D01*
X68426Y-43789D01*
X68413Y-43815D01*
X68413Y-43959D01*
X68177Y-43946D02*
X68203Y-43959D01*
X68256Y-43959D01*
X68282Y-43946D01*
X68295Y-43920D01*
X68295Y-43815D01*
X68282Y-43789D01*
X68256Y-43775D01*
X68203Y-43775D01*
X68177Y-43789D01*
X68164Y-43815D01*
X68164Y-43841D01*
X68295Y-43867D01*
X68046Y-43959D02*
X68046Y-43775D01*
X68046Y-43828D02*
X68033Y-43802D01*
X68019Y-43789D01*
X67993Y-43775D01*
X67967Y-43775D01*
X67678Y-43670D02*
X67914Y-44025D01*
X67586Y-43959D02*
X67586Y-43684D01*
X67586Y-43789D02*
X67560Y-43775D01*
X67508Y-43775D01*
X67481Y-43789D01*
X67468Y-43802D01*
X67455Y-43828D01*
X67455Y-43907D01*
X67468Y-43933D01*
X67481Y-43946D01*
X67508Y-43959D01*
X67560Y-43959D01*
X67586Y-43946D01*
X67337Y-43959D02*
X67337Y-43775D01*
X67337Y-43828D02*
X67324Y-43802D01*
X67311Y-43789D01*
X67285Y-43775D01*
X67258Y-43775D01*
X67061Y-43946D02*
X67088Y-43959D01*
X67140Y-43959D01*
X67166Y-43946D01*
X67180Y-43920D01*
X67180Y-43815D01*
X67166Y-43789D01*
X67140Y-43775D01*
X67088Y-43775D01*
X67061Y-43789D01*
X67048Y-43815D01*
X67048Y-43841D01*
X67180Y-43867D01*
X66812Y-43959D02*
X66812Y-43815D01*
X66825Y-43789D01*
X66851Y-43775D01*
X66904Y-43775D01*
X66930Y-43789D01*
X66812Y-43946D02*
X66838Y-43959D01*
X66904Y-43959D01*
X66930Y-43946D01*
X66943Y-43920D01*
X66943Y-43894D01*
X66930Y-43867D01*
X66904Y-43854D01*
X66838Y-43854D01*
X66812Y-43841D01*
X66681Y-43959D02*
X66681Y-43684D01*
X66655Y-43854D02*
X66576Y-43959D01*
X66576Y-43775D02*
X66681Y-43880D01*
X66418Y-43959D02*
X66445Y-43946D01*
X66458Y-43933D01*
X66471Y-43907D01*
X66471Y-43828D01*
X66458Y-43802D01*
X66445Y-43789D01*
X66418Y-43775D01*
X66379Y-43775D01*
X66353Y-43789D01*
X66340Y-43802D01*
X66327Y-43828D01*
X66327Y-43907D01*
X66340Y-43933D01*
X66353Y-43946D01*
X66379Y-43959D01*
X66418Y-43959D01*
X66090Y-43775D02*
X66090Y-43959D01*
X66208Y-43775D02*
X66208Y-43920D01*
X66195Y-43946D01*
X66169Y-43959D01*
X66130Y-43959D01*
X66103Y-43946D01*
X66090Y-43933D01*
X65998Y-43775D02*
X65893Y-43775D01*
X65959Y-43684D02*
X65959Y-43920D01*
X65946Y-43946D01*
X65920Y-43959D01*
X65893Y-43959D01*
X65710Y-43815D02*
X65670Y-43828D01*
X65657Y-43841D01*
X65644Y-43867D01*
X65644Y-43907D01*
X65657Y-43933D01*
X65670Y-43946D01*
X65697Y-43959D01*
X65802Y-43959D01*
X65802Y-43684D01*
X65710Y-43684D01*
X65683Y-43697D01*
X65670Y-43710D01*
X65657Y-43736D01*
X65657Y-43762D01*
X65670Y-43789D01*
X65683Y-43802D01*
X65710Y-43815D01*
X65802Y-43815D01*
X65487Y-43959D02*
X65513Y-43946D01*
X65526Y-43933D01*
X65539Y-43907D01*
X65539Y-43828D01*
X65526Y-43802D01*
X65513Y-43789D01*
X65487Y-43775D01*
X65447Y-43775D01*
X65421Y-43789D01*
X65408Y-43802D01*
X65395Y-43828D01*
X65395Y-43907D01*
X65408Y-43933D01*
X65421Y-43946D01*
X65447Y-43959D01*
X65487Y-43959D01*
X65159Y-43959D02*
X65159Y-43815D01*
X65172Y-43789D01*
X65198Y-43775D01*
X65250Y-43775D01*
X65277Y-43789D01*
X65159Y-43946D02*
X65185Y-43959D01*
X65250Y-43959D01*
X65277Y-43946D01*
X65290Y-43920D01*
X65290Y-43894D01*
X65277Y-43867D01*
X65250Y-43854D01*
X65185Y-43854D01*
X65159Y-43841D01*
X65027Y-43959D02*
X65027Y-43775D01*
X65027Y-43828D02*
X65014Y-43802D01*
X65001Y-43789D01*
X64975Y-43775D01*
X64949Y-43775D01*
X64739Y-43959D02*
X64739Y-43684D01*
X64739Y-43946D02*
X64765Y-43959D01*
X64817Y-43959D01*
X64844Y-43946D01*
X64857Y-43933D01*
X64870Y-43907D01*
X64870Y-43828D01*
X64857Y-43802D01*
X64844Y-43789D01*
X64817Y-43775D01*
X64765Y-43775D01*
X64739Y-43789D01*
X64620Y-43946D02*
X64594Y-43959D01*
X64542Y-43959D01*
X64516Y-43946D01*
X64502Y-43920D01*
X64502Y-43907D01*
X64516Y-43880D01*
X64542Y-43867D01*
X64581Y-43867D01*
X64607Y-43854D01*
X64620Y-43828D01*
X64620Y-43815D01*
X64607Y-43789D01*
X64581Y-43775D01*
X64542Y-43775D01*
X64516Y-43789D01*
X61534Y-43624D02*
X61534Y-43349D01*
X61416Y-43624D02*
X61416Y-43480D01*
X61429Y-43454D01*
X61455Y-43440D01*
X61495Y-43440D01*
X61521Y-43454D01*
X61534Y-43467D01*
X61324Y-43440D02*
X61219Y-43440D01*
X61285Y-43349D02*
X61285Y-43585D01*
X61271Y-43611D01*
X61245Y-43624D01*
X61219Y-43624D01*
X61166Y-43440D02*
X61061Y-43440D01*
X61127Y-43349D02*
X61127Y-43585D01*
X61114Y-43611D01*
X61088Y-43624D01*
X61061Y-43624D01*
X60970Y-43440D02*
X60970Y-43716D01*
X60970Y-43454D02*
X60943Y-43440D01*
X60891Y-43440D01*
X60865Y-43454D01*
X60851Y-43467D01*
X60838Y-43493D01*
X60838Y-43572D01*
X60851Y-43598D01*
X60865Y-43611D01*
X60891Y-43624D01*
X60943Y-43624D01*
X60970Y-43611D01*
X60733Y-43611D02*
X60707Y-43624D01*
X60655Y-43624D01*
X60628Y-43611D01*
X60615Y-43585D01*
X60615Y-43572D01*
X60628Y-43545D01*
X60655Y-43532D01*
X60694Y-43532D01*
X60720Y-43519D01*
X60733Y-43493D01*
X60733Y-43480D01*
X60720Y-43454D01*
X60694Y-43440D01*
X60655Y-43440D01*
X60628Y-43454D01*
X60497Y-43598D02*
X60484Y-43611D01*
X60497Y-43624D01*
X60510Y-43611D01*
X60497Y-43598D01*
X60497Y-43624D01*
X60497Y-43454D02*
X60484Y-43467D01*
X60497Y-43480D01*
X60510Y-43467D01*
X60497Y-43454D01*
X60497Y-43480D01*
X60169Y-43335D02*
X60405Y-43690D01*
X59880Y-43335D02*
X60117Y-43690D01*
X59670Y-43440D02*
X59670Y-43664D01*
X59683Y-43690D01*
X59697Y-43703D01*
X59723Y-43716D01*
X59762Y-43716D01*
X59788Y-43703D01*
X59670Y-43611D02*
X59697Y-43624D01*
X59749Y-43624D01*
X59775Y-43611D01*
X59788Y-43598D01*
X59802Y-43572D01*
X59802Y-43493D01*
X59788Y-43467D01*
X59775Y-43454D01*
X59749Y-43440D01*
X59697Y-43440D01*
X59670Y-43454D01*
X59539Y-43624D02*
X59539Y-43440D01*
X59539Y-43349D02*
X59552Y-43362D01*
X59539Y-43375D01*
X59526Y-43362D01*
X59539Y-43349D01*
X59539Y-43375D01*
X59447Y-43440D02*
X59342Y-43440D01*
X59408Y-43349D02*
X59408Y-43585D01*
X59395Y-43611D01*
X59369Y-43624D01*
X59342Y-43624D01*
X59250Y-43624D02*
X59250Y-43349D01*
X59132Y-43624D02*
X59132Y-43480D01*
X59145Y-43454D01*
X59172Y-43440D01*
X59211Y-43440D01*
X59237Y-43454D01*
X59250Y-43467D01*
X58883Y-43440D02*
X58883Y-43624D01*
X59001Y-43440D02*
X59001Y-43585D01*
X58988Y-43611D01*
X58962Y-43624D01*
X58922Y-43624D01*
X58896Y-43611D01*
X58883Y-43598D01*
X58752Y-43624D02*
X58752Y-43349D01*
X58752Y-43454D02*
X58725Y-43440D01*
X58673Y-43440D01*
X58647Y-43454D01*
X58634Y-43467D01*
X58620Y-43493D01*
X58620Y-43572D01*
X58634Y-43598D01*
X58647Y-43611D01*
X58673Y-43624D01*
X58725Y-43624D01*
X58752Y-43611D01*
X58502Y-43598D02*
X58489Y-43611D01*
X58502Y-43624D01*
X58516Y-43611D01*
X58502Y-43598D01*
X58502Y-43624D01*
X58253Y-43611D02*
X58279Y-43624D01*
X58332Y-43624D01*
X58358Y-43611D01*
X58371Y-43598D01*
X58384Y-43572D01*
X58384Y-43493D01*
X58371Y-43467D01*
X58358Y-43454D01*
X58332Y-43440D01*
X58279Y-43440D01*
X58253Y-43454D01*
X58096Y-43624D02*
X58122Y-43611D01*
X58135Y-43598D01*
X58148Y-43572D01*
X58148Y-43493D01*
X58135Y-43467D01*
X58122Y-43454D01*
X58096Y-43440D01*
X58056Y-43440D01*
X58030Y-43454D01*
X58017Y-43467D01*
X58004Y-43493D01*
X58004Y-43572D01*
X58017Y-43598D01*
X58030Y-43611D01*
X58056Y-43624D01*
X58096Y-43624D01*
X57886Y-43624D02*
X57886Y-43440D01*
X57886Y-43467D02*
X57872Y-43454D01*
X57846Y-43440D01*
X57807Y-43440D01*
X57781Y-43454D01*
X57767Y-43480D01*
X57767Y-43624D01*
X57767Y-43480D02*
X57754Y-43454D01*
X57728Y-43440D01*
X57689Y-43440D01*
X57662Y-43454D01*
X57649Y-43480D01*
X57649Y-43624D01*
X57321Y-43335D02*
X57558Y-43690D01*
X61114Y-43875D02*
X61114Y-44112D01*
X61127Y-44138D01*
X61153Y-44151D01*
X61166Y-44151D01*
X61114Y-43784D02*
X61127Y-43797D01*
X61114Y-43810D01*
X61101Y-43797D01*
X61114Y-43784D01*
X61114Y-43810D01*
X60943Y-44059D02*
X60970Y-44046D01*
X60983Y-44033D01*
X60996Y-44007D01*
X60996Y-43928D01*
X60983Y-43902D01*
X60970Y-43889D01*
X60943Y-43875D01*
X60904Y-43875D01*
X60878Y-43889D01*
X60865Y-43902D01*
X60851Y-43928D01*
X60851Y-44007D01*
X60865Y-44033D01*
X60878Y-44046D01*
X60904Y-44059D01*
X60943Y-44059D01*
X60628Y-44046D02*
X60655Y-44059D01*
X60707Y-44059D01*
X60733Y-44046D01*
X60746Y-44020D01*
X60746Y-43915D01*
X60733Y-43889D01*
X60707Y-43875D01*
X60655Y-43875D01*
X60628Y-43889D01*
X60615Y-43915D01*
X60615Y-43941D01*
X60746Y-43967D01*
X60537Y-43875D02*
X60432Y-43875D01*
X60497Y-44059D02*
X60497Y-43823D01*
X60484Y-43797D01*
X60458Y-43784D01*
X60432Y-43784D01*
X60235Y-44046D02*
X60261Y-44059D01*
X60313Y-44059D01*
X60340Y-44046D01*
X60353Y-44020D01*
X60353Y-43915D01*
X60340Y-43889D01*
X60313Y-43875D01*
X60261Y-43875D01*
X60235Y-43889D01*
X60222Y-43915D01*
X60222Y-43941D01*
X60353Y-43967D01*
X60103Y-44059D02*
X60103Y-43875D01*
X60103Y-43928D02*
X60090Y-43902D01*
X60077Y-43889D01*
X60051Y-43875D01*
X60025Y-43875D01*
X59933Y-43875D02*
X59933Y-44059D01*
X59933Y-43902D02*
X59920Y-43889D01*
X59893Y-43875D01*
X59854Y-43875D01*
X59828Y-43889D01*
X59815Y-43915D01*
X59815Y-44059D01*
X59579Y-44046D02*
X59605Y-44059D01*
X59657Y-44059D01*
X59683Y-44046D01*
X59697Y-44020D01*
X59697Y-43915D01*
X59683Y-43889D01*
X59657Y-43875D01*
X59605Y-43875D01*
X59579Y-43889D01*
X59565Y-43915D01*
X59565Y-43941D01*
X59697Y-43967D01*
X59447Y-44059D02*
X59447Y-43875D01*
X59447Y-43928D02*
X59434Y-43902D01*
X59421Y-43889D01*
X59395Y-43875D01*
X59369Y-43875D01*
X59080Y-43770D02*
X59316Y-44125D01*
X58988Y-44059D02*
X58988Y-43784D01*
X58988Y-43889D02*
X58962Y-43875D01*
X58909Y-43875D01*
X58883Y-43889D01*
X58870Y-43902D01*
X58857Y-43928D01*
X58857Y-44007D01*
X58870Y-44033D01*
X58883Y-44046D01*
X58909Y-44059D01*
X58962Y-44059D01*
X58988Y-44046D01*
X58739Y-44059D02*
X58739Y-43875D01*
X58739Y-43928D02*
X58725Y-43902D01*
X58712Y-43889D01*
X58686Y-43875D01*
X58660Y-43875D01*
X58463Y-44046D02*
X58489Y-44059D01*
X58542Y-44059D01*
X58568Y-44046D01*
X58581Y-44020D01*
X58581Y-43915D01*
X58568Y-43889D01*
X58542Y-43875D01*
X58489Y-43875D01*
X58463Y-43889D01*
X58450Y-43915D01*
X58450Y-43941D01*
X58581Y-43967D01*
X58214Y-44059D02*
X58214Y-43915D01*
X58227Y-43889D01*
X58253Y-43875D01*
X58306Y-43875D01*
X58332Y-43889D01*
X58214Y-44046D02*
X58240Y-44059D01*
X58306Y-44059D01*
X58332Y-44046D01*
X58345Y-44020D01*
X58345Y-43994D01*
X58332Y-43967D01*
X58306Y-43954D01*
X58240Y-43954D01*
X58214Y-43941D01*
X58082Y-44059D02*
X58082Y-43784D01*
X58056Y-43954D02*
X57977Y-44059D01*
X57977Y-43875D02*
X58082Y-43980D01*
X57820Y-44059D02*
X57846Y-44046D01*
X57859Y-44033D01*
X57872Y-44007D01*
X57872Y-43928D01*
X57859Y-43902D01*
X57846Y-43889D01*
X57820Y-43875D01*
X57781Y-43875D01*
X57754Y-43889D01*
X57741Y-43902D01*
X57728Y-43928D01*
X57728Y-44007D01*
X57741Y-44033D01*
X57754Y-44046D01*
X57781Y-44059D01*
X57820Y-44059D01*
X57492Y-43875D02*
X57492Y-44059D01*
X57610Y-43875D02*
X57610Y-44020D01*
X57597Y-44046D01*
X57571Y-44059D01*
X57531Y-44059D01*
X57505Y-44046D01*
X57492Y-44033D01*
X57400Y-43875D02*
X57295Y-43875D01*
X57361Y-43784D02*
X57361Y-44020D01*
X57348Y-44046D01*
X57321Y-44059D01*
X57295Y-44059D01*
X57111Y-43915D02*
X57072Y-43928D01*
X57059Y-43941D01*
X57046Y-43967D01*
X57046Y-44007D01*
X57059Y-44033D01*
X57072Y-44046D01*
X57098Y-44059D01*
X57203Y-44059D01*
X57203Y-43784D01*
X57111Y-43784D01*
X57085Y-43797D01*
X57072Y-43810D01*
X57059Y-43836D01*
X57059Y-43862D01*
X57072Y-43889D01*
X57085Y-43902D01*
X57111Y-43915D01*
X57203Y-43915D01*
X56888Y-44059D02*
X56914Y-44046D01*
X56928Y-44033D01*
X56941Y-44007D01*
X56941Y-43928D01*
X56928Y-43902D01*
X56914Y-43889D01*
X56888Y-43875D01*
X56849Y-43875D01*
X56823Y-43889D01*
X56809Y-43902D01*
X56796Y-43928D01*
X56796Y-44007D01*
X56809Y-44033D01*
X56823Y-44046D01*
X56849Y-44059D01*
X56888Y-44059D01*
X56560Y-44059D02*
X56560Y-43915D01*
X56573Y-43889D01*
X56600Y-43875D01*
X56652Y-43875D01*
X56678Y-43889D01*
X56560Y-44046D02*
X56586Y-44059D01*
X56652Y-44059D01*
X56678Y-44046D01*
X56691Y-44020D01*
X56691Y-43994D01*
X56678Y-43967D01*
X56652Y-43954D01*
X56586Y-43954D01*
X56560Y-43941D01*
X56429Y-44059D02*
X56429Y-43875D01*
X56429Y-43928D02*
X56416Y-43902D01*
X56403Y-43889D01*
X56376Y-43875D01*
X56350Y-43875D01*
X56140Y-44059D02*
X56140Y-43784D01*
X56140Y-44046D02*
X56166Y-44059D01*
X56219Y-44059D01*
X56245Y-44046D01*
X56258Y-44033D01*
X56271Y-44007D01*
X56271Y-43928D01*
X56258Y-43902D01*
X56245Y-43889D01*
X56219Y-43875D01*
X56166Y-43875D01*
X56140Y-43889D01*
X56022Y-44046D02*
X55996Y-44059D01*
X55943Y-44059D01*
X55917Y-44046D01*
X55904Y-44020D01*
X55904Y-44007D01*
X55917Y-43980D01*
X55943Y-43967D01*
X55983Y-43967D01*
X56009Y-43954D01*
X56022Y-43928D01*
X56022Y-43915D01*
X56009Y-43889D01*
X55983Y-43875D01*
X55943Y-43875D01*
X55917Y-43889D01*
M02*
