G04 (created by PCBNEW (2013-mar-13)-testing) date Sun 09 Jun 2013 10:01:08 PM EDT*
%MOIN*%
G04 Gerber Fmt 3.4, Leading zero omitted, Abs format*
%FSLAX34Y34*%
G01*
G70*
G90*
G04 APERTURE LIST*
%ADD10C,0.005906*%
%ADD11C,0.003937*%
%ADD12R,0.055000X0.035000*%
%ADD13R,0.035000X0.055000*%
%ADD14R,0.060000X0.060000*%
%ADD15C,0.060000*%
%ADD16R,0.023622X0.011811*%
%ADD17R,0.011811X0.023622*%
%ADD18R,0.023622X0.013780*%
%ADD19R,0.013780X0.023622*%
G04 APERTURE END LIST*
G54D10*
G54D11*
X54566Y-55826D02*
X71870Y-55826D01*
X54566Y-39251D02*
X54566Y-55826D01*
X71870Y-39251D02*
X71870Y-55826D01*
X54566Y-39251D02*
X71870Y-39251D01*
G54D12*
X58100Y-44625D03*
X58100Y-45375D03*
X57300Y-44625D03*
X57300Y-45375D03*
X59000Y-44625D03*
X59000Y-45375D03*
G54D13*
X59525Y-43600D03*
X60275Y-43600D03*
G54D12*
X67027Y-45097D03*
X67027Y-45847D03*
G54D13*
X67636Y-43996D03*
X68386Y-43996D03*
G54D12*
X66141Y-45097D03*
X66141Y-45847D03*
X65255Y-45097D03*
X65255Y-45847D03*
G54D14*
X55300Y-40000D03*
G54D15*
X56300Y-40000D03*
X57300Y-40000D03*
X58300Y-40000D03*
X59300Y-40000D03*
X60300Y-40000D03*
X61300Y-40000D03*
X62300Y-40000D03*
G54D14*
X70898Y-40000D03*
G54D15*
X69898Y-40000D03*
X68898Y-40000D03*
X67898Y-40000D03*
X66898Y-40000D03*
X65898Y-40000D03*
X64898Y-40000D03*
X63898Y-40000D03*
G54D12*
X60334Y-42796D03*
X60334Y-42046D03*
X59448Y-42796D03*
X59448Y-42046D03*
X70866Y-42894D03*
X70866Y-42144D03*
X69881Y-42894D03*
X69881Y-42144D03*
G54D14*
X55300Y-48100D03*
G54D15*
X55300Y-49100D03*
X55300Y-50100D03*
X55300Y-51100D03*
X55300Y-52100D03*
X55300Y-53100D03*
X55300Y-54100D03*
X55300Y-55100D03*
G54D14*
X59300Y-48100D03*
G54D15*
X59300Y-49100D03*
X59300Y-50100D03*
X59300Y-51100D03*
X59300Y-52100D03*
X59300Y-53100D03*
X59300Y-54100D03*
X59300Y-55100D03*
G54D10*
G36*
X56562Y-51510D02*
X56645Y-51426D01*
X56812Y-51593D01*
X56729Y-51677D01*
X56562Y-51510D01*
X56562Y-51510D01*
G37*
G36*
X56701Y-51371D02*
X56784Y-51287D01*
X56952Y-51454D01*
X56868Y-51538D01*
X56701Y-51371D01*
X56701Y-51371D01*
G37*
G36*
X56840Y-51232D02*
X56924Y-51148D01*
X57091Y-51315D01*
X57007Y-51399D01*
X56840Y-51232D01*
X56840Y-51232D01*
G37*
G36*
X56979Y-51092D02*
X57063Y-51009D01*
X57230Y-51176D01*
X57146Y-51259D01*
X56979Y-51092D01*
X56979Y-51092D01*
G37*
G36*
X57119Y-50953D02*
X57202Y-50870D01*
X57369Y-51037D01*
X57286Y-51120D01*
X57119Y-50953D01*
X57119Y-50953D01*
G37*
G36*
X57787Y-51621D02*
X57870Y-51538D01*
X58037Y-51705D01*
X57954Y-51788D01*
X57787Y-51621D01*
X57787Y-51621D01*
G37*
G36*
X57647Y-51760D02*
X57731Y-51677D01*
X57898Y-51844D01*
X57815Y-51928D01*
X57647Y-51760D01*
X57647Y-51760D01*
G37*
G36*
X57508Y-51900D02*
X57592Y-51816D01*
X57759Y-51983D01*
X57675Y-52067D01*
X57508Y-51900D01*
X57508Y-51900D01*
G37*
G36*
X57369Y-52039D02*
X57453Y-51955D01*
X57620Y-52122D01*
X57536Y-52206D01*
X57369Y-52039D01*
X57369Y-52039D01*
G37*
G36*
X57230Y-52178D02*
X57313Y-52095D01*
X57480Y-52262D01*
X57397Y-52345D01*
X57230Y-52178D01*
X57230Y-52178D01*
G37*
G36*
X57369Y-51176D02*
X57536Y-51009D01*
X57620Y-51092D01*
X57453Y-51259D01*
X57369Y-51176D01*
X57369Y-51176D01*
G37*
G36*
X57508Y-51315D02*
X57675Y-51148D01*
X57759Y-51232D01*
X57592Y-51399D01*
X57508Y-51315D01*
X57508Y-51315D01*
G37*
G36*
X57647Y-51454D02*
X57815Y-51287D01*
X57898Y-51371D01*
X57731Y-51538D01*
X57647Y-51454D01*
X57647Y-51454D01*
G37*
G36*
X56979Y-52122D02*
X57146Y-51955D01*
X57230Y-52039D01*
X57063Y-52206D01*
X56979Y-52122D01*
X56979Y-52122D01*
G37*
G36*
X56840Y-51983D02*
X57007Y-51816D01*
X57091Y-51900D01*
X56924Y-52067D01*
X56840Y-51983D01*
X56840Y-51983D01*
G37*
G36*
X56701Y-51844D02*
X56868Y-51677D01*
X56952Y-51760D01*
X56784Y-51928D01*
X56701Y-51844D01*
X56701Y-51844D01*
G37*
G54D16*
X58572Y-42806D03*
X58572Y-43003D03*
X58572Y-43200D03*
X58572Y-43396D03*
X58572Y-43593D03*
X57627Y-43593D03*
X57627Y-43396D03*
X57627Y-43200D03*
X57627Y-43003D03*
X57627Y-42806D03*
G54D17*
X58296Y-43672D03*
X58100Y-43672D03*
X57903Y-43672D03*
X57903Y-42727D03*
X58100Y-42727D03*
X58296Y-42727D03*
G54D18*
X66712Y-43120D03*
X66712Y-43375D03*
X66712Y-43631D03*
X66712Y-43887D03*
G54D19*
X66427Y-44173D03*
X66171Y-44173D03*
X65915Y-44173D03*
X65659Y-44173D03*
G54D18*
X65374Y-43887D03*
X65374Y-43631D03*
X65374Y-43375D03*
X65374Y-43120D03*
G54D19*
X65659Y-42834D03*
X65915Y-42834D03*
X66171Y-42834D03*
X66427Y-42834D03*
G54D14*
X67196Y-48157D03*
G54D15*
X67196Y-49157D03*
X67196Y-50157D03*
X67196Y-51157D03*
X67196Y-52157D03*
X67196Y-53157D03*
X67196Y-54157D03*
X67196Y-55157D03*
G54D14*
X71196Y-48157D03*
G54D15*
X71196Y-49157D03*
X71196Y-50157D03*
X71196Y-51157D03*
X71196Y-52157D03*
X71196Y-53157D03*
X71196Y-54157D03*
X71196Y-55157D03*
G54D10*
G36*
X68319Y-51420D02*
X68417Y-51323D01*
X68584Y-51490D01*
X68486Y-51587D01*
X68319Y-51420D01*
X68319Y-51420D01*
G37*
G36*
X68500Y-51239D02*
X68598Y-51142D01*
X68765Y-51309D01*
X68667Y-51406D01*
X68500Y-51239D01*
X68500Y-51239D01*
G37*
G36*
X68681Y-51058D02*
X68779Y-50961D01*
X68946Y-51128D01*
X68848Y-51225D01*
X68681Y-51058D01*
X68681Y-51058D01*
G37*
G36*
X68862Y-50877D02*
X68960Y-50780D01*
X69127Y-50947D01*
X69029Y-51045D01*
X68862Y-50877D01*
X68862Y-50877D01*
G37*
G36*
X69266Y-50947D02*
X69433Y-50780D01*
X69530Y-50877D01*
X69363Y-51045D01*
X69266Y-50947D01*
X69266Y-50947D01*
G37*
G36*
X69447Y-51128D02*
X69614Y-50961D01*
X69711Y-51058D01*
X69544Y-51225D01*
X69447Y-51128D01*
X69447Y-51128D01*
G37*
G36*
X69628Y-51309D02*
X69795Y-51142D01*
X69892Y-51239D01*
X69725Y-51406D01*
X69628Y-51309D01*
X69628Y-51309D01*
G37*
G36*
X69809Y-51490D02*
X69976Y-51323D01*
X70073Y-51420D01*
X69906Y-51587D01*
X69809Y-51490D01*
X69809Y-51490D01*
G37*
G36*
X69809Y-51824D02*
X69906Y-51727D01*
X70073Y-51894D01*
X69976Y-51991D01*
X69809Y-51824D01*
X69809Y-51824D01*
G37*
G36*
X69628Y-52005D02*
X69725Y-51908D01*
X69892Y-52075D01*
X69795Y-52172D01*
X69628Y-52005D01*
X69628Y-52005D01*
G37*
G36*
X69447Y-52186D02*
X69544Y-52088D01*
X69711Y-52256D01*
X69614Y-52353D01*
X69447Y-52186D01*
X69447Y-52186D01*
G37*
G36*
X69266Y-52367D02*
X69363Y-52269D01*
X69530Y-52436D01*
X69433Y-52534D01*
X69266Y-52367D01*
X69266Y-52367D01*
G37*
G36*
X68862Y-52436D02*
X69029Y-52269D01*
X69127Y-52367D01*
X68960Y-52534D01*
X68862Y-52436D01*
X68862Y-52436D01*
G37*
G36*
X68681Y-52256D02*
X68848Y-52088D01*
X68946Y-52186D01*
X68779Y-52353D01*
X68681Y-52256D01*
X68681Y-52256D01*
G37*
G36*
X68500Y-52075D02*
X68667Y-51908D01*
X68765Y-52005D01*
X68598Y-52172D01*
X68500Y-52075D01*
X68500Y-52075D01*
G37*
G36*
X68319Y-51894D02*
X68486Y-51727D01*
X68584Y-51824D01*
X68417Y-51991D01*
X68319Y-51894D01*
X68319Y-51894D01*
G37*
M02*
