G04 (created by PCBNEW (2013-mar-13)-testing) date Sun 09 Jun 2013 10:01:08 PM EDT*
%MOIN*%
G04 Gerber Fmt 3.4, Leading zero omitted, Abs format*
%FSLAX34Y34*%
G01*
G70*
G90*
G04 APERTURE LIST*
%ADD10C,0.005906*%
%ADD11C,0.003937*%
%ADD12R,0.060000X0.060000*%
%ADD13C,0.060000*%
%ADD14C,0.035000*%
%ADD15C,0.008000*%
G04 APERTURE END LIST*
G54D10*
G54D11*
X54566Y-55826D02*
X71870Y-55826D01*
X54566Y-39251D02*
X54566Y-55826D01*
X71870Y-39251D02*
X71870Y-55826D01*
X54566Y-39251D02*
X71870Y-39251D01*
G54D12*
X55300Y-40000D03*
G54D13*
X56300Y-40000D03*
X57300Y-40000D03*
X58300Y-40000D03*
X59300Y-40000D03*
X60300Y-40000D03*
X61300Y-40000D03*
X62300Y-40000D03*
G54D12*
X70898Y-40000D03*
G54D13*
X69898Y-40000D03*
X68898Y-40000D03*
X67898Y-40000D03*
X66898Y-40000D03*
X65898Y-40000D03*
X64898Y-40000D03*
X63898Y-40000D03*
G54D12*
X55300Y-48100D03*
G54D13*
X55300Y-49100D03*
X55300Y-50100D03*
X55300Y-51100D03*
X55300Y-52100D03*
X55300Y-53100D03*
X55300Y-54100D03*
X55300Y-55100D03*
G54D12*
X59300Y-48100D03*
G54D13*
X59300Y-49100D03*
X59300Y-50100D03*
X59300Y-51100D03*
X59300Y-52100D03*
X59300Y-53100D03*
X59300Y-54100D03*
X59300Y-55100D03*
G54D12*
X67196Y-48157D03*
G54D13*
X67196Y-49157D03*
X67196Y-50157D03*
X67196Y-51157D03*
X67196Y-52157D03*
X67196Y-53157D03*
X67196Y-54157D03*
X67196Y-55157D03*
G54D12*
X71196Y-48157D03*
G54D13*
X71196Y-49157D03*
X71196Y-50157D03*
X71196Y-51157D03*
X71196Y-52157D03*
X71196Y-53157D03*
X71196Y-54157D03*
X71196Y-55157D03*
G54D14*
X56988Y-43700D03*
X58661Y-42421D03*
X60826Y-43700D03*
X57677Y-42224D03*
X68996Y-44192D03*
X64960Y-43110D03*
G54D10*
G36*
X62860Y-47160D02*
X62741Y-47160D01*
X62741Y-39919D01*
X62677Y-39757D01*
X62668Y-39744D01*
X62599Y-39714D01*
X62585Y-39728D01*
X62585Y-39700D01*
X62555Y-39631D01*
X62394Y-39561D01*
X62219Y-39558D01*
X62057Y-39622D01*
X62044Y-39631D01*
X62014Y-39700D01*
X62300Y-39985D01*
X62585Y-39700D01*
X62585Y-39728D01*
X62314Y-40000D01*
X62599Y-40285D01*
X62668Y-40255D01*
X62738Y-40094D01*
X62741Y-39919D01*
X62741Y-47160D01*
X62585Y-47160D01*
X62585Y-40299D01*
X62300Y-40014D01*
X62285Y-40028D01*
X62285Y-40000D01*
X62000Y-39714D01*
X61931Y-39744D01*
X61861Y-39905D01*
X61858Y-40080D01*
X61922Y-40242D01*
X61931Y-40255D01*
X62000Y-40285D01*
X62285Y-40000D01*
X62285Y-40028D01*
X62014Y-40299D01*
X62044Y-40368D01*
X62205Y-40438D01*
X62380Y-40441D01*
X62542Y-40377D01*
X62555Y-40368D01*
X62585Y-40299D01*
X62585Y-47160D01*
X61720Y-47160D01*
X61720Y-39916D01*
X61656Y-39762D01*
X61538Y-39644D01*
X61383Y-39580D01*
X61216Y-39579D01*
X61062Y-39643D01*
X60944Y-39761D01*
X60880Y-39916D01*
X60879Y-40083D01*
X60943Y-40237D01*
X61061Y-40355D01*
X61216Y-40419D01*
X61383Y-40420D01*
X61537Y-40356D01*
X61655Y-40238D01*
X61719Y-40083D01*
X61720Y-39916D01*
X61720Y-47160D01*
X60720Y-47160D01*
X60720Y-39916D01*
X60656Y-39762D01*
X60538Y-39644D01*
X60383Y-39580D01*
X60216Y-39579D01*
X60062Y-39643D01*
X59944Y-39761D01*
X59880Y-39916D01*
X59879Y-40083D01*
X59943Y-40237D01*
X60061Y-40355D01*
X60216Y-40419D01*
X60383Y-40420D01*
X60537Y-40356D01*
X60655Y-40238D01*
X60719Y-40083D01*
X60720Y-39916D01*
X60720Y-47160D01*
X59720Y-47160D01*
X59720Y-39916D01*
X59656Y-39762D01*
X59538Y-39644D01*
X59383Y-39580D01*
X59216Y-39579D01*
X59062Y-39643D01*
X58944Y-39761D01*
X58880Y-39916D01*
X58879Y-40083D01*
X58943Y-40237D01*
X59061Y-40355D01*
X59216Y-40419D01*
X59383Y-40420D01*
X59537Y-40356D01*
X59655Y-40238D01*
X59719Y-40083D01*
X59720Y-39916D01*
X59720Y-47160D01*
X58720Y-47160D01*
X58720Y-39916D01*
X58656Y-39762D01*
X58538Y-39644D01*
X58383Y-39580D01*
X58216Y-39579D01*
X58062Y-39643D01*
X57944Y-39761D01*
X57880Y-39916D01*
X57879Y-40083D01*
X57943Y-40237D01*
X58061Y-40355D01*
X58216Y-40419D01*
X58383Y-40420D01*
X58537Y-40356D01*
X58655Y-40238D01*
X58719Y-40083D01*
X58720Y-39916D01*
X58720Y-47160D01*
X57720Y-47160D01*
X57720Y-39916D01*
X57656Y-39762D01*
X57538Y-39644D01*
X57383Y-39580D01*
X57216Y-39579D01*
X57062Y-39643D01*
X56944Y-39761D01*
X56880Y-39916D01*
X56879Y-40083D01*
X56943Y-40237D01*
X57061Y-40355D01*
X57216Y-40419D01*
X57383Y-40420D01*
X57537Y-40356D01*
X57655Y-40238D01*
X57719Y-40083D01*
X57720Y-39916D01*
X57720Y-47160D01*
X56720Y-47160D01*
X56720Y-39916D01*
X56656Y-39762D01*
X56538Y-39644D01*
X56383Y-39580D01*
X56216Y-39579D01*
X56062Y-39643D01*
X55944Y-39761D01*
X55880Y-39916D01*
X55879Y-40083D01*
X55943Y-40237D01*
X56061Y-40355D01*
X56216Y-40419D01*
X56383Y-40420D01*
X56537Y-40356D01*
X56655Y-40238D01*
X56719Y-40083D01*
X56720Y-39916D01*
X56720Y-47160D01*
X55740Y-47160D01*
X55740Y-40327D01*
X55740Y-40272D01*
X55740Y-40045D01*
X55740Y-39955D01*
X55740Y-39727D01*
X55740Y-39672D01*
X55718Y-39620D01*
X55679Y-39581D01*
X55627Y-39560D01*
X55345Y-39560D01*
X55310Y-39595D01*
X55310Y-39990D01*
X55705Y-39990D01*
X55740Y-39955D01*
X55740Y-40045D01*
X55705Y-40010D01*
X55310Y-40010D01*
X55310Y-40405D01*
X55345Y-40440D01*
X55627Y-40440D01*
X55679Y-40418D01*
X55718Y-40379D01*
X55740Y-40327D01*
X55740Y-47160D01*
X55290Y-47160D01*
X55290Y-40405D01*
X55290Y-40010D01*
X55290Y-39990D01*
X55290Y-39595D01*
X55255Y-39560D01*
X54972Y-39560D01*
X54920Y-39581D01*
X54881Y-39620D01*
X54860Y-39672D01*
X54860Y-39727D01*
X54860Y-39955D01*
X54895Y-39990D01*
X55290Y-39990D01*
X55290Y-40010D01*
X54895Y-40010D01*
X54860Y-40045D01*
X54860Y-40272D01*
X54860Y-40327D01*
X54881Y-40379D01*
X54920Y-40418D01*
X54972Y-40440D01*
X55255Y-40440D01*
X55290Y-40405D01*
X55290Y-47160D01*
X54740Y-47160D01*
X54740Y-39440D01*
X62860Y-39440D01*
X62860Y-47160D01*
X62860Y-47160D01*
G37*
G54D15*
X62860Y-47160D02*
X62741Y-47160D01*
X62741Y-39919D01*
X62677Y-39757D01*
X62668Y-39744D01*
X62599Y-39714D01*
X62585Y-39728D01*
X62585Y-39700D01*
X62555Y-39631D01*
X62394Y-39561D01*
X62219Y-39558D01*
X62057Y-39622D01*
X62044Y-39631D01*
X62014Y-39700D01*
X62300Y-39985D01*
X62585Y-39700D01*
X62585Y-39728D01*
X62314Y-40000D01*
X62599Y-40285D01*
X62668Y-40255D01*
X62738Y-40094D01*
X62741Y-39919D01*
X62741Y-47160D01*
X62585Y-47160D01*
X62585Y-40299D01*
X62300Y-40014D01*
X62285Y-40028D01*
X62285Y-40000D01*
X62000Y-39714D01*
X61931Y-39744D01*
X61861Y-39905D01*
X61858Y-40080D01*
X61922Y-40242D01*
X61931Y-40255D01*
X62000Y-40285D01*
X62285Y-40000D01*
X62285Y-40028D01*
X62014Y-40299D01*
X62044Y-40368D01*
X62205Y-40438D01*
X62380Y-40441D01*
X62542Y-40377D01*
X62555Y-40368D01*
X62585Y-40299D01*
X62585Y-47160D01*
X61720Y-47160D01*
X61720Y-39916D01*
X61656Y-39762D01*
X61538Y-39644D01*
X61383Y-39580D01*
X61216Y-39579D01*
X61062Y-39643D01*
X60944Y-39761D01*
X60880Y-39916D01*
X60879Y-40083D01*
X60943Y-40237D01*
X61061Y-40355D01*
X61216Y-40419D01*
X61383Y-40420D01*
X61537Y-40356D01*
X61655Y-40238D01*
X61719Y-40083D01*
X61720Y-39916D01*
X61720Y-47160D01*
X60720Y-47160D01*
X60720Y-39916D01*
X60656Y-39762D01*
X60538Y-39644D01*
X60383Y-39580D01*
X60216Y-39579D01*
X60062Y-39643D01*
X59944Y-39761D01*
X59880Y-39916D01*
X59879Y-40083D01*
X59943Y-40237D01*
X60061Y-40355D01*
X60216Y-40419D01*
X60383Y-40420D01*
X60537Y-40356D01*
X60655Y-40238D01*
X60719Y-40083D01*
X60720Y-39916D01*
X60720Y-47160D01*
X59720Y-47160D01*
X59720Y-39916D01*
X59656Y-39762D01*
X59538Y-39644D01*
X59383Y-39580D01*
X59216Y-39579D01*
X59062Y-39643D01*
X58944Y-39761D01*
X58880Y-39916D01*
X58879Y-40083D01*
X58943Y-40237D01*
X59061Y-40355D01*
X59216Y-40419D01*
X59383Y-40420D01*
X59537Y-40356D01*
X59655Y-40238D01*
X59719Y-40083D01*
X59720Y-39916D01*
X59720Y-47160D01*
X58720Y-47160D01*
X58720Y-39916D01*
X58656Y-39762D01*
X58538Y-39644D01*
X58383Y-39580D01*
X58216Y-39579D01*
X58062Y-39643D01*
X57944Y-39761D01*
X57880Y-39916D01*
X57879Y-40083D01*
X57943Y-40237D01*
X58061Y-40355D01*
X58216Y-40419D01*
X58383Y-40420D01*
X58537Y-40356D01*
X58655Y-40238D01*
X58719Y-40083D01*
X58720Y-39916D01*
X58720Y-47160D01*
X57720Y-47160D01*
X57720Y-39916D01*
X57656Y-39762D01*
X57538Y-39644D01*
X57383Y-39580D01*
X57216Y-39579D01*
X57062Y-39643D01*
X56944Y-39761D01*
X56880Y-39916D01*
X56879Y-40083D01*
X56943Y-40237D01*
X57061Y-40355D01*
X57216Y-40419D01*
X57383Y-40420D01*
X57537Y-40356D01*
X57655Y-40238D01*
X57719Y-40083D01*
X57720Y-39916D01*
X57720Y-47160D01*
X56720Y-47160D01*
X56720Y-39916D01*
X56656Y-39762D01*
X56538Y-39644D01*
X56383Y-39580D01*
X56216Y-39579D01*
X56062Y-39643D01*
X55944Y-39761D01*
X55880Y-39916D01*
X55879Y-40083D01*
X55943Y-40237D01*
X56061Y-40355D01*
X56216Y-40419D01*
X56383Y-40420D01*
X56537Y-40356D01*
X56655Y-40238D01*
X56719Y-40083D01*
X56720Y-39916D01*
X56720Y-47160D01*
X55740Y-47160D01*
X55740Y-40327D01*
X55740Y-40272D01*
X55740Y-40045D01*
X55740Y-39955D01*
X55740Y-39727D01*
X55740Y-39672D01*
X55718Y-39620D01*
X55679Y-39581D01*
X55627Y-39560D01*
X55345Y-39560D01*
X55310Y-39595D01*
X55310Y-39990D01*
X55705Y-39990D01*
X55740Y-39955D01*
X55740Y-40045D01*
X55705Y-40010D01*
X55310Y-40010D01*
X55310Y-40405D01*
X55345Y-40440D01*
X55627Y-40440D01*
X55679Y-40418D01*
X55718Y-40379D01*
X55740Y-40327D01*
X55740Y-47160D01*
X55290Y-47160D01*
X55290Y-40405D01*
X55290Y-40010D01*
X55290Y-39990D01*
X55290Y-39595D01*
X55255Y-39560D01*
X54972Y-39560D01*
X54920Y-39581D01*
X54881Y-39620D01*
X54860Y-39672D01*
X54860Y-39727D01*
X54860Y-39955D01*
X54895Y-39990D01*
X55290Y-39990D01*
X55290Y-40010D01*
X54895Y-40010D01*
X54860Y-40045D01*
X54860Y-40272D01*
X54860Y-40327D01*
X54881Y-40379D01*
X54920Y-40418D01*
X54972Y-40440D01*
X55255Y-40440D01*
X55290Y-40405D01*
X55290Y-47160D01*
X54740Y-47160D01*
X54740Y-39440D01*
X62860Y-39440D01*
X62860Y-47160D01*
G54D10*
G36*
X71467Y-46788D02*
X71338Y-46788D01*
X71338Y-40327D01*
X71338Y-40272D01*
X71338Y-39672D01*
X71317Y-39620D01*
X71277Y-39581D01*
X71226Y-39560D01*
X71170Y-39560D01*
X70570Y-39560D01*
X70519Y-39581D01*
X70479Y-39620D01*
X70458Y-39672D01*
X70458Y-39727D01*
X70458Y-40327D01*
X70479Y-40379D01*
X70519Y-40418D01*
X70570Y-40440D01*
X70626Y-40440D01*
X71226Y-40440D01*
X71277Y-40418D01*
X71317Y-40379D01*
X71338Y-40327D01*
X71338Y-46788D01*
X70338Y-46788D01*
X70338Y-39912D01*
X70271Y-39751D01*
X70147Y-39627D01*
X69986Y-39560D01*
X69811Y-39559D01*
X69649Y-39626D01*
X69525Y-39750D01*
X69458Y-39912D01*
X69458Y-40087D01*
X69525Y-40248D01*
X69648Y-40372D01*
X69810Y-40439D01*
X69985Y-40440D01*
X70147Y-40373D01*
X70271Y-40249D01*
X70338Y-40087D01*
X70338Y-39912D01*
X70338Y-46788D01*
X69338Y-46788D01*
X69338Y-39912D01*
X69271Y-39751D01*
X69147Y-39627D01*
X68986Y-39560D01*
X68811Y-39559D01*
X68649Y-39626D01*
X68525Y-39750D01*
X68458Y-39912D01*
X68458Y-40087D01*
X68525Y-40248D01*
X68648Y-40372D01*
X68810Y-40439D01*
X68985Y-40440D01*
X69147Y-40373D01*
X69271Y-40249D01*
X69338Y-40087D01*
X69338Y-39912D01*
X69338Y-46788D01*
X68338Y-46788D01*
X68338Y-39912D01*
X68271Y-39751D01*
X68147Y-39627D01*
X67986Y-39560D01*
X67811Y-39559D01*
X67649Y-39626D01*
X67525Y-39750D01*
X67458Y-39912D01*
X67458Y-40087D01*
X67525Y-40248D01*
X67648Y-40372D01*
X67810Y-40439D01*
X67985Y-40440D01*
X68147Y-40373D01*
X68271Y-40249D01*
X68338Y-40087D01*
X68338Y-39912D01*
X68338Y-46788D01*
X67338Y-46788D01*
X67338Y-39912D01*
X67271Y-39751D01*
X67147Y-39627D01*
X66986Y-39560D01*
X66811Y-39559D01*
X66649Y-39626D01*
X66525Y-39750D01*
X66458Y-39912D01*
X66458Y-40087D01*
X66525Y-40248D01*
X66648Y-40372D01*
X66810Y-40439D01*
X66985Y-40440D01*
X67147Y-40373D01*
X67271Y-40249D01*
X67338Y-40087D01*
X67338Y-39912D01*
X67338Y-46788D01*
X66338Y-46788D01*
X66338Y-39912D01*
X66271Y-39751D01*
X66147Y-39627D01*
X65986Y-39560D01*
X65811Y-39559D01*
X65649Y-39626D01*
X65525Y-39750D01*
X65458Y-39912D01*
X65458Y-40087D01*
X65525Y-40248D01*
X65648Y-40372D01*
X65810Y-40439D01*
X65985Y-40440D01*
X66147Y-40373D01*
X66271Y-40249D01*
X66338Y-40087D01*
X66338Y-39912D01*
X66338Y-46788D01*
X65338Y-46788D01*
X65338Y-39912D01*
X65271Y-39751D01*
X65147Y-39627D01*
X64986Y-39560D01*
X64811Y-39559D01*
X64649Y-39626D01*
X64525Y-39750D01*
X64458Y-39912D01*
X64458Y-40087D01*
X64525Y-40248D01*
X64648Y-40372D01*
X64810Y-40439D01*
X64985Y-40440D01*
X65147Y-40373D01*
X65271Y-40249D01*
X65338Y-40087D01*
X65338Y-39912D01*
X65338Y-46788D01*
X64339Y-46788D01*
X64339Y-39919D01*
X64275Y-39757D01*
X64267Y-39744D01*
X64197Y-39714D01*
X64183Y-39728D01*
X64183Y-39700D01*
X64153Y-39631D01*
X63993Y-39561D01*
X63818Y-39558D01*
X63655Y-39622D01*
X63642Y-39631D01*
X63613Y-39700D01*
X63898Y-39985D01*
X64183Y-39700D01*
X64183Y-39728D01*
X63912Y-40000D01*
X64197Y-40285D01*
X64267Y-40255D01*
X64336Y-40094D01*
X64339Y-39919D01*
X64339Y-46788D01*
X64183Y-46788D01*
X64183Y-40299D01*
X63898Y-40014D01*
X63884Y-40028D01*
X63884Y-40000D01*
X63598Y-39714D01*
X63529Y-39744D01*
X63459Y-39905D01*
X63457Y-40080D01*
X63521Y-40242D01*
X63529Y-40255D01*
X63598Y-40285D01*
X63884Y-40000D01*
X63884Y-40028D01*
X63613Y-40299D01*
X63642Y-40368D01*
X63803Y-40438D01*
X63978Y-40441D01*
X64141Y-40377D01*
X64153Y-40368D01*
X64183Y-40299D01*
X64183Y-46788D01*
X63347Y-46788D01*
X63347Y-39485D01*
X71467Y-39485D01*
X71467Y-46788D01*
X71467Y-46788D01*
G37*
G54D15*
X71467Y-46788D02*
X71338Y-46788D01*
X71338Y-40327D01*
X71338Y-40272D01*
X71338Y-39672D01*
X71317Y-39620D01*
X71277Y-39581D01*
X71226Y-39560D01*
X71170Y-39560D01*
X70570Y-39560D01*
X70519Y-39581D01*
X70479Y-39620D01*
X70458Y-39672D01*
X70458Y-39727D01*
X70458Y-40327D01*
X70479Y-40379D01*
X70519Y-40418D01*
X70570Y-40440D01*
X70626Y-40440D01*
X71226Y-40440D01*
X71277Y-40418D01*
X71317Y-40379D01*
X71338Y-40327D01*
X71338Y-46788D01*
X70338Y-46788D01*
X70338Y-39912D01*
X70271Y-39751D01*
X70147Y-39627D01*
X69986Y-39560D01*
X69811Y-39559D01*
X69649Y-39626D01*
X69525Y-39750D01*
X69458Y-39912D01*
X69458Y-40087D01*
X69525Y-40248D01*
X69648Y-40372D01*
X69810Y-40439D01*
X69985Y-40440D01*
X70147Y-40373D01*
X70271Y-40249D01*
X70338Y-40087D01*
X70338Y-39912D01*
X70338Y-46788D01*
X69338Y-46788D01*
X69338Y-39912D01*
X69271Y-39751D01*
X69147Y-39627D01*
X68986Y-39560D01*
X68811Y-39559D01*
X68649Y-39626D01*
X68525Y-39750D01*
X68458Y-39912D01*
X68458Y-40087D01*
X68525Y-40248D01*
X68648Y-40372D01*
X68810Y-40439D01*
X68985Y-40440D01*
X69147Y-40373D01*
X69271Y-40249D01*
X69338Y-40087D01*
X69338Y-39912D01*
X69338Y-46788D01*
X68338Y-46788D01*
X68338Y-39912D01*
X68271Y-39751D01*
X68147Y-39627D01*
X67986Y-39560D01*
X67811Y-39559D01*
X67649Y-39626D01*
X67525Y-39750D01*
X67458Y-39912D01*
X67458Y-40087D01*
X67525Y-40248D01*
X67648Y-40372D01*
X67810Y-40439D01*
X67985Y-40440D01*
X68147Y-40373D01*
X68271Y-40249D01*
X68338Y-40087D01*
X68338Y-39912D01*
X68338Y-46788D01*
X67338Y-46788D01*
X67338Y-39912D01*
X67271Y-39751D01*
X67147Y-39627D01*
X66986Y-39560D01*
X66811Y-39559D01*
X66649Y-39626D01*
X66525Y-39750D01*
X66458Y-39912D01*
X66458Y-40087D01*
X66525Y-40248D01*
X66648Y-40372D01*
X66810Y-40439D01*
X66985Y-40440D01*
X67147Y-40373D01*
X67271Y-40249D01*
X67338Y-40087D01*
X67338Y-39912D01*
X67338Y-46788D01*
X66338Y-46788D01*
X66338Y-39912D01*
X66271Y-39751D01*
X66147Y-39627D01*
X65986Y-39560D01*
X65811Y-39559D01*
X65649Y-39626D01*
X65525Y-39750D01*
X65458Y-39912D01*
X65458Y-40087D01*
X65525Y-40248D01*
X65648Y-40372D01*
X65810Y-40439D01*
X65985Y-40440D01*
X66147Y-40373D01*
X66271Y-40249D01*
X66338Y-40087D01*
X66338Y-39912D01*
X66338Y-46788D01*
X65338Y-46788D01*
X65338Y-39912D01*
X65271Y-39751D01*
X65147Y-39627D01*
X64986Y-39560D01*
X64811Y-39559D01*
X64649Y-39626D01*
X64525Y-39750D01*
X64458Y-39912D01*
X64458Y-40087D01*
X64525Y-40248D01*
X64648Y-40372D01*
X64810Y-40439D01*
X64985Y-40440D01*
X65147Y-40373D01*
X65271Y-40249D01*
X65338Y-40087D01*
X65338Y-39912D01*
X65338Y-46788D01*
X64339Y-46788D01*
X64339Y-39919D01*
X64275Y-39757D01*
X64267Y-39744D01*
X64197Y-39714D01*
X64183Y-39728D01*
X64183Y-39700D01*
X64153Y-39631D01*
X63993Y-39561D01*
X63818Y-39558D01*
X63655Y-39622D01*
X63642Y-39631D01*
X63613Y-39700D01*
X63898Y-39985D01*
X64183Y-39700D01*
X64183Y-39728D01*
X63912Y-40000D01*
X64197Y-40285D01*
X64267Y-40255D01*
X64336Y-40094D01*
X64339Y-39919D01*
X64339Y-46788D01*
X64183Y-46788D01*
X64183Y-40299D01*
X63898Y-40014D01*
X63884Y-40028D01*
X63884Y-40000D01*
X63598Y-39714D01*
X63529Y-39744D01*
X63459Y-39905D01*
X63457Y-40080D01*
X63521Y-40242D01*
X63529Y-40255D01*
X63598Y-40285D01*
X63884Y-40000D01*
X63884Y-40028D01*
X63613Y-40299D01*
X63642Y-40368D01*
X63803Y-40438D01*
X63978Y-40441D01*
X64141Y-40377D01*
X64153Y-40368D01*
X64183Y-40299D01*
X64183Y-46788D01*
X63347Y-46788D01*
X63347Y-39485D01*
X71467Y-39485D01*
X71467Y-46788D01*
M02*
