M48
;DRILL file {Pcbnew (2013-mar-13)-testing} date Sun 09 Jun 2013 10:01:11 PM EDT
;FORMAT={-:-/ absolute / inch / decimal}
FMAT,2
INCH,TZ
T1C0.025
T2C0.040
%
G90
G05
M72
T1
X5.6988Y-4.3701
X5.7677Y-4.2224
X5.8661Y-4.2421
X6.0827Y-4.3701
X6.4961Y-4.311
X6.8996Y-4.4193
T2
X5.53Y-4.
X5.53Y-4.81
X5.53Y-4.91
X5.53Y-5.01
X5.53Y-5.11
X5.53Y-5.21
X5.53Y-5.31
X5.53Y-5.41
X5.53Y-5.51
X5.63Y-4.
X5.73Y-4.
X5.83Y-4.
X5.93Y-4.
X5.93Y-4.81
X5.93Y-4.91
X5.93Y-5.01
X5.93Y-5.11
X5.93Y-5.21
X5.93Y-5.31
X5.93Y-5.41
X5.93Y-5.51
X6.03Y-4.
X6.13Y-4.
X6.23Y-4.
X6.3898Y-4.
X6.4898Y-4.
X6.5898Y-4.
X6.6898Y-4.
X6.7197Y-4.8157
X6.7197Y-4.9157
X6.7197Y-5.0157
X6.7197Y-5.1157
X6.7197Y-5.2157
X6.7197Y-5.3157
X6.7197Y-5.4157
X6.7197Y-5.5157
X6.7898Y-4.
X6.8898Y-4.
X6.9898Y-4.
X7.0898Y-4.
X7.1197Y-4.8157
X7.1197Y-4.9157
X7.1197Y-5.0157
X7.1197Y-5.1157
X7.1197Y-5.2157
X7.1197Y-5.3157
X7.1197Y-5.4157
X7.1197Y-5.5157
T0
M30
